<?xml version="1.0" encoding="UTF-8" standalone="no"?>
<!DOCTYPE svg  PUBLIC '-//W3C//DTD SVG 1.1//EN'  'http://www.w3.org/Graphics/SVG/1.1/DTD/svg11.dtd'>
<svg xmlns="http://www.w3.org/2000/svg">
<defs>
<font id="BirchCTT-Regular" horiz-adv-x="664">
<font-face underline-position="-123" font-weight="400" descent="-200" panose-1="0 0 0 0 0 0 0 0 0 0" units-per-em="1000" unicode-range="U+0020-2122" bbox="-180 -492 1044 992" x-height="285" underline-thickness="20" font-family="BirchCTT" ascent="800" cap-height="704"/>
<missing-glyph d="M700 50v700h-600v-700h600zM50 0v800h700v-800h-700z" horiz-adv-x="800"/>
<glyph glyph-name=".notdef" d="M700 50v700h-600v-700h600zM50 0v800h700v-800h-700z" horiz-adv-x="800"/>
<glyph glyph-name=".null" horiz-adv-x="0"/>
<glyph glyph-name="nonmarkingreturn" horiz-adv-x="495"/>
<glyph glyph-name="space" horiz-adv-x="495" unicode=" "/>
<glyph glyph-name="exclam" horiz-adv-x="308" unicode="!" d="M191 59q1 -7 1 -12q0 -15 -7 -21q-10 -8 -31 -8q-12 0 -22 8t-10 21q0 21 10 33t25 12q17 0 25 -8t9 -25zM229 604q0 -122 -20 -235q-23 -128 -55 -128q-10 0 -10 21q0 16 2 31t3 24l3 153t2 134q0 121 5 172q9 94 37 94q22 0 29 -23q4 -13 4 -49v-194z"/>
<glyph glyph-name="quotedbl" horiz-adv-x="453" unicode='&quot;' d="M220 826q0 -26 -8 -87t-17 -104q-3 -13 -6 -23t-6 -10q-23 0 -27 46t-4 86q0 9 -1 34t-1 31q0 47 7 79t26 31q13 0 25 -27t12 -56zM348 831q0 -27 -8 -87t-18 -105q-7 -33 -12 -33q-24 0 -28 46t-3 86q0 9 -1 34t-1 31q0 47 7 79t26 31q14 0 26 -28t12 -54z"/>
<glyph glyph-name="numbersign" horiz-adv-x="977" unicode="#" d="M579 537q-51 1 -91 -1t-70 -8l-37 -174q9 2 81 10t97 11q7 63 11 95t9 67zM876 365q0 -14 -119 -33q-39 -6 -73 -8t-66 -5q0 -10 -4 -33q-16 -93 -18 -108q-12 -101 -12 -137q0 -16 -11 -29t-26 -13q-14 0 -19 17t-5 40q0 32 11 130t18 124q-16 0 -94 -11t-95 -11 q-12 -51 -26 -120q-20 -96 -20 -115q0 -9 11 -25t11 -26q-1 -14 -7 -22t-28 -8q-20 0 -32 16q-17 22 -17 68q0 34 12 112t22 113h-133q-16 -1 -28 7t-11 15q1 13 15 23t31 13q42 0 141 11q8 49 15 83q11 57 18 80q-17 0 -43 -3q-68 -8 -77 -8h-18q-22 0 -28 1q-24 4 -24 25 q0 11 7 20t20 9q40 0 90 4t89 11q0 17 10 74q4 22 8 45q3 51 7 103q7 57 32 57q20 1 28 -23t9 -65q1 -37 -5 -83t-12 -95q22 3 62 4t45 1h55l11 81q5 48 17 82t33 34q17 0 21 -7t4 -23v-19q0 -30 -8 -70t-17 -83q29 0 61 -10q16 -6 32 -10t36 -16t18 -21q-3 -10 -17 -10 q-9 0 -29 4l-30 6t-39 4q-29 4 -39 4q-6 -15 -12 -63t-11 -92q17 0 67 3q132 8 150 8q24 0 30 -5t6 -22z"/>
<glyph glyph-name="dollar" horiz-adv-x="581" unicode="$" d="M477 200q0 36 -13 62t-42 46q-21 15 -50 24t-66 15v-50v-104t1 -112q76 7 119 33q51 31 51 86zM249 408v23v19v16v14v11q-1 13 -1 29t-3 32v32q-51 -13 -82 -30q-41 -23 -41 -49q0 -33 45 -65t82 -32zM536 201q0 -72 -69 -119q-63 -43 -159 -52q0 -64 -1 -77 q-4 -55 -24 -64q-4 -2 -12 -2q-13 0 -17 13t-4 35q1 22 1 32l-1 62q-77 0 -126 5q-81 8 -81 27q1 13 9 21t22 7q3 0 92 -6q45 -3 84 -3v275q-82 11 -137 52q-61 45 -61 106q0 47 61 84q53 33 131 47l2 77q0 47 2 79t13 38q2 1 5 1q7 0 16 -6q26 -17 26 -41q0 -36 -2 -88 t-1 -53q53 0 108 -20q73 -27 73 -72q0 -4 1 -8q-1 -5 -10 -5q-12 0 -65 26t-106 25v-198q44 -7 84 -18t72 -31q38 -25 56 -62t18 -87z"/>
<glyph glyph-name="percent" horiz-adv-x="671" unicode="%" d="M579 158q1 14 -9 26t-23 12q-19 0 -40 -37t-21 -72q0 -7 4 -15t8 -8q27 0 54 35t27 59zM253 572q1 25 -11 41t-33 16q-19 0 -33 -7q-45 -22 -45 -101q-1 -17 9 -29t25 -12q46 0 67 24t21 68zM515 739q0 -50 -21 -118q-3 -11 -28 -80q-21 -60 -64 -157q-33 -74 -66 -147 q-91 -204 -91 -226q0 -12 11 -12q8 0 30 16t26 16q4 1 10 -3t6 -10q0 -13 -43 -51q-47 -42 -72 -42q-17 0 -23 10t-6 31q0 31 24 104t62 153l76 160q44 95 65 163q19 56 33 107t14 73q0 10 -9 15t-22 5q-15 0 -74 -32q-41 -23 -82 -45q20 -13 30 -28q18 -27 18 -71 q0 -58 -59 -108q-54 -46 -99 -46q-42 0 -65 22q-29 28 -29 92q0 38 21 79t47 53q13 7 27 10t23 3q6 0 11 -1l10 -2q34 17 90 50q87 50 96 55q15 9 33 13t35 4q20 0 38 -16t17 -39zM631 176q0 -36 -34 -92q-45 -73 -107 -73q-36 0 -46 28q-5 14 -5 57q1 43 37 98t70 55 q42 0 64 -16t21 -57z"/>
<glyph glyph-name="ampersand" horiz-adv-x="888" unicode="&amp;" d="M463 73q-43 45 -60 64q-27 30 -53 68q-12 -30 -57 -125q-33 -69 -33 -90q-1 -13 -1 -18q0 -12 7 -12q32 0 70 20q43 23 127 93zM449 644q0 103 -12 138q-22 63 -94 63q-61 0 -99 -72q-32 -60 -32 -123q0 -90 25 -159q10 -29 101 -173q48 98 80 183t31 143zM851 356 q3 -4 3 -8q0 -9 -14 -19q-13 -10 -31 -15q-18 -7 -50 -33q-25 -21 -59 -53q-23 -22 -81 -85q-45 -49 -73 -70q71 -77 142 -155q92 -108 92 -162q-5 -8 -7 -12q-8 -12 -16 -12h-2q-15 0 -33 28q-19 30 -36 58q-27 36 -79 94t-106 116q-58 -49 -100 -77q-79 -54 -144 -54 q-35 1 -51 13t-15 44q0 45 49 155q32 71 65 143q-77 109 -87 128q-62 112 -62 220q0 125 41 201q50 93 150 93q95 0 135 -69q33 -57 33 -172q0 -73 -52 -189q-43 -95 -85 -189q31 -45 69 -91q30 -37 61 -74q26 24 66 66t79 85q45 48 95 79q42 26 70 30q24 0 33 -14z"/>
<glyph glyph-name="quotesingle" horiz-adv-x="321" unicode="&apos;" d="M220 826q0 -26 -8 -87t-17 -104q-3 -13 -6 -23t-6 -10q-23 0 -27 46t-4 86q0 9 -1 34t-1 31q0 47 7 79t26 31q13 0 25 -27t12 -56z"/>
<glyph glyph-name="parenleft" horiz-adv-x="345" unicode="(" d="M387 -132q-1 -6 -7 -12t-13 -6q-11 0 -57 41t-77 83q-69 91 -84 123q-51 107 -51 269q0 117 41 249q35 111 87 199q48 81 75 81q16 1 28 -5t12 -18q0 -5 -45 -75q-53 -83 -84 -159q-46 -115 -46 -221q0 -98 13 -171q24 -134 92 -228q38 -53 96 -122q20 -24 20 -28z"/>
<glyph glyph-name="parenright" horiz-adv-x="382" unicode=")" d="M267 418q0 -78 -10 -151q-13 -93 -40 -161q-36 -89 -100 -166q-59 -71 -85 -71q-13 0 -15 6v12q37 41 58 69q63 85 89 165q18 56 24 127t7 166q0 142 -36 256q-40 100 -79 201q0 4 10 13t15 9q15 0 49 -45q45 -59 74 -151q39 -123 39 -279z"/>
<glyph glyph-name="asterisk" horiz-adv-x="647" unicode="*" d="M569 383q-1 -13 -25 -15t-50 -2h-121q10 -12 35 -32t36 -27q21 -11 27 -17q12 -11 12 -24q0 -18 -7 -22t-24 -4q-12 0 -40 21q-36 29 -71 58l-29 -118q-3 -14 -19 -19q-4 -1 -7 -1q-6 1 -11 5q-7 8 -7 20q0 18 4 46t12 67q-22 -14 -41 -29q-35 -26 -46 -34 q-28 -21 -41 -29t-18 -8q-8 0 -14 7t-6 15t54 54q49 42 71 55q-21 0 -56 -3t-78 -6q-15 0 -27 3t-14 14q-1 4 -1 8q0 9 5 16q7 10 28 10q15 0 27 2q11 2 29 5t49 6t46 3q-28 34 -55 68q-18 28 -35 56q-23 38 -23 47q0 23 20 23q8 0 42 -42q25 -30 39 -45q24 -26 34 -36 q16 -17 26 -32q9 57 16 85t16 56q7 22 25 21q4 0 9 -1q11 -2 15 -8t4 -14t-2 -15t-5 -15q-6 -24 -10 -57t-4 -57q41 32 83 65q66 49 86 49q18 0 19 -11q0 -16 -25 -35q-38 -26 -70 -50q-39 -29 -57 -46l111 -5q35 -4 37 -4q22 -6 22 -22z"/>
<glyph glyph-name="plus" horiz-adv-x="772" unicode="+" d="M655 332q0 -15 -12 -23t-47 -8q-17 0 -46 3t-48 5h-96q-2 -7 -2 -15v-11q0 -16 2 -41t3 -33q2 -22 11 -58t9 -48q-3 -37 -33 -37q-16 0 -32 36t-25 89q-12 81 -12 118l-163 2q-30 0 -42 2q-32 5 -32 30q0 16 11 26q6 5 11 5l73 2q37 0 95 2t59 3q6 23 8 35q6 32 6 69v38 q0 29 1 35q5 26 26 26q32 0 42 -23q6 -14 6 -53q0 -26 -2 -62t-10 -68l169 -3q33 0 51 -10t19 -33z"/>
<glyph glyph-name="comma" horiz-adv-x="304" unicode="," d="M243 10q-17 -59 -64 -129q-42 -63 -83 -99q-19 -20 -30 -32q-22 -23 -35 -23q-17 0 -17 9q0 3 4 9q33 43 66 85q38 54 62 123q13 31 18 46q10 26 10 43q0 20 -12 36q-6 8 -24 14t-18 17q0 18 22 32t46 14q26 0 37 -13q11 -20 19 -35t8 -40q0 -28 -9 -57z"/>
<glyph glyph-name="hyphen" horiz-adv-x="897" unicode="-" d="M727 228q-1 -16 -21 -19t-35 -3h-210q-49 0 -103 -4t-93 -7q-20 0 -26 5t-6 28q-1 16 25 22t61 6h342q34 0 50 -7t16 -21z"/>
<glyph glyph-name="period" horiz-adv-x="286" unicode="." d="M183 62q0 -20 -8 -32q-12 -17 -39 -17q-20 1 -32 21t-12 33q0 15 14 27t35 12q42 -5 42 -44z"/>
<glyph glyph-name="slash" horiz-adv-x="451" unicode="/" d="M462 772q0 -22 -27 -81q-9 -20 -67 -136t-84 -177q-4 -9 -66 -158q-58 -139 -84 -194q-45 -94 -60 -94q-9 0 -9 15q1 29 37 145t78 206q23 50 87 195q42 97 67 145q29 64 46 100q33 67 56 67q16 -1 21 -5t5 -14v-14z"/>
<glyph glyph-name="zero" horiz-adv-x="683" unicode="0" d="M574 428q0 75 -34 139t-85 86q-24 9 -45 13t-45 5q-11 -1 -16 -1q-13 0 -19 21q-90 -37 -148 -116t-76 -187q-1 -7 -1 -25q0 -95 32 -180q43 -113 120 -113q126 0 227 135q90 120 90 223zM634 444q0 -136 -118 -278q-122 -146 -250 -146q-134 0 -185 135q-31 82 -31 216 q0 110 80 240t154 130q26 0 38 -5t21 -19q15 7 22 9t20 2q97 0 173 -87t76 -197z"/>
<glyph glyph-name="one" horiz-adv-x="315" unicode="1" d="M262 681l-56 -268l-38 -197q-32 -181 -38 -206t-10 -47q-7 -20 -25 -20q-17 0 -17 15q1 9 1 16q-1 13 9 84t26 160q10 58 20 114t10 78q-10 18 -16 32q-7 16 -7 28q0 4 1 7l22 153q4 42 22 79t43 37q9 0 17 -5q17 -9 27 -21t10 -29q0 -6 -1 -10z"/>
<glyph glyph-name="two" horiz-adv-x="530" unicode="2" d="M591 53q0 -9 -16 -13t-34 -5q-8 0 -87 -3t-137 -3q-80 1 -141 -3t-106 -6q-18 0 -32 10t-15 16q0 18 14 33q23 20 38 33q21 24 75 88q38 46 95 107q70 76 95 124q21 41 21 90q0 40 -19 77q-25 49 -69 49q-51 0 -95 -51q-10 -12 -18 -32t-10 -32t-1 -23q0 -7 1 -19t1 -15 q0 -16 -12 -16q-23 0 -38 21q-18 25 -18 72q0 35 44 83q62 67 161 67q65 0 104 -60q34 -52 34 -119q0 -64 -20 -106q-27 -56 -113 -146q-33 -35 -72 -79t-60 -72q-10 -15 -10 -22q0 -12 29 -12q46 0 130 -2t93 -3h63q125 0 125 -28z"/>
<glyph glyph-name="three" horiz-adv-x="641" unicode="3" d="M611 231q0 -97 -55 -153q-59 -60 -173 -60q-23 0 -61 7q-11 2 -146 32q-46 9 -91 18q-38 9 -38 24q1 17 13 23t32 6h11q32 0 132 -24t147 -25q81 0 125 33t44 99q0 69 -55 103t-162 34q-28 0 -72 -16t-52 -17q-16 1 -22 11t-6 28q0 11 74 41q48 19 69 30q59 47 86 86 q24 34 24 59q1 18 -15 26t-43 9q-30 0 -81 -14t-62 -21q-4 -3 -4 -8q0 -4 8 -15t8 -18q0 -16 -16 -16q-5 0 -10 1q-5 0 -17 2q-13 2 -21 16t-8 35q0 25 76 60t146 35q44 0 74 -18t31 -55q0 -34 -18 -69q-30 -57 -108 -115q80 0 142 -30q94 -46 94 -144z"/>
<glyph glyph-name="four" horiz-adv-x="636" unicode="4" d="M597 315q0 -25 -40 -25q-19 0 -35 4t-56 16q-6 -24 -12 -65t-12 -80q-14 -97 -20 -138t-13 -68q-1 -8 -11 -12q-5 -2 -10 -2q-4 0 -8 1q-15 5 -15 29l31 344q-15 5 -30 6t-38 1h-31q-28 0 -131 -18t-122 -18q-50 0 -50 32q0 16 50 68q54 55 128 114q132 101 174 127 q34 21 56 21q16 0 25 -4t9 -15t-22 -23q-31 -18 -33 -19q-41 -32 -77 -61q-49 -41 -78 -65q-4 -3 -89 -70q-27 -21 -42 -34q35 8 99 17t94 9q6 1 14 1h11q20 0 52 -2t40 -3q5 18 17 87l18 102q4 31 12 66q12 48 19 52t13 4q12 0 24 -14t12 -32q0 -20 -18 -138t-18 -138 q28 -5 42 -9t36 -14q13 -4 24 -13t11 -21z"/>
<glyph glyph-name="five" horiz-adv-x="642" unicode="5" d="M593 299q0 -58 -63 -122q-55 -56 -144 -102q-82 -43 -170 -61q-67 -14 -144 -14q-27 0 -53 10t-26 22t11 18t43 7h11q115 0 175 14q43 10 127 49q70 33 112 82t42 104q0 46 -52 77t-132 31q-34 0 -116 -31t-94 -31q-16 0 -20 15t-4 33q0 29 21 91q17 51 38 96 q14 29 23 41q20 27 45 30q58 7 122 15q81 11 111 15t43 5q43 0 43 -32q0 -21 -77 -35q-29 -5 -92 -14t-109 -19q-23 -5 -36 -8q-4 -9 -30 -65q-20 -42 -26 -73q23 9 69 19t80 10q112 0 185 -40q87 -48 87 -137z"/>
<glyph glyph-name="six" horiz-adv-x="561" unicode="6" d="M436 257q0 19 -14 31t-35 11q-31 1 -67 -9t-67 -28l-112 -68q1 -60 21 -82t68 -22q70 0 138 60t68 107zM501 273q0 -67 -78 -152q-89 -98 -193 -98q-68 0 -104 31q-39 34 -54 139q3 29 5 48q6 55 15 100q30 133 97 248q75 129 141 129q35 0 51 -16t16 -41q-1 -7 -1 -10 q-3 -28 -10 -37t-21 -9q-13 0 -23 20l-14 28q-93 -47 -159 -253q-6 -20 -16 -66t-14 -81q15 5 47 25q53 32 56 34q28 16 68 31q50 18 79 18q41 0 77 -26t35 -62z"/>
<glyph glyph-name="seven" horiz-adv-x="567" unicode="7" d="M538 369q0 -20 -66 -29l-102 -10q-28 -55 -46 -95t-27 -64q-17 -55 -41 -107t-34 -52q-8 0 -16 6t-8 14q0 22 39 139q34 101 58 159l-126 -18q-20 -6 -41 -16t-31 -10q-27 0 -27 21q0 23 29 43q23 16 57 24t83 12q48 6 82 10q19 33 46 107l36 100l-163 -2l-193 -4 q-29 0 -53 10t-24 31q0 10 18 18t44 8h203q55 0 113 2t121 6q13 0 21 -4t8 -20q0 -23 -46 -123q-8 -17 -64 -132h119q11 -1 21 -7t10 -17z"/>
<glyph glyph-name="eight" horiz-adv-x="636" unicode="8" d="M513 242q0 53 -88 79q-69 20 -170 20q-55 1 -113 -53t-58 -110q0 -58 39 -94q36 -33 88 -33q102 0 202 65t100 126zM583 253q1 -97 -115 -179t-248 -81q-84 0 -145 51q-65 54 -65 133q0 51 39 101q31 39 95 88q-32 18 -44 46t-12 63q0 89 72 140q67 47 179 47 q80 0 141 -18q76 -23 76 -63q0 -18 -38 -48t-83 -50q-28 -14 -41 -14q-9 0 -9 8q0 6 26 25q20 15 25 19q22 16 45 32q12 10 11 16q-8 20 -60 29t-104 9q-70 0 -114 -26q-58 -34 -58 -108q0 -32 16 -48q22 -22 81 -22q39 0 83 19q17 7 69 36q41 22 80 48q23 15 29 15 q14 0 14 -16q0 -12 -90 -76q-19 -15 -29 -21q-17 -12 -46 -21q104 0 166 -45q54 -39 54 -89z"/>
<glyph glyph-name="nine" horiz-adv-x="493" unicode="9" d="M359 484q1 6 1 11v11t-1 18q0 46 -19 72q-23 31 -55 31q-89 1 -139 -37t-50 -110q0 -43 12 -62q16 -26 57 -26q25 0 93 31t101 61zM427 490q0 -79 -7 -132q-11 -84 -42 -153q-27 -63 -66 -119t-73 -82q-39 -35 -54 -47q-25 -19 -71 -19q-15 0 -38 11q-28 14 -28 29 q0 19 6 26t16 7t30 -8q13 -5 23 -5q50 0 112 79q57 72 93 165q17 44 27 108q8 54 8 73v6q-28 -30 -91 -61q-71 -35 -118 -35q-78 0 -104 43q-18 30 -18 114q0 102 87 156q70 43 163 43q73 0 112 -65q33 -56 33 -134z"/>
<glyph glyph-name="colon" horiz-adv-x="334" unicode=":" d="M206 55q0 -17 -14 -27t-33 -11q-9 0 -17 3q-25 9 -29 35q-1 19 15 33t35 14q6 0 14 -3q29 -12 29 -44zM208 295q0 -17 -14 -27t-32 -11q-9 -1 -18 3t-16 9q-12 10 -12 28q0 17 15 31t34 14q6 0 14 -3q29 -12 29 -44z"/>
<glyph glyph-name="semicolon" horiz-adv-x="271" unicode=";" d="M162 55q0 -37 -31 -88t-97 -117q-18 -18 -32 -28t-28 -10q-16 0 -16 11q0 2 56 78q38 52 64 98q13 23 22 76q5 31 29 31q21 0 27 -10t6 -41zM197 383q0 -16 -13 -26t-33 -12q-43 0 -51 38q-1 5 -1 10q1 17 9 29q10 16 36 16q28 0 40 -14t13 -41z"/>
<glyph glyph-name="less" horiz-adv-x="496" unicode="&lt;" d="M460 35q0 -22 -13 -22q-17 0 -49 21q-144 95 -255 153q-29 15 -58 31q-48 28 -48 43t52 60q48 41 97 82l108 106q33 29 54 29q18 0 26 -4t7 -13q0 -18 -110 -118q-72 -64 -143 -128q24 -18 85 -56q31 -20 62 -39q62 -39 125 -78q60 -42 60 -67z"/>
<glyph glyph-name="equal" horiz-adv-x="911" unicode="=" d="M845 215q0 -23 -39 -32q-27 -6 -90 -6h-40t-39 1q-137 0 -247 -2t-190 -6q-80 -2 -128 -3q-14 6 -28 13q-11 7 -11 20q0 12 64 22t155 11h475h24t28 1q31 0 49 -4t17 -15zM838 396q0 -13 -64 -13h-299q-91 0 -227 -10t-159 -10q-21 0 -35 4t-14 16q0 37 112 47 q78 5 111 8q72 6 158 8t156 3h30q59 0 145 -16t86 -37z"/>
<glyph glyph-name="greater" horiz-adv-x="498" unicode="&gt;" d="M420 220q0 -22 -12 -32t-45 -10q-132 -86 -202 -131t-85 -45q-9 0 -15 5t-6 15q0 16 155 128q87 63 109 83q-83 76 -85 78q-52 49 -80 85t-55 73q-44 65 -44 99q0 11 10 17t24 6q16 0 52 -49q107 -146 110 -149l84 -76q85 -77 85 -97z"/>
<glyph glyph-name="question" horiz-adv-x="543" unicode="?" d="M294 74q1 -4 1 -9q-1 -14 -11 -27q-14 -17 -33 -17q-28 0 -39 26q-2 8 -2 12q0 18 14 31t31 13q15 0 25 -8t14 -21zM531 689q0 -41 -72 -107q-53 -46 -79 -69q-33 -29 -67 -72t-34 -63q0 -36 -1 -41q-4 -20 -23 -20q-15 0 -23 24t-8 46q0 35 34 83q30 42 79 87t100 92 q23 23 23 32q0 13 -36 26q-48 17 -123 17q-37 0 -68 -4q-59 -8 -59 -25q0 -15 -4 -25t-18 -9q-22 1 -34 13t-12 32q0 26 44 45q59 26 169 26q75 0 131 -16q81 -23 81 -72z"/>
<glyph glyph-name="A" horiz-adv-x="582" unicode="A" d="M410 318q-37 81 -50 108q-36 76 -72 153q-28 -68 -55 -135q-11 -24 -27 -68t-34 -88q31 4 123 16t115 14zM613 4q0 -23 -12 -23q-14 0 -33 26q-24 32 -63 105t-77 158q-34 -5 -121 -22q-54 -11 -119 -24q-8 -2 -10 -2q-10 0 -31 20l-50 -113q-11 -20 -23 -51t-12 -45 q0 -11 -10 -19t-21 -7q-12 0 -21 13t-9 27q0 21 38 111t75 178q13 31 72 170q40 93 48 119q6 34 12 66t22 32t31 -13q21 -18 31 -50q26 -48 62 -142t74 -189h51q15 0 25 -5t10 -16q0 -6 -5 -9q-16 -5 -22 -6l-38 -9q4 -10 46 -100q80 -171 80 -180z"/>
<glyph glyph-name="B" horiz-adv-x="667" unicode="B" d="M405 493q0 38 -37 88q-30 40 -78 69q-24 14 -69 26q-15 4 -41 9q0 -67 -8 -147t-18 -157q33 5 66 11q48 8 88 22t63 28q34 22 34 51zM637 205q0 -93 -166 -151q-125 -44 -220 -44h-23t-23 -1q-27 0 -39 4t-12 17q0 11 8 18t21 7l68 1q71 0 188 44q136 51 136 105 q0 64 -84 108q-77 40 -170 40q-66 -12 -92 -16q-46 -8 -75 -8q-5 -30 -7 -73t-2 -91q-1 -13 5 -43q4 -22 5 -32q0 -4 -1 -6q-2 -8 -4 -12t-9 -5q-29 0 -43 46q-17 55 -17 188q-25 0 -41 6t-16 22q0 19 18 27q7 3 39 10q0 7 10 175q6 101 6 159q0 52 83 52q26 0 55 -10 q12 -4 84 -41t113 -97q38 -56 38 -111q0 -44 -30 -68q-20 -16 -81 -36q83 0 162 -35q116 -51 116 -149z"/>
<glyph glyph-name="C" horiz-adv-x="472" unicode="C" d="M480 165q-4 -33 -91 -83q-102 -58 -204 -58q-93 0 -138 101q-32 72 -32 159q0 53 25 137q32 109 84 177q67 88 153 88q28 0 52 -11q36 -16 36 -50q0 -42 -20 -42q-24 0 -24 37q1 10 -13 14t-33 3q-63 0 -127 -118t-64 -231q0 -108 28 -155t89 -47q90 0 154 36 q52 40 105 80q20 0 20 -19v-18z"/>
<glyph glyph-name="D" horiz-adv-x="622" unicode="D" d="M548 273q0 63 -115 154q-123 97 -255 122q-10 -29 -18 -94t-8 -126q0 -76 6 -138t18 -100q74 14 126 28q101 26 160 57q86 46 86 97zM617 263q0 -23 -28 -56q-34 -39 -92 -73q-38 -23 -101 -43q-47 -15 -132 -36q-50 -11 -101 -21t-77 -10h-15q-11 0 -21 2t-10 11 q0 15 19 23t64 19q-19 55 -31 125t-12 110q0 84 6 150t15 96h-7q-10 0 -28 -2q-25 -2 -52 -4q-13 0 -13 17q0 25 59 43q22 7 49 11q9 22 12 26q10 12 30 12q17 -1 23 -9t6 -37q63 -16 94 -27q74 -26 126 -61q101 -67 151 -122q66 -73 66 -144z"/>
<glyph glyph-name="E" horiz-adv-x="597" unicode="E" d="M694 641q0 -6 -38 -6q-36 0 -84 2t-78 4q-99 0 -212 -24q-90 -19 -141 -42q-1 -7 -3 -35t-2 -38v-85q34 7 214 31t206 25q8 1 16 -1t7 -7q0 -13 -47 -29t-177 -40l-226 -43l-13 -241q20 6 83 10t142 3q69 0 131 -9t63 -24q0 -14 -63 -16t-124 -1q-70 0 -124 -13 q-9 -2 -74 -21q-11 -3 -42 -18q-23 -11 -36 -11q-11 0 -24 12t-13 27q0 11 4 18t14 23q0 28 4 76q11 131 11 174q-12 0 -18 14t-7 29q-1 11 7 19t25 10q1 6 1 17q0 8 -1 28t-1 32q0 35 -4 66t-5 55q0 33 40 33q17 1 27 -1t15 -7q76 18 132 30q112 24 162 24q74 0 144 -9 q109 -14 109 -41z"/>
<glyph glyph-name="F" horiz-adv-x="519" unicode="F" d="M603 647q0 -15 -2 -19t-15 -4q-54 6 -100 12t-68 6q-18 0 -86 -11t-135 -25q-9 -28 -17 -116t-8 -126q51 13 123 26q98 18 149 18q25 0 35 -4t9 -21q0 -16 -17 -21q-7 -2 -57 -8t-126 -20t-116 -26q-1 -8 -2 -42t-1 -39v-92q0 -75 -7 -117t-29 -41q-15 1 -23 13t-7 33 q-1 19 1 41t2 26v109t1 94q-13 -5 -25 -9t-23 -3q-26 0 -26 13q0 15 27 30q15 8 47 19q0 20 1 70t1 79l3 97q-25 3 -30 5q-20 7 -20 24q0 12 19 22t33 12q0 20 10 34t22 13q23 -1 34 -9t15 -24q25 8 95 16t108 8q56 0 130 -14t75 -29z"/>
<glyph glyph-name="G" horiz-adv-x="736" unicode="G" d="M729 360q0 -12 -23 -20t-48 -7q-5 -20 -7 -48t-2 -61v-80q1 -109 -11 -146t-34 -37q-13 0 -27 9q-19 12 -19 33q0 12 8 38t8 45v15v11v32t-1 33q-130 -63 -240 -103t-158 -41q-93 0 -133 67q-32 53 -32 148q0 124 63 222q58 90 176 166q66 43 100 57q49 21 105 21 q31 0 62 -22t31 -39q0 -19 -17 -17q-8 0 -18 7t-14 10q-9 8 -25 9t-27 1h-11q-12 0 -52 -18q-49 -22 -99 -53q-95 -60 -143 -128q-66 -92 -66 -216q0 -86 34 -124q26 -29 66 -29q56 0 164 42q127 49 240 114q3 23 4 41t1 41q-79 0 -202 -14q-30 -3 -70 -9t-51 -6t-21 6t-9 9 q1 23 105 45t202 22q14 0 47 1t50 1q44 0 69 -6t25 -22z"/>
<glyph glyph-name="H" horiz-adv-x="694" unicode="H" d="M678 660q-29 -98 -51 -188t-22 -157q0 -40 4 -100q9 -135 9 -138v-21q0 -18 -4 -24t-20 -6q-20 0 -29 36q-3 13 -11 83q-4 43 -6 73t-2 66q-42 -12 -122 -24t-150 -11q-52 0 -86 2t-47 9q0 -10 -10 -90t-10 -107q-1 -15 -9 -27t-22 -11q-10 -1 -15 21t-5 55q0 35 4 97 t5 68q-15 0 -27 2t-19 3q-14 0 -24 10t-10 23q0 14 19 22q26 11 72 11q12 43 24 114q17 101 17 179q0 12 10 30t20 18q20 0 26 -14t6 -43v-30q0 -38 -18 -143q-12 -72 -23 -122q52 -10 70 -12t60 -2h49q87 0 133 2t81 9q20 157 30 207q32 162 71 162q12 0 22 -9t10 -23z"/>
<glyph glyph-name="I" horiz-adv-x="297" unicode="I" d="M224 678q0 -16 -15 -107q-6 -36 -18 -105q-2 -11 -26 -145q-13 -72 -13 -90q0 -41 -2 -91t-3 -92q0 -39 -13 -39q-18 0 -34 76t-17 146q0 20 19 123q10 56 21 112q6 32 19 112q6 38 10 64q9 62 50 62q8 0 15 -8t7 -18z"/>
<glyph glyph-name="J" horiz-adv-x="542" unicode="J" d="M596 658q0 -20 -14 -24t-55 -5l-80 -2q4 -36 7 -135t3 -177q0 -120 -66 -205q-74 -95 -197 -95q-34 0 -61 34q-23 29 -23 51q0 28 23 28q8 0 26 -29t45 -29q87 0 142 78q51 72 51 173q-1 64 -7 145t-12 163l-198 -2q-13 -1 -26 -1h-27q-45 0 -58 6t-13 19q0 23 22 33 t53 9q31 0 155 -6q62 -3 146 -3q106 0 135 -5t29 -21z"/>
<glyph glyph-name="K" horiz-adv-x="620" unicode="K" d="M685 -61q0 -10 -2 -10q-3 0 -11 1t-17 1q-69 0 -177 56t-185 127q-66 63 -116 121q-39 46 -58 77q0 -36 -6 -102t-12 -140q-1 -40 -7 -55t-24 -15q-14 1 -18 15t-5 44v27t1 31q6 135 12 257t6 172q0 58 -5 93t-11 74q0 17 14 31t32 14q15 0 29 -16q20 -22 20 -58 q0 -34 -8 -169q-3 -42 -5 -84q39 4 81 14q58 13 103 31q57 24 95 62q65 66 66 66q10 0 18 -6t8 -12q0 -34 -59 -93q-44 -44 -105 -68q-25 -11 -79 -23t-91 -18q15 -21 48 -65q84 -113 134 -161q44 -42 86 -76q61 -49 111 -75q39 -20 102 -45q35 -14 35 -23z"/>
<glyph glyph-name="L" horiz-adv-x="535" unicode="L" d="M546 55q0 -16 -105 -19t-291 -3q-14 -1 -34 -13t-39 -12q-23 0 -27 30t-4 57q0 26 5 148q2 49 2 83q0 46 4 113q11 185 11 214v21q0 25 6 42t24 17q12 1 28 -15t17 -38q1 -28 -15 -170t-16 -180q0 -75 -2 -125t-4 -115q26 0 114 -4t174 -6q88 -3 103 -3q22 0 27 -1 q22 -5 22 -21z"/>
<glyph glyph-name="M" horiz-adv-x="716" unicode="M" d="M672 524q0 -66 -2 -108t-8 -166t-5 -136q0 -13 1 -28l2 -30q0 -21 -4 -31t-14 -10q-24 0 -32 54t-8 139v42t1 40q0 38 1 84t3 101q-31 -53 -55 -93t-44 -70l-68 -98q-40 -49 -80 -49q-35 0 -78 37q-38 32 -77 88q-18 26 -38 58q-16 26 -35 61q-17 -141 -50 -278 q-27 -113 -48 -113q-20 0 -20 22v12q0 23 36 240q22 141 26 169q4 29 4 73t3 58q0 26 20 26h1q17 0 34 -44q12 -39 25 -77q23 -55 36 -82q17 -35 47 -81q26 -39 58 -72q39 -40 61 -40q15 0 49 44q13 17 59 86q31 46 71 118q27 48 41 73q19 32 26 42q16 23 26 23q23 0 31 -10 t7 -29q0 -11 -1 -23t-2 -22z"/>
<glyph glyph-name="N" horiz-adv-x="630" unicode="N" d="M660 600q-28 -58 -56 -115q-34 -70 -46 -126t-12 -108q0 -43 6 -81t10 -65t4 -48q0 -40 -29 -40q-27 0 -107 62t-143 134q-50 59 -89 125q-34 58 -53 109q0 -73 -3 -116t-15 -103t-24 -116q-15 -61 -35 -61q-17 0 -17 15q-1 2 -1 8v8q0 20 4 68t10 92q10 108 14 168 t14 133q4 24 12 42t19 18q19 0 28 -12q5 -5 11 -25t11 -34t16 -39q38 -87 53 -113q37 -65 96 -129q39 -43 82 -82t71 -55q-3 30 -4 46q-5 54 -5 78q0 47 4 79t12 64q25 93 78 171q44 64 60 64q12 0 18 -2t6 -14z"/>
<glyph glyph-name="O" horiz-adv-x="606" unicode="O" d="M595 350q1 -126 -103 -226t-239 -101q-109 0 -166 91q-52 83 -52 223q0 89 66 193t129 103q36 0 50 -14t15 -41q1 -32 -11 -52t-28 -19q-6 0 -6 7q0 4 3 15t3 16q0 9 -9 18t-26 9q-32 0 -73 -73q-46 -81 -46 -165q0 -124 48 -193q44 -63 123 -63q109 0 189 84t80 192 q0 63 -28 119q-24 49 -141 108q-51 26 -51 39q0 8 5 16t15 9q30 0 97 -37q81 -45 114 -101q23 -37 33 -75t9 -82z"/>
<glyph glyph-name="P" horiz-adv-x="464" unicode="P" d="M372 446q0 66 -80 136t-153 69q-9 -1 -17 -11t-8 -22l3 -132l4 -126q31 0 69 2t94 11q55 8 76 32q12 14 12 41zM440 432q0 -43 -38 -68t-125 -39q-33 -5 -81 -7t-77 -3q0 -21 -3 -79q-8 -154 -8 -166q0 -35 -9 -56t-24 -21q-13 -1 -17 11t-3 46v18l2 266q0 94 -1 168 t-2 140q0 30 15 48t31 20t27 2q98 0 202 -87q111 -93 111 -193z"/>
<glyph glyph-name="Q" horiz-adv-x="708" unicode="Q" d="M689 432q1 -111 -45 -199t-136 -156q7 -22 22 -66t33 -88q13 -33 31 -63q37 -61 37 -62q0 -14 -11 -14q-21 0 -48 32t-53 85q-16 31 -41 87q-14 30 -27 60q-21 -11 -71 -23t-92 -12q-111 0 -191 98q-76 93 -76 206q0 122 89 260q103 160 233 160q53 0 85 -44t31 -102v-11 q1 -32 -1 -48t-9 -40q-5 -22 -23 -22q-17 0 -27 98t-63 98q-69 0 -152 -100q-95 -114 -95 -249q0 -84 54 -158q63 -86 155 -86q40 0 68 8t61 25q-29 75 -46 123t-17 58q0 15 7 30t21 15q12 0 30 -38q14 -29 24 -60q10 -32 22 -56l23 -46q42 23 87 92q58 89 58 182 q0 80 -49 157q-13 22 -40 46q-52 47 -52 53q-1 10 -1 14q0 10 6 15t17 8q3 1 6 1q32 0 92 -78q74 -95 74 -190z"/>
<glyph glyph-name="R" horiz-adv-x="550" unicode="R" d="M388 465q0 65 -80 135t-153 71q-8 0 -14 -6q-10 -10 -10 -27l2 -132l5 -126q31 0 69 2q37 2 93 11q56 8 76 31q12 14 12 41zM540 12q0 -2 -2 -5q-7 -7 -15 -7q-22 0 -95 56q-67 52 -134 105q-11 8 -70 52q-69 51 -92 71q0 -42 -3 -106t-5 -88q0 -35 -9 -56t-24 -21 q-19 0 -19 57v18l2 266q0 65 -2 143t-2 165q0 30 16 48t32 20t27 1q98 0 202 -87q110 -92 110 -192q0 -42 -38 -68t-125 -40q-26 -4 -52 -5t-58 -1q9 -11 38 -38q17 -16 92 -87q27 -25 144 -122q82 -68 82 -79z"/>
<glyph glyph-name="S" horiz-adv-x="581" unicode="S" d="M536 201q0 -80 -83 -128q-75 -44 -182 -44q-72 0 -125 4q-103 8 -103 28q1 13 9 21t22 7q2 0 102 -6q50 -3 95 -3q87 0 141 26q65 32 65 94q0 36 -13 62t-42 46q-36 25 -115 38q-55 9 -83 13q-71 12 -120 54q-52 45 -52 100q0 59 93 101q82 37 174 37q47 0 100 -22 q67 -28 67 -70q0 -4 1 -8q-1 -5 -10 -5q-7 0 -48 26t-110 26q-39 0 -106 -22q-91 -30 -91 -71q0 -35 34 -61t88 -35q52 -9 109 -17q65 -14 109 -42q38 -25 56 -62t18 -87z"/>
<glyph glyph-name="T" horiz-adv-x="426" unicode="T" d="M260 524q0 -28 -2 -111t-2 -137q0 -88 -16 -180t-38 -92q-14 0 -17 6t-5 23q8 93 14 181t6 137q0 46 -2 118t-2 96q-1 14 10 25t18 11q26 0 33 -27q3 -12 3 -50zM519 673q0 -24 -27 -24q-28 5 -56 7t-64 2q-39 0 -128 -19t-154 -45q-55 -22 -77 -38q-16 -11 -20 -24 q-7 -22 -8 -24q-7 -13 -20 -13q-38 0 -38 65q0 40 117 82q78 30 172 49t159 19h79q61 -4 65 -37z"/>
<glyph glyph-name="U" horiz-adv-x="582" unicode="U" d="M548 640q0 -92 -12 -204t-28 -157q2 -15 5 -61t6 -72t7 -52t4 -32q0 -16 -8 -22t-21 -7q-19 1 -27 11t-14 42q-9 56 -9 120q-80 -92 -105 -112q-73 -59 -163 -59q-80 0 -123 107q-36 89 -36 209q0 53 15 135t31 133t23 60q10 15 26 15q11 0 19 -11t7 -22 q-22 -80 -33 -124q-33 -134 -33 -183q0 -84 25 -160q32 -99 87 -99q52 0 100 31q58 37 114 118q23 32 52 176t29 204q0 26 12 39q8 9 18 9q18 0 25 -8t7 -24z"/>
<glyph glyph-name="V" horiz-adv-x="514" unicode="V" d="M587 713q0 -3 -19 -36q-13 -22 -20 -37l-72 -134q-47 -90 -73 -154q-37 -89 -58 -149q-25 -73 -33 -120t-14 -56q-12 -23 -45 -23q-12 0 -25 19q-15 26 -23 39q-46 71 -70 114q-29 51 -62 121q-37 75 -75 173t-38 109q0 19 4 27t23 8q18 0 33 -25q10 -17 20 -46 q33 -99 94 -220q33 -65 68 -126t49 -78q7 32 31 98t55 131q53 114 133 242t100 129q17 0 17 -6z"/>
<glyph glyph-name="W" horiz-adv-x="748" unicode="W" d="M816 662q0 -1 -17 -17q-11 -10 -25 -27q-26 -30 -52 -73q-22 -37 -53 -98q-38 -78 -61 -175q-12 -53 -29 -164q-6 -38 -20 -68q-17 -36 -33 -36q-18 0 -64 87q-25 48 -82 167q-45 95 -57 103q-16 -35 -30 -66q-33 -72 -42 -93q-43 -98 -65 -128t-39 -30q-29 0 -70 131 q-11 36 -37 129q-42 150 -42 261q0 31 6 41t26 10q10 0 16 -15t5 -33q-1 -5 -1 -11q0 -29 12 -89q14 -74 35 -151q18 -64 30 -101q17 -53 29 -69q17 23 27 45t15 35q24 52 44 98q25 59 40 99q6 18 18 32t23 15q20 0 64 -75q36 -61 77 -149q12 -26 51 -113l38 152 q33 119 71 191t100 137q55 59 77 59q5 -1 10 -1t5 -10z"/>
<glyph glyph-name="X" horiz-adv-x="623" unicode="X" d="M636 616q0 -21 -12 -30q-24 -12 -48 -23q-51 -47 -135 -129q-42 -41 -96 -95l132 -152q41 -46 64 -76q31 -41 31 -54q0 -22 -27 -22q-8 1 -43 37t-71 74q-5 6 -73 82q-47 53 -60 66q-8 -7 -80 -78q-86 -84 -124 -119q-68 -62 -79 -62q-12 0 -14 11q1 6 103 124t152 169 q-18 27 -58 71t-85 88q-17 17 -60 54q-31 26 -31 36q0 28 36 28q18 0 88 -67q82 -84 164 -167q85 87 170 175q80 74 109 74q19 0 33 -3t14 -12z"/>
<glyph glyph-name="Y" horiz-adv-x="467" unicode="Y" d="M487 656q-29 -30 -57 -60t-42 -61q-25 -57 -39 -152q-6 -39 -12 -50q-15 -23 -21 -27t-25 -8q-5 -32 -9 -110t-4 -122q0 -35 -6 -47t-20 -12q-29 0 -29 35l1 273l-137 161q-10 12 -64 73q-67 76 -67 91q0 13 6 21t22 8q12 0 56 -49q13 -14 91 -107q57 -67 95 -106 q35 -36 50 -46q0 2 28 95q16 55 26 74q27 54 79 101q44 40 61 40t17 -15z"/>
<glyph glyph-name="Z" horiz-adv-x="662" unicode="Z" d="M667 98q0 -10 -11 -17t-25 -7q-10 0 -127 -10t-249 -18q-132 -10 -170 -10q-14 0 -24 14t-10 29q0 11 5 17l122 146q94 113 189 227q99 118 113 134q-54 7 -104 11t-101 4q-39 0 -66 -2q-93 -7 -97 -7h-28q-22 2 -22 20q0 23 28 31t77 7q63 0 181 -6t159 -14t41 -31 q0 -13 -100 -141q-42 -53 -188 -237q-105 -131 -108 -142q111 4 227 8t178 4h73t37 -10z"/>
<glyph glyph-name="bracketleft" horiz-adv-x="579" unicode="[" d="M471 -35q0 -20 -4 -27q-7 -13 -30 -13q-26 0 -55 -1t-57 -2q-29 0 -50 3q-31 7 -39 13t-8 27v22t1 26q-1 65 -3 186t-2 161q0 58 -3 182t-3 176q0 132 14 148t70 20q55 4 118 5q23 0 23 -31q1 -22 -65 -26q-68 -4 -81 -16q-8 -7 -11 -49t-3 -111q0 -49 2 -175t2 -131 v-168t1 -155q2 -27 7 -37t21 -12t25 -1h18q17 1 33 1h33q25 0 35 -2t11 -13z"/>
<glyph glyph-name="backslash" horiz-adv-x="451" unicode="\" d="M395 -53q0 -15 -9 -15q-14 0 -59 94q-26 55 -84 194q-49 118 -67 158q-26 58 -120 250q-58 119 -58 144v14q0 10 4 14t22 5q22 0 55 -66q23 -51 46 -101q22 -42 86 -189q34 -78 68 -151q42 -90 81 -211q35 -109 35 -140z"/>
<glyph glyph-name="bracketright" horiz-adv-x="579" unicode="]" d="M361 360q-1 -87 -3 -208t-2 -139v-26t1 -23q1 -20 -7 -26t-40 -13q-21 -3 -50 -3q-28 0 -56 1t-55 2q-21 0 -27 10t-8 30q0 11 17 13t29 2h34t35 -1h21q8 1 12 1q21 2 26 7q9 9 9 42l1 323q0 50 2 178t2 129q0 146 -12 158q-12 11 -80 15t-68 27q0 19 4 25t19 7 q61 -1 117 -5t71 -20q8 -8 11 -47t3 -104q0 -51 -3 -174t-3 -181z"/>
<glyph glyph-name="asciicircum" horiz-adv-x="594" unicode="^" d="M538 624q0 -8 -10 -14t-18 -7q-10 0 -40 24q-25 20 -61 56q-21 21 -38 46q-8 12 -24 38l-114 -84q-60 -45 -99 -69q-50 -31 -67 -31q-10 0 -18 8t-8 20q1 13 53 45t104 69q67 49 102 81q22 19 30 27q25 23 31 23q13 0 48 -66q22 -42 46 -65q31 -28 57 -59t26 -42z"/>
<glyph glyph-name="underscore" horiz-adv-x="760" unicode="_" d="M696 -88q0 -22 -23 -31q-16 -6 -46 -6q-71 3 -143 5t-103 3q-46 0 -111 -4t-131 -9q-20 0 -25 2q-14 6 -14 40q0 18 30 24t75 7h452q21 0 30 -5t9 -26z"/>
<glyph glyph-name="grave" horiz-adv-x="422" unicode="`" d="M315 662q0 -13 -9 -13q-20 0 -83 53q-12 10 -60 54q-27 24 -57 44t-66 36q-21 5 -31 8t-10 20v7q0 11 5 21q7 12 20 13q28 0 75 -34q35 -25 102 -86q48 -42 79 -75q35 -37 35 -48z"/>
<glyph glyph-name="a" horiz-adv-x="615" unicode="a" d="M222 288q3 8 3 15q0 27 -23 27q-40 0 -86 -70t-46 -112q0 -22 4 -38t11 -16q25 0 91 114zM664 156q0 -9 -30 -37q-36 -33 -77 -57q-63 -36 -120 -54t-111 -17q-48 1 -73 49t-25 146q-31 -62 -55 -95q-51 -71 -96 -71q-41 0 -55 23t-13 75q0 69 48 157q60 109 143 109 q31 0 45 -6t33 -25q11 3 21 -15t10 -40q0 -27 -3 -83t-3 -71q0 -47 7 -63q12 -28 50 -28q37 0 65 6q49 10 105 42q35 19 88 64q22 18 24 18q25 -4 22 -27z"/>
<glyph glyph-name="b" horiz-adv-x="458" unicode="b" d="M409 272q0 -119 -90 -201q-84 -77 -191 -77q-62 0 -88 24q-11 10 -26 46q0 22 18 22q6 0 33 -22t52 -22q103 0 172 79q61 70 61 154q0 18 -12 32t-32 14q-25 0 -61 -44q-30 -37 -62 -94q-17 -52 -24 -72q-12 -34 -25 -34q-12 -1 -18 39t-13 79q-11 79 -20 185t-9 196 q0 27 4 43t25 16q17 1 21 -9t4 -26q0 -50 9 -186t21 -187q26 60 66 102q47 49 90 49q52 0 75 -31q20 -27 20 -75z"/>
<glyph glyph-name="c" horiz-adv-x="435" unicode="c" d="M488 158q2 -12 -36 -35t-70 -46q-66 -43 -134 -69t-118 -26q-53 0 -87 44t-34 102q0 68 25 139q36 104 105 104q37 0 65 -18t28 -46q0 -21 -16 -21q-13 0 -23 18t-27 18q-43 0 -69 -60q-22 -52 -22 -117q0 -54 23 -80q20 -23 56 -23q28 0 87 20t111 50q18 10 82 50 q26 16 35 16q13 0 16 -4t3 -16z"/>
<glyph glyph-name="d" horiz-adv-x="574" unicode="d" d="M227 227q-7 25 -39 65t-49 40q-21 0 -47 -73t-27 -114q0 -45 3 -62q7 -37 27 -37q27 0 73 66q42 61 59 115zM598 126q-20 -20 -44 -36q-48 -34 -98 -56t-93 -22q-58 0 -89 52q-21 35 -30 97q-32 -79 -54 -111q-43 -62 -100 -62q-44 0 -66 43t-23 114q0 77 46 165t92 88 q35 0 66 -41l28 -38q7 87 10 141q7 95 13 128t13 50q12 30 28 30q18 0 27 -12t9 -49q-11 -84 -21 -170t-11 -136q0 -95 8 -141q16 -94 65 -94q36 0 75 17q30 13 79 45q14 8 40 27t27 19q23 -3 23 -19q1 -8 -20 -29z"/>
<glyph glyph-name="e" horiz-adv-x="485" unicode="e" d="M205 299q-1 19 -23 29t-57 9q-11 0 -27 -13q-16 -12 -17 -24q-2 -12 -4 -46t-2 -41q17 4 48 16q31 13 48 21t25 22t9 27zM535 150q0 -12 -50 -46t-100 -57q-51 -23 -105 -35t-102 -11q-59 0 -103 33q-55 41 -55 116v42t-1 44q0 20 1 40t4 36q7 34 40 58t70 24 q51 0 94 -24q49 -28 49 -71q0 -40 -28 -65q-20 -18 -62 -32q-29 -8 -55 -18t-55 -21q0 -38 24 -68q30 -38 84 -38q47 0 91 10t98 30q40 15 91 43q43 24 44 24q17 0 21 -2t5 -12z"/>
<glyph glyph-name="f" horiz-adv-x="439" unicode="f" d="M471 323q1 -19 -9 -25t-29 -6q-10 0 -15 1q-20 0 -48 6t-38 7q-55 4 -107 4h-14q0 -45 -6 -182q-1 -26 -4 -71q0 -52 -3 -95q-6 -82 -20 -132t-28 -82q-20 -42 -39 -42q-15 0 -15 9q0 7 14 49t20 79t8 83t3 109v14v12q-1 19 -1 37v33q0 99 1 127t2 50h-156q-22 0 -33 2 q-11 3 -11 15q-1 11 9 19t32 11t65 5t77 3h17q0 43 8 133t17 128q18 79 45 129q34 63 75 63q20 0 42 -20t21 -44q1 -23 -7 -41t-23 -18q-6 1 -8 13t-6 15q-11 7 -15 7q-18 0 -36 -34t-26 -78q-8 -42 -12 -110q-5 -68 -5 -128v-11q21 0 71 -2t59 -2q66 0 83 -3q45 -8 45 -37z "/>
<glyph glyph-name="g" horiz-adv-x="445" unicode="g" d="M333 141q0 -106 -13 -170q-17 -83 -66 -165q-70 -117 -117 -160q-41 -37 -79 -37q-57 0 -89 33q-27 27 -27 62q0 7 7 21t18 14q15 0 23 -10t8 -27q0 -15 16 -28t40 -13q47 0 102 83q17 26 51 88t51 150q12 62 12 115q0 45 -5 65q-17 -52 -61 -86t-85 -33q-48 0 -72 19 q-31 24 -31 83q0 50 63 128t106 78q15 1 21 -3t6 -22q0 -10 -19 -26q-11 -10 -41 -31t-52 -59t-21 -62q0 -18 11 -28t26 -10q40 0 82 30q35 25 52 56q5 26 6 39t1 29q-1 19 -1 29q0 27 29 27q16 0 30 -40q18 -51 18 -139z"/>
<glyph glyph-name="h" d="M704 150q-2 -25 -74 -81q-84 -66 -157 -66q-90 0 -151 41q-45 30 -93 119q-21 -40 -52 -76q-40 -46 -67 -46q-38 0 -56 40q-6 14 -22 84q-2 15 -4 85t-2 126q0 51 -2 125t-3 78q0 22 -3 38q-9 49 -9 50q0 12 11 22t22 10q8 0 20 -13q12 -14 16 -28t6 -90t2 -174 q0 -122 6 -200t22 -78q17 0 39 29q17 22 31 56q9 23 14 32q12 21 32 21q17 0 35 -28q10 -18 21 -35l58 -92q44 -48 131 -48q55 0 111 38q50 41 100 83q14 0 16 -2t2 -20z" unicode="h"/>
<glyph glyph-name="i" horiz-adv-x="389" unicode="i" d="M442 154q0 -30 -95 -89q-104 -64 -184 -64q-34 4 -68 9q-31 6 -40 19q-14 19 -20 36q-9 25 -9 65v75t1 81q0 27 -1 33q0 25 6 41t23 16q19 0 27 -13t8 -55q0 -16 -1 -74t-1 -84q0 -55 9 -69q15 -24 72 -24q67 0 134 34q57 38 114 77h15q10 -2 10 -14zM117 596 q0 -16 -3 -20q-7 -9 -31 -9q-19 -1 -40 29t-21 51q0 13 7 23t23 11q24 0 44 -30t21 -55z"/>
<glyph glyph-name="j" horiz-adv-x="451" unicode="j" d="M111 -46q-52 -32 -83 -77q-48 -71 -48 -176q0 -38 21 -87t42 -49q31 0 49 78q14 61 14 124q0 43 2 93t3 94zM499 143q0 -7 -43 -27t-93 -39l-184 -75q1 -8 -3 -66t-4 -83v-66q0 -130 -18 -187q-29 -92 -111 -92q-50 0 -84 54t-34 122q0 134 72 230q39 52 114 104 q3 18 4 96t4 106q-11 -13 -42 -46q-7 -7 -31 -33l-20 -22t-22 -11t-22 6t-8 18q1 9 36 48q110 122 111 124q-1 30 3 76t4 53q-1 11 -1 16q0 28 10 47t34 19q25 1 39 -17t14 -60q0 -33 -6 -58t-30 -70q0 -21 -4 -125t-4 -128q16 9 74 30t92 33t98 37q25 10 29 10q14 -1 20 -5 t6 -19zM198 715q0 -21 -4 -28t-22 -7q-15 0 -45 30q-33 33 -33 51q0 17 12 27t27 10q17 0 41 -32t24 -51z"/>
<glyph glyph-name="k" horiz-adv-x="625" unicode="k" d="M339 328q0 18 -12 31t-34 13q-23 0 -75 -56l-86 -94q38 0 79 10t75 30q26 14 40 32t13 34zM669 145q-2 -24 -75 -80q-84 -65 -154 -65q-74 0 -103 5q-45 8 -95 37q-25 15 -61 37l-82 52q0 -23 1 -35t1 -37q0 -29 -5 -49t-24 -20q-26 0 -36 74t-10 166q0 94 -2 185t-3 164 q0 22 -3 38q-9 49 -9 50q0 12 11 22t22 10q8 0 20 -13t17 -31q2 -10 6 -161t4 -229q72 84 95 105q62 57 113 57q53 1 79 -21t27 -69q0 -40 -23 -72q-19 -26 -54 -47q-30 -17 -60 -29q-44 -17 -78 -17q-19 0 -34 4q22 -16 35 -25q47 -33 85 -57t74 -33q36 -8 94 -8 q46 0 102 36q53 39 107 78q14 0 16 -2t2 -20z"/>
<glyph glyph-name="l" horiz-adv-x="411" unicode="l" d="M473 165q0 -10 -55 -46q-42 -27 -117 -71q-45 -26 -85 -36t-91 -10q-59 0 -84 91q-18 66 -18 170q-1 70 3 139t9 146v15v11v37v12q0 11 10 22t17 11q41 0 41 -124q0 -27 -4 -85q-9 -131 -9 -157q0 -115 7 -160q12 -75 50 -75q33 0 78 14t87 37q31 16 93 53q44 26 53 26 t12 -3t3 -17z"/>
<glyph glyph-name="m" horiz-adv-x="789" unicode="m" d="M834 163q0 -26 -80 -79q-92 -61 -174 -61q-89 0 -143 61q-43 69 -53 83q-18 -34 -39 -56q-29 -30 -56 -30q-17 1 -31 11t-28 31q-8 13 -14 32t-10 38q-5 19 -8 33q-6 14 -18 14t-28 -28t-33 -71q-21 -53 -24 -58q-17 -29 -43 -29q-16 0 -20 16t-4 48v30t1 31q1 35 -3 73 t-6 66q0 18 8 32t24 14q20 0 33 -57q10 -45 10 -85q20 35 40 58q27 30 45 30q24 0 48 -16t34 -46q1 -3 13 -56q8 -38 19 -38q17 0 33 32q8 16 17 48q5 21 11 43q6 15 29 15q24 0 34 -31t19 -46q33 -69 62 -99q39 -41 93 -41q60 0 115 31l100 70q27 0 27 -13z"/>
<glyph glyph-name="n" horiz-adv-x="701" unicode="n" d="M761 165q0 -19 -47 -61q-43 -39 -89 -67q-111 -68 -192 -68q-63 0 -97 34q-28 28 -50 96q-9 31 -17 63q-9 25 -26 25q-11 0 -39 -32q-23 -26 -54 -71q-16 -24 -24 -35q-22 -29 -38 -29q-25 0 -36 34q-4 12 -12 64t-12 107q-6 55 -6 83q0 18 6 27t30 9q14 0 21 -24t7 -58 q0 -31 3 -52t17 -85q21 33 61 82q23 29 49 47t43 18q37 0 57 -37q12 -23 26 -91t25 -88q17 -36 50 -36q35 0 81 14t96 41q34 17 112 85q31 27 38 27q14 1 16 -3t1 -19z"/>
<glyph glyph-name="o" horiz-adv-x="428" unicode="o" d="M416 337q0 -21 -18 -31t-47 -9h-28h-12h-22q-11 3 -15 4q8 -19 14 -47t5 -49q0 -62 -38 -122q-44 -69 -104 -69q-47 0 -81 30t-38 70q-4 41 -4 65q0 37 4 63t15 59q7 23 28 49t33 26q25 0 25 -24q0 -12 -9 -32t-17 -38q-9 -28 -15 -70t-6 -80q0 -24 17 -42t46 -18 q27 0 51 40t24 82q0 50 -4 78t-13 40q-25 8 -36 15q-19 12 -19 27q0 20 7 32t24 12q43 0 54 -12q9 -19 19 -32q16 -2 42 -4t42 -2h22t22 1q32 0 32 -12z"/>
<glyph glyph-name="p" horiz-adv-x="312" unicode="p" d="M216 209q0 23 -5 40q-9 30 -33 48t-90 18l-2 -119l2 -112q29 0 57 12q29 12 43 28t21 38t7 47zM275 211q0 -34 -15 -71t-38 -59q-32 -30 -64 -40t-72 -10q0 -43 -4 -127t-13 -168t-15 -100t-34 -16q-13 0 -13 19v14q0 17 4 47t10 83t8 115t2 139l-2 137l-3 152 q0 28 10 40t42 12q91 0 131 -26q31 -20 50 -69q16 -41 16 -72z"/>
<glyph glyph-name="q" horiz-adv-x="384" unicode="q" d="M254 301q-8 17 -19 25t-24 8q-53 0 -101 -107q-40 -88 -40 -132q0 -19 5 -26t15 -7q14 0 67 54q41 41 74 80q3 18 3 22t6 31q2 11 7 29t7 23zM319 301q0 -15 -6 -35q-17 -57 -18 -61q-9 -55 -13 -111t-3 -119v-37q1 -44 3 -88t4 -77q0 -13 13 -37t13 -37q0 -29 -8 -39 t-37 -10q-23 0 -33 28t-10 69q0 11 -2 82t-2 114v171q-3 -5 -16 -21q-16 -21 -38 -45t-40 -36t-51 -12q-31 0 -51 33t-21 73q0 49 33 114q29 58 72 108q24 26 54 44t54 17q22 1 32 -3t27 -25q21 -16 25 -19q19 -18 19 -41z"/>
<glyph glyph-name="r" horiz-adv-x="380" unicode="r" d="M447 338q0 -15 -32 -15q-57 0 -93 -9q-64 -16 -98 -64q-10 -14 -22 -70t-25 -118q-19 -62 -63 -62q-20 0 -26 11t-12 45t-8 70t-2 71q0 41 -6 65q-8 22 -15 45q-1 13 7 21t20 8q22 0 39 -27t17 -71q0 -25 2 -45t2 -38q12 52 23 83t22 44q38 45 86 65q39 16 87 16 q32 1 64 -7t33 -18z"/>
<glyph glyph-name="s" horiz-adv-x="333" unicode="s" d="M282 358q0 -23 -3 -30t-18 -7q-16 0 -20 3t-12 15q-11 16 -19 23q-14 12 -31 12q-22 0 -31 -19t-9 -51q0 -19 10 -44t40 -70q21 -32 42 -63q21 -36 21 -68q0 -31 -14 -42t-40 -11q-36 0 -66 14t-49 39q-13 17 -25 39t-12 35q0 27 19 27q11 -1 23 -25q6 -13 14 -29t32 -33 t40 -17t16 13t-15 39t-29 48q-7 14 -33 55q-34 54 -34 93q1 52 25 90t72 38q46 0 78 -27q28 -23 28 -47z"/>
<glyph glyph-name="t" horiz-adv-x="459" unicode="t" d="M510 143q0 -10 -40 -37q-27 -18 -100 -60q-45 -26 -85 -36t-91 -10q-46 0 -71 54q-32 68 -32 207l3 55l-160 -4q-20 0 -32 4q-13 4 -12 15q0 13 8 18q10 6 29 10q33 4 79 8t89 4l8 175v14v11v38v11q1 11 11 22t16 11q42 0 42 -123q0 -14 -6 -76t-5 -82q25 0 70 -2t59 -3 h27q49 0 68 -5q33 -9 33 -34q0 -21 -12 -26t-41 -5q-21 0 -49 6t-44 8q-18 2 -52 3t-62 1q0 -7 -1 -29t-1 -29l12 -144q11 -60 48 -60q30 0 76 14t89 36q23 13 63 37t51 23q10 1 13 -3q2 -3 2 -11v-6z"/>
<glyph glyph-name="u" horiz-adv-x="670" unicode="u" d="M722 147q0 -24 -79 -74q-96 -61 -201 -61q-65 0 -134 63q-23 24 -43 51q-24 32 -28 50q-38 -41 -64 -66q-50 -48 -78 -48q-29 0 -41 22t-21 74q-4 28 -8 64t-4 60q0 13 1 18q0 18 10 30t24 12q12 0 21 -12t9 -35q0 -36 5 -75t19 -84q26 20 44 40t42 51q11 13 22 27 q19 21 37 21q22 0 46 -48q37 -75 51 -93q29 -37 40 -46q26 -22 63 -22q71 0 137 34l114 74q12 0 14 -8t2 -19z"/>
<glyph glyph-name="v" horiz-adv-x="421" unicode="v" d="M453 389q0 -18 -31 -32q-24 -11 -33 -18q-22 -19 -48 -58t-37 -68q-20 -84 -34 -128q-27 -81 -81 -81q-19 0 -34 15q-11 11 -45 67q-19 32 -43 90q-23 58 -29 66t-18 37t-13 38q0 12 9 22t21 10q15 0 33 -30q5 -8 31 -59q4 -9 22 -52q13 -32 24 -55t25 -49t27 -25 q10 0 37 96q17 61 40 98q33 53 85 93q44 34 61 34q14 2 20 2q11 0 11 -13z"/>
<glyph glyph-name="w" horiz-adv-x="542" unicode="w" d="M593 363q0 -7 -10 -9t-18 -4t-70 -10q-38 -4 -61 -8t-23 -33q0 -22 11 -91t11 -85q0 -47 -13 -83t-39 -36q-40 0 -75 33q-22 21 -46 61q-10 20 -22 38t-26 18q-11 0 -42 -64t-83 -64q-21 0 -42 15q-25 18 -28 45q-13 99 -21 158t-7 70q0 22 8 36t25 14q18 0 28 -4t9 -20 q3 -52 5 -88t10 -107q0 -15 8 -31t14 -16q15 0 48 62t72 62q20 0 33 -8t24 -25q38 -60 41 -64q28 -39 40 -39q18 0 18 35q0 17 -12 92t-12 104q0 38 24 53t71 15q57 1 103 -3t47 -19z"/>
<glyph glyph-name="x" horiz-adv-x="550" unicode="x" d="M490 399q-49 -33 -80 -58q-35 -29 -60 -52l-76 -74q17 -19 51 -50q44 -40 85 -69q33 -22 50 -28t38 -6q22 0 22 -23q0 -17 -13 -23t-37 -6q-40 0 -136 78t-106 86q-6 -4 -22 -18t-40 -32q-53 -38 -77 -53q-38 -24 -52 -24q-11 0 -11 11q0 12 58 61q25 21 51 43l58 51 q-3 3 -61 56q-30 27 -42 41q-7 9 -20 22q-22 23 -22 32q0 17 22 17q13 0 79 -57q41 -36 82 -71l145 128q42 36 80 57q28 16 39 16t19 -6q7 -5 7 -17q0 -11 -31 -32z"/>
<glyph glyph-name="y" horiz-adv-x="508" unicode="y" d="M452 245q0 -35 -32 -101q-49 -101 -57 -124q-35 -94 -70 -189q-18 -55 -18 -85q0 -40 -26 -40q-16 0 -19 12t-3 30q0 39 42 158q22 62 45 124q29 80 59 160q-69 -61 -118 -96q-54 -39 -82 -39q-29 0 -46 24q-1 1 -24 46q-11 35 -19 55q-14 38 -32 40t-24 7t-8 22 q0 17 15 27t32 9q29 0 42 -18q4 -5 23 -48q12 -42 20 -64q16 -42 38 -42q24 1 110 85t117 84q17 0 26 -8t9 -29z"/>
<glyph glyph-name="z" horiz-adv-x="585" unicode="z" d="M618 143q0 -7 -80 -85q-100 -96 -200 -193q-17 -54 -57 -118q-48 -76 -80 -76q-13 0 -28 18q-10 12 -10 22q1 22 7 42t32 52t49 55q12 12 36 32q4 18 6 42t2 51q0 42 -23 58q-15 10 -44 10h-11q-12 0 -34 -3t-31 -3q-6 -1 -10 9t-3 22q0 5 42 33q24 16 49 35q34 26 47 49 q9 17 9 38q0 33 -19 55q-29 34 -92 34q-19 0 -29 -6t-17 -16q-6 -10 -10 -15q-6 -6 -18 -6q-18 0 -18 25q1 26 27 50t61 23q74 0 121 -36q52 -40 52 -112q0 -42 -34 -81q-24 -28 -66 -53q50 -1 78 -25t28 -63v-29t-6 -37q45 45 141 129q105 92 115 92t14 -4t4 -15z"/>
<glyph glyph-name="braceleft" horiz-adv-x="554" unicode="{" d="M486 -51q1 -4 1 -12q0 -15 -8 -19t-25 -5q-19 1 -28 1q-12 -2 -27 -3t-30 -1q-48 0 -79 13q-37 16 -55 53q-13 26 -25 182t-23 173q-6 9 -30 25t-29 26q-5 12 -5 20q1 16 33 35t38 33t7 46t1 50v50t-1 52q1 56 3 84t11 43q33 51 98 51q15 0 23 -1q94 0 94 -35 q2 -23 -33 -23q-9 0 -31 2t-35 2q-25 0 -41 -6t-24 -24q-4 -8 -6 -33t-2 -52q0 -28 1 -71t3 -94q0 -43 -5 -53q-7 -22 -27 -33q-29 -12 -48 -20q6 -5 38 -29q19 -15 20 -21q10 -22 30 -256q8 -97 26 -112q13 -13 33 -19t44 -6q15 0 44 3t39 3q30 0 30 -19z"/>
<glyph glyph-name="bar" horiz-adv-x="429" unicode="|" d="M257 824q0 -103 -2 -163q-7 -210 -7 -248v-529v-44q0 -74 -2 -122t-22 -48q-15 0 -24 17t-9 65q-1 90 -1 198v228t-1 229v113q1 126 3 206t12 134t30 54q19 0 21 -28t2 -62z"/>
<glyph glyph-name="braceright" horiz-adv-x="586" unicode="}" d="M441 370q4 -8 4 -16q-1 -18 -33 -36t-39 -33q-4 -11 -4 -40q0 -34 4 -81q11 -128 11 -151q0 -33 -2 -43t-7 -18q-17 -27 -41 -40t-56 -13h-11q-9 2 -13 2q-61 0 -83 4q-35 7 -35 26q-2 21 28 21q15 0 24 -1q45 -5 50 -5q30 0 51 8t36 32q9 15 9 64q0 41 -4 98t-8 126 q0 22 3 30q7 22 20 30q22 9 40 18q-27 20 -38 28q-19 14 -19 20q-11 25 -22 255q-5 95 -22 110q-14 15 -30 21t-36 5q-14 -1 -34 -3t-21 -2q-20 0 -20 19q-1 4 -1 12q0 16 10 20t30 4q14 0 30 2t34 2q35 -1 57 -15t41 -53q14 -27 20 -181t17 -170q5 -8 29 -24t31 -32z"/>
<glyph glyph-name="asciitilde" horiz-adv-x="609" unicode="~" d="M468 832q0 -19 -11 -35q-14 -20 -42 -38q-53 -33 -89 -33q-27 0 -50 13q-24 17 -36 25t-24 18q-18 12 -34 12q-14 0 -34 -16t-23 -15q-13 0 -13 16q0 23 28 45t51 22q19 0 42 -12q14 -7 29 -20t29 -25q16 -11 34 -11q15 0 29 4t35 18q16 10 31 32q12 17 19 17 q29 0 29 -17z"/>
<glyph glyph-name="c128" d="M637 205q1 -105 -95 -191t-198 -86q-57 0 -92 42q-24 29 -34 74q-1 4 -1 11q0 27 23 27q7 0 18 -16q10 -16 20 -38t28 -38q18 -15 38 -15q101 0 171 85q60 72 60 145q0 64 -84 108q-77 40 -170 40q-66 -12 -92 -16q-46 -8 -75 -8q-5 -30 -7 -73t-2 -91q0 -13 5 -66t5 -69 q1 -8 -1 -13t-4 -9t-9 -5q-26 -1 -43 79t-17 219q-25 0 -41 6t-16 22q0 19 18 27q7 3 39 10q0 7 7 123q4 66 4 106q-59 -24 -79 -38q-15 -11 -20 -26t-10 -21q-8 -10 -23 -10q-19 0 -26 12t-7 48q0 40 117 82l51 18l2 40q0 56 55 56q12 0 16 -10t5 -28q-1 -12 -1 -20v-14 q65 14 114 20t89 6h79q61 -4 65 -37q0 -24 -27 -24q-28 5 -56 7t-64 2q-26 0 -85 -11t-117 -28q0 -65 -5 -121t-11 -117l100 18t76 9q74 0 173 -45q134 -61 134 -158z" horiz-adv-x="667"/>
<glyph glyph-name="c129" d="M568 673q0 -15 -2 -19t-15 -4q-57 8 -101 14t-67 5q-27 0 -116 -16q-53 -10 -105 -20q-12 -33 -19 -121t-7 -178l-2 -172q0 -76 -7 -118t-29 -41q-14 1 -22 13t-8 34q0 13 1 33t1 34q0 39 1 101t1 101l2 199l3 97q-27 4 -31 5q-20 7 -20 25q0 10 20 21t33 13q-1 19 9 33 t23 13q23 0 34 -8t15 -25q24 8 94 16t109 8q57 0 131 -14t74 -29zM560 953q0 -2 -112 -52q-66 -30 -104 -52q-19 -11 -76 -60q-41 -35 -66 -35q-11 0 -16 6q-5 10 -8 15q-1 3 -1 6q0 17 35 43q42 32 104 63q40 22 118 53t95 31q15 1 23 -3t8 -15z" horiz-adv-x="473"/>
<glyph glyph-name="c141" d="M617 -23q0 -12 -11 -12q-12 1 -20 1q-36 0 -119 41q-96 47 -163 110t-118 125q-42 51 -63 88q0 -38 -7 -109t-15 -151q-1 -40 -7 -55t-24 -15q-14 1 -18 15t-5 44v27t1 31q10 133 16 249t6 173q0 54 -2 82t-2 57q0 18 10 32t29 13q14 0 26 -15q16 -21 16 -57 q0 -29 -4 -79q-11 -139 -11 -141q20 19 74 75q41 42 66 63q67 55 135 111q63 50 83 50q11 0 20 -9q5 -5 5 -8q0 -9 -72 -71q-18 -16 -148 -125q-21 -18 -56 -56t-70 -77q15 -34 64 -95t114 -128q31 -32 64 -58q29 -23 79 -55q19 -12 81 -41q46 -21 46 -30zM593 956 q0 -2 -112 -52q-66 -30 -104 -52q-19 -11 -76 -60q-41 -35 -66 -35q-11 0 -16 6q-5 10 -8 15q-1 3 -1 6q0 16 35 42q42 32 104 64q40 22 118 53t95 31q14 0 22 -4t9 -14z" horiz-adv-x="620"/>
<glyph glyph-name="c142" d="M519 673q0 -24 -27 -24q-28 5 -56 7t-64 2q-26 0 -85 -11t-117 -28q0 -65 -5 -121t-11 -117q58 13 102 20t68 7q89 0 134 -40q53 -47 53 -154q0 -79 -16 -158q-16 -77 -29 -77h-1q-24 4 -24 32q7 59 13 113t5 80q0 63 -30 102q-36 47 -108 47q-31 0 -88 -12t-79 -12 q-5 -30 -7 -73t-2 -91q0 -13 5 -66t5 -69q1 -8 -1 -13t-4 -9t-9 -5q-26 -1 -43 79t-17 219q-25 0 -41 6t-16 22q0 19 18 27q7 3 39 10q0 7 7 123q4 66 4 106q-59 -24 -79 -38q-15 -11 -20 -26t-10 -21q-8 -10 -23 -10q-19 0 -26 12t-7 48q0 40 117 82l51 18l2 40q0 56 55 56 q12 0 16 -10t5 -28q-1 -12 -1 -20v-14q65 14 114 20t89 6h79q61 -4 65 -37z" horiz-adv-x="571"/>
<glyph glyph-name="c143" d="M631 651q-27 -98 -48 -185q-24 -100 -24 -160v-265q32 -3 38 -3t6 -14q-1 -24 -5 -30t-21 -5h-12q-29 -1 -85 3t-84 4l-64 6l-5 -44q-1 -16 -3 -52t-2 -72l-4 -96q0 -21 -7 -30t-14 -9q-17 0 -23 39t-6 90q0 18 4 70t10 105q-50 -1 -98 -3t-83 -4q-16 -1 -25 -1 q-20 0 -32 6t-13 23q-1 7 11 12t30 5q-2 10 -2 31q0 56 4 118t16 147q18 96 26 141q15 82 15 152q0 12 10 30t20 18q20 0 26 -14t6 -43v-30q0 -33 -22 -150q-14 -73 -19 -115q-11 -82 -21 -164t-10 -119l63 3q17 2 36 2h30h39q12 57 26 57q9 0 19 -9t11 -18v-15 q0 -12 -2 -16l53 -1h102q-2 7 -2 15v13q0 8 1 28t1 34v179q0 122 30 245t72 123q12 1 22 -9t9 -23z"/>
<glyph glyph-name="c144" d="M372 -60q0 -86 -6 -123t-32 -97q-24 -60 -75 -109q-64 -61 -132 -61q-70 0 -115 38q-37 32 -37 65q0 29 24 29q13 0 23 -13q7 -12 11 -18q15 -23 33 -34t47 -11q53 0 105 44t72 103t25 94t5 76q0 21 -2 90t-3 77q0 51 -11 89q-15 52 -43 52q-17 0 -31 -18q-6 -8 -23 -42 q-28 -58 -50 -89q-28 -41 -47 -41q-38 0 -56 40q-6 14 -22 84q-2 15 -4 85t-2 126l-1 101l-5 -1h-156q-22 0 -33 2q-11 3 -11 15q0 11 10 19t27 10q49 8 93 12t73 5l-2 40q0 22 -3 38q-9 49 -9 50q0 12 11 22t22 10q8 1 22 -17t14 -34v-111q35 0 86 -3t56 -3q66 0 83 -3 q45 -8 45 -37q0 -19 -10 -25t-28 -6q-10 0 -15 1q-21 0 -49 6q-28 5 -41 7q-15 2 -59 6t-65 3l5 -89q0 -122 6 -200t22 -78q18 0 50 73q12 28 25 57q13 24 25 37q16 16 34 16q24 -1 50 -11t39 -34t24 -117q11 -92 11 -197z" horiz-adv-x="445"/>
<glyph glyph-name="c157" d="M626 142q0 -11 -51 -46t-96 -55q-55 -25 -107 -37t-102 -11q-32 0 -82 37t-67 79q-10 -48 -16 -70q-11 -39 -31 -39q-21 0 -29 13q-4 6 -9 33q-6 44 -8 80t-3 71q0 41 -6 65q-8 22 -15 45q0 13 8 21t19 8q22 0 39 -27t17 -71q0 -24 2 -62l2 -38q7 29 21 59q18 38 44 67 q32 34 55 50q31 22 59 22q16 0 32 -14t16 -26q0 -18 -15 -33t-44 -26t-57 -30t-39 -40q18 -48 41 -75q38 -46 90 -46q45 0 81 10t90 31q45 18 92 44q22 12 44 25h15t10 -14zM461 623q0 -2 -112 -52q-66 -30 -104 -52q-19 -11 -76 -60q-41 -35 -66 -35q-11 0 -16 6 q-5 10 -8 15q-1 3 -1 6q0 17 35 43q42 32 104 63q40 22 118 53t95 31q14 1 22 -3t9 -15z" horiz-adv-x="552"/>
<glyph glyph-name="c158" d="M704 150q-2 -25 -74 -81q-84 -66 -157 -66q-90 0 -151 41q-45 30 -93 119q-21 -40 -52 -76q-40 -46 -67 -46q-40 0 -59 45q-15 36 -15 90l-4 200l-2 104q-39 0 -79 -2t-87 -2q-22 0 -33 2q-11 3 -11 15q0 11 10 19t27 10q37 6 95 11t76 5q0 18 -2 29t-2 17q-8 41 -15 83 q0 12 11 22t22 10q8 0 20 -13q12 -12 16 -26t7 -59t3 -65l132 -5q66 0 83 -3q45 -8 45 -37q0 -19 -10 -25t-28 -6q-10 0 -15 1q-21 0 -49 6t-48 8t-28 3q-50 5 -82 5q0 -14 -1 -44t-1 -45q0 -122 6 -200t22 -78q17 0 39 29q17 22 31 56q9 23 14 32q12 21 32 21q17 0 35 -28 q10 -18 21 -35l58 -92q44 -48 131 -48q55 0 111 38q50 41 100 83q14 0 16 -2t2 -20z"/>
<glyph glyph-name="exclamdown" horiz-adv-x="499" unicode="¡" d="M526 659q0 -13 -14 -49t-40 -92q-63 -129 -116 -225q-67 -121 -130 -210q-35 -50 -36 -51q-25 -32 -37 -32q-30 0 -30 30q0 8 36 59q92 130 102 150q-21 23 -61 79t-83 115q-49 71 -98 143q-28 42 -29 51v6q0 26 31 26q9 0 35 -37q96 -137 107 -150q23 -26 70 -88t62 -78 q22 35 64 117q27 52 55 106t56 110q26 47 37 47q7 0 13 -9t6 -18zM427 784q0 -12 -12 -31q-17 -25 -43 -42t-48 -24t-43 -7q-28 0 -53 10q-15 6 -37 21q-14 10 -25 21q-14 16 -18 26t-4 21q0 13 7 23t20 10q9 0 25 -19q22 -26 24 -28q10 -9 21 -18q19 -15 40 -18h6 q27 0 64 22q17 11 34 32q14 17 21 17q10 0 16 -3t5 -13z"/>
<glyph glyph-name="cent" horiz-adv-x="632" unicode="¢" d="M327 -198v187q-46 -27 -82 -83q-47 -73 -47 -159q0 -37 20 -73t41 -36q33 0 52 59q16 49 16 105zM674 170q0 -10 -122 -65q-70 -31 -163 -70v-70t1 -75v-51q0 -152 -34 -204t-100 -52q-51 1 -84 43t-33 107q0 120 73 217q44 59 115 107q1 33 -1 53t-4 46v16q2 14 2 22 q-36 -44 -87 -88q-71 -61 -111 -61q-29 0 -46 24q-3 5 -23 47q-7 14 -21 51q-12 28 -18 44q-6 17 -10 33t-6 28q0 40 36 40q26 0 34 -35t14 -68q12 -42 20 -64q16 -42 38 -42t67 44q17 17 83 91q50 57 74 74q6 4 11 4q11 0 17 -10t6 -30q0 -16 -6 -40t-8 -34q-2 -11 -2 -23 q0 -17 1 -40t2 -45q44 26 147 68t116 42q10 0 16 -12t6 -22zM343 518q0 -12 -12 -31q-17 -25 -43 -42t-48 -24t-43 -7q-28 0 -53 10q-15 6 -37 21q-14 10 -25 21q-14 16 -18 26t-4 21q0 13 7 23t20 10q9 0 25 -19q22 -26 24 -28q10 -9 21 -18q19 -15 40 -18h6q27 0 64 22 q17 11 34 32q14 17 21 17q10 0 16 -3t5 -13z"/>
<glyph glyph-name="sterling" horiz-adv-x="542" unicode="£" d="M596 658q0 -20 -14 -24t-55 -5l-80 -2q4 -36 7 -135t3 -177q0 -120 -66 -205q-74 -95 -197 -95q-34 0 -61 34q-23 29 -23 51q0 28 23 28q8 0 26 -29t45 -29q87 0 142 78q51 72 51 173q-1 64 -7 145t-12 163l-198 -2q-13 -1 -26 -1h-27q-45 0 -58 6t-13 19q0 23 22 33 t53 9q31 0 155 -6q62 -3 146 -3q106 0 135 -5t29 -21z"/>
<glyph glyph-name="yen" horiz-adv-x="425" unicode="¥" d="M454 688q0 -26 -17 -36t-69 -10q-40 0 -120 -4t-100 -8q-6 -38 -9 -120t-3 -176l-2 -172q0 -76 -7 -118t-29 -41q-14 1 -22 13t-8 34q0 13 1 33t1 34q0 39 1 101t1 101l2 199v102q-15 1 -29 3q-19 5 -19 22q0 11 15 21t38 13q-1 19 9 33t23 13q22 0 30 -10q4 -5 9 -25 q18 3 92 7t154 9q0 84 5 104t19 20q10 0 18 -10t8 -24q0 -12 4 -53t4 -55z"/>
<glyph glyph-name="brokenbar" horiz-adv-x="354" unicode="¦" d="M226 277q0 -160 -4 -215q-9 -118 -36 -118q-18 0 -22 41t-4 121q0 32 2 108t3 95v32q-1 37 7 55t35 19q13 -1 18 -15t5 -38q0 -12 -2 -48t-2 -37zM229 578v-46q0 -39 -5 -56t-25 -17q-17 0 -25 20t-8 69q0 60 -1 127t-2 127q0 55 3 71q7 38 33 38q11 0 17 -19t6 -41 q0 -16 5 -170q2 -62 2 -103z"/>
<glyph glyph-name="section" horiz-adv-x="454" unicode="§" d="M403 213q0 -72 -43 -106q-18 -14 -68 -30q-21 -7 -45 -7q-25 0 -57 10l32 -32q34 -36 56 -61t42 -50q18 -25 18 -61q0 -59 -53 -89q-38 -21 -77 -21q-57 0 -94 31q-31 26 -31 53q0 10 5 20t16 10q13 0 29 -15q34 -30 39 -33q17 -10 34 -10q31 0 49 10q23 13 23 42 q0 18 -15 46t-41 56q-22 24 -71 71q-44 42 -47 45q-35 35 -54 74q-22 45 -22 92q0 92 60 133q38 26 86 26q16 1 26 -9t11 -22q1 -22 -11 -28t-36 -6q-32 0 -56 -30t-24 -76q0 -52 56 -108q16 -10 42 -14t48 -4q47 0 80 28t33 66q0 77 -66 156q-19 23 -77 80q-26 24 -52 49 q-47 48 -47 111q0 34 24 57q32 31 97 31q33 0 80 -20q56 -24 56 -50q0 -9 -4 -18t-11 -9q-17 0 -51 25t-84 25q-18 1 -34 -13t-16 -35q0 -31 70 -102q61 -62 93 -99q47 -53 67 -108q15 -40 15 -81z"/>
<glyph glyph-name="dieresis" horiz-adv-x="597" unicode="¨" d="M694 641q0 -6 -38 -6q-36 0 -84 2t-78 4q-99 0 -212 -24q-90 -19 -141 -42q-1 -7 -3 -35t-2 -38v-102q40 8 215 32t205 25q5 -1 14 -3t9 -5q0 -22 -106 -46q-49 -11 -118 -23l-226 -43l-20 -252q21 5 83 9t142 4q70 0 132 -9t62 -24q0 -16 -76 -17t-111 -1 q-70 0 -124 -13q-9 -2 -74 -21q-13 -4 -39 -16t-39 -12q-12 0 -24 11t-12 27q0 13 4 21q8 12 13 21q10 88 16 158t6 103q-12 0 -18 14t-7 29q0 25 32 28q1 6 1 17q0 8 -1 28t-1 32q0 35 -4 72t-5 66q0 33 40 33q17 1 27 -1t15 -7q76 18 132 30q112 24 162 24q74 0 144 -9 q109 -14 109 -41zM272 828q0 -16 -14 -26t-32 -10q-20 0 -35 11t-15 29q0 16 15 26t35 10q18 0 32 -12t14 -28zM453 832q0 -23 -15 -35t-34 -12q-14 0 -30 12t-16 28q0 17 14 29t32 11q18 1 34 -9t15 -24z"/>
<glyph glyph-name="copyright" horiz-adv-x="710" unicode="©" d="M492 323q0 -23 -37 -40t-73 -17q-60 0 -99 27q-44 30 -44 85q-1 8 -1 17t-1 14q0 60 33 100t81 45q10 2 17 2q29 0 52 -14t23 -40q2 -14 -6 -16t-20 -2q-9 0 -19 6q-24 14 -36 14q-41 0 -58 -36q-12 -26 -12 -74q0 -34 26 -56t58 -22q16 0 47 12t42 13q27 0 27 -18z M579 420q0 60 -20 109t-61 78q-30 21 -68 29t-97 9q-83 0 -135 -68t-53 -156q0 -117 46 -177t125 -60q123 0 191 57q72 61 72 179zM631 465q-1 -89 -11 -131t-43 -96t-105 -82q-64 -24 -156 -24q-117 0 -176 87q-50 74 -50 187q0 68 15 118t46 88q38 46 84 70t105 23 q114 0 196 -58q95 -67 95 -182z"/>
<glyph glyph-name="ordfeminine" horiz-adv-x="478" unicode="ª" d="M500 527q0 -23 -4 -31t-22 -8q-37 45 -91 78q-61 38 -150 38q-61 0 -103 -65t-42 -173q0 -128 41 -218q49 -108 142 -108q17 0 45 7t45 16q2 1 29 20q16 11 25 11q19 0 19 -24q0 -8 -5 -18q-16 -30 -82 -48q-51 -14 -82 -14q-99 0 -160 77q-47 60 -69 163q-15 71 -15 140 q0 83 48 177q61 119 156 119q103 0 195 -57q80 -50 80 -82zM442 336q0 -27 -22 -33q-10 -3 -54 -3q-15 -2 -26 -2h-16q-11 0 -39 1t-43 1q-85 0 -120 4q-32 4 -32 18q0 18 15 25q11 5 35 7t44 4t57 2q93 0 147 -4t54 -20z"/>
<glyph glyph-name="guillemotleft" horiz-adv-x="835" unicode="«" d="M461 435q-2 -20 -60 -56q-53 -33 -106 -65q-33 -22 -60 -45l-56 -48q38 -43 43 -49q28 -29 66 -56q12 -9 109 -64q51 -29 51 -56q0 -8 -4 -12t-20 -4h-13q-21 0 -81 35q-52 30 -91 61q-60 46 -96 86q-40 45 -40 69q0 10 64 61q50 40 85 64q80 57 114 80q48 32 56 32 q10 0 26 -12t13 -21zM715 32q-1 -8 -5 -16t-10 -7q-12 0 -91 50q-73 46 -158 92q-30 14 -47 23q-40 22 -40 34q0 16 60 71q42 38 60 54l73 73q39 38 62 38q12 0 22 -4t10 -14q-1 -12 -49 -62t-142 -137q11 -16 50 -40q23 -14 46 -27q94 -61 106 -70q53 -38 53 -58z"/>
<glyph glyph-name="logicalnot" horiz-adv-x="722" unicode="¬" d="M594 265v-61q-5 -49 -46 -49q-24 0 -28 17t-4 37v23q0 9 -1 12h-284h-18q-45 0 -65 5q-33 8 -30 33q0 16 84 22t190 6q30 0 79 -1t75 -1q22 0 35 -10t13 -33z"/>
<glyph glyph-name="minus" horiz-adv-x="670" unicode="­" d="M556 229q-4 -18 -24 -24t-62 -6h-37t-39 1h-12h-35h-24h-17h-13h-33t-36 1h-13h-17q-39 0 -54 5q-22 7 -22 28v5q0 16 84 22t190 6q34 -1 64 -3t47 -2q25 0 41 -7q13 -6 12 -20v-6z"/>
<glyph glyph-name="registered" horiz-adv-x="681" unicode="®" d="M387 475q0 24 -15 32t-41 8q-8 0 -22 -1t-19 -1v-71h17q50 0 65 8t15 25zM455 268q0 -14 -7 -21t-23 -7q-48 0 -91 48q-11 15 -27 43q-7 13 -23 42q0 -21 4 -51q3 -21 3 -31q-1 -3 -1 -5q-2 -8 2 -19q3 -11 3 -14q0 -7 -3 -11t-20 -4q-22 0 -32 26t-10 114q-3 17 -3 36 q0 23 2 42t11 74q3 22 38 26t65 3q56 0 81 -29q20 -23 20 -59q0 -29 -18 -47t-43 -21q-19 -3 -28 -5t-25 -2q34 -57 62 -88q10 -10 47 -30q16 -8 16 -10zM564 432q0 60 -17 103t-57 72q-30 21 -70 29t-95 9q-88 0 -141 -70q-48 -63 -48 -154q0 -119 40 -183t118 -64 q125 0 195 61q75 66 75 197zM627 459q0 -81 -22 -135q-8 -20 -51 -90q-34 -57 -105 -86q-65 -26 -155 -26q-115 0 -171 94q-44 74 -44 193q-1 69 15 117t48 86q74 88 191 88q114 0 198 -59q96 -67 96 -182z"/>
<glyph glyph-name="macron" horiz-adv-x="297" unicode="¯" d="M224 678q0 -16 -15 -107q-6 -36 -18 -105q-2 -11 -26 -145q-13 -72 -13 -90q0 -41 -2 -91t-3 -92q0 -39 -13 -39q-18 0 -34 76t-17 146q0 20 19 123q10 56 21 112q6 32 19 112q6 38 10 64q9 62 50 62q8 0 15 -8t7 -18zM135 774q0 -16 -3 -20q-7 -9 -31 -9q-19 -1 -40 29 t-21 51q0 13 7 23t23 11q24 0 44 -30t21 -55zM313 782q0 -16 -3 -20q-7 -9 -31 -9q-19 -1 -40 29t-21 51q0 13 7 23t23 11q24 0 44 -30t21 -55z"/>
<glyph glyph-name="degree" horiz-adv-x="449" unicode="°" d="M312 766q0 26 -17 42t-37 18q-20 4 -26 4q-29 0 -50 -14t-21 -40q0 -43 23 -68t56 -25q39 0 58 30q14 22 14 53zM372 746q0 -58 -34 -88t-86 -30q-76 0 -112 41q-32 37 -32 107q0 52 40 82t95 30q57 0 93 -40t36 -102z"/>
<glyph glyph-name="plusminus" horiz-adv-x="695" unicode="±" d="M633 -2q0 -20 -21 -28q-14 -5 -42 -5q-64 3 -118 5t-103 2q-51 0 -105 -4t-113 -8q-23 0 -29 6t-6 32q0 20 30 24t64 3h407q20 0 28 -4t8 -23zM589 299q0 -17 -14 -22t-38 -5q-32 0 -86 6q-7 1 -16 1h-14q-14 -1 -28 -1h-28q-1 -8 -1 -17t-1 -13q1 -9 1 -16t5 -44 q0 -21 5 -43q12 -52 12 -53q0 -33 -30 -33q-14 1 -29 33t-22 81q-11 75 -11 105q-34 0 -72 1t-75 2q-30 0 -37 1q-29 4 -29 27q-1 9 5 19t15 9l65 2l139 3q5 21 9 44t4 51v21t-1 17q1 23 3 37t21 14q23 0 33 -12t11 -56q-1 -20 -3 -54t-8 -63l153 -3q29 0 45 -9t17 -30z"/>
<glyph glyph-name="twosuperior" horiz-adv-x="297" unicode="²" d="M224 678q0 -16 -15 -107q-6 -36 -18 -105q-2 -11 -26 -145q-13 -72 -13 -90q0 -41 -2 -91t-3 -92q0 -39 -13 -39q-18 0 -34 76t-17 146q0 20 19 123q10 56 21 112q6 32 19 112q6 38 10 64q9 62 50 62q8 0 15 -8t7 -18z"/>
<glyph glyph-name="threesuperior" horiz-adv-x="389" unicode="³" d="M442 154q0 -30 -95 -89q-104 -64 -184 -64q-34 4 -68 9q-31 6 -40 19q-14 19 -20 36q-9 25 -9 65v75t1 81q0 27 -1 33q0 25 6 41t23 16q19 0 27 -13t8 -55q0 -16 -1 -74t-1 -84q0 -55 9 -69q15 -24 72 -24q67 0 134 34q57 38 114 77h15q10 -2 10 -14zM117 596 q0 -16 -3 -20q-7 -9 -31 -9q-19 -1 -40 29t-21 51q0 13 7 23t23 11q24 0 44 -30t21 -55z"/>
<glyph glyph-name="acute" horiz-adv-x="326" unicode="´" d="M312 342q0 -32 -37 -53t-99 -21q-31 0 -54 2t-50 10q6 -34 10 -104t5 -101v-19t1 -19q0 -21 -5 -31t-20 -9q-19 -1 -27 9t-7 28q1 7 1 11q2 9 2 17v24q0 55 -8 121q-4 33 -12 63t-9 37q-1 13 7 21t20 8t61 -9t71 -9q38 0 54 4t29 15q13 12 13 37v16t-2 21q0 23 16 23 q25 0 34 -28q6 -19 6 -64z"/>
<glyph glyph-name="paragraph" horiz-adv-x="447" unicode="¶" d="M240 658l-5 -286v-284q0 -54 -7 -76t-19 -23q-21 0 -27 20t-5 72v28v49v46v42v39v35v31v28v25v22v20v18v15v14v12q-1 19 -1 37v37v11v195h-15q-35 0 -52 6q-26 9 -26 34q0 41 50 48q14 2 58 2q49 0 49 -24v-193zM372 697q0 -77 -1 -127q-4 -201 -4 -216v-107 q1 -115 -3 -187t-16 -73q-39 0 -39 122q0 202 -1 354t-2 286q0 57 3 75q7 41 28 41q24 0 33 -13t9 -41q1 -6 -3 -48t-4 -66z"/>
<glyph glyph-name="periodcentered" horiz-adv-x="352" unicode="·" d="M227 307q-8 -36 -45 -36q-39 0 -46 39q0 20 13 34t33 14t34 -16q12 -14 11 -30v-5z"/>
<glyph glyph-name="periodcentered" horiz-adv-x="352" unicode="∙" d="M227 307q-8 -36 -45 -36q-39 0 -46 39q0 20 13 34t33 14t34 -16q12 -14 11 -30v-5z"/>
<glyph glyph-name="cedilla" horiz-adv-x="485" unicode="¸" d="M205 277q-1 19 -23 29t-57 9q-11 0 -27 -13q-16 -12 -17 -24q-2 -12 -4 -46t-2 -41q17 4 48 16q31 13 48 21t25 22t9 27zM535 128q0 -12 -50 -46t-100 -57q-51 -23 -105 -35t-102 -11q-59 0 -103 33q-55 41 -55 116v42t-1 44q0 20 1 40t4 36q7 34 40 58t70 24 q51 0 94 -24q49 -28 49 -71q0 -40 -28 -65q-20 -18 -62 -32q-29 -8 -55 -18t-55 -21q0 -38 24 -68q30 -38 84 -38q47 0 91 10t98 30q40 15 91 43q43 24 44 24q17 0 21 -2t5 -12zM102 498q0 -16 -14 -26t-32 -10q-20 0 -35 11t-15 29q0 16 15 26t35 10q18 0 32 -12t14 -28z M283 502q0 -23 -15 -35t-34 -12q-14 0 -30 12t-16 28q0 17 14 29t32 11q18 1 34 -9t15 -24z"/>
<glyph glyph-name="onesuperior" horiz-adv-x="815" unicode="¹" d="M783 570q0 17 -13 27t-26 10q-20 -1 -47 -29t-27 -37q0 -15 12 -31t25 -15q33 0 56 27q20 23 20 48zM592 629q-21 -54 -36 -105t-15 -95q1 -67 -5 -185t-6 -141q0 -36 -17 -58t-44 -22q-28 0 -92 67q-25 26 -73 82t-98 113q-24 28 -59 71q0 -19 -15 -73l-20 -72l-22 -96 q-13 -49 -28 -49q-14 0 -24 14q-7 10 -6 22q0 5 1 9q30 120 55 329q-5 22 -11 38l-22 50q-12 38 -21 72q-8 30 -8 44q0 23 22 23q7 0 19 -9t25 -24q19 26 35 26q29 0 33 -58t9 -115q9 -31 36 -75q41 -65 121 -157q50 -57 80 -87t54 -51q4 36 10 123q14 198 14 202 q8 74 32 142t52 67q12 0 18 -4t6 -18zM821 370q0 -21 -19 -25t-69 -4q-7 0 -25 -1t-27 -1q-25 0 -39 5t-14 20q0 11 30 18t72 7h19t21 1q24 0 37 -4t14 -16zM836 596q0 -58 -22 -95q-30 -50 -92 -50q-45 0 -76 15q-39 19 -39 53q0 51 41 95t97 43q35 0 63 -16t28 -45z"/>
<glyph glyph-name="ordmasculine" horiz-adv-x="435" unicode="º" d="M488 158q2 -12 -36 -35t-70 -46q-66 -43 -134 -69t-118 -26q-53 0 -87 44t-34 102q0 68 25 139q36 104 105 104q37 0 65 -18t28 -46q0 -21 -16 -21q-13 0 -23 18t-27 18q-36 0 -60 -44t-30 -100l83 -3q55 1 81 -3t27 -20q-1 -22 -17 -28t-46 -6h-19q-25 0 -59 2t-51 4 q4 -42 26 -62t53 -20q28 0 87 20t111 50q18 10 82 50q26 16 35 16q13 0 16 -4t3 -16z"/>
<glyph glyph-name="guillemotright" horiz-adv-x="707" unicode="»" d="M448 207q-20 -36 -83 -75q-47 -29 -68 -46q-41 -34 -87 -69t-55 -35q-15 0 -15 16q0 10 115 111q67 58 96 93q-24 18 -48 38q-18 15 -38 35q-48 45 -76 85q-34 48 -34 78q-1 11 9 16t23 5q21 0 60 -56q31 -45 68 -78q41 -37 79 -61t54 -57zM681 173q0 -12 -26 -19 q-42 -11 -49 -15q-38 -19 -103 -64q-110 -76 -120 -76q-19 0 -19 19q0 13 121 101q67 48 93 71q-83 70 -92 78q-29 26 -47 49q-20 23 -42 60q-33 55 -33 83q0 21 30 21q13 0 42 -40q85 -117 90 -121q52 -41 86 -71q69 -61 69 -76z"/>
<glyph glyph-name="onequarter" horiz-adv-x="451" unicode="¼" d="M111 -46q-52 -32 -83 -77q-48 -71 -48 -176q0 -38 21 -87t42 -49q31 0 49 78q14 61 14 124q0 43 2 93t3 94zM499 143q0 -7 -43 -27t-93 -39l-184 -75q1 -8 -3 -66t-4 -83v-66q0 -130 -18 -187q-29 -92 -111 -92q-50 0 -84 54t-34 122q0 134 72 230q39 52 114 104 q3 18 4 96t4 106q-11 -13 -42 -46q-7 -7 -31 -33l-20 -22t-22 -11t-22 6t-8 18q1 9 36 48q110 122 111 124q-1 30 3 76t4 53q-1 11 -1 16q0 28 10 47t34 19q25 1 39 -17t14 -60q0 -33 -6 -58t-30 -70q0 -21 -4 -125t-4 -128q16 9 74 30t92 33t98 37q25 10 29 10q14 -1 20 -5 t6 -19zM198 715q0 -21 -4 -28t-22 -7q-15 0 -45 30q-33 33 -33 51q0 17 12 27t27 10q17 0 41 -32t24 -51z"/>
<glyph glyph-name="onehalf" horiz-adv-x="581" unicode="½" d="M536 201q0 -80 -83 -128q-75 -44 -182 -44q-72 0 -125 4q-103 8 -103 28q1 13 9 21t22 7q2 0 102 -6q50 -3 95 -3q87 0 141 26q65 32 65 94q0 36 -13 62t-42 46q-36 25 -115 38q-55 9 -83 13q-71 12 -120 54q-52 45 -52 100q0 59 93 101q82 37 174 37q47 0 100 -22 q67 -28 67 -70q0 -4 1 -8q-1 -5 -10 -5q-7 0 -48 26t-110 26q-39 0 -106 -22q-91 -30 -91 -71q0 -35 34 -61t88 -35q52 -9 109 -17q65 -14 109 -42q38 -25 56 -62t18 -87z"/>
<glyph glyph-name="threequarters" horiz-adv-x="333" unicode="¾" d="M282 358q0 -23 -3 -30t-18 -7q-16 0 -20 3t-12 15q-11 16 -19 23q-14 12 -31 12q-22 0 -31 -19t-9 -51q0 -19 10 -44t40 -70q21 -32 42 -63q21 -36 21 -68q0 -31 -14 -42t-40 -11q-36 0 -66 14t-49 39q-13 17 -25 39t-12 35q0 27 19 27q11 -1 23 -25q6 -13 14 -29t32 -33 t40 -17t16 13t-15 39t-29 48q-7 14 -33 55q-34 54 -34 93q1 52 25 90t72 38q46 0 78 -27q28 -23 28 -47z"/>
<glyph glyph-name="questiondown" horiz-adv-x="389" unicode="¿" d="M442 154q0 -30 -95 -89q-104 -64 -184 -64q-34 4 -68 9q-31 6 -40 19q-14 19 -20 36q-9 25 -9 65v75t1 81q0 27 -1 33q0 25 6 41t23 16q19 0 27 -13t8 -55q0 -16 -1 -74t-1 -84q0 -55 9 -69q15 -24 72 -24q67 0 134 34q57 38 114 77h15q10 -2 10 -14zM2 566q0 -16 -3 -20 q-7 -9 -31 -9q-19 -1 -40 29t-21 51q0 13 7 23t23 11q25 0 45 -30t20 -55zM177 576q0 -16 -3 -20q-7 -9 -31 -9q-19 -1 -40 29t-21 51q0 13 7 23t23 11q24 0 44 -30t21 -55z"/>
<glyph glyph-name="Agrave" horiz-adv-x="582" unicode="À" d="M410 318q-37 81 -50 108q-36 76 -72 153q-28 -68 -55 -135q-11 -24 -27 -68t-34 -88q31 4 123 16t115 14zM613 4q0 -23 -12 -23q-14 0 -33 26q-24 32 -63 105t-77 158q-34 -5 -121 -22q-54 -11 -119 -24q-8 -2 -10 -2q-10 0 -31 20l-50 -113q-11 -20 -23 -51t-12 -45 q0 -11 -10 -19t-21 -7q-12 0 -21 13t-9 27q0 21 38 111t75 178q13 31 72 170q40 93 48 119q6 34 12 66t22 32t31 -13q21 -18 31 -50q26 -48 62 -142t74 -189h51q15 0 25 -5t10 -16q0 -6 -5 -9q-16 -5 -22 -6l-38 -9q4 -10 46 -100q80 -171 80 -180z"/>
<glyph glyph-name="Agrave" horiz-adv-x="582" unicode="А" d="M410 318q-37 81 -50 108q-36 76 -72 153q-28 -68 -55 -135q-11 -24 -27 -68t-34 -88q31 4 123 16t115 14zM613 4q0 -23 -12 -23q-14 0 -33 26q-24 32 -63 105t-77 158q-34 -5 -121 -22q-54 -11 -119 -24q-8 -2 -10 -2q-10 0 -31 20l-50 -113q-11 -20 -23 -51t-12 -45 q0 -11 -10 -19t-21 -7q-12 0 -21 13t-9 27q0 21 38 111t75 178q13 31 72 170q40 93 48 119q6 34 12 66t22 32t31 -13q21 -18 31 -50q26 -48 62 -142t74 -189h51q15 0 25 -5t10 -16q0 -6 -5 -9q-16 -5 -22 -6l-38 -9q4 -10 46 -100q80 -171 80 -180z"/>
<glyph glyph-name="Aacute" horiz-adv-x="614" unicode="Á" d="M520 156q0 68 -60 110t-148 41q-50 0 -90 -9q-25 -6 -77 -24q-9 -65 -9 -155q0 -23 4 -62t5 -47h97q67 0 165 43q113 50 113 103zM657 689q0 -15 -2 -19t-15 -4q-14 0 -124 4t-123 5q-17 0 -85 -11t-136 -25q0 -71 -9 -149l-18 -156q56 11 113 18t92 7q96 1 164 -57 t68 -146q0 -92 -143 -149q-109 -43 -197 -43q-22 0 -42 -1t-39 -2q-36 0 -55 4t-19 15q0 10 7 17q-11 31 -16 97t-5 161q-19 0 -29 2q-29 6 -29 26q0 19 18 27q7 3 40 10q0 28 4 81q10 133 10 221q-26 4 -31 5q-20 6 -20 24q0 10 20 21t33 13q0 19 9 33t23 14q25 0 35 -8 t13 -25q25 9 95 17t109 7q120 0 177 -4q107 -8 107 -30z"/>
<glyph glyph-name="Aacute" horiz-adv-x="614" unicode="Б" d="M520 156q0 68 -60 110t-148 41q-50 0 -90 -9q-25 -6 -77 -24q-9 -65 -9 -155q0 -23 4 -62t5 -47h97q67 0 165 43q113 50 113 103zM657 689q0 -15 -2 -19t-15 -4q-14 0 -124 4t-123 5q-17 0 -85 -11t-136 -25q0 -71 -9 -149l-18 -156q56 11 113 18t92 7q96 1 164 -57 t68 -146q0 -92 -143 -149q-109 -43 -197 -43q-22 0 -42 -1t-39 -2q-36 0 -55 4t-19 15q0 10 7 17q-11 31 -16 97t-5 161q-19 0 -29 2q-29 6 -29 26q0 19 18 27q7 3 40 10q0 28 4 81q10 133 10 221q-26 4 -31 5q-20 6 -20 24q0 10 20 21t33 13q0 19 9 33t23 14q25 0 35 -8 t13 -25q25 9 95 17t109 7q120 0 177 -4q107 -8 107 -30z"/>
<glyph glyph-name="Acircumflex" horiz-adv-x="667" unicode="Â" d="M376 460q0 37 -37 88q-30 41 -77 69q-24 14 -70 26q-15 4 -40 9q0 -70 -9 -148l-18 -156q33 5 66 11q49 9 89 23t62 27q34 22 34 51zM608 172q0 -93 -166 -151q-125 -44 -220 -44h-22t-24 -1q-26 0 -38 4t-13 17q1 9 9 17t20 8l68 1q72 0 189 44q136 51 136 105 q0 64 -84 108q-77 40 -170 40q-66 -12 -92 -16q-46 -8 -76 -8q-4 -28 -6 -72t-2 -92q-1 -14 5 -42q4 -18 4 -30q0 -6 -1 -9q-3 -9 -5 -13t-8 -4q-28 0 -42 46q-17 57 -17 188q-25 0 -41 6t-16 22q0 19 17 27q7 3 40 10q0 35 4 92q11 157 11 242q0 25 20 39t64 13 q27 0 55 -10q7 -2 86 -42q70 -36 111 -96q37 -55 37 -111q0 -44 -30 -68q-20 -16 -81 -36q83 0 162 -35q116 -51 116 -149z"/>
<glyph glyph-name="Acircumflex" horiz-adv-x="667" unicode="В" d="M376 460q0 37 -37 88q-30 41 -77 69q-24 14 -70 26q-15 4 -40 9q0 -70 -9 -148l-18 -156q33 5 66 11q49 9 89 23t62 27q34 22 34 51zM608 172q0 -93 -166 -151q-125 -44 -220 -44h-22t-24 -1q-26 0 -38 4t-13 17q1 9 9 17t20 8l68 1q72 0 189 44q136 51 136 105 q0 64 -84 108q-77 40 -170 40q-66 -12 -92 -16q-46 -8 -76 -8q-4 -28 -6 -72t-2 -92q-1 -14 5 -42q4 -18 4 -30q0 -6 -1 -9q-3 -9 -5 -13t-8 -4q-28 0 -42 46q-17 57 -17 188q-25 0 -41 6t-16 22q0 19 17 27q7 3 40 10q0 35 4 92q11 157 11 242q0 25 20 39t64 13 q27 0 55 -10q7 -2 86 -42q70 -36 111 -96q37 -55 37 -111q0 -44 -30 -68q-20 -16 -81 -36q83 0 162 -35q116 -51 116 -149z"/>
<glyph glyph-name="Atilde" horiz-adv-x="473" unicode="Ã" d="M568 673q0 -15 -2 -19t-15 -4q-57 8 -101 14t-67 5q-27 0 -116 -16q-53 -10 -105 -20q-12 -33 -19 -121t-7 -178l-2 -172q0 -76 -7 -118t-29 -41q-14 1 -22 13t-8 34q0 13 1 33t1 34q0 39 1 101t1 101l2 199l3 97q-27 4 -31 5q-20 7 -20 25q0 10 20 21t33 13q-1 19 9 33 t23 13q23 0 34 -8t15 -25q24 8 94 16t109 8q57 0 131 -14t74 -29z"/>
<glyph glyph-name="Atilde" horiz-adv-x="473" unicode="Г" d="M568 673q0 -15 -2 -19t-15 -4q-57 8 -101 14t-67 5q-27 0 -116 -16q-53 -10 -105 -20q-12 -33 -19 -121t-7 -178l-2 -172q0 -76 -7 -118t-29 -41q-14 1 -22 13t-8 34q0 13 1 33t1 34q0 39 1 101t1 101l2 199l3 97q-27 4 -31 5q-20 7 -20 25q0 10 20 21t33 13q-1 19 9 33 t23 13q23 0 34 -8t15 -25q24 8 94 16t109 8q57 0 131 -14t74 -29z"/>
<glyph glyph-name="Adieresis" horiz-adv-x="648" unicode="Ä" d="M505 29q-21 31 -42 87t-49 173q-21 87 -49 181q-24 81 -36 109q-28 -68 -55 -135q-18 -38 -48 -110q-11 -26 -38 -92l-50 -113q-8 -15 -20 -55t-18 -46l65 1h340zM646 -59q0 -31 -6 -91t-15 -101q-3 -13 -6 -23t-6 -10q-23 0 -27 46t-4 86q0 10 -1 36t-1 33q0 27 3 53 q-9 -1 -31 -2t-59 -1h-31q-140 0 -236 1l-192 2q1 -5 1 -17q-1 -21 -1 -28q0 -26 -8 -86t-17 -103q-3 -12 -6 -22t-6 -11q-23 -1 -27 45t-4 87v175q0 11 21 11h25h12h11q9 2 13 2q-6 14 -6 24q0 21 38 111t75 178q15 39 54 129q59 138 66 160q6 34 12 66t22 32t31 -13 q20 -17 31 -50q36 -66 65 -200q22 -102 37 -156q37 -132 45 -158q25 -85 39 -117h33q26 1 41 -3t15 -16v-69z"/>
<glyph glyph-name="Adieresis" horiz-adv-x="648" unicode="Д" d="M505 29q-21 31 -42 87t-49 173q-21 87 -49 181q-24 81 -36 109q-28 -68 -55 -135q-18 -38 -48 -110q-11 -26 -38 -92l-50 -113q-8 -15 -20 -55t-18 -46l65 1h340zM646 -59q0 -31 -6 -91t-15 -101q-3 -13 -6 -23t-6 -10q-23 0 -27 46t-4 86q0 10 -1 36t-1 33q0 27 3 53 q-9 -1 -31 -2t-59 -1h-31q-140 0 -236 1l-192 2q1 -5 1 -17q-1 -21 -1 -28q0 -26 -8 -86t-17 -103q-3 -12 -6 -22t-6 -11q-23 -1 -27 45t-4 87v175q0 11 21 11h25h12h11q9 2 13 2q-6 14 -6 24q0 21 38 111t75 178q15 39 54 129q59 138 66 160q6 34 12 66t22 32t31 -13 q20 -17 31 -50q36 -66 65 -200q22 -102 37 -156q37 -132 45 -158q25 -85 39 -117h33q26 1 41 -3t15 -16v-69z"/>
<glyph glyph-name="Aring" horiz-adv-x="597" unicode="Å" d="M694 641q0 -6 -38 -6q-36 0 -84 2t-78 4q-99 0 -212 -24q-90 -19 -141 -42q-1 -7 -3 -35t-2 -38v-102q40 8 215 32t205 25q5 -1 14 -3t9 -5q0 -22 -106 -46q-49 -11 -118 -23l-226 -43l-20 -252q21 5 83 9t142 4q70 0 132 -9t62 -24q0 -16 -76 -17t-111 -1 q-70 0 -124 -13q-9 -2 -74 -21q-13 -4 -39 -16t-39 -12q-12 0 -24 11t-12 27q0 13 4 21q8 12 13 21q10 88 16 158t6 103q-12 0 -18 14t-7 29q0 25 32 28q1 6 1 17q0 8 -1 28t-1 32q0 35 -4 72t-5 66q0 33 40 33q17 1 27 -1t15 -7q76 18 132 30q112 24 162 24q74 0 144 -9 q109 -14 109 -41z"/>
<glyph glyph-name="Aring" horiz-adv-x="597" unicode="Е" d="M694 641q0 -6 -38 -6q-36 0 -84 2t-78 4q-99 0 -212 -24q-90 -19 -141 -42q-1 -7 -3 -35t-2 -38v-102q40 8 215 32t205 25q5 -1 14 -3t9 -5q0 -22 -106 -46q-49 -11 -118 -23l-226 -43l-20 -252q21 5 83 9t142 4q70 0 132 -9t62 -24q0 -16 -76 -17t-111 -1 q-70 0 -124 -13q-9 -2 -74 -21q-13 -4 -39 -16t-39 -12q-12 0 -24 11t-12 27q0 13 4 21q8 12 13 21q10 88 16 158t6 103q-12 0 -18 14t-7 29q0 25 32 28q1 6 1 17q0 8 -1 28t-1 32q0 35 -4 72t-5 66q0 33 40 33q17 1 27 -1t15 -7q76 18 132 30q112 24 162 24q74 0 144 -9 q109 -14 109 -41z"/>
<glyph glyph-name="AE" horiz-adv-x="780" unicode="Æ" d="M837 653q1 -25 -19 -35t-40 -17q-41 -27 -113 -84q-37 -30 -128 -104q-72 -59 -88 -72q36 -38 89 -95q67 -72 99 -110q40 -44 81 -88q22 -25 22 -33q0 -22 -27 -22q-11 0 -63 50q-19 18 -59 59q-48 51 -81 86q-68 72 -90 97q-5 -25 -8 -41t-3 -20q0 -30 -2 -96t-2 -84 q0 -40 -13 -40q-18 0 -27 62t-9 141l8 89q-69 -54 -137 -108q-96 -75 -161 -124q-80 -60 -89 -60q-12 0 -14 11q0 3 81 75q71 63 166 145q106 92 135 115q-33 35 -64 66q-35 34 -83 78q-85 70 -127 104t-42 38q-2 15 8 24t28 9q15 0 79 -55q40 -34 128 -117q54 -52 109 -103 q7 17 9 41t2 27q6 38 10 84t7 92q5 30 19 46t32 16q8 0 15 -9t7 -18q0 -17 -15 -106q-9 -53 -18 -105l-10 -56q74 66 118 102q84 70 140 110q71 51 93 51q21 0 34 -3t13 -13z"/>
<glyph glyph-name="AE" horiz-adv-x="780" unicode="Ж" d="M837 653q1 -25 -19 -35t-40 -17q-41 -27 -113 -84q-37 -30 -128 -104q-72 -59 -88 -72q36 -38 89 -95q67 -72 99 -110q40 -44 81 -88q22 -25 22 -33q0 -22 -27 -22q-11 0 -63 50q-19 18 -59 59q-48 51 -81 86q-68 72 -90 97q-5 -25 -8 -41t-3 -20q0 -30 -2 -96t-2 -84 q0 -40 -13 -40q-18 0 -27 62t-9 141l8 89q-69 -54 -137 -108q-96 -75 -161 -124q-80 -60 -89 -60q-12 0 -14 11q0 3 81 75q71 63 166 145q106 92 135 115q-33 35 -64 66q-35 34 -83 78q-85 70 -127 104t-42 38q-2 15 8 24t28 9q15 0 79 -55q40 -34 128 -117q54 -52 109 -103 q7 17 9 41t2 27q6 38 10 84t7 92q5 30 19 46t32 16q8 0 15 -9t7 -18q0 -17 -15 -106q-9 -53 -18 -105l-10 -56q74 66 118 102q84 70 140 110q71 51 93 51q21 0 34 -3t13 -13z"/>
<glyph glyph-name="Ccedilla" horiz-adv-x="524" unicode="Ç" d="M505 231q0 -97 -59 -160q-63 -67 -176 -67q-88 0 -166 26q-86 29 -86 65q0 30 22 30q12 0 24 -10t26 -20q23 -17 71 -29t109 -13q80 1 128 45t48 113q0 50 -29 81q-53 56 -188 56q-29 0 -73 -16t-51 -17q-17 0 -23 10t-6 29q0 11 74 41q48 19 69 30q59 47 86 86 q24 34 24 59q0 18 -15 26t-42 9q-40 0 -80 -12t-57 -34q-11 -21 -16 -28q-8 -13 -21 -13q-19 0 -19 32q0 6 2 20q7 36 71 64t138 28q44 0 74 -18t31 -55q0 -34 -18 -69q-30 -58 -107 -115q81 0 142 -30q93 -45 93 -144z"/>
<glyph glyph-name="Ccedilla" horiz-adv-x="524" unicode="З" d="M505 231q0 -97 -59 -160q-63 -67 -176 -67q-88 0 -166 26q-86 29 -86 65q0 30 22 30q12 0 24 -10t26 -20q23 -17 71 -29t109 -13q80 1 128 45t48 113q0 50 -29 81q-53 56 -188 56q-29 0 -73 -16t-51 -17q-17 0 -23 10t-6 29q0 11 74 41q48 19 69 30q59 47 86 86 q24 34 24 59q0 18 -15 26t-42 9q-40 0 -80 -12t-57 -34q-11 -21 -16 -28q-8 -13 -21 -13q-19 0 -19 32q0 6 2 20q7 36 71 64t138 28q44 0 74 -18t31 -55q0 -34 -18 -69q-30 -58 -107 -115q81 0 142 -30q93 -45 93 -144z"/>
<glyph glyph-name="Egrave" horiz-adv-x="694" unicode="È" d="M616 649q-29 -99 -51 -189t-22 -156q0 -48 7 -134t7 -104v-21q0 -14 -1 -17q-4 -13 -24 -13q-23 0 -31 53q-4 27 -8 66q-6 42 -8 63q-5 41 -5 69q0 22 4 55t14 103q12 70 27 118q-23 -26 -66 -82q-115 -150 -127 -164q-34 -41 -67 -82q-41 -50 -78 -92q-44 -50 -67 -70 q-5 -15 -13 -21t-17 -6q-10 0 -16 21t-6 53v69t12 105q11 65 24 134q27 145 27 223q0 12 10 30t20 18q20 0 26 -14t6 -43v-30q0 -31 -8 -87t-33 -178q-10 -47 -16 -90t-5 -81q6 6 42 44q30 31 51 57q69 81 132 162q69 91 94 124q60 83 71 95q38 44 63 44q12 0 22 -9t10 -23z "/>
<glyph glyph-name="Egrave" horiz-adv-x="694" unicode="И" d="M616 649q-29 -99 -51 -189t-22 -156q0 -48 7 -134t7 -104v-21q0 -14 -1 -17q-4 -13 -24 -13q-23 0 -31 53q-4 27 -8 66q-6 42 -8 63q-5 41 -5 69q0 22 4 55t14 103q12 70 27 118q-23 -26 -66 -82q-115 -150 -127 -164q-34 -41 -67 -82q-41 -50 -78 -92q-44 -50 -67 -70 q-5 -15 -13 -21t-17 -6q-10 0 -16 21t-6 53v69t12 105q11 65 24 134q27 145 27 223q0 12 10 30t20 18q20 0 26 -14t6 -43v-30q0 -31 -8 -87t-33 -178q-10 -47 -16 -90t-5 -81q6 6 42 44q30 31 51 57q69 81 132 162q69 91 94 124q60 83 71 95q38 44 63 44q12 0 22 -9t10 -23z "/>
<glyph glyph-name="Eacute" horiz-adv-x="636" unicode="É" d="M627 649q-29 -99 -51 -189t-22 -156q0 -48 7 -134t7 -104v-21q0 -14 -1 -17q-4 -13 -24 -13q-23 0 -31 53q-4 27 -8 66q-6 42 -8 63q-5 41 -5 69q-1 22 3 55t16 103t26 118q-23 -26 -66 -82q-115 -150 -127 -164q-34 -41 -67 -82q-41 -50 -78 -92q-44 -50 -67 -70 q-5 -15 -13 -21t-17 -6q-10 0 -16 21t-6 53q1 29 1 69t11 105t24 134q27 145 27 223q0 12 10 30t20 18q20 0 26 -14t6 -43v-30q0 -31 -8 -87t-33 -178q-9 -47 -15 -90t-6 -81q6 6 42 44q30 31 51 57q69 81 132 162q69 91 94 124q60 83 71 95q38 44 63 44q12 0 22 -9t10 -23z M563 828q0 -12 -12 -31q-17 -25 -43 -42t-48 -24t-43 -7q-28 0 -53 10q-15 6 -37 21q-14 10 -25 21q-14 16 -18 26t-4 21q0 13 7 23t20 10q9 0 25 -19q22 -26 24 -28q10 -9 21 -18q19 -15 40 -18h6q27 0 64 22q17 11 34 32q14 17 21 17q10 0 16 -3t5 -13z"/>
<glyph glyph-name="Eacute" horiz-adv-x="636" unicode="Й" d="M627 649q-29 -99 -51 -189t-22 -156q0 -48 7 -134t7 -104v-21q0 -14 -1 -17q-4 -13 -24 -13q-23 0 -31 53q-4 27 -8 66q-6 42 -8 63q-5 41 -5 69q-1 22 3 55t16 103t26 118q-23 -26 -66 -82q-115 -150 -127 -164q-34 -41 -67 -82q-41 -50 -78 -92q-44 -50 -67 -70 q-5 -15 -13 -21t-17 -6q-10 0 -16 21t-6 53q1 29 1 69t11 105t24 134q27 145 27 223q0 12 10 30t20 18q20 0 26 -14t6 -43v-30q0 -31 -8 -87t-33 -178q-9 -47 -15 -90t-6 -81q6 6 42 44q30 31 51 57q69 81 132 162q69 91 94 124q60 83 71 95q38 44 63 44q12 0 22 -9t10 -23z M563 828q0 -12 -12 -31q-17 -25 -43 -42t-48 -24t-43 -7q-28 0 -53 10q-15 6 -37 21q-14 10 -25 21q-14 16 -18 26t-4 21q0 13 7 23t20 10q9 0 25 -19q22 -26 24 -28q10 -9 21 -18q19 -15 40 -18h6q27 0 64 22q17 11 34 32q14 17 21 17q10 0 16 -3t5 -13z"/>
<glyph glyph-name="Ecircumflex" horiz-adv-x="620" unicode="Ê" d="M617 -23q0 -12 -11 -12q-12 1 -20 1q-36 0 -119 41q-96 47 -163 110t-118 125q-42 51 -63 88q0 -38 -7 -109t-15 -151q-1 -40 -7 -55t-24 -15q-14 1 -18 15t-5 44v27t1 31q10 133 16 249t6 173q0 54 -2 82t-2 57q0 18 10 32t29 13q14 0 26 -15q16 -21 16 -57 q0 -29 -4 -79q-11 -139 -11 -141q20 19 74 75q41 42 66 63q67 55 135 111q63 50 83 50q11 0 20 -9q5 -5 5 -8q0 -9 -72 -71q-18 -16 -148 -125q-21 -18 -56 -56t-70 -77q15 -34 64 -95t114 -128q31 -32 64 -58q29 -23 79 -55q19 -12 81 -41q46 -21 46 -30z"/>
<glyph glyph-name="Ecircumflex" horiz-adv-x="620" unicode="К" d="M617 -23q0 -12 -11 -12q-12 1 -20 1q-36 0 -119 41q-96 47 -163 110t-118 125q-42 51 -63 88q0 -38 -7 -109t-15 -151q-1 -40 -7 -55t-24 -15q-14 1 -18 15t-5 44v27t1 31q10 133 16 249t6 173q0 54 -2 82t-2 57q0 18 10 32t29 13q14 0 26 -15q16 -21 16 -57 q0 -29 -4 -79q-11 -139 -11 -141q20 19 74 75q41 42 66 63q67 55 135 111q63 50 83 50q11 0 20 -9q5 -5 5 -8q0 -9 -72 -71q-18 -16 -148 -125q-21 -18 -56 -56t-70 -77q15 -34 64 -95t114 -128q31 -32 64 -58q29 -23 79 -55q19 -12 81 -41q46 -21 46 -30z"/>
<glyph glyph-name="Edieresis" horiz-adv-x="582" unicode="Ë" d="M613 -18q0 -23 -12 -23q-14 0 -33 26q-31 41 -92 168q-33 71 -66 143q-37 81 -50 108q-36 76 -72 153q-28 -68 -55 -135q-11 -23 -24 -59q-30 -80 -37 -97l-75 -159q-11 -20 -23 -51t-12 -45q0 -11 -10 -19t-21 -7q-12 0 -21 13t-9 27q0 21 38 111t75 178q13 31 72 170 q40 93 48 119q6 34 12 66t22 32t31 -13q21 -18 31 -50q31 -57 68 -155q51 -136 68 -176q27 -63 62 -138q29 -63 57 -124t28 -63z"/>
<glyph glyph-name="Edieresis" horiz-adv-x="582" unicode="Л" d="M613 -18q0 -23 -12 -23q-14 0 -33 26q-31 41 -92 168q-33 71 -66 143q-37 81 -50 108q-36 76 -72 153q-28 -68 -55 -135q-11 -23 -24 -59q-30 -80 -37 -97l-75 -159q-11 -20 -23 -51t-12 -45q0 -11 -10 -19t-21 -7q-12 0 -21 13t-9 27q0 21 38 111t75 178q13 31 72 170 q40 93 48 119q6 34 12 66t22 32t31 -13q21 -18 31 -50q31 -57 68 -155q51 -136 68 -176q27 -63 62 -138q29 -63 57 -124t28 -63z"/>
<glyph glyph-name="Igrave" horiz-adv-x="716" unicode="Ì" d="M688 590q0 -50 -4 -150t-8 -199q-4 -98 -4 -138q0 -13 1 -29l2 -32q1 -21 -3 -32t-15 -11q-25 -1 -33 55t-9 147v87q0 40 1 107t3 144q-11 -15 -63 -114q-7 -13 -49 -92q-51 -99 -63 -117q-40 -60 -84 -60q-37 0 -83 48q-41 42 -76 107q-23 44 -37 71q-21 42 -34 76 q-14 -85 -23 -138q-24 -135 -43 -210q-27 -109 -46 -109q-10 1 -16 5t-5 19v12q0 19 17 121t35 205q22 130 27 174q2 13 3 37t1 35v40t1 24q5 28 22 28h2q18 0 35 -46q13 -41 26 -81q11 -27 28 -75q25 -71 54 -127t55 -96q40 -60 62 -60q17 0 51 55q27 44 54 103 q23 53 62 123l64 114q25 40 28 44q17 24 27 24q24 -1 32 -11t8 -31q0 -12 -1 -24t-2 -23z"/>
<glyph glyph-name="Igrave" horiz-adv-x="716" unicode="М" d="M688 590q0 -50 -4 -150t-8 -199q-4 -98 -4 -138q0 -13 1 -29l2 -32q1 -21 -3 -32t-15 -11q-25 -1 -33 55t-9 147v87q0 40 1 107t3 144q-11 -15 -63 -114q-7 -13 -49 -92q-51 -99 -63 -117q-40 -60 -84 -60q-37 0 -83 48q-41 42 -76 107q-23 44 -37 71q-21 42 -34 76 q-14 -85 -23 -138q-24 -135 -43 -210q-27 -109 -46 -109q-10 1 -16 5t-5 19v12q0 19 17 121t35 205q22 130 27 174q2 13 3 37t1 35v40t1 24q5 28 22 28h2q18 0 35 -46q13 -41 26 -81q11 -27 28 -75q25 -71 54 -127t55 -96q40 -60 62 -60q17 0 51 55q27 44 54 103 q23 53 62 123l64 114q25 40 28 44q17 24 27 24q24 -1 32 -11t8 -31q0 -12 -1 -24t-2 -23z"/>
<glyph glyph-name="Iacute" horiz-adv-x="641" unicode="Í" d="M631 651q-27 -98 -48 -185q-24 -100 -24 -160q-1 -48 3 -116t8 -144v-20q0 -14 -1 -17q-4 -13 -23 -13q-24 0 -30 58t-8 86q-2 26 -6 68q-3 42 -3 67q-49 -13 -99 -19t-126 -7q-52 0 -86 2t-47 9q0 -10 -10 -105t-10 -122q-1 -13 -9 -25t-22 -12q-10 0 -15 22t-5 54 q0 36 4 114t5 80q-15 0 -27 2t-19 3q-14 0 -24 10t-10 23q0 14 19 22q26 11 72 11q12 43 24 114q17 101 17 179q0 12 10 30t20 18q20 0 26 -14t6 -43v-30q0 -38 -18 -143q-12 -72 -23 -122q52 -10 70 -12t60 -2q14 0 58 -2t73 -2q54 0 85 7q29 198 31 207q32 161 71 161 q12 1 22 -9t9 -23z"/>
<glyph glyph-name="Iacute" horiz-adv-x="641" unicode="Н" d="M631 651q-27 -98 -48 -185q-24 -100 -24 -160q-1 -48 3 -116t8 -144v-20q0 -14 -1 -17q-4 -13 -23 -13q-24 0 -30 58t-8 86q-2 26 -6 68q-3 42 -3 67q-49 -13 -99 -19t-126 -7q-52 0 -86 2t-47 9q0 -10 -10 -105t-10 -122q-1 -13 -9 -25t-22 -12q-10 0 -15 22t-5 54 q0 36 4 114t5 80q-15 0 -27 2t-19 3q-14 0 -24 10t-10 23q0 14 19 22q26 11 72 11q12 43 24 114q17 101 17 179q0 12 10 30t20 18q20 0 26 -14t6 -43v-30q0 -38 -18 -143q-12 -72 -23 -122q52 -10 70 -12t60 -2q14 0 58 -2t73 -2q54 0 85 7q29 198 31 207q32 161 71 161 q12 1 22 -9t9 -23z"/>
<glyph glyph-name="Icircumflex" horiz-adv-x="606" unicode="Î" d="M609 345q0 -133 -109 -238t-250 -105q-114 0 -174 96q-55 88 -55 233q0 95 69 203t136 108q36 0 52 -14t16 -44q0 -32 -12 -53t-29 -21q-6 0 -6 8q0 3 3 15t3 17q0 10 -8 18q-11 11 -28 11q-33 0 -77 -77q-49 -85 -49 -173q0 -95 28 -161q45 -107 152 -107q115 -1 199 87 t83 202q0 67 -29 125q-25 49 -117 97q-85 44 -85 57q0 10 5 18t16 8q31 0 101 -39q86 -48 121 -106q25 -40 35 -78t9 -87z"/>
<glyph glyph-name="Icircumflex" horiz-adv-x="606" unicode="О" d="M609 345q0 -133 -109 -238t-250 -105q-114 0 -174 96q-55 88 -55 233q0 95 69 203t136 108q36 0 52 -14t16 -44q0 -32 -12 -53t-29 -21q-6 0 -6 8q0 3 3 15t3 17q0 10 -8 18q-11 11 -28 11q-33 0 -77 -77q-49 -85 -49 -173q0 -95 28 -161q45 -107 152 -107q115 -1 199 87 t83 202q0 67 -29 125q-25 49 -117 97q-85 44 -85 57q0 10 5 18t16 8q31 0 101 -39q86 -48 121 -106q25 -40 35 -78t9 -87z"/>
<glyph glyph-name="Idieresis" horiz-adv-x="595" unicode="Ï" d="M626 678q0 -15 -2 -19t-15 -4l-51 4q-31 -107 -52 -199t-21 -154q-1 -48 3 -116t8 -144v-20q0 -18 -4 -24t-20 -6q-24 0 -30 58t-8 88q-3 30 -6 78t-3 95q0 92 26 203q15 63 43 148q-28 4 -71 8t-59 4q-25 0 -84 -16q-38 -11 -75 -21q-34 -103 -65 -307t-31 -301 q-1 -13 -9 -25t-22 -12q-10 0 -15 22t-5 54q0 40 6 114t14 154t26 193q7 48 15 97h-17q-15 0 -24 4t-9 19q-1 10 19 21t34 14q0 18 9 32t23 14q23 0 34 -8t14 -25q28 9 78 17t84 7q78 1 170 -15t92 -32z"/>
<glyph glyph-name="Idieresis" horiz-adv-x="595" unicode="П" d="M626 678q0 -15 -2 -19t-15 -4l-51 4q-31 -107 -52 -199t-21 -154q-1 -48 3 -116t8 -144v-20q0 -18 -4 -24t-20 -6q-24 0 -30 58t-8 88q-3 30 -6 78t-3 95q0 92 26 203q15 63 43 148q-28 4 -71 8t-59 4q-25 0 -84 -16q-38 -11 -75 -21q-34 -103 -65 -307t-31 -301 q-1 -13 -9 -25t-22 -12q-10 0 -15 22t-5 54q0 40 6 114t14 154t26 193q7 48 15 97h-17q-15 0 -24 4t-9 19q-1 10 19 21t34 14q0 18 9 32t23 14q23 0 34 -8t14 -25q28 9 78 17t84 7q78 1 170 -15t92 -32z"/>
<glyph glyph-name="Eth" horiz-adv-x="422" unicode="Ð" d="M392 530q0 71 -42 98t-152 27q-2 0 -34 -1t-50 -4v-158v-122q2 0 22 -1t35 -1q30 0 59 4t53 12q45 16 77 60t32 86zM446 530q0 -62 -47 -120t-116 -78q-36 -10 -86 -16t-80 -5q0 -23 -3 -83q-8 -161 -8 -173q0 -37 -10 -59t-26 -22q-12 0 -16 12t-4 47v19l2 280 q0 50 -4 163t-4 149q-20 0 -27 2q-20 6 -20 25q1 25 47 37t135 13q136 0 197 -38q70 -44 70 -153z"/>
<glyph glyph-name="Eth" horiz-adv-x="422" unicode="Р" d="M392 530q0 71 -42 98t-152 27q-2 0 -34 -1t-50 -4v-158v-122q2 0 22 -1t35 -1q30 0 59 4t53 12q45 16 77 60t32 86zM446 530q0 -62 -47 -120t-116 -78q-36 -10 -86 -16t-80 -5q0 -23 -3 -83q-8 -161 -8 -173q0 -37 -10 -59t-26 -22q-12 0 -16 12t-4 47v19l2 280 q0 50 -4 163t-4 149q-20 0 -27 2q-20 6 -20 25q1 25 47 37t135 13q136 0 197 -38q70 -44 70 -153z"/>
<glyph glyph-name="Ntilde" horiz-adv-x="472" unicode="Ñ" d="M480 165q-4 -33 -91 -83q-102 -58 -204 -58q-93 0 -138 101q-32 72 -32 159q0 53 25 137q32 109 84 177q67 88 153 88q28 0 52 -11q36 -16 36 -50q0 -42 -20 -42q-24 0 -24 37q1 10 -13 14t-33 3q-63 0 -127 -118t-64 -231q0 -108 28 -155t89 -47q90 0 154 36 q52 40 105 80q20 0 20 -19v-18z"/>
<glyph glyph-name="Ntilde" horiz-adv-x="472" unicode="С" d="M480 165q-4 -33 -91 -83q-102 -58 -204 -58q-93 0 -138 101q-32 72 -32 159q0 53 25 137q32 109 84 177q67 88 153 88q28 0 52 -11q36 -16 36 -50q0 -42 -20 -42q-24 0 -24 37q1 10 -13 14t-33 3q-63 0 -127 -118t-64 -231q0 -108 28 -155t89 -47q90 0 154 36 q52 40 105 80q20 0 20 -19v-18z"/>
<glyph glyph-name="Ograve" horiz-adv-x="426" unicode="Ò" d="M260 524q0 -28 -2 -111t-2 -137q0 -88 -16 -180t-38 -92q-14 0 -17 6t-5 23q8 93 14 181t6 137q0 46 -2 118t-2 96q-1 14 10 25t18 11q26 0 33 -27q3 -12 3 -50zM519 673q0 -24 -27 -24q-28 5 -56 7t-64 2q-39 0 -128 -19t-154 -45q-55 -22 -77 -38q-17 -12 -21 -26 t-9 -20q-8 -10 -23 -10q-19 0 -26 12t-7 48q0 40 117 82q78 30 172 49t159 19h79q61 -4 65 -37z"/>
<glyph glyph-name="Ograve" horiz-adv-x="426" unicode="Т" d="M260 524q0 -28 -2 -111t-2 -137q0 -88 -16 -180t-38 -92q-14 0 -17 6t-5 23q8 93 14 181t6 137q0 46 -2 118t-2 96q-1 14 10 25t18 11q26 0 33 -27q3 -12 3 -50zM519 673q0 -24 -27 -24q-28 5 -56 7t-64 2q-39 0 -128 -19t-154 -45q-55 -22 -77 -38q-17 -12 -21 -26 t-9 -20q-8 -10 -23 -10q-19 0 -26 12t-7 48q0 40 117 82q78 30 172 49t159 19h79q61 -4 65 -37z"/>
<glyph glyph-name="Oacute" horiz-adv-x="499" unicode="Ó" d="M526 659q0 -13 -14 -49t-40 -92q-63 -129 -116 -225q-67 -121 -130 -210q-35 -50 -36 -51q-25 -32 -37 -32q-30 0 -30 30q0 8 36 59q92 130 102 150q-21 23 -61 79t-83 115q-49 71 -98 143q-28 42 -29 51v6q0 26 31 26q9 0 35 -37q96 -137 107 -150q23 -26 70 -88t62 -78 q22 35 64 117q27 52 55 106t56 110q26 47 37 47q7 0 13 -9t6 -18z"/>
<glyph glyph-name="Oacute" horiz-adv-x="499" unicode="У" d="M526 659q0 -13 -14 -49t-40 -92q-63 -129 -116 -225q-67 -121 -130 -210q-35 -50 -36 -51q-25 -32 -37 -32q-30 0 -30 30q0 8 36 59q92 130 102 150q-21 23 -61 79t-83 115q-49 71 -98 143q-28 42 -29 51v6q0 26 31 26q9 0 35 -37q96 -137 107 -150q23 -26 70 -88t62 -78 q22 35 64 117q27 52 55 106t56 110q26 47 37 47q7 0 13 -9t6 -18z"/>
<glyph glyph-name="Ocircumflex" horiz-adv-x="629" unicode="Ô" d="M282 558q-77 -18 -133 -73q-62 -61 -62 -135q0 -57 47 -116q57 -71 144 -84v128t1 129q0 40 1 77zM617 392q1 -120 -81 -210t-199 -90l1 -104v-44q0 -35 -4 -51t-17 -16q-21 0 -27 22t-6 60l-5 132q-107 1 -183 77t-76 184q0 75 83 158t180 107q0 89 8 135t31 46 q19 0 21 -28t2 -63l-1 -83q28 0 60 -3t62 -5q31 -2 73 -30q37 -24 37 -37q0 -9 -11 -15t-20 -7q-7 0 -36 12q-37 15 -53 18t-35 3q-20 0 -32 1h-46l-5 -148q0 -44 -1 -155t-1 -112q100 0 164 73t64 177q0 46 -49 70t-49 33q0 28 30 28q31 0 72 -36q49 -43 49 -99z"/>
<glyph glyph-name="Ocircumflex" horiz-adv-x="629" unicode="Ф" d="M282 558q-77 -18 -133 -73q-62 -61 -62 -135q0 -57 47 -116q57 -71 144 -84v128t1 129q0 40 1 77zM617 392q1 -120 -81 -210t-199 -90l1 -104v-44q0 -35 -4 -51t-17 -16q-21 0 -27 22t-6 60l-5 132q-107 1 -183 77t-76 184q0 75 83 158t180 107q0 89 8 135t31 46 q19 0 21 -28t2 -63l-1 -83q28 0 60 -3t62 -5q31 -2 73 -30q37 -24 37 -37q0 -9 -11 -15t-20 -7q-7 0 -36 12q-37 15 -53 18t-35 3q-20 0 -32 1h-46l-5 -148q0 -44 -1 -155t-1 -112q100 0 164 73t64 177q0 46 -49 70t-49 33q0 28 30 28q31 0 72 -36q49 -43 49 -99z"/>
<glyph glyph-name="Otilde" horiz-adv-x="623" unicode="Õ" d="M619 630q3 -29 -28 -40q-22 -8 -29 -15q-39 -40 -97 -102q-53 -56 -121 -133q7 -11 53 -69q70 -89 72 -91q33 -42 69 -98t37 -69q0 -23 -26 -23q-8 0 -65 75q-35 45 -58 73l-126 154q-4 -4 -78 -90q-95 -111 -122 -140q-66 -72 -77 -72q-9 0 -11 19q0 7 100 142t149 189 q-45 65 -136 167q-10 11 -68 68q-18 18 -18 21q-2 14 8 24t27 10q16 0 82 -70q77 -88 155 -176q80 92 160 185q75 78 103 78q21 0 33 -3t12 -14z"/>
<glyph glyph-name="Otilde" horiz-adv-x="623" unicode="Х" d="M619 630q3 -29 -28 -40q-22 -8 -29 -15q-39 -40 -97 -102q-53 -56 -121 -133q7 -11 53 -69q70 -89 72 -91q33 -42 69 -98t37 -69q0 -23 -26 -23q-8 0 -65 75q-35 45 -58 73l-126 154q-4 -4 -78 -90q-95 -111 -122 -140q-66 -72 -77 -72q-9 0 -11 19q0 7 100 142t149 189 q-45 65 -136 167q-10 11 -68 68q-18 18 -18 21q-2 14 8 24t27 10q16 0 82 -70q77 -88 155 -176q80 92 160 185q75 78 103 78q21 0 33 -3t12 -14z"/>
<glyph glyph-name="Odieresis" d="M631 24q0 -6 -12 -77t-12 -83l-4 -96q0 -21 -7 -30t-14 -9q-16 0 -22 39t-7 90q0 43 12 131q-30 3 -64 5t-85 2h-20h-295q-16 -1 -25 -1q-20 0 -32 6t-13 23q-1 7 11 12t30 5q-2 10 -2 31q0 56 4 118t16 147q18 96 26 141q15 82 15 152q0 12 10 30t20 18q20 0 26 -14 t6 -43v-30q0 -33 -22 -150q-14 -73 -19 -115q-11 -82 -21 -164t-10 -119l63 3q17 2 41 3t45 1q28 0 60 -2t66 -2h102q-2 7 -2 15v13q0 8 1 28t1 34v179q0 122 30 245t72 123q12 1 22 -9t9 -23q-27 -98 -48 -185q-24 -100 -24 -160v-265q3 -1 37 -3t35 -14z" unicode="Ö"/>
<glyph glyph-name="Odieresis" d="M631 24q0 -6 -12 -77t-12 -83l-4 -96q0 -21 -7 -30t-14 -9q-16 0 -22 39t-7 90q0 43 12 131q-30 3 -64 5t-85 2h-20h-295q-16 -1 -25 -1q-20 0 -32 6t-13 23q-1 7 11 12t30 5q-2 10 -2 31q0 56 4 118t16 147q18 96 26 141q15 82 15 152q0 12 10 30t20 18q20 0 26 -14 t6 -43v-30q0 -33 -22 -150q-14 -73 -19 -115q-11 -82 -21 -164t-10 -119l63 3q17 2 41 3t45 1q28 0 60 -2t66 -2h102q-2 7 -2 15v13q0 8 1 28t1 34v179q0 122 30 245t72 123q12 1 22 -9t9 -23q-27 -98 -48 -185q-24 -100 -24 -160v-265q3 -1 37 -3t35 -14z" unicode="Ц"/>
<glyph glyph-name="multiply" horiz-adv-x="553" unicode="×" d="M508 674q0 -66 -18 -147q-14 -58 -27 -116q0 -43 -8 -119q-19 -181 -19 -186q0 -22 2 -40t6 -37q0 -17 -8 -23t-21 -6q-21 0 -31 10t-10 43q0 27 10 121t19 155q-71 -81 -115 -101t-101 -21q-71 0 -113 61t-41 164q0 58 5 106t17 88t17 52q12 25 31 25q11 0 19 -11t8 -22 q-14 -55 -21 -87q-21 -97 -21 -147q0 -72 23 -116q28 -54 85 -54q55 0 87 18q45 25 100 105q25 33 45 121t19 148q0 26 12 39q8 9 17 9q18 0 25 -8t7 -24z"/>
<glyph glyph-name="multiply" horiz-adv-x="553" unicode="Ч" d="M508 674q0 -66 -18 -147q-14 -58 -27 -116q0 -43 -8 -119q-19 -181 -19 -186q0 -22 2 -40t6 -37q0 -17 -8 -23t-21 -6q-21 0 -31 10t-10 43q0 27 10 121t19 155q-71 -81 -115 -101t-101 -21q-71 0 -113 61t-41 164q0 58 5 106t17 88t17 52q12 25 31 25q11 0 19 -11t8 -22 q-14 -55 -21 -87q-21 -97 -21 -147q0 -72 23 -116q28 -54 85 -54q55 0 87 18q45 25 100 105q25 33 45 121t19 148q0 26 12 39q8 9 17 9q18 0 25 -8t7 -24z"/>
<glyph glyph-name="Oslash" horiz-adv-x="765" unicode="Ø" d="M767 648q-29 -98 -51 -188t-22 -157v-266q18 -2 21 -2q13 1 16 1q4 0 4 -12q0 -26 -6 -32t-28 -6q-55 0 -137 4t-168 6h-295q-16 -1 -25 -1q-20 0 -32 6t-13 23q-1 7 11 12t30 5q-2 10 -2 31q0 56 4 118t16 147q18 96 26 141q15 82 15 152q0 12 10 30t20 18q20 0 26 -14 t6 -43v-30q0 -33 -22 -150q-14 -73 -19 -115q-11 -82 -21 -164t-10 -119l63 3q35 3 69 3q20 0 55 -1t48 -1q-6 31 -10 75t-3 90q1 25 9 94t22 142q10 53 19 111q5 31 9 63t18 48t33 15q8 0 15 -8t7 -18q0 -14 -9 -69q-10 -56 -24 -140l-19 -114q-20 -110 -20 -124 q0 -38 -1 -63q-4 -102 -4 -103q79 0 136 -1t100 -2q-2 7 -2 15v13q0 7 1 27t1 35v178q0 125 27 238q31 131 74 131q12 0 22 -9t10 -23z"/>
<glyph glyph-name="Oslash" horiz-adv-x="765" unicode="Ш" d="M767 648q-29 -98 -51 -188t-22 -157v-266q18 -2 21 -2q13 1 16 1q4 0 4 -12q0 -26 -6 -32t-28 -6q-55 0 -137 4t-168 6h-295q-16 -1 -25 -1q-20 0 -32 6t-13 23q-1 7 11 12t30 5q-2 10 -2 31q0 56 4 118t16 147q18 96 26 141q15 82 15 152q0 12 10 30t20 18q20 0 26 -14 t6 -43v-30q0 -33 -22 -150q-14 -73 -19 -115q-11 -82 -21 -164t-10 -119l63 3q35 3 69 3q20 0 55 -1t48 -1q-6 31 -10 75t-3 90q1 25 9 94t22 142q10 53 19 111q5 31 9 63t18 48t33 15q8 0 15 -8t7 -18q0 -14 -9 -69q-10 -56 -24 -140l-19 -114q-20 -110 -20 -124 q0 -38 -1 -63q-4 -102 -4 -103q79 0 136 -1t100 -2q-2 7 -2 15v13q0 7 1 27t1 35v178q0 125 27 238q31 131 74 131q12 0 22 -9t10 -23z"/>
<glyph glyph-name="Ugrave" horiz-adv-x="781" unicode="Ù" d="M767 21q0 -7 -12 -78t-12 -83q0 -18 -2 -45t-3 -50q0 -21 -7 -30t-14 -9q-15 0 -21 40t-7 89q-1 21 3 59t9 72q-27 2 -141 6t-164 4h-295q-16 -1 -25 -1q-20 0 -32 6t-13 23q-1 7 11 12t30 5q-2 10 -2 31q0 56 4 118t16 147q18 96 26 141q15 82 15 152q0 12 10 30t20 18 q20 0 26 -14t6 -43v-30q0 -33 -22 -150q-14 -73 -19 -115q-11 -82 -21 -164t-10 -119l63 3q35 3 69 3q20 0 55 -1t48 -1q-6 31 -10 75t-3 90q1 25 9 94t22 142q10 53 19 111q5 31 9 63t18 48t33 15q8 0 15 -8t7 -18q0 -14 -9 -69q-10 -56 -24 -140l-19 -114 q-20 -110 -20 -124q0 -38 -1 -63q-4 -102 -4 -103q79 0 136 -1t100 -2q-2 7 -2 15v13q0 7 1 27t1 35v178q0 125 27 238q31 131 74 131q12 0 22 -9t10 -23q-29 -98 -51 -188t-22 -157v-266q26 -1 50 -2t23 -14z"/>
<glyph glyph-name="Ugrave" horiz-adv-x="781" unicode="Щ" d="M767 21q0 -7 -12 -78t-12 -83q0 -18 -2 -45t-3 -50q0 -21 -7 -30t-14 -9q-15 0 -21 40t-7 89q-1 21 3 59t9 72q-27 2 -141 6t-164 4h-295q-16 -1 -25 -1q-20 0 -32 6t-13 23q-1 7 11 12t30 5q-2 10 -2 31q0 56 4 118t16 147q18 96 26 141q15 82 15 152q0 12 10 30t20 18 q20 0 26 -14t6 -43v-30q0 -33 -22 -150q-14 -73 -19 -115q-11 -82 -21 -164t-10 -119l63 3q35 3 69 3q20 0 55 -1t48 -1q-6 31 -10 75t-3 90q1 25 9 94t22 142q10 53 19 111q5 31 9 63t18 48t33 15q8 0 15 -8t7 -18q0 -14 -9 -69q-10 -56 -24 -140l-19 -114 q-20 -110 -20 -124q0 -38 -1 -63q-4 -102 -4 -103q79 0 136 -1t100 -2q-2 7 -2 15v13q0 7 1 27t1 35v178q0 125 27 238q31 131 74 131q12 0 22 -9t10 -23q-29 -98 -51 -188t-22 -157v-266q26 -1 50 -2t23 -14z"/>
<glyph glyph-name="Uacute" horiz-adv-x="732" unicode="Ú" d="M668 156q0 68 -60 110t-148 41q-40 1 -73 -5t-94 -28q-5 -30 -7 -70t-2 -85v-91q31 -10 54 -14t51 -4q68 0 166 43q113 50 113 103zM729 156q0 -92 -143 -149q-109 -43 -197 -43q-27 0 -54 2t-62 8t-45 32t-11 81q0 51 1 91t2 77q-24 0 -40 6t-17 22q0 19 17 27 q7 3 40 10q0 35 4 98q11 174 11 222l-72 -1h-17q-47 0 -60 9t-13 29q0 26 167 26q2 13 10 21t18 8t20 -8t17 -21q18 -2 27 -7t9 -19q0 -16 -23 -25l1 -13q0 -27 -13 -157t-13 -148q53 11 111 18t93 7q97 1 165 -57t67 -146z"/>
<glyph glyph-name="Uacute" horiz-adv-x="732" unicode="Ъ" d="M668 156q0 68 -60 110t-148 41q-40 1 -73 -5t-94 -28q-5 -30 -7 -70t-2 -85v-91q31 -10 54 -14t51 -4q68 0 166 43q113 50 113 103zM729 156q0 -92 -143 -149q-109 -43 -197 -43q-27 0 -54 2t-62 8t-45 32t-11 81q0 51 1 91t2 77q-24 0 -40 6t-17 22q0 19 17 27 q7 3 40 10q0 35 4 98q11 174 11 222l-72 -1h-17q-47 0 -60 9t-13 29q0 26 167 26q2 13 10 21t18 8t20 -8t17 -21q18 -2 27 -7t9 -19q0 -16 -23 -25l1 -13q0 -27 -13 -157t-13 -148q53 11 111 18t93 7q97 1 165 -57t67 -146z"/>
<glyph glyph-name="Ucircumflex" horiz-adv-x="778" unicode="Û" d="M516 166q0 68 -60 110t-148 41q-47 0 -91 -10q-26 -6 -76 -23q-5 -30 -7 -70t-2 -85q0 -15 4 -55t5 -48q21 -6 97 -6q67 0 165 43q113 50 113 103zM578 166q0 -92 -143 -149q-109 -43 -197 -43h-41q-22 0 -39 2t-27 9q-27 0 -45 73t-18 207q-24 0 -40 6t-17 22 q0 18 18 26q6 3 39 11q0 34 5 117q12 199 12 248q0 17 9 31t23 15q23 -1 37 -29t13 -63q0 -27 -13 -157t-13 -148q57 11 113 18t91 7q97 0 165 -58t68 -145zM759 699q-11 -53 -21 -108t-15 -117t-9 -136q-4 -72 -4 -96q0 -32 -4 -88t-7 -120q1 -16 -13 -28t-24 -13 q-10 1 -14 37t-5 94v60t1 58q0 20 7 105t7 140q0 47 7 87q10 44 21 89q4 31 18 47t33 15q8 0 15 -8t7 -18z"/>
<glyph glyph-name="Ucircumflex" horiz-adv-x="778" unicode="Ы" d="M516 166q0 68 -60 110t-148 41q-47 0 -91 -10q-26 -6 -76 -23q-5 -30 -7 -70t-2 -85q0 -15 4 -55t5 -48q21 -6 97 -6q67 0 165 43q113 50 113 103zM578 166q0 -92 -143 -149q-109 -43 -197 -43h-41q-22 0 -39 2t-27 9q-27 0 -45 73t-18 207q-24 0 -40 6t-17 22 q0 18 18 26q6 3 39 11q0 34 5 117q12 199 12 248q0 17 9 31t23 15q23 -1 37 -29t13 -63q0 -27 -13 -157t-13 -148q57 11 113 18t91 7q97 0 165 -58t68 -145zM759 699q-11 -53 -21 -108t-15 -117t-9 -136q-4 -72 -4 -96q0 -32 -4 -88t-7 -120q1 -16 -13 -28t-24 -13 q-10 1 -14 37t-5 94v60t1 58q0 20 7 105t7 140q0 47 7 87q10 44 21 89q4 31 18 47t33 15q8 0 15 -8t7 -18z"/>
<glyph glyph-name="Udieresis" horiz-adv-x="561" unicode="Ü" d="M476 158q0 68 -60 110t-148 41q-50 0 -90 -9q-25 -6 -77 -24q-9 -65 -9 -155l14 -102q28 -3 50 -5t42 -2q67 0 165 43q113 50 113 103zM538 158q0 -92 -143 -149q-109 -43 -197 -43h-24q-24 0 -46 2t-37 8q-62 0 -62 281q-19 0 -29 2q-29 6 -29 26q0 19 18 27q7 3 40 10 q0 28 8 169t8 197q-1 16 9 31t23 15q23 0 37 -29t14 -64q0 -30 -14 -162t-13 -142q41 7 83 14q70 10 122 10q96 1 164 -57t68 -146z"/>
<glyph glyph-name="Udieresis" horiz-adv-x="561" unicode="Ь" d="M476 158q0 68 -60 110t-148 41q-50 0 -90 -9q-25 -6 -77 -24q-9 -65 -9 -155l14 -102q28 -3 50 -5t42 -2q67 0 165 43q113 50 113 103zM538 158q0 -92 -143 -149q-109 -43 -197 -43h-24q-24 0 -46 2t-37 8q-62 0 -62 281q-19 0 -29 2q-29 6 -29 26q0 19 18 27q7 3 40 10 q0 28 8 169t8 197q-1 16 9 31t23 15q23 0 37 -29t14 -64q0 -30 -14 -162t-13 -142q41 7 83 14q70 10 122 10q96 1 164 -57t68 -146z"/>
<glyph glyph-name="Yacute" horiz-adv-x="518" unicode="Ý" d="M430 339q0 -17 -38 -21t-118 -4q-24 0 -56 -1t-43 -1q-22 0 -54 3h-23q-34 0 -45 4q-17 6 -17 25q0 18 82 24q80 6 165 6q47 0 65 -2t35 -3q12 -2 25 -3q22 -5 22 -27zM513 420q0 -53 -30 -141q-38 -111 -99 -183q-78 -92 -177 -92q-33 0 -80 14q-64 19 -74 48 q-3 8 -3 15q0 11 7 19t16 8q11 0 27 -14t21 -17q15 -7 45 -15t43 -8q95 0 168 126q67 115 67 236q0 108 -28 155t-89 47q-90 0 -154 -36q-53 -40 -105 -80q-20 0 -20 19v18q4 33 91 83q102 58 204 58q93 0 138 -101q32 -72 32 -159z"/>
<glyph glyph-name="Yacute" horiz-adv-x="518" unicode="Э" d="M430 339q0 -17 -38 -21t-118 -4q-24 0 -56 -1t-43 -1q-22 0 -54 3h-23q-34 0 -45 4q-17 6 -17 25q0 18 82 24q80 6 165 6q47 0 65 -2t35 -3q12 -2 25 -3q22 -5 22 -27zM513 420q0 -53 -30 -141q-38 -111 -99 -183q-78 -92 -177 -92q-33 0 -80 14q-64 19 -74 48 q-3 8 -3 15q0 11 7 19t16 8q11 0 27 -14t21 -17q15 -7 45 -15t43 -8q95 0 168 126q67 115 67 236q0 108 -28 155t-89 47q-90 0 -154 -36q-53 -40 -105 -80q-20 0 -20 19v18q4 33 91 83q102 58 204 58q93 0 138 -101q32 -72 32 -159z"/>
<glyph glyph-name="Thorn" horiz-adv-x="812" unicode="Þ" d="M803 337q0 -138 -81 -236q-87 -105 -224 -105q-88 0 -162 106q-62 89 -62 147q-52 0 -86 2t-47 9q0 -10 -10 -105t-10 -122q-1 -13 -9 -25t-22 -12q-10 0 -15 22t-5 54q0 36 4 114t5 80q-15 0 -27 2t-19 3q-14 0 -24 10t-10 23q0 14 19 22q26 11 72 11q12 43 24 114 q17 101 17 179q0 12 10 30t20 18q20 0 26 -14t6 -43v-30q0 -38 -18 -143q-12 -72 -23 -122q43 -8 61 -10t61 -2q0 96 67 209t133 113q38 0 53 -14t15 -44q0 -32 -12 -53t-28 -21q-6 0 -6 7q0 5 3 16t3 16q0 10 -8 18q-11 11 -29 11q-32 0 -76 -77q-49 -86 -49 -173 q0 -93 28 -160q45 -108 151 -108q108 0 172 94q56 82 56 193q0 65 -30 125q-21 42 -71 72q-95 58 -95 60q-1 10 5 19t16 9q30 0 83 -29q69 -38 104 -95q25 -41 35 -78t9 -87z"/>
<glyph glyph-name="Thorn" horiz-adv-x="812" unicode="Ю" d="M803 337q0 -138 -81 -236q-87 -105 -224 -105q-88 0 -162 106q-62 89 -62 147q-52 0 -86 2t-47 9q0 -10 -10 -105t-10 -122q-1 -13 -9 -25t-22 -12q-10 0 -15 22t-5 54q0 36 4 114t5 80q-15 0 -27 2t-19 3q-14 0 -24 10t-10 23q0 14 19 22q26 11 72 11q12 43 24 114 q17 101 17 179q0 12 10 30t20 18q20 0 26 -14t6 -43v-30q0 -38 -18 -143q-12 -72 -23 -122q43 -8 61 -10t61 -2q0 96 67 209t133 113q38 0 53 -14t15 -44q0 -32 -12 -53t-28 -21q-6 0 -6 7q0 5 3 16t3 16q0 10 -8 18q-11 11 -29 11q-32 0 -76 -77q-49 -86 -49 -173 q0 -93 28 -160q45 -108 151 -108q108 0 172 94q56 82 56 193q0 65 -30 125q-21 42 -71 72q-95 58 -95 60q-1 10 5 19t16 9q30 0 83 -29q69 -38 104 -95q25 -41 35 -78t9 -87z"/>
<glyph glyph-name="germandbls" horiz-adv-x="521" unicode="ß" d="M441 605q1 13 -5 23t-17 10q-71 0 -159 -70t-88 -136q0 -28 9 -40q19 -24 80 -33q20 -3 76 -7t80 -5q0 10 8 71q5 38 5 55zM504 629q-12 -101 -18 -177t-7 -131l-17 -266q0 -75 -25 -75q-14 0 -21 20t-7 57l6 194q-17 -14 -73 -54q-80 -57 -97 -69q-30 -21 -107 -79 q-109 -82 -134 -82q-5 1 -11 5q-5 4 -5 7q0 9 125 107q74 57 116 94l60 54q65 57 78 71h-13q-50 0 -97 6q-83 13 -119 39t-36 69q0 99 119 191q113 88 214 88q11 0 17 -1q52 -5 52 -68z"/>
<glyph glyph-name="germandbls" horiz-adv-x="521" unicode="Я" d="M441 605q1 13 -5 23t-17 10q-71 0 -159 -70t-88 -136q0 -28 9 -40q19 -24 80 -33q20 -3 76 -7t80 -5q0 10 8 71q5 38 5 55zM504 629q-12 -101 -18 -177t-7 -131l-17 -266q0 -75 -25 -75q-14 0 -21 20t-7 57l6 194q-17 -14 -73 -54q-80 -57 -97 -69q-30 -21 -107 -79 q-109 -82 -134 -82q-5 1 -11 5q-5 4 -5 7q0 9 125 107q74 57 116 94l60 54q65 57 78 71h-13q-50 0 -97 6q-83 13 -119 39t-36 69q0 99 119 191q113 88 214 88q11 0 17 -1q52 -5 52 -68z"/>
<glyph glyph-name="agrave" horiz-adv-x="615" unicode="à" d="M185 288q3 8 3 15q0 27 -23 27q-41 0 -87 -70t-45 -112q-1 -22 3 -38t12 -16q25 0 91 114zM627 156q0 -9 -30 -37q-36 -33 -77 -57q-63 -36 -120 -54t-111 -17q-48 1 -73 49t-25 146q-31 -62 -55 -95q-51 -71 -96 -71q-40 0 -54 23t-14 75q0 69 48 157q60 109 143 109 q31 0 45 -6t33 -25q11 3 21 -15t10 -40q0 -27 -3 -83t-3 -71q0 -47 7 -63q12 -28 50 -28q37 0 65 6q49 10 105 42q35 19 88 64q22 18 24 18q25 -4 22 -27z"/>
<glyph glyph-name="agrave" horiz-adv-x="615" unicode="а" d="M185 288q3 8 3 15q0 27 -23 27q-41 0 -87 -70t-45 -112q-1 -22 3 -38t12 -16q25 0 91 114zM627 156q0 -9 -30 -37q-36 -33 -77 -57q-63 -36 -120 -54t-111 -17q-48 1 -73 49t-25 146q-31 -62 -55 -95q-51 -71 -96 -71q-40 0 -54 23t-14 75q0 69 48 157q60 109 143 109 q31 0 45 -6t33 -25q11 3 21 -15t10 -40q0 -27 -3 -83t-3 -71q0 -47 7 -63q12 -28 50 -28q37 0 65 6q49 10 105 42q35 19 88 64q22 18 24 18q25 -4 22 -27z"/>
<glyph glyph-name="aacute" horiz-adv-x="340" unicode="á" d="M363 851q0 -21 -38 -52t-90 -55q-62 -22 -86 -31q-42 -16 -42 -46q0 -66 29 -131q17 -39 73 -125q38 -56 58 -102q26 -59 26 -104q0 -74 -38 -130q-42 -61 -104 -61q-49 0 -86 37q-41 41 -41 104q0 54 6 86q3 14 17 60q7 23 28 49t33 26q25 0 25 -24q0 -12 -9 -32 t-17 -38q-11 -29 -15 -54t-4 -61q0 -31 16 -63t45 -32q27 0 51 40t24 82q0 50 -18 100t-48 91q-57 76 -84 151t-27 144q0 50 52 73q55 20 110 41q23 11 55 35q59 44 70 44q10 0 20 -6t9 -16z"/>
<glyph glyph-name="aacute" horiz-adv-x="340" unicode="б" d="M363 851q0 -21 -38 -52t-90 -55q-62 -22 -86 -31q-42 -16 -42 -46q0 -66 29 -131q17 -39 73 -125q38 -56 58 -102q26 -59 26 -104q0 -74 -38 -130q-42 -61 -104 -61q-49 0 -86 37q-41 41 -41 104q0 54 6 86q3 14 17 60q7 23 28 49t33 26q25 0 25 -24q0 -12 -9 -32 t-17 -38q-11 -29 -15 -54t-4 -61q0 -31 16 -63t45 -32q27 0 51 40t24 82q0 50 -18 100t-48 91q-57 76 -84 151t-27 144q0 50 52 73q55 20 110 41q23 11 55 35q59 44 70 44q10 0 20 -6t9 -16z"/>
<glyph glyph-name="acircumflex" horiz-adv-x="345" unicode="â" d="M179 662q-8 48 -19 76q-16 43 -37 43q-23 0 -35 -42t-12 -146q0 -30 -2 -62q-5 -81 -5 -92q39 25 71 72q42 61 42 121q0 15 -3 30zM288 194q0 -76 -28 -126q-33 -58 -93 -58q-47 0 -80 26t-46 77t-17 112t-4 118q-8 -7 -14 -12t-20 -5q-8 0 -18 8t-11 16q0 11 30 38 q13 12 33 28q0 8 -4 72t-3 95q0 157 31 208q28 46 87 46q37 0 59 -29t41 -129q2 -11 3 -25t1 -25q0 -89 -56 -163q-43 -57 -103 -88v-49t1 -51q1 -42 5 -80t14 -77q2 -23 22 -41t49 -19q35 0 51 40q13 32 13 82q1 43 -31 85t-64 42q-22 0 -36 4t-14 20q0 12 8 24t23 12 q74 0 126 -63q45 -55 45 -113z"/>
<glyph glyph-name="acircumflex" horiz-adv-x="345" unicode="в" d="M179 662q-8 48 -19 76q-16 43 -37 43q-23 0 -35 -42t-12 -146q0 -30 -2 -62q-5 -81 -5 -92q39 25 71 72q42 61 42 121q0 15 -3 30zM288 194q0 -76 -28 -126q-33 -58 -93 -58q-47 0 -80 26t-46 77t-17 112t-4 118q-8 -7 -14 -12t-20 -5q-8 0 -18 8t-11 16q0 11 30 38 q13 12 33 28q0 8 -4 72t-3 95q0 157 31 208q28 46 87 46q37 0 59 -29t41 -129q2 -11 3 -25t1 -25q0 -89 -56 -163q-43 -57 -103 -88v-49t1 -51q1 -42 5 -80t14 -77q2 -23 22 -41t49 -19q35 0 51 40q13 32 13 82q1 43 -31 85t-64 42q-22 0 -36 4t-14 20q0 12 8 24t23 12 q74 0 126 -63q45 -55 45 -113z"/>
<glyph glyph-name="atilde" horiz-adv-x="485" unicode="ã" d="M528 150q0 -12 -40 -38t-84 -46q-66 -29 -124 -47t-102 -18q-57 0 -93 20q-45 25 -45 78q0 32 36 76q30 37 62 57t45 34q22 20 22 35q0 38 -48 38q-26 0 -47 -13q-14 -9 -27 -25q-18 -22 -20 -23q-6 -5 -17 -5q-12 1 -17 11t-5 28q0 34 50 58t90 24q48 0 80 -24t32 -63 q0 -32 -31 -62q-13 -13 -60 -46q-33 -23 -54 -51t-21 -49q0 -22 9 -30q15 -13 66 -13q43 0 103 19q22 7 101 38q40 16 81 36q30 15 33 15h16q9 -2 9 -14z"/>
<glyph glyph-name="atilde" horiz-adv-x="485" unicode="г" d="M528 150q0 -12 -40 -38t-84 -46q-66 -29 -124 -47t-102 -18q-57 0 -93 20q-45 25 -45 78q0 32 36 76q30 37 62 57t45 34q22 20 22 35q0 38 -48 38q-26 0 -47 -13q-14 -9 -27 -25q-18 -22 -20 -23q-6 -5 -17 -5q-12 1 -17 11t-5 28q0 34 50 58t90 24q48 0 80 -24t32 -63 q0 -32 -31 -62q-13 -13 -60 -46q-33 -23 -54 -51t-21 -49q0 -22 9 -30q15 -13 66 -13q43 0 103 19q22 7 101 38q40 16 81 36q30 15 33 15h16q9 -2 9 -14z"/>
<glyph glyph-name="adieresis" horiz-adv-x="466" unicode="ä" d="M358 30q0 -89 -6 -123t-34 -101q-23 -56 -74 -105q-64 -61 -132 -61q-70 0 -115 38q-37 32 -37 65q0 29 24 29q13 0 23 -13q7 -12 11 -18q16 -23 34 -34t46 -11q53 0 105 44t72 103t25 94t5 76q0 23 -5 73t-10 61q-12 -54 -56 -89t-88 -35q-51 0 -78 20q-36 27 -36 87 q0 61 44 124q52 75 136 95q4 1 10 1t8 1q22 0 22 -18q0 -10 -39 -33q-20 -11 -39 -22q-39 -24 -60 -73q-17 -39 -17 -75q0 -22 10 -34q14 -17 39 -17q41 0 80 42q27 29 47 70q-1 32 -3 52t-5 42q0 29 34 29q15 0 37 -94t22 -190z"/>
<glyph glyph-name="adieresis" horiz-adv-x="466" unicode="д" d="M358 30q0 -89 -6 -123t-34 -101q-23 -56 -74 -105q-64 -61 -132 -61q-70 0 -115 38q-37 32 -37 65q0 29 24 29q13 0 23 -13q7 -12 11 -18q16 -23 34 -34t46 -11q53 0 105 44t72 103t25 94t5 76q0 23 -5 73t-10 61q-12 -54 -56 -89t-88 -35q-51 0 -78 20q-36 27 -36 87 q0 61 44 124q52 75 136 95q4 1 10 1t8 1q22 0 22 -18q0 -10 -39 -33q-20 -11 -39 -22q-39 -24 -60 -73q-17 -39 -17 -75q0 -22 10 -34q14 -17 39 -17q41 0 80 42q27 29 47 70q-1 32 -3 52t-5 42q0 29 34 29q15 0 37 -94t22 -190z"/>
<glyph glyph-name="aring" horiz-adv-x="485" unicode="å" d="M205 277q-1 19 -23 29t-57 9q-11 0 -27 -13q-16 -12 -17 -24q-2 -12 -4 -46t-2 -41q17 4 48 16q31 13 48 21t25 22t9 27zM535 128q0 -12 -50 -46t-100 -57q-51 -23 -105 -35t-102 -11q-59 0 -103 33q-55 41 -55 116v42t-1 44q0 20 1 40t4 36q7 34 40 58t70 24 q51 0 94 -24q49 -28 49 -71q0 -40 -28 -65q-20 -18 -62 -32q-29 -8 -55 -18t-55 -21q0 -38 24 -68q30 -38 84 -38q47 0 91 10t98 30q40 15 91 43q43 24 44 24q17 0 21 -2t5 -12z"/>
<glyph glyph-name="aring" horiz-adv-x="485" unicode="е" d="M205 277q-1 19 -23 29t-57 9q-11 0 -27 -13q-16 -12 -17 -24q-2 -12 -4 -46t-2 -41q17 4 48 16q31 13 48 21t25 22t9 27zM535 128q0 -12 -50 -46t-100 -57q-51 -23 -105 -35t-102 -11q-59 0 -103 33q-55 41 -55 116v42t-1 44q0 20 1 40t4 36q7 34 40 58t70 24 q51 0 94 -24q49 -28 49 -71q0 -40 -28 -65q-20 -18 -62 -32q-29 -8 -55 -18t-55 -21q0 -38 24 -68q30 -38 84 -38q47 0 91 10t98 30q40 15 91 43q43 24 44 24q17 0 21 -2t5 -12z"/>
<glyph glyph-name="ae" horiz-adv-x="964" unicode="æ" d="M1023 158q1 -11 -19 -25l-78 -52q-56 -41 -112 -60t-106 -19q-63 0 -89 34t-26 131q-8 -17 -34 -49l-52 -64q-19 -25 -27 -35q-14 -17 -23 -17q-25 0 -41 53t-16 110q0 14 -2 56t-2 71q-31 -49 -53 -84q-43 -69 -55 -97q-14 -37 -46 -68q-41 -41 -85 -41q-64 0 -109 34 t-45 69q1 12 11 26t25 14q21 -1 31 -7t10 -33q0 -31 28 -46q20 -11 49 -11q38 0 62 57q21 50 21 111q0 50 -18 70t-51 21q-21 0 -41 -17t-32 -17q-18 0 -18 19q0 20 33 40t69 21q46 0 74 -24q40 -34 40 -113q25 46 51 92q38 64 56 64q33 0 46 -32q9 -23 9 -69v-25t-1 -23 q0 -37 4 -73t10 -69q13 20 45 65q38 52 40 56q16 27 28 46q12 18 33 48t40 45q25 20 51 20q32 0 58 -17t26 -45q0 -20 -14 -20q-11 0 -21 18t-24 18q-39 -1 -61 -55t-22 -114q0 -50 20 -74t52 -24q26 0 78 18t100 48q17 10 73 47q25 16 32 16q18 0 18 -19z"/>
<glyph glyph-name="ae" horiz-adv-x="964" unicode="ж" d="M1023 158q1 -11 -19 -25l-78 -52q-56 -41 -112 -60t-106 -19q-63 0 -89 34t-26 131q-8 -17 -34 -49l-52 -64q-19 -25 -27 -35q-14 -17 -23 -17q-25 0 -41 53t-16 110q0 14 -2 56t-2 71q-31 -49 -53 -84q-43 -69 -55 -97q-14 -37 -46 -68q-41 -41 -85 -41q-64 0 -109 34 t-45 69q1 12 11 26t25 14q21 -1 31 -7t10 -33q0 -31 28 -46q20 -11 49 -11q38 0 62 57q21 50 21 111q0 50 -18 70t-51 21q-21 0 -41 -17t-32 -17q-18 0 -18 19q0 20 33 40t69 21q46 0 74 -24q40 -34 40 -113q25 46 51 92q38 64 56 64q33 0 46 -32q9 -23 9 -69v-25t-1 -23 q0 -37 4 -73t10 -69q13 20 45 65q38 52 40 56q16 27 28 46q12 18 33 48t40 45q25 20 51 20q32 0 58 -17t26 -45q0 -20 -14 -20q-11 0 -21 18t-24 18q-39 -1 -61 -55t-22 -114q0 -50 20 -74t52 -24q26 0 78 18t100 48q17 10 73 47q25 16 32 16q18 0 18 -19z"/>
<glyph glyph-name="ccedilla" horiz-adv-x="415" unicode="ç" d="M310 -38v-24q0 -42 -4 -63t-18 -67q-28 -84 -86 -129q-53 -41 -116 -41q-71 0 -111 40q-31 31 -31 68q0 32 22 32q8 0 18 -15t18 -29q16 -22 34 -34t45 -11q55 0 91 34q28 27 58 91q12 28 18 65t6 73q0 82 -41 104q-11 6 -22 8t-25 3q-21 -1 -30 -1q-12 0 -16 7t-4 17 q0 17 11 20q33 10 55 38t22 62q0 24 -6 39q-9 24 -30 24q-39 0 -74 -45q-11 -15 -33 -55q-5 -7 -9 -13q-6 -6 -19 -6q-11 0 -12 2t-1 17q0 45 50 99t98 54q52 0 76 -38q18 -28 18 -71q0 -29 -17 -61t-47 -52q46 0 79 -38t33 -104z"/>
<glyph glyph-name="ccedilla" horiz-adv-x="415" unicode="з" d="M310 -38v-24q0 -42 -4 -63t-18 -67q-28 -84 -86 -129q-53 -41 -116 -41q-71 0 -111 40q-31 31 -31 68q0 32 22 32q8 0 18 -15t18 -29q16 -22 34 -34t45 -11q55 0 91 34q28 27 58 91q12 28 18 65t6 73q0 82 -41 104q-11 6 -22 8t-25 3q-21 -1 -30 -1q-12 0 -16 7t-4 17 q0 17 11 20q33 10 55 38t22 62q0 24 -6 39q-9 24 -30 24q-39 0 -74 -45q-11 -15 -33 -55q-5 -7 -9 -13q-6 -6 -19 -6q-11 0 -12 2t-1 17q0 45 50 99t98 54q52 0 76 -38q18 -28 18 -71q0 -29 -17 -61t-47 -52q46 0 79 -38t33 -104z"/>
<glyph glyph-name="egrave" horiz-adv-x="647" unicode="è" d="M690 145q0 -22 -78 -73q-93 -61 -183 -61q-39 0 -67 14q-38 19 -52 60q-10 27 -16 55t-10 53q-18 -61 -76 -121t-92 -61q-36 0 -59 21q-28 25 -36 81q-3 21 -3 90q0 68 3 97q0 19 11 31t24 12q13 1 20 -9t7 -40q0 -3 -2 -35t-2 -53v-78q3 -52 37 -52q24 0 66 55 q39 50 56 91q10 29 30 54t35 25q24 0 35 -84q8 -61 15 -85q11 -36 30 -50t59 -15q63 0 124 34q53 36 107 72q11 -1 14 -7t3 -21z"/>
<glyph glyph-name="egrave" horiz-adv-x="647" unicode="и" d="M690 145q0 -22 -78 -73q-93 -61 -183 -61q-39 0 -67 14q-38 19 -52 60q-10 27 -16 55t-10 53q-18 -61 -76 -121t-92 -61q-36 0 -59 21q-28 25 -36 81q-3 21 -3 90q0 68 3 97q0 19 11 31t24 12q13 1 20 -9t7 -40q0 -3 -2 -35t-2 -53v-78q3 -52 37 -52q24 0 66 55 q39 50 56 91q10 29 30 54t35 25q24 0 35 -84q8 -61 15 -85q11 -36 30 -50t59 -15q63 0 124 34q53 36 107 72q11 -1 14 -7t3 -21z"/>
<glyph glyph-name="eacute" horiz-adv-x="637" unicode="é" d="M690 145q0 -22 -78 -73q-93 -61 -183 -61q-39 0 -67 14q-38 19 -52 60q-10 27 -16 55t-10 53q-18 -61 -76 -121t-92 -61q-34 0 -61 26t-34 72q-3 20 -3 92v52t3 47q0 19 11 31t24 12q13 1 20 -9t7 -40q0 -3 -2 -35t-2 -53q0 -60 2 -78q6 -51 40 -51q22 0 63 55 q37 50 54 90q10 29 30 54t35 25q24 0 35 -84q8 -61 15 -85q11 -36 30 -50t59 -15q63 0 124 34q53 36 107 72q11 -1 14 -7t3 -21zM328 547q0 -11 -12 -31q-16 -28 -42 -44t-50 -23q-22 -7 -42 -7q-29 0 -53 10q-14 6 -38 21q-11 8 -24 22q-15 18 -19 29t-4 17q0 13 7 23 t21 10q9 0 25 -19q22 -26 24 -28l28 -24q16 -11 35 -11q22 0 36 5t31 17t33 30t23 18q21 0 21 -15z"/>
<glyph glyph-name="eacute" horiz-adv-x="637" unicode="й" d="M690 145q0 -22 -78 -73q-93 -61 -183 -61q-39 0 -67 14q-38 19 -52 60q-10 27 -16 55t-10 53q-18 -61 -76 -121t-92 -61q-34 0 -61 26t-34 72q-3 20 -3 92v52t3 47q0 19 11 31t24 12q13 1 20 -9t7 -40q0 -3 -2 -35t-2 -53q0 -60 2 -78q6 -51 40 -51q22 0 63 55 q37 50 54 90q10 29 30 54t35 25q24 0 35 -84q8 -61 15 -85q11 -36 30 -50t59 -15q63 0 124 34q53 36 107 72q11 -1 14 -7t3 -21zM328 547q0 -11 -12 -31q-16 -28 -42 -44t-50 -23q-22 -7 -42 -7q-29 0 -53 10q-14 6 -38 21q-11 8 -24 22q-15 18 -19 29t-4 17q0 13 7 23 t21 10q9 0 25 -19q22 -26 24 -28l28 -24q16 -11 35 -11q22 0 36 5t31 17t33 30t23 18q21 0 21 -15z"/>
<glyph glyph-name="ecircumflex" horiz-adv-x="552" unicode="ê" d="M626 142q0 -11 -51 -46t-96 -55q-55 -25 -107 -37t-102 -11q-32 0 -82 37t-67 79q-10 -48 -16 -70q-11 -39 -31 -39q-21 0 -29 13q-4 6 -9 33q-6 44 -8 80t-3 71q0 41 -6 65q-8 22 -15 45q0 13 8 21t19 8q22 0 39 -27t17 -71q0 -24 2 -62l2 -38q7 29 21 59q18 38 44 67 q32 34 55 50q31 22 59 22q16 0 32 -14t16 -26q0 -18 -15 -33t-44 -26t-57 -30t-39 -40q18 -48 41 -75q38 -46 90 -46q45 0 81 10t90 31q45 18 92 44q22 12 44 25h15t10 -14z"/>
<glyph glyph-name="ecircumflex" horiz-adv-x="552" unicode="к" d="M626 142q0 -11 -51 -46t-96 -55q-55 -25 -107 -37t-102 -11q-32 0 -82 37t-67 79q-10 -48 -16 -70q-11 -39 -31 -39q-21 0 -29 13q-4 6 -9 33q-6 44 -8 80t-3 71q0 41 -6 65q-8 22 -15 45q0 13 8 21t19 8q22 0 39 -27t17 -71q0 -24 2 -62l2 -38q7 29 21 59q18 38 44 67 q32 34 55 50q31 22 59 22q16 0 32 -14t16 -26q0 -18 -15 -33t-44 -26t-57 -30t-39 -40q18 -48 41 -75q38 -46 90 -46q45 0 81 10t90 31q45 18 92 44q22 12 44 25h15t10 -14z"/>
<glyph glyph-name="edieresis" d="M741 133q0 -6 -25 -24q-21 -15 -60 -39q-49 -30 -98 -49t-79 -19q-68 0 -91 27t-23 104v85q-17 -32 -37 -60t-44 -60q-38 -48 -69 -69q-40 -27 -93 -27q-44 0 -84 42t-41 76q0 12 10 28t25 15q22 -1 32 -7t10 -36q0 -69 64 -69q28 0 62 30q27 24 62 72q23 32 48 74t37 73 q5 18 21 27t26 9q26 0 36 -13t9 -37q0 -8 -6 -56t-6 -68q-1 -54 9 -79t43 -25q35 0 70 13q25 9 73 35t65 35q27 14 37 14q17 0 17 -22z" unicode="ë"/>
<glyph glyph-name="edieresis" d="M741 133q0 -6 -25 -24q-21 -15 -60 -39q-49 -30 -98 -49t-79 -19q-68 0 -91 27t-23 104v85q-17 -32 -37 -60t-44 -60q-38 -48 -69 -69q-40 -27 -93 -27q-44 0 -84 42t-41 76q0 12 10 28t25 15q22 -1 32 -7t10 -36q0 -69 64 -69q28 0 62 30q27 24 62 72q23 32 48 74t37 73 q5 18 21 27t26 9q26 0 36 -13t9 -37q0 -8 -6 -56t-6 -68q-1 -54 9 -79t43 -25q35 0 70 13q25 9 73 35t65 35q27 14 37 14q17 0 17 -22z" unicode="л"/>
<glyph glyph-name="igrave" horiz-adv-x="978" unicode="ì" d="M1044 143q0 -26 -80 -79q-92 -61 -174 -61q-79 0 -127 78q-38 62 -38 130q-58 -95 -87 -132q-57 -72 -101 -72q-29 0 -48 26q-26 35 -26 105v84q-23 -40 -39 -64t-42 -56q-39 -49 -69 -69q-40 -26 -93 -26q-46 -1 -86 41t-40 76q0 13 10 28t26 15q22 -1 32 -7t10 -36 q0 -69 63 -69q29 0 63 30q27 24 62 72q24 34 47 74q27 47 37 74q6 17 22 26t26 9q21 0 27 -9t6 -28v-13v-124q0 -90 29 -90q15 0 61 65q36 51 79 122l26 48q14 21 36 21q26 0 26 -22q0 -3 -1 -15t-1 -20q0 -96 29 -154q33 -66 93 -66t115 31q50 35 101 70q26 0 26 -13z"/>
<glyph glyph-name="igrave" horiz-adv-x="978" unicode="м" d="M1044 143q0 -26 -80 -79q-92 -61 -174 -61q-79 0 -127 78q-38 62 -38 130q-58 -95 -87 -132q-57 -72 -101 -72q-29 0 -48 26q-26 35 -26 105v84q-23 -40 -39 -64t-42 -56q-39 -49 -69 -69q-40 -26 -93 -26q-46 -1 -86 41t-40 76q0 13 10 28t26 15q22 -1 32 -7t10 -36 q0 -69 63 -69q29 0 63 30q27 24 62 72q24 34 47 74q27 47 37 74q6 17 22 26t26 9q21 0 27 -9t6 -28v-13v-124q0 -90 29 -90q15 0 61 65q36 51 79 122l26 48q14 21 36 21q26 0 26 -22q0 -3 -1 -15t-1 -20q0 -96 29 -154q33 -66 93 -66t115 31q50 35 101 70q26 0 26 -13z"/>
<glyph glyph-name="iacute" horiz-adv-x="682" unicode="í" d="M718 156q0 -14 -44 -52t-90 -61q-44 -24 -86 -37t-76 -13q-64 1 -98 21t-51 61q-5 11 -10 35t-6 40h-15t-12 -1h-23t-25 1h-102q1 -4 0 -16t0 -17q4 -21 7 -32q9 -35 9 -43q0 -18 -7 -29t-27 -11q-26 0 -34 32t-9 76v40q-36 0 -36 37q0 12 36 17q0 25 3 61t3 43 q0 16 7 26t30 10q14 0 16 -22t2 -52v-22t-1 -21q0 -16 1 -22h71h16h13h34t33 1h10l2 76q1 32 9 47t22 15q22 0 22 -62q0 -54 2 -92t11 -63q15 -49 35 -67t57 -18q25 0 51 6t83 31q35 15 112 75q31 24 38 24q17 0 17 -12v-10z"/>
<glyph glyph-name="iacute" horiz-adv-x="682" unicode="н" d="M718 156q0 -14 -44 -52t-90 -61q-44 -24 -86 -37t-76 -13q-64 1 -98 21t-51 61q-5 11 -10 35t-6 40h-15t-12 -1h-23t-25 1h-102q1 -4 0 -16t0 -17q4 -21 7 -32q9 -35 9 -43q0 -18 -7 -29t-27 -11q-26 0 -34 32t-9 76v40q-36 0 -36 37q0 12 36 17q0 25 3 61t3 43 q0 16 7 26t30 10q14 0 16 -22t2 -52v-22t-1 -21q0 -16 1 -22h71h16h13h34t33 1h10l2 76q1 32 9 47t22 15q22 0 22 -62q0 -54 2 -92t11 -63q15 -49 35 -67t57 -18q25 0 51 6t83 31q35 15 112 75q31 24 38 24q17 0 17 -12v-10z"/>
<glyph glyph-name="icircumflex" horiz-adv-x="380" unicode="î" d="M321 310q0 -18 -18 -26q-12 -5 -29 -5q8 -19 14 -47t5 -49q0 -62 -38 -122q-44 -69 -104 -69q-47 0 -81 30t-38 70q-4 41 -4 65q0 37 4 63t15 59q7 23 28 49t33 26q25 0 25 -24q0 -12 -9 -32t-17 -38q-9 -28 -15 -70t-6 -80q0 -24 17 -42t46 -18q27 0 51 40t24 82 q0 50 -4 78t-13 40q-25 8 -36 15q-19 12 -19 27q0 39 31 44q4 1 12 1q17 0 33 -13q11 -9 28 -32q19 -2 39 -3q26 -4 26 -19z"/>
<glyph glyph-name="icircumflex" horiz-adv-x="380" unicode="о" d="M321 310q0 -18 -18 -26q-12 -5 -29 -5q8 -19 14 -47t5 -49q0 -62 -38 -122q-44 -69 -104 -69q-47 0 -81 30t-38 70q-4 41 -4 65q0 37 4 63t15 59q7 23 28 49t33 26q25 0 25 -24q0 -12 -9 -32t-17 -38q-9 -28 -15 -70t-6 -80q0 -24 17 -42t46 -18q27 0 51 40t24 82 q0 50 -4 78t-13 40q-25 8 -36 15q-19 12 -19 27q0 39 31 44q4 1 12 1q17 0 33 -13q11 -9 28 -32q19 -2 39 -3q26 -4 26 -19z"/>
<glyph glyph-name="idieresis" horiz-adv-x="684" unicode="ï" d="M740 150q0 -12 -38 -48t-77 -60q-45 -29 -99 -44t-91 -15q-66 -1 -97 25t-52 91q-9 31 -17 63q-9 25 -26 25q-11 0 -39 -32q-23 -26 -54 -71q-16 -24 -24 -35q-22 -29 -38 -29q-25 0 -36 34q-4 12 -12 64t-12 107q-6 55 -6 83q0 18 6 27t30 9q14 0 21 -24t7 -58 q0 -31 3 -52t17 -85q21 33 61 82q23 29 49 47t43 18q37 0 57 -37q12 -23 26 -87t26 -85q17 -29 50 -29q42 0 84 10t92 35q28 14 95 70q27 23 34 23q13 0 15 -4t2 -18z"/>
<glyph glyph-name="idieresis" horiz-adv-x="684" unicode="п" d="M740 150q0 -12 -38 -48t-77 -60q-45 -29 -99 -44t-91 -15q-66 -1 -97 25t-52 91q-9 31 -17 63q-9 25 -26 25q-11 0 -39 -32q-23 -26 -54 -71q-16 -24 -24 -35q-22 -29 -38 -29q-25 0 -36 34q-4 12 -12 64t-12 107q-6 55 -6 83q0 18 6 27t30 9q14 0 21 -24t7 -58 q0 -31 3 -52t17 -85q21 33 61 82q23 29 49 47t43 18q37 0 57 -37q12 -23 26 -87t26 -85q17 -29 50 -29q42 0 84 10t92 35q28 14 95 70q27 23 34 23q13 0 15 -4t2 -18z"/>
<glyph glyph-name="eth" horiz-adv-x="397" unicode="ð" d="M327 213q0 -72 -40 -148q-45 -85 -103 -85q-35 0 -59 22t-24 62q0 64 26 64q24 0 24 -22l1 -33q0 -14 6 -27t20 -13q33 0 58 44q31 54 31 146q0 28 -20 46t-43 18q-24 1 -48 -15t-51 -49l-7 -40q-8 -65 -8 -128q0 -24 1 -80t1 -59q0 -48 6 -102l7 -63q0 -13 18 -46 q10 -18 10 -28q0 -27 -7 -37t-34 -10q-20 0 -32 27t-12 68l-11 196v177q0 52 5 111q12 142 12 146q0 11 -4 25t-10 31q0 19 6 25t23 7q15 0 27 -17t12 -33v-96q22 24 41 35q27 16 61 16q41 0 77 -36q40 -40 40 -99z"/>
<glyph glyph-name="eth" horiz-adv-x="397" unicode="р" d="M327 213q0 -72 -40 -148q-45 -85 -103 -85q-35 0 -59 22t-24 62q0 64 26 64q24 0 24 -22l1 -33q0 -14 6 -27t20 -13q33 0 58 44q31 54 31 146q0 28 -20 46t-43 18q-24 1 -48 -15t-51 -49l-7 -40q-8 -65 -8 -128q0 -24 1 -80t1 -59q0 -48 6 -102l7 -63q0 -13 18 -46 q10 -18 10 -28q0 -27 -7 -37t-34 -10q-20 0 -32 27t-12 68l-11 196v177q0 52 5 111q12 142 12 146q0 11 -4 25t-10 31q0 19 6 25t23 7q15 0 27 -17t12 -33v-96q22 24 41 35q27 16 61 16q41 0 77 -36q40 -40 40 -99z"/>
<glyph glyph-name="ntilde" horiz-adv-x="435" unicode="ñ" d="M488 158q2 -12 -36 -35t-70 -46q-66 -43 -134 -69t-118 -26q-53 0 -87 44t-34 102q0 68 25 139q36 104 105 104q37 0 65 -18t28 -46q0 -21 -16 -21q-13 0 -23 18t-27 18q-43 0 -69 -60q-22 -52 -22 -117q0 -54 23 -80q20 -23 56 -23q28 0 87 20t111 50q18 10 82 50 q26 16 35 16q13 0 16 -4t3 -16z"/>
<glyph glyph-name="ntilde" horiz-adv-x="435" unicode="с" d="M488 158q2 -12 -36 -35t-70 -46q-66 -43 -134 -69t-118 -26q-53 0 -87 44t-34 102q0 68 25 139q36 104 105 104q37 0 65 -18t28 -46q0 -21 -16 -21q-13 0 -23 18t-27 18q-43 0 -69 -60q-22 -52 -22 -117q0 -54 23 -80q20 -23 56 -23q28 0 87 20t111 50q18 10 82 50 q26 16 35 16q13 0 16 -4t3 -16z"/>
<glyph glyph-name="ograve" horiz-adv-x="789" unicode="ò" d="M834 163q0 -26 -80 -79q-92 -61 -174 -61q-89 0 -143 61q-43 69 -53 83q-18 -34 -39 -56q-29 -30 -56 -30q-17 1 -31 11t-28 31q-8 13 -14 32t-10 38q-5 19 -8 33q-6 14 -18 14t-28 -28t-33 -71q-21 -53 -24 -58q-17 -29 -43 -29q-16 0 -20 16t-4 48v30t1 31q1 35 -3 73 t-6 66q0 18 8 32t24 14q20 0 33 -57q10 -45 10 -85q20 35 40 58q27 30 45 30q24 0 48 -16t34 -46q1 -3 13 -56q8 -38 19 -38q17 0 33 32q8 16 17 48q5 21 11 43q6 15 29 15q24 0 34 -31t19 -46q33 -69 62 -99q39 -41 93 -41q60 0 115 31l100 70q27 0 27 -13z"/>
<glyph glyph-name="ograve" horiz-adv-x="789" unicode="т" d="M834 163q0 -26 -80 -79q-92 -61 -174 -61q-89 0 -143 61q-43 69 -53 83q-18 -34 -39 -56q-29 -30 -56 -30q-17 1 -31 11t-28 31q-8 13 -14 32t-10 38q-5 19 -8 33q-6 14 -18 14t-28 -28t-33 -71q-21 -53 -24 -58q-17 -29 -43 -29q-16 0 -20 16t-4 48v30t1 31q1 35 -3 73 t-6 66q0 18 8 32t24 14q20 0 33 -57q10 -45 10 -85q20 35 40 58q27 30 45 30q24 0 48 -16t34 -46q1 -3 13 -56q8 -38 19 -38q17 0 33 32q8 16 17 48q5 21 11 43q6 15 29 15q24 0 34 -31t19 -46q33 -69 62 -99q39 -41 93 -41q60 0 115 31l100 70q27 0 27 -13z"/>
<glyph glyph-name="oacute" horiz-adv-x="632" unicode="ó" d="M327 -198v187q-46 -27 -82 -83q-47 -73 -47 -159q0 -37 20 -73t41 -36q33 0 52 59q16 49 16 105zM674 170q0 -10 -122 -65q-70 -31 -163 -70v-70t1 -75v-51q0 -152 -34 -204t-100 -52q-51 1 -84 43t-33 107q0 120 73 217q44 59 115 107q1 33 -1 53t-4 46v16q2 14 2 22 q-36 -44 -87 -88q-71 -61 -111 -61q-29 0 -46 24q-3 5 -23 47q-7 14 -21 51q-12 28 -18 44q-6 17 -10 33t-6 28q0 40 36 40q26 0 34 -35t14 -68q12 -42 20 -64q16 -42 38 -42t67 44q17 17 83 91q50 57 74 74q6 4 11 4q11 0 17 -10t6 -30q0 -16 -6 -40t-8 -34q-2 -11 -2 -23 q0 -17 1 -40t2 -45q44 26 147 68t116 42q10 0 16 -12t6 -22z"/>
<glyph glyph-name="oacute" horiz-adv-x="632" unicode="у" d="M327 -198v187q-46 -27 -82 -83q-47 -73 -47 -159q0 -37 20 -73t41 -36q33 0 52 59q16 49 16 105zM674 170q0 -10 -122 -65q-70 -31 -163 -70v-70t1 -75v-51q0 -152 -34 -204t-100 -52q-51 1 -84 43t-33 107q0 120 73 217q44 59 115 107q1 33 -1 53t-4 46v16q2 14 2 22 q-36 -44 -87 -88q-71 -61 -111 -61q-29 0 -46 24q-3 5 -23 47q-7 14 -21 51q-12 28 -18 44q-6 17 -10 33t-6 28q0 40 36 40q26 0 34 -35t14 -68q12 -42 20 -64q16 -42 38 -42t67 44q17 17 83 91q50 57 74 74q6 4 11 4q11 0 17 -10t6 -30q0 -16 -6 -40t-8 -34q-2 -11 -2 -23 q0 -17 1 -40t2 -45q44 26 147 68t116 42q10 0 16 -12t6 -22z"/>
<glyph glyph-name="ocircumflex" horiz-adv-x="609" unicode="ô" d="M255 303q-11 17 -20 24q-12 10 -24 10q-53 0 -102 -109q-41 -91 -41 -133q0 -36 22 -36q13 0 67 55q43 44 76 82q2 22 4 32t6 28t7 30t5 17zM527 256q0 -71 -46 -157q-52 -97 -110 -97q-35 0 -57 22t-22 62q0 64 27 64q23 0 23 -22v-33q0 -20 8 -30t17 -10q28 0 62 68 t34 122q0 28 -19 46t-42 18q-20 0 -52 -27q-27 -23 -53 -55l-4 -22q-9 -55 -13 -111t-3 -119v-37q1 -44 3 -88t4 -77q0 -13 13 -37t13 -37q0 -27 -8 -37t-35 -10q-21 0 -31 26t-9 69q-1 21 -3 97t-2 99q0 41 6 103t5 77q-9 -13 -22 -27l-46 -46q-21 -24 -39 -36t-51 -12 q-29 0 -49 32t-20 72q0 49 33 114q29 58 71 107q22 26 52 43t54 17q18 1 28 -5t23 -19q4 14 5 52t1 91q0 12 -4 26t-8 30q0 32 31 32q15 0 24 -16t9 -35q-1 -62 -3 -123t-7 -98q31 32 49 40t46 8q40 0 78 -34t39 -80z"/>
<glyph glyph-name="ocircumflex" horiz-adv-x="609" unicode="ф" d="M255 303q-11 17 -20 24q-12 10 -24 10q-53 0 -102 -109q-41 -91 -41 -133q0 -36 22 -36q13 0 67 55q43 44 76 82q2 22 4 32t6 28t7 30t5 17zM527 256q0 -71 -46 -157q-52 -97 -110 -97q-35 0 -57 22t-22 62q0 64 27 64q23 0 23 -22v-33q0 -20 8 -30t17 -10q28 0 62 68 t34 122q0 28 -19 46t-42 18q-20 0 -52 -27q-27 -23 -53 -55l-4 -22q-9 -55 -13 -111t-3 -119v-37q1 -44 3 -88t4 -77q0 -13 13 -37t13 -37q0 -27 -8 -37t-35 -10q-21 0 -31 26t-9 69q-1 21 -3 97t-2 99q0 41 6 103t5 77q-9 -13 -22 -27l-46 -46q-21 -24 -39 -36t-51 -12 q-29 0 -49 32t-20 72q0 49 33 114q29 58 71 107q22 26 52 43t54 17q18 1 28 -5t23 -19q4 14 5 52t1 91q0 12 -4 26t-8 30q0 32 31 32q15 0 24 -16t9 -35q-1 -62 -3 -123t-7 -98q31 32 49 40t46 8q40 0 78 -34t39 -80z"/>
<glyph glyph-name="otilde" horiz-adv-x="521" unicode="õ" d="M513 17q0 -29 -51 -29q-40 0 -136 78t-106 86l-62 -51q-10 -8 -55 -47q-54 -47 -85 -52q-6 -1 -12 4t-6 11q0 10 49 55q20 19 79 68q14 10 28 24t29 27q-51 48 -102 97q-14 14 -28 30t-14 24q0 17 22 17q11 0 53 -35q53 -47 107 -93q9 7 33 29q12 11 88 81q26 25 35 32 q19 15 27 15q10 0 18 -8t8 -18t-23 -32q-8 -7 -31 -29q-19 -17 -57 -55q-31 -31 -55 -53q19 -20 52 -50q46 -42 85 -69q32 -22 49 -28t39 -6t22 -23z"/>
<glyph glyph-name="otilde" horiz-adv-x="521" unicode="х" d="M513 17q0 -29 -51 -29q-40 0 -136 78t-106 86l-62 -51q-10 -8 -55 -47q-54 -47 -85 -52q-6 -1 -12 4t-6 11q0 10 49 55q20 19 79 68q14 10 28 24t29 27q-51 48 -102 97q-14 14 -28 30t-14 24q0 17 22 17q11 0 53 -35q53 -47 107 -93q9 7 33 29q12 11 88 81q26 25 35 32 q19 15 27 15q10 0 18 -8t8 -18t-23 -32q-8 -7 -31 -29q-19 -17 -57 -55q-31 -31 -55 -53q19 -20 52 -50q46 -42 85 -69q32 -22 49 -28t39 -6t22 -23z"/>
<glyph glyph-name="odieresis" horiz-adv-x="576" unicode="ö" d="M537 94q0 -50 -20 -134t-40 -117q-34 -53 -74 -53q-27 0 -27 33q0 14 18 26q26 18 33 25q17 18 34 74q14 44 23 94q-14 -14 -32 -22t-41 -8q-30 0 -57 24t-42 61q-8 19 -22 57t-18 55q-47 -50 -81 -83q-67 -64 -96 -64t-41 22t-21 74q-4 28 -8 64t-4 60q0 13 1 18 q0 18 10 30t24 12q12 0 21 -12t9 -35q0 -47 3 -84t17 -79q24 18 65 60t60 68q21 26 30 34q15 14 29 14q23 0 37 -54t27 -107q19 -49 35 -65t36 -16q25 0 53 36q28 35 36 34h1q11 0 15 -4q7 -4 7 -38z"/>
<glyph glyph-name="odieresis" horiz-adv-x="576" unicode="ц" d="M537 94q0 -50 -20 -134t-40 -117q-34 -53 -74 -53q-27 0 -27 33q0 14 18 26q26 18 33 25q17 18 34 74q14 44 23 94q-14 -14 -32 -22t-41 -8q-30 0 -57 24t-42 61q-8 19 -22 57t-18 55q-47 -50 -81 -83q-67 -64 -96 -64t-41 22t-21 74q-4 28 -8 64t-4 60q0 13 1 18 q0 18 10 30t24 12q12 0 21 -12t9 -35q0 -47 3 -84t17 -79q24 18 65 60t60 68q21 26 30 34q15 14 29 14q23 0 37 -54t27 -107q19 -49 35 -65t36 -16q25 0 53 36q28 35 36 34h1q11 0 15 -4q7 -4 7 -38z"/>
<glyph glyph-name="divide" horiz-adv-x="502" unicode="÷" d="M556 127q0 -7 -22 -25t-57 -40q-46 -30 -87 -47q-58 -24 -114 -24q-72 0 -103 34q-27 29 -27 86q0 30 11 92q7 39 18 91q-12 -8 -32 -16t-42 -8q-33 0 -53 16q-17 -41 -34 -67q-8 -12 -18 -21t-18 -7q-13 4 -13 19q0 6 5 16q11 18 21 36q11 19 11 30q0 4 -2 7 q-6 12 -6 31q0 16 4 26t16 9q14 0 53 -29q19 -14 34 -14q33 0 59 16q24 18 49 36q19 0 27 -13t8 -29q0 -12 -8 -43t-14 -63t-10 -64q-4 -31 -3 -51q0 -32 28 -50q20 -13 46 -16q49 0 94 16q31 11 74 37q20 12 58 38q24 17 30 17h1q8 -1 12 -7t4 -19z"/>
<glyph glyph-name="divide" horiz-adv-x="502" unicode="ч" d="M556 127q0 -7 -22 -25t-57 -40q-46 -30 -87 -47q-58 -24 -114 -24q-72 0 -103 34q-27 29 -27 86q0 30 11 92q7 39 18 91q-12 -8 -32 -16t-42 -8q-33 0 -53 16q-17 -41 -34 -67q-8 -12 -18 -21t-18 -7q-13 4 -13 19q0 6 5 16q11 18 21 36q11 19 11 30q0 4 -2 7 q-6 12 -6 31q0 16 4 26t16 9q14 0 53 -29q19 -14 34 -14q33 0 59 16q24 18 49 36q19 0 27 -13t8 -29q0 -12 -8 -43t-14 -63t-10 -64q-4 -31 -3 -51q0 -32 28 -50q20 -13 46 -16q49 0 94 16q31 11 74 37q20 12 58 38q24 17 30 17h1q8 -1 12 -7t4 -19z"/>
<glyph glyph-name="oslash" horiz-adv-x="897" unicode="ø" d="M976 141q0 -24 -79 -74q-96 -61 -201 -61q-30 0 -66 16t-68 46q-17 18 -41 77q-20 48 -27 75q-37 -70 -77 -127q-61 -87 -92 -87q-29 0 -41 22t-21 74q-1 4 -1 16v20v42t1 40q-61 -97 -104 -153q-47 -61 -70 -61q-29 0 -41 22t-20 74q-3 20 -5 74v62v30q-1 11 3 44t33 33 q13 0 21 -11t9 -36v-39q0 -62 3 -104t13 -75q14 11 57 73l98 142q0 18 10 30t24 12q12 0 20 -12t9 -36q0 -70 2 -120t15 -89q24 19 74 115q19 38 39 76q27 48 60 48q18 0 34 -45q48 -133 59 -146q39 -47 53 -56q21 -13 51 -13q70 0 136 34l114 74q12 1 14 -7t2 -19z"/>
<glyph glyph-name="oslash" horiz-adv-x="897" unicode="ш" d="M976 141q0 -24 -79 -74q-96 -61 -201 -61q-30 0 -66 16t-68 46q-17 18 -41 77q-20 48 -27 75q-37 -70 -77 -127q-61 -87 -92 -87q-29 0 -41 22t-21 74q-1 4 -1 16v20v42t1 40q-61 -97 -104 -153q-47 -61 -70 -61q-29 0 -41 22t-20 74q-3 20 -5 74v62v30q-1 11 3 44t33 33 q13 0 21 -11t9 -36v-39q0 -62 3 -104t13 -75q14 11 57 73l98 142q0 18 10 30t24 12q12 0 20 -12t9 -36q0 -70 2 -120t15 -89q24 19 74 115q19 38 39 76q27 48 60 48q18 0 34 -45q48 -133 59 -146q39 -47 53 -56q21 -13 51 -13q70 0 136 34l114 74q12 1 14 -7t2 -19z"/>
<glyph glyph-name="ugrave" horiz-adv-x="773" unicode="ù" d="M756 54q0 -48 -18 -115t-36 -97t-38 -42q-19 -13 -38 -13q-28 0 -28 33q0 15 18 26q29 18 34 24q17 20 31 55t22 77q-15 -14 -33 -22t-40 -8q-30 0 -56 24t-43 61q-7 16 -17 57t-20 85q-61 -87 -102 -138q-44 -55 -67 -55q-29 0 -41 22t-21 74q-1 4 -1 16v20v42t1 40 q-61 -97 -104 -153q-47 -61 -70 -61q-29 0 -41 22t-20 74q-3 20 -5 71v59v28q-1 10 3 44t33 33q13 1 21 -11t9 -37v-37q0 -59 3 -99t13 -73q14 11 57 73l98 142q0 18 10 30t24 12q12 0 20 -12t9 -36q0 -70 2 -120t15 -89q24 20 62 76t51 94q9 24 25 36t35 12q23 0 38 -71 q11 -60 22 -119q11 -40 28 -61t43 -21q24 0 52 36t37 35q12 0 16 -5q7 -4 7 -38z"/>
<glyph glyph-name="ugrave" horiz-adv-x="773" unicode="щ" d="M756 54q0 -48 -18 -115t-36 -97t-38 -42q-19 -13 -38 -13q-28 0 -28 33q0 15 18 26q29 18 34 24q17 20 31 55t22 77q-15 -14 -33 -22t-40 -8q-30 0 -56 24t-43 61q-7 16 -17 57t-20 85q-61 -87 -102 -138q-44 -55 -67 -55q-29 0 -41 22t-21 74q-1 4 -1 16v20v42t1 40 q-61 -97 -104 -153q-47 -61 -70 -61q-29 0 -41 22t-20 74q-3 20 -5 71v59v28q-1 10 3 44t33 33q13 1 21 -11t9 -37v-37q0 -59 3 -99t13 -73q14 11 57 73l98 142q0 18 10 30t24 12q12 0 20 -12t9 -36q0 -70 2 -120t15 -89q24 20 62 76t51 94q9 24 25 36t35 12q23 0 38 -71 q11 -60 22 -119q11 -40 28 -61t43 -21q24 0 52 36t37 35q12 0 16 -5q7 -4 7 -38z"/>
<glyph glyph-name="uacute" horiz-adv-x="414" unicode="ú" d="M285 131q-1 22 -25 41t-54 19t-67 -14v-32v-28q2 -21 11 -33q10 -18 24 -25t38 -11q49 0 64 24q9 15 9 59zM339 120q0 -56 -35 -92t-98 -36q-49 0 -85 33q-43 39 -43 106q0 31 4 83t9 89q-22 -11 -50 -19t-58 -8q-29 0 -48 20q-15 16 -15 31q0 26 18 26q9 0 26 -15 q9 -8 25 -8q17 0 52 12t72 24q14 0 23 -8q4 -4 14 -18q3 -6 3 -14q0 -9 -9 -55q-5 -26 -5 -40q11 5 35 9t32 4q69 0 104 -40q29 -33 29 -84z"/>
<glyph glyph-name="uacute" horiz-adv-x="414" unicode="ъ" d="M285 131q-1 22 -25 41t-54 19t-67 -14v-32v-28q2 -21 11 -33q10 -18 24 -25t38 -11q49 0 64 24q9 15 9 59zM339 120q0 -56 -35 -92t-98 -36q-49 0 -85 33q-43 39 -43 106q0 31 4 83t9 89q-22 -11 -50 -19t-58 -8q-29 0 -48 20q-15 16 -15 31q0 26 18 26q9 0 26 -15 q9 -8 25 -8q17 0 52 12t72 24q14 0 23 -8q4 -4 14 -18q3 -6 3 -14q0 -9 -9 -55q-5 -26 -5 -40q11 5 35 9t32 4q69 0 104 -40q29 -33 29 -84z"/>
<glyph glyph-name="ucircumflex" horiz-adv-x="768" unicode="û" d="M833 131q0 -14 -49 -48q-114 -79 -244 -79q-38 0 -70 16t-52 46q-14 24 -20 76t-6 131q-16 -15 -66 -45t-70 -34q24 -4 38 -28t14 -48q0 -54 -34 -88t-92 -34q-60 0 -103 27q-64 40 -64 127q0 32 4 94t9 89q2 10 12 18t26 8q18 0 20 -9t2 -17q0 -4 -5 -61t-5 -94 q0 -28 3 -44t9 -34q12 -28 41 -41q21 -9 51 -9q47 0 63 22q11 15 11 56q0 10 -20 30t-34 20q-12 -3 -26 -6t-34 -3q-14 1 -24 13t-10 29q0 15 10 25t24 9q15 0 33 -6t41 -17q16 7 38 21q61 39 76 47q34 18 66 47q24 22 33 22q13 -1 21 -11t8 -38v-120q0 -40 5 -63t16 -39 t31 -22q20 -8 42 -8q71 0 141 29q61 31 123 63q11 0 14 -4t3 -15z"/>
<glyph glyph-name="ucircumflex" horiz-adv-x="768" unicode="ы" d="M833 131q0 -14 -49 -48q-114 -79 -244 -79q-38 0 -70 16t-52 46q-14 24 -20 76t-6 131q-16 -15 -66 -45t-70 -34q24 -4 38 -28t14 -48q0 -54 -34 -88t-92 -34q-60 0 -103 27q-64 40 -64 127q0 32 4 94t9 89q2 10 12 18t26 8q18 0 20 -9t2 -17q0 -4 -5 -61t-5 -94 q0 -28 3 -44t9 -34q12 -28 41 -41q21 -9 51 -9q47 0 63 22q11 15 11 56q0 10 -20 30t-34 20q-12 -3 -26 -6t-34 -3q-14 1 -24 13t-10 29q0 15 10 25t24 9q15 0 33 -6t41 -17q16 7 38 21q61 39 76 47q34 18 66 47q24 22 33 22q13 -1 21 -11t8 -38v-120q0 -40 5 -63t16 -39 t31 -22q20 -8 42 -8q71 0 141 29q61 31 123 63q11 0 14 -4t3 -15z"/>
<glyph glyph-name="udieresis" horiz-adv-x="373" unicode="ü" d="M248 131q0 22 -24 41t-55 19q-15 1 -35 -3t-40 -11q0 -40 2 -63t12 -38q9 -16 27 -22t41 -6q36 0 54 23t18 60zM308 127q0 -55 -38 -95t-101 -40q-55 0 -89 25q-47 35 -47 114q0 51 3 111t7 98q0 10 9 18t27 8q12 0 20 -5t8 -21q-1 -13 -3 -54t-2 -55q11 5 35 12t32 7 q70 0 107 -39q32 -34 32 -84z"/>
<glyph glyph-name="udieresis" horiz-adv-x="373" unicode="ь" d="M248 131q0 22 -24 41t-55 19q-15 1 -35 -3t-40 -11q0 -40 2 -63t12 -38q9 -16 27 -22t41 -6q36 0 54 23t18 60zM308 127q0 -55 -38 -95t-101 -40q-55 0 -89 25q-47 35 -47 114q0 51 3 111t7 98q0 10 9 18t27 8q12 0 20 -5t8 -21q-1 -13 -3 -54t-2 -55q11 5 35 12t32 7 q70 0 107 -39q32 -34 32 -84z"/>
<glyph glyph-name="yacute" horiz-adv-x="409" unicode="ý" d="M318 219q0 -96 -35 -162q-42 -79 -116 -79q-57 0 -83 14t-25 45q0 21 17 21q10 0 33 -17t47 -17q35 0 60 33t31 88q-31 -3 -61 -7t-45 -4h-15q-33 0 -50 6t-17 28q-1 17 41 20t67 3q23 0 45 2t43 5q3 6 3 16v12q0 50 -24 68q-18 13 -57 13q-43 0 -81 -30l-68 -68 q-19 0 -19 20q0 45 66 96q51 39 117 39q56 0 91 -39t35 -106z"/>
<glyph glyph-name="yacute" horiz-adv-x="409" unicode="э" d="M318 219q0 -96 -35 -162q-42 -79 -116 -79q-57 0 -83 14t-25 45q0 21 17 21q10 0 33 -17t47 -17q35 0 60 33t31 88q-31 -3 -61 -7t-45 -4h-15q-33 0 -50 6t-17 28q-1 17 41 20t67 3q23 0 45 2t43 5q3 6 3 16v12q0 50 -24 68q-18 13 -57 13q-43 0 -81 -30l-68 -68 q-19 0 -19 20q0 45 66 96q51 39 117 39q56 0 91 -39t35 -106z"/>
<glyph glyph-name="thorn" horiz-adv-x="572" unicode="þ" d="M480 187q0 -61 -38 -121q-44 -69 -104 -69q-48 0 -82 29t-38 80v44h-120q1 -3 1 -10q-1 -12 -1 -19q0 -13 2 -36t2 -31q0 -20 -3 -30q-6 -18 -21 -18q-19 0 -29 25q-5 12 -14 90q0 19 -2 29q-23 0 -31 5t-7 18q0 9 1 14q0 12 36 17v75t1 65q1 18 9 28t31 9q14 1 16 -41 t2 -78l3 -57h124q0 15 4 35t12 44q7 24 28 49q21 26 33 26q25 0 25 -25q0 -12 -9 -32t-17 -38q-10 -28 -16 -70t-5 -80q-1 -24 17 -42t46 -18q27 0 51 40t24 82v15q0 42 -3 66t-14 38q-6 7 -30 19t-25 23q0 18 8 31t23 13q27 0 52 -27q20 -22 39 -59q13 -25 16 -50t3 -58z "/>
<glyph glyph-name="thorn" horiz-adv-x="572" unicode="ю" d="M480 187q0 -61 -38 -121q-44 -69 -104 -69q-48 0 -82 29t-38 80v44h-120q1 -3 1 -10q-1 -12 -1 -19q0 -13 2 -36t2 -31q0 -20 -3 -30q-6 -18 -21 -18q-19 0 -29 25q-5 12 -14 90q0 19 -2 29q-23 0 -31 5t-7 18q0 9 1 14q0 12 36 17v75t1 65q1 18 9 28t31 9q14 1 16 -41 t2 -78l3 -57h124q0 15 4 35t12 44q7 24 28 49q21 26 33 26q25 0 25 -25q0 -12 -9 -32t-17 -38q-10 -28 -16 -70t-5 -80q-1 -24 17 -42t46 -18q27 0 51 40t24 82v15q0 42 -3 66t-14 38q-6 7 -30 19t-25 23q0 18 8 31t23 13q27 0 52 -27q20 -22 39 -59q13 -25 16 -50t3 -58z "/>
<glyph glyph-name="ydieresis" horiz-adv-x="724" unicode="ÿ" d="M306 278q0 54 -75 54q-25 0 -49 -22t-24 -43q0 -27 11 -45t40 -18h13q29 0 41 2t36 9q7 29 7 63zM789 157q0 -7 -36 -37t-69 -50q-111 -68 -191 -68q-65 0 -104 38t-39 91v63q-10 -4 -14 -11t-13 -11l-14 -28q-9 -16 -23 -36q-38 -54 -68 -76q-40 -30 -93 -30 q-45 0 -85 42t-40 76q0 12 10 28t25 15q23 -1 33 -7t9 -36q0 -69 64 -69q25 0 63 34t55 72q-14 -5 -33 -6t-25 -1q-51 0 -77 41q-21 33 -21 76q0 49 35 83t93 34q68 0 98 -27q27 -24 27 -73v-16q0 -8 -2 -16q20 54 32 84q14 34 31 34q10 0 18 -6t8 -19q0 -2 -17 -109 q-9 -57 -9 -73q0 -60 20 -82q17 -19 56 -19q74 0 160 46q20 10 71 45q38 26 47 26q18 0 18 -22z"/>
<glyph glyph-name="ydieresis" horiz-adv-x="724" unicode="я" d="M306 278q0 54 -75 54q-25 0 -49 -22t-24 -43q0 -27 11 -45t40 -18h13q29 0 41 2t36 9q7 29 7 63zM789 157q0 -7 -36 -37t-69 -50q-111 -68 -191 -68q-65 0 -104 38t-39 91v63q-10 -4 -14 -11t-13 -11l-14 -28q-9 -16 -23 -36q-38 -54 -68 -76q-40 -30 -93 -30 q-45 0 -85 42t-40 76q0 12 10 28t25 15q23 -1 33 -7t9 -36q0 -69 64 -69q25 0 63 34t55 72q-14 -5 -33 -6t-25 -1q-51 0 -77 41q-21 33 -21 76q0 49 35 83t93 34q68 0 98 -27q27 -24 27 -73v-16q0 -8 -2 -16q20 54 32 84q14 34 31 34q10 0 18 -6t8 -19q0 -2 -17 -109 q-9 -57 -9 -73q0 -60 20 -82q17 -19 56 -19q74 0 160 46q20 10 71 45q38 26 47 26q18 0 18 -22z"/>
<glyph glyph-name="dotlessi" horiz-adv-x="389" unicode="ı" d="M442 154q0 -30 -95 -89q-104 -64 -184 -64q-34 4 -68 9q-31 6 -40 19q-14 19 -20 36q-9 25 -9 65v75t1 81q0 27 -1 33q0 25 6 41t23 16q19 0 27 -13t8 -55q0 -16 -1 -74t-1 -84q0 -55 9 -69q15 -24 72 -24q67 0 134 34q57 38 114 77h15q10 -2 10 -14z"/>
<glyph glyph-name="OE" horiz-adv-x="1005" unicode="Œ" d="M994 149q0 -93 -145 -149q-108 -42 -198 -42q-25 0 -54 12q-36 15 -36 33q0 24 24 24q10 0 30 -12t39 -12q67 0 165 43q113 50 113 103q0 67 -60 109t-148 42q-48 0 -91 -9q-15 -3 -78 -21q-6 -48 -9 -112t-3 -89q0 -9 1 -21t2 -23q0 -25 -18 -25q-23 0 -30 60 q-3 34 -5 56t-2 30v12q-1 20 3 56t4 47q-27 -7 -62 -9t-91 -3h-71q-52 0 -86 2t-47 9q0 -10 -10 -105t-10 -122q-1 -13 -9 -25t-22 -12q-10 0 -15 22t-5 54q0 36 4 114t5 80q-15 0 -27 2t-19 3q-14 0 -24 10t-10 23q0 14 19 22q26 11 72 11q12 43 24 114q17 101 17 179 q0 12 10 30t20 18q20 0 26 -14t6 -43v-30q0 -38 -18 -143q-12 -72 -23 -122q52 -10 70 -12t60 -2q14 0 58 -2t73 -2q54 0 85 7q29 198 31 207q32 161 71 161q12 1 22 -9t9 -23q0 -16 -34 -149t-39 -175q42 13 94 19t110 6q96 0 164 -58t68 -145z"/>
<glyph glyph-name="oe" horiz-adv-x="579" unicode="œ" d="M473 125q-1 22 -25 41t-54 19q-14 -1 -35 -3t-38 -8q-1 -46 1 -68t11 -36t27 -22q18 -6 41 -6q35 0 53 23t19 60zM533 121q-1 -55 -39 -95t-100 -40q-56 0 -85 27q-42 39 -42 143q-2 0 -56 -15q-22 -6 -37 -6q-28 0 -50 3t-44 12q1 -4 0 -16t0 -17q4 -21 7 -32 q9 -35 9 -43q0 -18 -7 -29t-27 -11q-26 0 -34 32t-9 76v40q-36 0 -36 37q0 12 36 17q0 25 3 61t3 43q0 16 7 26t30 10q14 0 16 -22t2 -52v-22t-1 -21q0 -16 1 -22q18 -5 36 -9t49 -4q27 0 49 8l44 16v34t1 32v24q0 24 5 38t21 13q32 0 41 -17q5 -10 5 -39q0 -10 -2 -31 t-2 -36q13 6 33 8t34 2q70 0 107 -39q32 -34 32 -84z"/>
<glyph glyph-name="Scaron" horiz-adv-x="909" unicode="Š" d="M857 158q0 68 -60 110t-148 41q-35 0 -77 -8t-94 -22q17 -38 79 -171q28 -60 39 -84q82 0 160 30q101 39 101 104zM919 158q0 -89 -97 -140q-85 -45 -198 -45q-54 0 -96 11t-42 22q0 16 3 23t15 10q6 2 10 0t24 -7q-26 45 -62 119q-21 43 -51 111l-15 -5q-19 0 -29 2 q-29 6 -29 26q0 10 13 18t35 15l-112 239q-28 -68 -55 -135q-11 -23 -24 -59q-30 -80 -37 -97l-75 -159q-11 -20 -23 -51t-12 -45q0 -11 -10 -19t-21 -7q-12 0 -21 13t-9 27q0 21 38 111t75 178q13 31 72 170q40 93 48 119q6 34 12 66t22 32t31 -13q21 -18 31 -50 q32 -59 78 -182q28 -75 48 -124l26 5q41 7 83 14q70 10 122 10q97 1 165 -57t67 -146z"/>
<glyph glyph-name="scaron" horiz-adv-x="704" unicode="š" d="M581 110q-1 22 -25 41t-54 19q-16 0 -36 -4t-39 -10q1 -40 3 -63t11 -38t27 -21t41 -7q35 0 53 23t19 60zM641 106q-1 -56 -39 -96t-100 -39q-55 0 -89 25q-47 35 -47 114l-1 108q-17 -32 -37 -60t-44 -60q-38 -48 -69 -69q-40 -27 -93 -27q-44 0 -84 42t-41 76 q0 12 10 28t25 15q22 -1 32 -7t10 -36q0 -69 64 -69q28 0 62 30q27 24 62 72q23 32 48 74t37 73q5 18 21 27t26 9q26 0 36 -13t9 -37q0 -8 -2 -31t-2 -45q11 5 35 12t32 7q70 0 107 -39q32 -34 32 -84z"/>
<glyph glyph-name="Ydieresis" horiz-adv-x="647" unicode="Ÿ" d="M298 38q0 -59 -48 -140q-44 -74 -62 -74q-21 0 -21 12q0 2 30 58q20 37 33 78q5 18 5 33q-1 20 -1 33q0 20 6 35t20 15t26 -12t12 -38zM690 145q0 -22 -78 -73q-93 -61 -183 -61q-39 0 -67 14q-38 19 -52 60q-10 27 -16 55t-10 53q-18 -61 -76 -121t-92 -61q-36 0 -59 21 q-28 25 -36 81q-3 21 -3 90q0 68 3 97q0 19 11 31t24 12q13 1 20 -9t7 -40q0 -3 -2 -35t-2 -53v-78q3 -52 37 -52q24 0 66 55q39 50 56 91q10 29 30 54t35 25q24 0 35 -84q8 -61 15 -85q11 -36 30 -50t59 -15q63 0 124 34q53 36 107 72q11 -1 14 -7t3 -21z"/>
<glyph glyph-name="florin" horiz-adv-x="285" unicode="ƒ" d="M330 348q0 -16 -26 -30t-127 -48q-23 -8 -53 -8q-24 0 -46 5q6 -33 8 -86t1 -106v-19t1 -19q0 -21 -5 -31t-20 -9q-19 -1 -27 9t-7 28q1 7 1 11q2 9 2 17v24q0 55 -8 121q-4 33 -12 63t-9 37q-1 13 7 21t20 8t61 -9t71 -9q20 0 62 14t84 31q22 0 22 -15zM386 596 q0 -3 -29 -15q-83 -34 -130 -62q-19 -11 -76 -60q-41 -35 -66 -35q-11 0 -16 6q-5 10 -8 15q-1 3 -1 6q0 17 35 43q42 32 104 63q35 21 87 39t69 18q15 0 23 -4t8 -14z"/>
<glyph glyph-name="circumflex" horiz-adv-x="594" unicode="ˆ" d="M538 624q0 -8 -10 -14t-18 -7q-10 0 -40 24q-25 20 -61 56q-21 21 -38 46q-8 12 -24 38l-114 -84q-60 -45 -99 -69q-50 -31 -67 -31q-10 0 -18 8t-8 20q1 13 53 45t104 69q67 49 102 81q22 19 30 27q25 23 31 23q13 0 48 -66q22 -42 46 -65q31 -28 57 -59t26 -42z"/>
<glyph glyph-name="tilde" horiz-adv-x="609" unicode="˜" d="M468 832q0 -19 -11 -35q-14 -20 -42 -38q-53 -33 -89 -33q-27 0 -50 13q-24 17 -36 25t-24 18q-18 12 -34 12q-14 0 -34 -16t-23 -15q-13 0 -13 16q0 23 28 45t51 22q19 0 42 -12q14 -7 29 -20t29 -25q16 -11 34 -11q15 0 29 4t35 18q16 10 31 32q12 17 19 17 q29 0 29 -17z"/>
<glyph glyph-name="endash" horiz-adv-x="860" unicode="–" d="M741 254q0 -22 -23 -31q-16 -6 -46 -6q-70 5 -136 7t-110 2q-48 0 -112 -4t-130 -10q-20 0 -25 2q-14 6 -14 40q0 19 27 25t74 6h453q22 0 32 -5t10 -26z"/>
<glyph glyph-name="emdash" horiz-adv-x="908" unicode="—" d="M809 293q-1 -22 -21 -30t-49 -8q-95 5 -191 7t-161 2q-46 0 -111 -4t-131 -9q-24 0 -31 7t-7 35q1 18 29 24t75 6h558q22 0 31 -5t9 -25z"/>
<glyph glyph-name="quoteleft" horiz-adv-x="353" unicode="‘" d="M233 953q-18 -51 -32 -97t-14 -75q0 -17 21 -43q10 -12 8 -22q-4 -16 -18 -30t-24 -14q-17 0 -34 14q-21 17 -21 43q1 45 39 144t58 99q17 0 17 -19z"/>
<glyph glyph-name="quoteright" horiz-adv-x="353" unicode="’" d="M238 864q0 -46 -39 -145t-58 -99q-18 0 -18 20q15 51 29 98q17 58 17 82q0 13 -14 28q-14 14 -14 26q1 18 17 34q14 14 25 13q16 0 33 -14q22 -18 22 -43z"/>
<glyph glyph-name="quotesinglbase" horiz-adv-x="353" unicode="‚" d="M231 62q-1 -44 -39 -144t-58 -100q-17 0 -17 20q18 50 32 98t14 84q1 10 -15 26t-14 29q4 17 18 31t24 13q17 1 36 -15t19 -42z"/>
<glyph glyph-name="quotedblleft" horiz-adv-x="475" unicode="“" d="M221 972q-18 -50 -32 -96t-14 -76q-1 -16 15 -34q14 -16 14 -27q0 -15 -18 -33q-14 -14 -24 -14q-17 0 -34 14q-21 17 -21 43q1 45 39 144t58 99q17 0 17 -20zM321 729q1 -13 -11 -25t-23 -12q-8 0 -20 11q-30 28 -30 84q0 25 20 81t40 85q13 19 24 19q7 0 7 -16 q0 -19 -9 -57q-22 -93 -22 -101q0 -12 12 -34t12 -35z"/>
<glyph glyph-name="quotedblright" horiz-adv-x="475" unicode="”" d="M230 813q0 -25 -20 -80t-41 -86q-12 -20 -24 -20q-7 0 -7 15q0 19 16 82t15 78q0 11 -7 25q-17 33 -17 43q-1 14 11 26t23 12q13 0 29 -21q22 -29 22 -74zM360 850q0 -46 -38 -144t-59 -99q-18 0 -18 20q19 50 33 100t14 82q0 13 -16 27q-14 13 -13 25q1 17 17 33 q14 14 25 14q16 0 33 -14q22 -18 22 -44z"/>
<glyph glyph-name="quotedblbase" horiz-adv-x="523" unicode="„" d="M240 37q0 -25 -20 -80t-41 -86q-12 -20 -24 -20q-7 0 -7 15q0 19 16 82t15 78q0 12 -12 34t-12 35q-1 13 11 25t23 12q14 0 29 -20q22 -29 22 -75zM370 75q0 -47 -38 -145t-59 -98q-8 0 -13 6t-5 13q15 51 29 99q17 59 17 82q0 13 -14 28q-14 14 -14 25q1 15 17 33 q14 14 25 14q16 0 33 -14q22 -18 22 -43z"/>
<glyph glyph-name="dagger" horiz-adv-x="308" unicode="†" d="M407 459q0 -30 -45 -42q-33 -9 -97 -9q-20 0 -51 1t-39 1q-5 -88 -9 -207t-4 -219v-17t-1 -18q0 -14 1 -21l3 -50q-1 -12 -11 -16t-21 -5q-13 0 -27 19t-14 32q0 2 9 18t9 39q0 9 -2 23t-2 20q0 12 3 32q7 54 9 68t2 51l-1 84q0 29 4 85t4 84q-55 6 -109 12q-43 8 -53 29 q-3 8 -3 16q0 6 4 13t14 11t19 4q3 0 9 -4q6 -3 12 -7t17 -6q10 -2 27 -1q4 -1 22 -3t48 -8q-5 26 -5 52q0 8 1 25t1 26q-1 14 -1 28v29q-2 18 -2 27q0 13 6 20t22 7q20 0 28 -12t9 -32q-1 -6 -5 -26t-4 -45q0 -17 -1 -37t-8 -65l112 -4q43 0 65 11t32 11q8 1 16 -7t7 -17z "/>
<glyph glyph-name="daggerdbl" horiz-adv-x="410" unicode="‡" d="M441 459q0 -29 -40 -41q-29 -9 -87 -9q-29 0 -53 1t-45 2l-6 -144q11 0 67 -5q22 -2 39 -2q43 0 65 11t32 11q7 1 15 -7t8 -17q0 -23 -30 -37t-114 -14q-18 0 -47 1t-38 1l-11 -226v-17t-1 -18q0 -14 1 -21l3 -50q-1 -12 -11 -16t-21 -5q-13 0 -27 19t-14 32q0 2 9 18 t9 39q0 9 -2 23t-2 20q0 12 3 32q7 54 9 68t2 51l-1 57q-85 8 -102 11q-49 8 -57 26q-3 8 -3 16q-1 6 3 13t14 11t20 4q4 0 10 -4q6 -3 12 -7t16 -6t27 -1l60 -3l8 136q-55 6 -109 12q-43 8 -53 29q-3 8 -3 16q0 6 4 13t14 11t19 4q3 0 9 -4q6 -3 12 -7t17 -6q10 -2 27 -1 l66 -9q2 13 2 26v20v27t-1 28t-1 28v29q-2 18 -2 27q0 13 6 20t22 7q20 0 28 -12t9 -32q-1 -6 -5 -26t-4 -45v-101q22 0 61 -2t42 -3q43 0 65 11t32 11q8 1 16 -7t7 -17z"/>
<glyph glyph-name="bullet" horiz-adv-x="502" unicode="•" d="M340 240q0 -33 -20 -53q-16 -16 -37 -19q-29 0 -51 23t-22 53q0 32 17 56t46 28q5 1 10 1q30 0 44 -22q13 -21 13 -67z"/>
<glyph glyph-name="ellipsis" horiz-adv-x="670" unicode="…" d="M183 62q0 -20 -8 -32q-12 -17 -39 -17q-20 1 -32 21t-12 33q0 15 14 27t35 12q42 -5 42 -44zM397 58q-1 -24 -13 -36t-33 -12t-33 20t-11 34q0 14 14 27q12 11 29 11h5q42 0 42 -44zM605 58q-1 -24 -13 -36t-33 -12t-33 20t-11 34q0 14 14 27q12 11 29 11h5q42 0 42 -44z "/>
<glyph glyph-name="guilsinglleft" horiz-adv-x="496" unicode="‹" d="M460 35q0 -22 -13 -22q-17 0 -49 21q-144 95 -255 153q-29 15 -58 31q-48 28 -48 43t52 60q48 41 97 82l108 106q33 29 54 29q18 0 26 -4t7 -13q0 -18 -110 -118q-72 -64 -143 -128q24 -18 85 -56q31 -20 62 -39q62 -39 125 -78q60 -42 60 -67z"/>
<glyph glyph-name="guilsinglright" horiz-adv-x="498" unicode="›" d="M420 220q0 -22 -12 -32t-45 -10q-132 -86 -202 -131t-85 -45q-9 0 -15 5t-6 15q0 16 155 128q87 63 109 83q-83 76 -85 78q-52 49 -80 85t-55 73q-44 65 -44 99q0 11 10 17t24 6q16 0 52 -49q107 -146 110 -149l84 -76q85 -77 85 -97z"/>
<glyph glyph-name="trademark" horiz-adv-x="782" unicode="™" d="M254 651q0 -11 -1 -65t-1 -85q0 -50 -14 -110t-26 -60q-13 0 -16 5t-6 19q4 57 8 111t4 81q0 25 -1 69t-1 59q0 13 10 21t15 9q19 0 24 -15t5 -39zM410 741q0 -23 -24 -23l-14 2q8 -12 24 -53q12 -32 16 -45q14 -37 34 -77t28 -53q21 -35 35 -35q10 0 34 46l22 44 q14 32 37 74q19 34 38 69q16 24 20 29q13 16 20 16q19 1 25 -9t6 -27q-1 -17 -1 -25q0 -51 -3 -126t-6 -167q0 -37 -1 -44q-4 -26 -16 -26q-20 0 -26 55t-7 126l2 120l-52 -97q-30 -57 -41 -72q-27 -38 -54 -38q-24 0 -52 28t-51 69l-32 65q-17 -94 -32 -154 q-25 -101 -39 -101t-17 7t-3 23q0 14 12 86q34 197 36 215q2 19 4 41t2 34q0 2 1 4q-11 1 -21 1q-26 -1 -76 -11t-91 -26q-32 -14 -42 -20t-12 -15q-3 -9 -9 -16t-18 -7q-14 0 -20 10t-7 34q0 30 75 58q46 16 104 28t97 12q43 0 67 -2t28 -27z"/>
</font>
</defs>
</svg>
