<?xml version="1.0" standalone="no"?>
<!DOCTYPE svg PUBLIC "-//W3C//DTD SVG 1.1//EN" "http://www.w3.org/Graphics/SVG/1.1/DTD/svg11.dtd" >
<svg xmlns="http://www.w3.org/2000/svg" xmlns:xlink="http://www.w3.org/1999/xlink" version="1.1">
<metadata></metadata>
<defs>
<font id="birchcttnormal" horiz-adv-x="1359" >
<font-face units-per-em="2048" ascent="1638" descent="-410" />
<missing-glyph horiz-adv-x="1013" />
<glyph horiz-adv-x="0" />
<glyph unicode="&#xd;" horiz-adv-x="1013" />
<glyph unicode=" "  horiz-adv-x="1013" />
<glyph unicode="&#x09;" horiz-adv-x="1013" />
<glyph unicode="&#xa0;" horiz-adv-x="1013" />
<glyph unicode="!" horiz-adv-x="630" d="M250 96q0 41 21.5 66.5t50.5 25.5q35 0 50 -17t19 -50q8 -49 -12.5 -66.5t-63.5 -17.5q-27 0 -46 17.5t-19 41.5zM295 537q0 33 4 63.5t6 48.5q0 104 5 312t5 276q0 248 11 352q18 193 75 193q45 0 60 -47q8 -27 8 -101v-397q0 -250 -41 -481q-47 -262 -113 -262 q-20 0 -20 43z" />
<glyph unicode="&#x22;" horiz-adv-x="927" d="M307 1636q0 96 14.5 161t53.5 65q29 0 52.5 -55.5t23.5 -114.5q0 -53 -15.5 -178t-36.5 -214q-6 -25 -12 -46t-12 -21q-49 0 -56.5 93t-7.5 177q0 18 -2 69.5t-2 63.5zM567 1645q0 96 14.5 160.5t53.5 64.5q29 0 53.5 -57.5t24.5 -110.5q0 -55 -15.5 -178t-38.5 -215 q-14 -68 -24 -68q-49 0 -56.5 93t-7.5 177q0 18 -2 69.5t-2 64.5z" />
<glyph unicode="#" horiz-adv-x="2000" d="M240 621q0 27 29.5 48t64.5 25q86 0 289 23q16 100 30 170q23 117 37 164q-35 0 -88 -7q-139 -16 -158 -16h-36q-45 0 -58 2q-49 8 -49 51q0 23 14.5 41.5t40.5 18.5q82 0 185.5 8t181.5 22q0 35 20 152q8 45 17 92q6 104 14 211q14 117 66 117q41 0 58 -48t17 -132 q0 -76 -11 -171.5t-23 -193.5q45 6 127 8t92 2h112l23 166q10 98 35.5 168t66.5 70q33 0 42.5 -14.5t9.5 -47.5v-39q0 -63 -16.5 -144t-35.5 -169q59 0 125 -20q33 -12 65 -20.5t73.5 -33t37.5 -43.5q-6 -20 -34 -20q-16 0 -58.5 8t-63 11t-80 10.5t-79.5 7.5 q-10 -31 -23.5 -129.5t-23.5 -188.5q35 0 137 6q270 16 307 17q47 0 60.5 -10t13.5 -45q0 -29 -244 -68q-80 -12 -150.5 -17.5t-133.5 -9.5q0 -20 -9 -67q-33 -190 -36 -221q-25 -207 -25 -281q0 -33 -22.5 -59.5t-53.5 -26.5q-29 0 -39 35t-10 82q0 66 22.5 265.5 t36.5 254.5q-33 0 -192.5 -22.5t-194.5 -22.5q-25 -104 -53 -246q-41 -197 -41 -235q0 -18 22.5 -51t22.5 -54q0 -31 -13 -46t-58 -15q-41 0 -66 32q-35 45 -35 140q0 70 24.5 229.5t45.5 230.5h-273q-33 0 -56 15.5t-23 30.5zM780 725q16 4 165 19.5t200 23.5 q14 131 21.5 195.5t19.5 136.5q-104 0 -186 -3t-144 -16z" />
<glyph unicode="$" horiz-adv-x="1189" d="M88 125q0 27 17.5 42t46.5 15q6 0 188 -12q92 -6 172 -6v563q-168 23 -281 107q-125 92 -125 217q0 96 125 172q109 68 269 96l4 158q2 94 5 160.5t26 78.5q16 6 43 -10q53 -35 53 -84q0 -74 -3 -179.5t-3 -109.5q109 0 221 -41q150 -55 149 -147q0 -8 2 -17 q-2 -10 -20 -10q-25 0 -133.5 52.5t-216.5 52.5v-406q92 -14 173 -36.5t146 -63.5q80 -51 116 -127t36 -178q0 -147 -142 -244q-129 -88 -325 -107q0 -131 -2 -157q-8 -113 -49 -131q-8 -4 -25 -4q-25 0 -34 26.5t-9 71.5q2 45 2 65l-2 127q-158 0 -258 11q-166 16 -166 55z M250 1034q0 -70 92 -134t168 -64v47v39v32v29v23q0 27 -1 58.5t-7 65.5v66q-104 -27 -168 -61q-84 -47 -84 -101zM627 395.5q0 -110.5 2 -229.5q156 14 243 67q105 64 105 177q0 72 -26.5 126t-86.5 95q-43 31 -102.5 49t-134.5 31v-103v-212.5z" />
<glyph unicode="%" horiz-adv-x="1374" d="M137 1085q0 78 43 162t96 109q27 14 54.5 20t48.5 6q12 0 22.5 -2t20.5 -4q70 35 184 103q178 102 197 112q31 18 67.5 26.5t71.5 8.5q41 0 77 -32t36 -81q0 -102 -43 -241q-6 -23 -58 -164q-43 -123 -131 -322q-68 -152 -135 -301q-186 -418 -186 -462q0 -25 22 -25 q16 0 61.5 32.5t53.5 32.5q6 0 19.5 -7t13.5 -19q0 -27 -88 -105q-96 -86 -148 -86q-37 0 -48 20.5t-11 63.5q0 63 50 213t127 314t155 327q90 195 133 334q41 115 68.5 219.5t27.5 149.5q0 20 -18.5 30.5t-45.5 10.5q-31 0 -151 -66q-84 -47 -168 -92q41 -27 61 -57 q37 -55 37 -146q0 -119 -121 -221q-111 -94 -202 -94q-86 0 -133 45q-59 57 -60 188zM268 1067q0 -33 19.5 -58.5t50.5 -25.5q94 0 137 49t43 139q0 51 -23.5 84t-66.5 33q-39 0 -68 -14q-92 -45 -92 -207zM899 197q0 88 75 200.5t144 112.5q86 0 130 -33t44 -117 q0 -74 -69 -188q-92 -150 -219 -149q-74 0 -95 57q-10 29 -10 117zM995 178q0 -14 7.5 -30.5t17.5 -16.5q55 0 110.5 72t55.5 121q0 27 -19.5 52t-46.5 25q-39 0 -82 -75.5t-43 -147.5z" />
<glyph unicode="&#x26;" horiz-adv-x="1818" d="M319 1229q0 256 84 411q102 190 308 191q195 0 276 -141q68 -117 68 -353q0 -150 -107 -387q-88 -195 -174 -387q63 -92 141 -186q61 -76 125 -152q53 49 134 134t163 176q92 98 195 161q86 53 143 62q50 0 68 -29q18 -25 -23 -55q-27 -20 -63 -31q-37 -14 -103 -68 q-51 -43 -120 -108q-47 -45 -166 -174q-92 -100 -150 -143q145 -158 291 -318q188 -221 188 -332q-10 -16 -14 -24q-16 -25 -33 -25q-33 -4 -71.5 57.5t-73.5 118.5q-55 76 -161.5 194t-217.5 236q-119 -100 -205 -157q-162 -111 -295 -111q-72 0 -103.5 25.5t-31.5 91.5 q0 92 101 317q66 145 133 293q-158 223 -179 262q-127 229 -127 451zM434 1331q0 -184 51 -325q20 -59 207 -355q98 201 163 375t65 293q0 211 -25 283q-45 129 -193 129q-125 0 -202 -148q-66 -123 -66 -252zM530 -57q0 -25 15 -25q66 0 143 41q88 48 260 191 q-88 92 -123 131q-55 61 -108 139q-25 -61 -117 -256q-68 -141 -68 -184q-2 -27 -2 -37z" />
<glyph unicode="'" horiz-adv-x="657" d="M307 1636q0 96 14.5 161t53.5 65q29 0 52.5 -55.5t23.5 -114.5q0 -53 -15.5 -178t-36.5 -214q-6 -25 -12 -46t-12 -21q-49 0 -56.5 93t-7.5 177q0 18 -2 69.5t-2 63.5z" />
<glyph unicode="(" horiz-adv-x="706" d="M201 750q0 240 84 510q72 227 178 407q98 166 153 166q33 0 57.5 -11.5t24.5 -35.5q0 -10 -92 -154q-109 -170 -172 -325q-94 -236 -94 -453q0 -201 27 -350q49 -274 188 -467q78 -109 197 -250q41 -49 41 -57q0 -10 -13.5 -23.5t-27.5 -13.5q-23 0 -117 84t-158 170 q-141 186 -172 252q-104 219 -104 551z" />
<glyph unicode=")" horiz-adv-x="782" d="M35 -231q76 84 119 141q129 174 182 338q37 115 50 260t13 340q0 291 -73 524q-82 205 -162 412q0 8 20.5 26.5t30.5 18.5q31 0 100 -92q92 -121 152 -310q80 -252 80 -571q0 -160 -21 -309q-27 -190 -82 -330q-74 -182 -204 -340q-121 -145 -174 -145q-27 0 -31 12v25z " />
<glyph unicode="*" horiz-adv-x="1325" d="M139 733q-6 29 8.5 49.5t57.5 20.5q31 0 55.5 4t60 10t99 12.5t94.5 6.5q-57 70 -113 139q-37 57 -71 115q-47 78 -47 96q0 47 41 47q16 0 86 -86q51 -61 79 -92q49 -53 70 -74q33 -35 53 -66q18 115 32.5 173.5t33 115t70.5 41.5q23 -4 30.5 -15t7.5 -30q0 -16 -3 -30.5 t-11 -30.5q-12 -49 -20.5 -117t-8.5 -117q84 66 170 133q135 100 177 101q37 0 38 -23q0 -33 -51 -72q-78 -53 -143 -102q-80 -59 -117 -94l227 -10q72 -8 76 -9q45 -12 45 -45q0 -29 -50 -31.5t-103 -2.5h-248q20 -23 71.5 -65t73.5 -56q43 -23 56 -35q25 -23 24 -49 q0 -35 -14 -44t-49 -9q-25 0 -82 43q-74 59 -146 118l-59 -241q-6 -29 -39 -39q-23 -8 -37 7t-14 42q0 37 7 95t26 136q-45 -29 -84 -59q-72 -53 -95 -70q-57 -43 -83.5 -59t-36.5 -16q-16 0 -28.5 14t-12.5 31q0 16 110 110q100 86 146 113q-43 0 -115 -6t-160 -13 q-31 0 -54.5 6.5t-29.5 28.5z" />
<glyph unicode="+" horiz-adv-x="1581" d="M184 702q0 33 23 54q12 10 22 10l150 4q74 0 193.5 5t121.5 5q12 47 17 72q12 66 12 141v78q0 59 2 72q10 53 53 53q66 0 86 -47q12 -29 13 -109q0 -53 -5.5 -125.5t-19.5 -140.5l346 -6q68 0 105.5 -20.5t37.5 -67.5q0 -31 -24.5 -47.5t-95.5 -16.5q-35 0 -94.5 6.5 t-98.5 10.5h-197q-2 -14 -3 -30.5t-1 -22.5q0 -33 5.5 -84.5t5.5 -67.5q4 -45 22.5 -118.5t18.5 -98.5q-6 -76 -68 -76q-33 0 -66.5 74t-50.5 182q-25 166 -24 242l-334 4q-61 0 -86 4q-66 10 -66 61z" />
<glyph unicode="," horiz-adv-x="622" d="M29 -541q0 6 8 19q68 88 135 174q78 111 127 252q27 63 37 94q20 53 20 88q0 41 -24 74q-10 14 -48 27.5t-38 35.5q0 37 44 65.5t95 28.5q53 0 76 -26q20 -41 37.5 -72t17.5 -82q0 -58 -18 -117q-35 -121 -131 -264q-86 -129 -170 -202q-39 -41 -62 -66q-45 -47 -72 -47 q-35 0 -34 18z" />
<glyph unicode="-" horiz-adv-x="1837" d="M477 467q0 31 52.5 44t123.5 13h701q70 0 102.5 -14t32.5 -43q0 -33 -42 -39t-73 -6h-430q-102 0 -211.5 -8t-189.5 -15q-41 0 -53.5 10.5t-12.5 57.5z" />
<glyph unicode="." horiz-adv-x="585" d="M188 137q0 29 28 54.5t73 25.5q86 -10 86 -90q0 -41 -17 -66q-25 -35 -79 -34q-43 0 -67 42t-24 68z" />
<glyph unicode="/" horiz-adv-x="923" d="M133 -109q0 57 75 296t161 423q47 102 178 400q86 199 137 297q59 131 94 204q68 137 115 138q33 0 43 -9.5t10 -29.5v-29q0 -45 -55 -166q-18 -41 -136 -278.5t-173 -362.5q-8 -18 -136 -323q-119 -285 -172 -398q-92 -193 -122 -192q-18 0 -19 30z" />
<glyph unicode="0" horiz-adv-x="1398" d="M102 760q0 225 165 491.5t315 266.5q55 0 78.5 -10.5t41.5 -39.5q31 12 45.5 17.5t40.5 5.5q199 0 354.5 -178.5t155.5 -403.5q0 -279 -241 -569q-250 -299 -512 -299q-274 0 -379 276q-63 168 -64 443zM215 743q0 -195 66 -368q88 -231 245 -232q258 0 465 277 q185 246 185 457q0 154 -69 284.5t-175 175.5q-49 18 -92 27.5t-92 9.5q-23 -2 -33 -2q-27 0 -39 43q-184 -76 -304 -237.5t-155 -382.5q-2 -14 -2 -52z" />
<glyph unicode="1" horiz-adv-x="645" d="M160 -86q2 18 2 33q0 27 19.5 172t51.5 327q20 119 41 234t21 160q-20 37 -33 65q-18 43 -12 72l45 313q10 86 46 162t87 76q18 0 35 -10q35 -18 55.5 -43t20.5 -60q0 -12 -2 -20l-115 -549l-78 -404q-68 -371 -79 -422t-19 -96q-14 -41 -51 -41q-35 0 -35 31z" />
<glyph unicode="2" horiz-adv-x="1085" d="M47 94q0 37 29 68q47 41 78 67q43 49 153 181q78 94 195 219q143 156 194 254q43 84 43 184q0 82 -39 158q-51 100 -141 100q-104 0 -194 -104q-23 -23 -38.5 -65t-18.5 -65.5t-3 -48.5q0 -14 2 -37.5t2 -31.5q0 -33 -24 -33q-47 0 -78 43q-37 51 -37 147q0 72 90 170 q127 137 330 138q133 0 213 -123q70 -106 69 -244q0 -131 -41 -217q-55 -115 -231 -299q-68 -70 -147.5 -161t-122.5 -148q-20 -31 -21 -45q0 -25 60 -25q94 0 266 -5t190 -5h129q256 0 256 -57q0 -18 -32.5 -27.5t-69.5 -9.5q-16 0 -178 -6.5t-281 -6.5q-164 0 -288.5 -7 t-217.5 -11q-37 0 -66.5 19.5t-29.5 33.5z" />
<glyph unicode="3" horiz-adv-x="1312" d="M96 203q0 37 25.5 48t66.5 11h23q66 0 270.5 -50t300.5 -50q166 0 256 67.5t90 202.5q0 141 -112.5 211t-331.5 70q-57 0 -148.5 -34t-105.5 -34q-31 0 -44 21.5t-13 58.5q0 23 151 84q98 39 142 61q121 96 176 177q49 70 49 120q0 37 -32 54.5t-87 17.5 q-61 0 -165.5 -28.5t-127.5 -43.5q-8 -6 -8 -16q0 -8 16.5 -30.5t16.5 -37.5q0 -33 -33 -32q-10 0 -20.5 2t-35 5t-42 31.5t-17.5 71.5q0 51 156 123t299 72q90 0 152.5 -38t62.5 -112q0 -70 -37 -141q-61 -117 -221 -236q164 0 291 -61q192 -94 192 -295q0 -199 -112 -313 q-121 -123 -355 -123q-47 0 -125 14q-23 4 -299 66q-94 18 -186 37q-78 18 -78 49z" />
<glyph unicode="4" horiz-adv-x="1302" d="M-12 659q0 33 102 140q111 113 262 233q270 207 357 260q70 43 114 43q33 0 51.5 -8t18.5 -31t-45 -47q-63 -37 -68 -39q-84 -66 -157 -125q-100 -84 -160 -133q-8 -6 -182 -143q-55 -43 -86 -70q72 16 203.5 35t191.5 19q12 2 27.5 2h23.5q41 0 106.5 -5.5t81.5 -5.5 q10 37 35 179q18 104 37 208q8 63 25 136q25 100 39 107t26 7q27 0 50.5 -29.5t23.5 -64.5q0 -41 -37 -282.5t-37 -282.5q59 -10 87 -18.5t73 -28.5q27 -8 49.5 -26.5t22.5 -43.5q0 -51 -82 -51q-39 0 -73 7t-114 34q-10 -49 -23 -133t-26 -164q-29 -199 -41 -283t-26 -139 q-2 -16 -21.5 -24.5t-38.5 -2.5q-31 10 -30 60l63 704q-31 10 -61.5 12.5t-77.5 2.5h-64q-57 0 -268 -37t-250 -37q-102 0 -102 65z" />
<glyph unicode="5" horiz-adv-x="1314" d="M-14 66q0 25 22.5 38t87.5 13h23q236 0 358 28q88 20 260 101q141 68 228.5 168t87.5 213q0 94 -106.5 157.5t-270.5 63.5q-70 0 -238 -63.5t-192 -63.5q-33 0 -41 30.5t-8 67.5q0 59 43 187q35 104 77 196q29 59 48 84q41 55 92 62q119 14 250 30q164 23 226 32t89 9 q88 0 88 -65q0 -43 -158 -72q-59 -10 -188 -28.5t-223 -39.5q-47 -10 -74 -16q-8 -18 -61 -133q-41 -86 -54 -150q47 18 141.5 39t163.5 21q229 0 379 -82q178 -99 178 -281q0 -119 -129 -250q-113 -115 -294 -208q-168 -88 -349 -125q-137 -29 -295 -29q-55 0 -108 21.5 t-53 44.5z" />
<glyph unicode="6" horiz-adv-x="1148" d="M147 395q6 59 11 99q12 113 30 204q61 272 199 508q154 264 289 264q72 0 104.5 -31.5t32.5 -84.5q-2 -14 -2 -21q-6 -57 -20.5 -75.5t-42.5 -18.5q-29 0 -48.5 41t-27.5 57q-190 -96 -326 -518q-12 -41 -32.5 -135t-28.5 -166q31 10 96 51q109 66 115 70q57 33 139 63 q102 37 162 37q84 0 156.5 -53t72.5 -127q0 -137 -160 -311q-182 -201 -395 -201q-139 0 -213 64q-80 70 -111 284zM289 397q0 -121 42 -167t140 -46q143 0 282.5 122t139.5 220q0 39 -27.5 62.5t-72.5 23.5q-63 0 -138 -19.5t-137 -55.5z" />
<glyph unicode="7" horiz-adv-x="1161" d="M-61 1307q0 23 35.5 38t91.5 15h415q115 0 232.5 5t247.5 11q29 0 44 -9t15 -40q0 -47 -94 -252q-16 -35 -131 -270h243q25 0 44.5 -13t19.5 -36q0 -41 -135 -60q-104 -10 -209 -20q-57 -113 -94 -195t-56 -131q-37 -113 -85 -219t-68 -106q-18 0 -33.5 13t-15.5 28 q0 45 79 284q70 207 119 326q-129 -18 -258 -37q-41 -12 -84 -32.5t-63 -20.5q-55 0 -56 43q0 47 60 88q47 33 117.5 48t169 26.5t167.5 19.5q39 68 95 219q37 102 73 205l-333 -4l-396 -8q-61 0 -109 20.5t-48 63.5z" />
<glyph unicode="8" horiz-adv-x="1302" d="M20 362q0 104 80 207q63 80 195 181q-63 35 -89 93t-26 130q0 182 148 287q137 96 366 96q164 0 289 -37q156 -47 156 -129q0 -37 -79 -98.5t-169 -102.5q-57 -29 -84 -28q-18 0 -19 16q0 12 54 51q41 31 51 39q45 33 92 66q25 20 23 32q-18 41 -124 59.5t-212 18.5 q-143 0 -234 -53q-119 -70 -119 -221q0 -66 33 -99q45 -45 166 -45q80 0 170 39q35 14 141 74q84 45 164 98q47 31 60 31q29 0 28 -33q0 -25 -184 -155q-39 -31 -59 -43q-35 -25 -95 -43q213 0 340 -93q111 -80 111 -182q0 -199 -236.5 -365.5t-506.5 -166.5 q-172 0 -297 104q-133 111 -134 272zM172 365q0 -119 80 -193q74 -68 180 -68q209 0 414 133.5t205 258.5q0 109 -181 161q-141 41 -348 41q-115 0 -232.5 -109.5t-117.5 -223.5z" />
<glyph unicode="9" horiz-adv-x="1009" d="M66 1004q0 209 178 319q143 88 334 88q150 0 229 -133q67 -114 67 -274q0 -162 -14 -271q-23 -172 -86 -313q-55 -131 -135 -245t-150 -167q-80 -72 -110 -96q-51 -39 -146 -39q-31 0 -77 23q-57 29 -58 59q0 39 12.5 53.5t32.5 14.5t62 -17q27 -10 47 -10q102 0 229 162 q117 147 191 338q35 90 55.5 222t15.5 161q-57 -61 -186 -125q-145 -72 -242 -72q-160 0 -213 88q-37 61 -36 234zM197 983q0 -88 24 -127q33 -53 117 -53q51 0 189 63.5t208 124.5q2 12 2 23q0 8 -1 23.5t-1 35.5q0 94 -39 148q-47 63 -112 63q-182 0 -284.5 -77 t-102.5 -224z" />
<glyph unicode=":" horiz-adv-x="684" d="M231 113q-2 37 31 66.5t72 29.5q12 0 28 -6q60 -24 60 -90q0 -35 -28.5 -56.5t-67.5 -21.5q-18 0 -35 6q-51 18 -60 72zM238 608q0 35 30.5 63.5t69.5 28.5q12 0 29 -6q59 -24 59 -90q0 -35 -27.5 -56.5t-66.5 -21.5q-18 0 -37 7.5t-33 17.5q-25 20 -24 57z" />
<glyph unicode=";" horiz-adv-x="555" d="M-86 -362q0 4 115 159q78 106 131 201q27 47 45 156q10 63 59 63q45 0 56.5 -21.5t11.5 -82.5q0 -76 -63.5 -180.5t-198.5 -239.5q-39 -39 -67 -58.5t-56 -19.5q-33 0 -33 23zM205 784q-6 47 15.5 80t74.5 33q57 0 82.5 -30t25.5 -83q0 -33 -26.5 -53t-67.5 -24 q-88 0 -104 77z" />
<glyph unicode="&#x3c;" horiz-adv-x="1015" d="M76 535q0 31 106 122q98 84 199 168q111 109 221 217q68 59 111 60q37 0 52 -8.5t15 -26.5q0 -37 -225 -242q-147 -131 -293 -262q49 -37 174 -114q63 -41 127 -80q127 -80 256 -160q123 -86 123 -137q0 -45 -27 -45q-35 0 -100 43q-295 195 -522 313q-59 31 -119 63 q-98 57 -98 89z" />
<glyph unicode="=" horiz-adv-x="1865" d="M68 410q0 25 131 46t317 21h973h49.5t56.5 2q63 0 99.5 -7t36.5 -32q0 -47 -80 -65q-55 -12 -185 -13h-82t-79 3q-281 0 -506.5 -5.5t-389 -10.5t-262.5 -7q-29 12 -57 27q-23 14 -22 41zM82 784q0 76 229 97q160 10 228 16q147 12 323 17.5t320 5.5h61q121 0 297 -33 t176 -76q0 -27 -131 -27h-612q-186 0 -465 -20.5t-326 -20.5q-43 0 -71.5 8.5t-28.5 32.5z" />
<glyph unicode="&#x3e;" horiz-adv-x="1019" d="M113 45q0 33 317 262q178 129 223 170q-170 156 -174 160q-106 100 -163.5 174t-112.5 150q-90 133 -90 202q0 23 20.5 35t48.5 12q33 0 107 -100q219 -299 225 -305l172 -156q174 -157 174 -198q0 -45 -24.5 -65.5t-92.5 -20.5q-270 -176 -413.5 -268.5t-173.5 -92.5 q-18 0 -30.5 10.5t-12.5 30.5z" />
<glyph unicode="?" horiz-adv-x="1112" d="M217 1446q0 53 90 92q121 53 346 53q154 0 269 -32q165 -48 165 -148q0 -84 -147 -219q-109 -94 -162 -141q-68 -59 -137.5 -147.5t-69.5 -129.5q0 -74 -2 -84q-8 -41 -47 -41q-31 0 -47 49.5t-16 94.5q0 72 69 170q61 86 162 178t205 188q47 47 47 66q0 27 -74 53 q-98 35 -252 35q-76 0 -139 -8q-121 -16 -121 -52q0 -31 -8 -50t-37 -19q-43 0 -68.5 25.5t-25.5 66.5zM430 121q0 37 28.5 63.5t63.5 26.5q31 0 51.5 -16t28.5 -43q8 -39 -19.5 -74t-68.5 -35q-57 0 -80 53q-4 16 -4 25z" />
<glyph unicode="A" horiz-adv-x="1191" d="M2 96q0 41 78 226.5t153 365.5q27 63 148 348q82 190 98 244q12 70 24.5 135.5t45.5 65.5t63 -27q43 -37 64 -102q53 -98 128 -290t150 -388h105q29 0 50 -10.5t21 -32.5q0 -12 -10 -19q-33 -10 -45 -12l-78 -18q8 -20 95 -205q163 -351 163 -369q0 -47 -24 -47 q-29 0 -68 53q-49 66 -129 215.5t-157 323.5q-70 -10 -248 -45q-111 -23 -244 -49q-16 -4 -20 -4q-20 0 -64 41l-102 -232q-23 -41 -47.5 -104.5t-24.5 -91.5q0 -23 -21.5 -38.5t-42.5 -15.5q-25 0 -43 27t-18 55zM352 590q63 10 252 33.5t236 27.5q-76 166 -103 221 q-74 156 -147 314q-57 -139 -113 -277q-23 -49 -56.5 -138t-68.5 -181z" />
<glyph unicode="B" horiz-adv-x="1366" d="M49 674q0 39 37 55q14 6 80 21q0 14 20 358q12 207 13 326q0 106 170 106q53 0 112 -20q25 -8 172.5 -84t231.5 -199q78 -115 78 -227q0 -90 -62 -140q-41 -33 -166 -73q170 0 332 -72q238 -104 238 -305q0 -190 -340 -309q-256 -90 -451 -91q-23 0 -46.5 -1t-47.5 -1 q-53 0 -79 8.5t-26 34.5q0 23 16.5 37.5t43.5 14.5l139 2q145 0 385 90q279 104 279 215q0 131 -172 221q-158 82 -349 82q-135 -25 -188 -33q-94 -16 -154 -16q-10 -61 -14 -149.5t-4 -186.5q0 -30 11 -90q8 -44 8 -64q0 -7 -1 -12q-4 -16 -9 -25.5t-17 -9.5q-59 0 -88 94 q-35 113 -35 385q-49 0 -83 12.5t-34 45.5zM315 780q68 10 136 23q98 18 181 46t128 56q69 46 69 105q0 78 -75 180q-61 82 -160 141q-49 29 -141 53q-31 8 -84 19q0 -137 -17.5 -300t-36.5 -323z" />
<glyph unicode="C" horiz-adv-x="966" d="M31 582q0 109 51 280q66 223 172 363q137 180 313 180q57 0 107 -23q74 -33 74 -102q0 -86 -41 -86q-49 0 -50 76q0 20 -27.5 27.5t-66.5 7.5q-131 0 -261 -242t-130 -473q0 -221 56.5 -317.5t183.5 -96.5q184 0 315 74q106 82 215 164q41 0 41 -39v-37q-8 -68 -186 -170 q-209 -119 -418 -119q-190 0 -283 207q-65 145 -65 321v5z" />
<glyph unicode="D" horiz-adv-x="1273" d="M2 1169q0 51 121 88q45 14 100 23q18 45 25 53q20 25 61 25q33 0 46.5 -17.5t13.5 -76.5q129 -33 192 -56q152 -53 258 -125q207 -137 309 -249q136 -150 136 -295q0 -47 -58 -115q-70 -80 -188 -150q-78 -47 -207 -88q-96 -31 -270 -73q-102 -25 -207 -44.5t-158 -19.5 h-31q-20 0 -41.5 4t-21.5 23q0 31 39 48t131 38q-37 115 -62.5 257t-25.5 224q0 170 11 306t32 198q-6 1 -14 1q-21 0 -57 -4q-52 -5 -107 -9q-27 0 -27 34zM311 674q0 -156 12.5 -283t36.5 -205q152 29 258 58q207 53 328 116q176 95 176 199q0 129 -235 315 q-252 199 -522 250q-18 -59 -36 -192t-18 -258z" />
<glyph unicode="E" horiz-adv-x="1222" d="M72 104q0 23 8 37.5t29 46.5q0 57 8 156q22 257 22 348v8q-25 0 -38 29t-13 59q0 25 15.5 40.5t50.5 19.5q2 12 2 35q0 16 -2 57t-2 66q0 72 -7.5 135t-11.5 112q0 68 82 68q33 0 54.5 -3t31.5 -13q156 37 270 61q229 49 332 49q152 0 295 -18q223 -29 223 -84 q0 -12 -78 -13q-74 0 -172 4.5t-159 8.5q-203 0 -434 -49q-184 -39 -289 -86q0 -14 -5 -70.5t-5 -79.5v-174q70 14 439 64.5t421 50.5q16 0 31.5 -3t15.5 -14q0 -27 -96.5 -60.5t-362.5 -80.5l-463 -88l-26 -494q41 12 170 19.5t290 7.5q141 0 269.5 -18.5t128.5 -49.5 q0 -29 -129 -31.5t-254 -2.5q-143 0 -254 -27q-18 -4 -152 -43q-23 -6 -86 -37q-45 -22 -72 -22h-2q-23 0 -49 24.5t-26 54.5z" />
<glyph unicode="F" horiz-adv-x="1062" d="M68 602q0 31 55 62q31 16 96 38q0 41 2 143.5t2 162.5l6 198q-51 6 -61 11q-41 14 -41 49q0 23 39 44t67 25q0 41 19.5 69t46.5 28q47 0 69.5 -17.5t30.5 -50.5q51 18 193.5 33.5t222.5 15.5q115 0 267.5 -28.5t152.5 -59.5t-4 -39t-31 -8q-113 14 -206 25.5t-138 11.5 q-37 0 -175 -22.5t-278 -51.5q-18 -57 -34.5 -237.5t-16.5 -258.5q104 27 252 54q201 37 305 37q51 0 71.5 -9t18.5 -43q0 -33 -34 -43q-12 -4 -116 -15t-258.5 -41t-238.5 -54q-2 -18 -4 -87t-2 -79v-189q0 -154 -15 -238.5t-59 -84.5q-31 0 -46 25.5t-15 68.5q0 37 3 83 t3 54v223.5t2 192.5q-27 -10 -52.5 -17.5t-45.5 -7.5q-53 0 -53 27z" />
<glyph unicode="G" horiz-adv-x="1507" d="M20 508q0 254 130 455q119 184 360 340q135 88 205 116q100 43 215 43q63 0 126.5 -46t63.5 -79q0 -39 -35 -34q-18 0 -37.5 14t-27.5 20q-18 16 -51 18.5t-56 2.5h-22q-25 0 -107 -37q-100 -45 -202 -109q-195 -123 -293 -262q-135 -188 -135 -442q0 -176 69 -254 q53 -59 135 -59q115 0 336 86q260 100 492 233q6 47 8 83t2 85q-162 0 -414 -29q-61 -6 -144 -18t-103 -12q-23 0 -42.5 11t-19.5 19q0 49 214 93.5t415 44.5q29 0 96.5 2t101.5 2q90 0 141.5 -11.5t51.5 -46.5q0 -25 -47 -40t-98 -15q-10 -41 -14.5 -98.5t-4.5 -124.5v-164 q0 -223 -23.5 -299t-68.5 -76q-27 0 -55 19q-39 25 -39 67q0 25 16.5 78t16.5 92v31v22q0 33 -1 67t-1 66q-266 -129 -491.5 -211.5t-324.5 -82.5q-190 0 -272 137q-66 109 -66 303z" />
<glyph unicode="H" horiz-adv-x="1421" d="M-2 623q0 29 39 45q51 22 139 22h8q25 88 49 234q35 207 35 366q0 23 20.5 61t41.5 38q41 0 53 -30t12 -87v-62q0 -78 -37 -292q-25 -147 -47 -250q106 -18 142 -23.5t125 -5.5h100q180 0 273 3t165 20q41 322 62 423q66 332 145 332q25 0 45.5 -18t20.5 -47 q-59 -201 -104.5 -386.5t-45.5 -320.5q0 -82 8 -205q18 -276 19 -282v-43q0 -35 -8.5 -48.5t-40.5 -13.5q-41 0 -60 74q-6 27 -22 170q-8 86 -12.5 148.5t-4.5 136.5q-86 -25 -251 -48.5t-306 -23.5q-106 0 -175 4t-97 18q0 -20 -20.5 -184t-20.5 -219q0 -31 -17.5 -54.5 t-46.5 -23.5q-20 0 -30.5 44t-10.5 112q0 72 9.5 198.5t9.5 139.5q-29 0 -54.5 5t-39.5 5q-29 0 -49.5 20.5t-20.5 47.5z" />
<glyph unicode="I" horiz-adv-x="608" d="M170 473q0 41 39 252q20 115 43 229q12 66 39 230q12 78 20 131q18 127 103 127q16 0 30.5 -16.5t14.5 -36.5q0 -33 -31 -220q-12 -74 -37 -215q-4 -23 -53 -297q-27 -147 -27 -184q0 -82 -4 -185.5t-5 -189.5q0 -80 -28 -80q-37 0 -70.5 156t-33.5 299z" />
<glyph unicode="J" horiz-adv-x="1110" d="M115 1333q0 47 46 66.5t107 19.5q63 0 318 -12q127 -6 299 -6q217 0 276.5 -10t59.5 -43q0 -41 -28 -50.5t-114 -9.5l-164 -4q8 -74 14.5 -276.5t6.5 -362.5q0 -246 -135 -420q-151 -194 -401 -194h-3q-70 0 -125 69q-47 59 -47 105q0 57 47 57q16 0 53 -59.5t93 -59.5 q178 0 291 160q104 147 104 354q0 131 -13.5 297t-25.5 334l-405 -4q-27 0 -53.5 -1t-55.5 -1q-92 0 -118.5 12.5t-26.5 38.5z" />
<glyph unicode="K" horiz-adv-x="1269" d="M96 121v56.5t2 62.5q14 276 25.5 526t11.5 352q0 119 -10 190.5t-23 151.5q0 35 29 63.5t66 28.5q31 0 59 -32q41 -45 41 -119q0 -70 -16 -346q-6 -86 -11 -172q80 8 166 28q119 27 211 64q117 49 195 127q133 135 135 135q20 0 36.5 -12.5t16.5 -24.5q0 -70 -121 -190 q-90 -90 -215 -140q-51 -20 -160.5 -45.5t-187.5 -38.5q31 -43 98 -133q172 -231 275 -329q90 -86 176 -156q125 -100 227 -154q80 -41 209 -92q72 -29 72 -47q0 -20 -4 -20q-6 0 -22.5 2t-35.5 2q-139 0 -361 114.5t-380 259.5q-135 129 -238 248q-80 94 -118 158 q0 -72 -12.5 -208t-24.5 -288q0 -82 -13.5 -112.5t-50.5 -30.5q-29 2 -38 30.5t-9 90.5z" />
<glyph unicode="L" horiz-adv-x="1095" d="M94 195q0 53 10 303q4 100 5 170q0 94 8 231q22 363 22 433v5v43q0 51 12.5 86t49.5 35q25 0 58.5 -31.5t33.5 -76.5q0 -57 -32 -349t-32 -368q0 -154 -4 -256.5t-8 -235.5q53 0 232.5 -7t358.5 -13t210 -6q45 0 55 -2q45 -10 45 -43t-215 -39t-596 -6q-29 0 -70.5 -26 t-78.5 -26q-49 0 -56.5 60.5t-7.5 118.5z" />
<glyph unicode="M" horiz-adv-x="1466" d="M29 82v24q0 47 73 492q47 289 54.5 346t8.5 148.5t5 119.5q0 53 41 54h3q35 0 69 -90q25 -80 51 -158q47 -113 74 -168q35 -72 96 -166q53 -80 119 -147q80 -82 125 -82q31 0 100 90q27 35 121 176q63 94 145 242q55 98 84 149q39 66 53 86q33 47 54 47q47 0 62 -20.5 t15 -59.5q0 -23 -2 -46l-4 -46q0 -135 -4 -221t-15 -341t-11 -278q0 -27 2 -57.5t4 -60.5q0 -43 -7.5 -63.5t-29.5 -20.5q-47 0 -64.5 110.5t-17.5 284.5v87t2 81q0 76 2 171t6 208q-63 -109 -111.5 -192t-91.5 -142q-70 -100 -139 -201q-82 -100 -164 -100q-72 0 -159 76 q-78 66 -158 180q-37 53 -78 119q-33 53 -72 125q-35 -289 -102 -570q-55 -231 -98 -231q-41 0 -41 45z" />
<glyph unicode="N" horiz-adv-x="1290" d="M102 150.5v17.5q0 41 9.5 138t19.5 190q18 219 27.5 343t29.5 273q6 49 23.5 86t40.5 37q39 0 57 -25q10 -12 22.5 -52t23 -67.5t32.5 -80.5q78 -178 109 -232q76 -133 196 -264q80 -88 168 -168t146 -113q-6 61 -9 95q-10 111 -10 159q0 96 7 162t26 131q51 190 160 350 q90 131 123 132q25 0 36 -5t13 -28q-57 -119 -115 -236q-70 -143 -94.5 -257.5t-24.5 -221.5q0 -86 11.5 -165t20.5 -134t9 -98q0 -82 -59 -82q-57 0 -220 127t-292 274q-102 121 -182 256q-70 119 -109 223q0 -150 -6 -237.5t-30.5 -209.5t-49.5 -239q-31 -125 -72 -125 q-35 0 -35 31q-2 4 -2 15.5z" />
<glyph unicode="O" horiz-adv-x="1241" d="M72 690q0 182 135 394t264 212q74 0 103.5 -28.5t29.5 -83.5q0 -66 -23.5 -106t-56.5 -40q-12 0 -12 15q0 8 6 30.5t6 32.5q0 18 -18.5 36.5t-52.5 18.5q-66 0 -150 -149q-94 -166 -94 -338q0 -254 98 -395q90 -129 252 -129q223 0 387 172t164 393q0 129 -57 244 q-49 100 -289 221q-104 53 -105 80q0 16 10.5 33.5t30.5 17.5q61 0 199 -76q166 -92 234 -207q47 -78 66.5 -154.5t19.5 -166.5q0 -258 -212 -464t-489 -206q-223 0 -340 186q-106 170 -106 457z" />
<glyph unicode="P" horiz-adv-x="950" d="M111 1315q0 61 30.5 98t62.5 41t56 4q201 0 414 -178q227 -190 227 -395q0 -88 -76.5 -139.5t-257.5 -79.5q-68 -10 -167 -15.5t-156 -5.5q0 -43 -6 -162q-16 -315 -17 -340q0 -72 -18.5 -114.5t-48.5 -42.5q-27 0 -34 23.5t-7 92.5v37l4 545q0 195 -2 345.5t-4 285.5z M233 1266l7 -271l8 -258q63 0 142 5.5t191.5 21.5t155.5 65q25 29 25 84q0 135 -165 277.5t-312 142.5q-20 0 -36 -21.5t-16 -45.5z" />
<glyph unicode="Q" horiz-adv-x="1449" d="M43 649q0 250 182 533q210 327 475 327h2q109 0 173.5 -90t64.5 -209v-22q0 -66 -3 -99.5t-17 -80.5q-10 -45 -48 -45q-35 0 -55 200.5t-129 200.5q-141 0 -311 -205q-195 -233 -195 -510q0 -172 111 -323q129 -176 317 -176q82 0 138.5 16t125.5 51q-59 154 -94 252 t-35 119q0 31 14.5 61.5t43.5 30.5q25 0 61 -78q29 -59 50.5 -122.5t45 -114t46.5 -95.5q86 47 178 189q119 182 119 372q0 164 -101 322q-27 45 -82 94q-106 96 -106 109q-2 20 -2 28q0 20 12 30.5t35 17.5q6 1 12 1q65 0 189 -159q151 -194 151 -389q0 -227 -93 -407.5 t-278 -319.5q14 -45 45 -135.5t68 -180.5q27 -68 64 -129q75 -123 75 -127q0 -29 -22 -28q-43 0 -98.5 66.5t-108.5 172.5q-33 63 -84 178q-29 61 -55 123q-43 -23 -146.5 -47t-187.5 -24q-227 0 -391 200q-156 190 -156 422z" />
<glyph unicode="R" horiz-adv-x="1126" d="M143 1356q0 61 33 98t64.5 40t56.5 3q201 0 414 -178q225 -188 225 -393q0 -86 -78 -139.5t-256 -81.5q-51 -8 -105.5 -10.5t-119.5 -2.5q18 -23 78 -78q35 -33 188 -178q55 -51 295 -250q166 -136 168 -159q2 -6 -4 -13q-14 -14 -31 -14q-45 0 -194 115 q-137 106 -275 215q-23 16 -143 106q-141 104 -189 146q0 -86 -6 -216t-10 -182q0 -72 -18.5 -114.5t-49.5 -42.5q-39 0 -39 116v37l5 545q0 133 -3.5 293t-5.5 338zM268 1307l4 -271l11 -258q63 0 141 5t191.5 21.5t154.5 63.5q25 29 25 84q0 133 -165 277.5t-313 144.5 q-16 0 -28 -12q-20 -20 -21 -55z" />
<glyph unicode="S" horiz-adv-x="1189" d="M88 125q0 27 17.5 42t46.5 15q4 0 208 -12q102 -6 195 -6q178 0 289 53q133 66 133 193q0 72 -26.5 126t-86.5 95q-74 51 -235 78q-113 18 -170 26q-145 25 -246 111q-106 92 -107 205q0 121 191 206q168 76 356 76q96 0 205 -45q137 -57 137 -143q0 -8 2 -17 q-2 -10 -20 -10q-14 0 -98 53.5t-226 53.5q-80 0 -217 -45q-186 -61 -186 -146q0 -70 70.5 -124t178 -72.5t224.5 -34.5q133 -29 223 -86q80 -51 116 -127t36 -178q0 -164 -170 -262q-154 -90 -373 -91q-147 0 -256 9q-211 16 -211 57z" />
<glyph unicode="T" horiz-adv-x="872" d="M-150 1147q0 82 240 168q160 61 351.5 100t326.5 39h162q125 -8 133 -76q0 -49 -55 -49q-57 8 -115.5 13.5t-130.5 5.5q-80 0 -262.5 -39t-315.5 -92q-113 -45 -157 -78q-33 -23 -41 -49q-14 -45 -17 -50q-14 -27 -41 -26q-78 0 -78 133zM369 68q16 190 28.5 371.5 t12.5 279.5q0 94 -4.5 241.5t-4.5 196.5q-2 29 20.5 51.5t37.5 22.5q53 0 67 -55q6 -25 6 -103q0 -57 -3 -227t-5 -281q0 -180 -32.5 -368.5t-77.5 -188.5q-29 0 -35 12.5t-10 47.5z" />
<glyph unicode="U" horiz-adv-x="1191" d="M49 719q0 106 31 275t64.5 273.5t45.5 123.5q19 30 52 30h2q23 0 38 -22.5t15 -44.5q-45 -164 -68 -254q-67 -270 -67 -372q0 -175 51 -331q66 -202 177 -202h1q106 0 205 63q119 76 233 242q47 66 106.5 359.5t59.5 418.5q0 53 25 80q16 18 37 18q37 0 51 -16t14 -49 q0 -186 -23.5 -416.5t-58.5 -323.5q4 -29 10.5 -124t12.5 -148t14 -107.5t8 -64.5q0 -33 -15 -46t-44 -13q-41 0 -56.5 21.5t-27.5 86.5q-18 115 -18 246q-164 -188 -215 -229q-150 -121 -334 -121q-164 0 -252 219q-74 182 -74 428z" />
<glyph unicode="V" horiz-adv-x="1052" d="M-82 1186q0 37 7 54t48 17q37 0 68 -51q20 -35 41 -94q68 -203 192 -450q68 -133 139.5 -258t100.5 -160q14 66 64.5 201t111.5 268q106 233 271 496.5t206 263.5q35 -1 35 -13q0 -6 -39 -74q-27 -45 -41 -75q-74 -137 -147 -275q-96 -184 -150 -315q-76 -182 -118 -305 q-51 -150 -68.5 -246t-28.5 -115q-25 -47 -92 -47q-25 0 -51 39q-31 53 -47 80q-94 145 -144 233q-59 104 -126 248q-74 154 -153 353.5t-79 224.5z" />
<glyph unicode="W" horiz-adv-x="1531" d="M-4 1157q0 66 11 85.5t54 19.5q20 0 31.5 -31t11.5 -68q-1 -9 -1 -21q0 -56 23 -182q28 -152 73 -311q37 -131 61 -207q35 -109 59 -141q35 47 55.5 93t31.5 71q49 106 90 201q51 121 82 202q12 37 37.5 67t46.5 30q41 0 131 -154q74 -125 157 -305q25 -53 105 -232 l78 312q68 244 146.5 391t203.5 280q113 121 157 121q10 0 20.5 -1t10.5 -21q0 -2 -35 -35q-23 -20 -51 -55q-53 -61 -106 -150q-45 -76 -109 -201q-78 -160 -125 -358q-25 -109 -59 -336q-12 -78 -41 -139q-35 -74 -68 -74q-37 0 -131 178q-51 98 -168 342 q-92 195 -116 211q-33 -72 -62 -135q-68 -147 -86 -190q-88 -199 -132 -261.5t-81 -62.5q-59 0 -143 268q-23 74 -76 265q-86 307 -86 534z" />
<glyph unicode="X" horiz-adv-x="1275" d="M2 94q0 12 210 255t312 345q-39 55 -119.5 144.5t-173.5 181.5q-35 35 -122 110q-63 53 -64 64v9q0 59 74 59q37 0 180 -138q168 -172 336 -342q174 178 348 359q163 151 222 151h1q41 0 69 -6t28 -24q0 -43 -25 -62q-49 -25 -98 -47q-104 -96 -277 -264 q-86 -84 -196 -195l270 -311q84 -94 131 -156q63 -84 63 -110q0 -45 -55 -45q-16 0 -88 74.5t-145 152.5q-10 12 -150 168q-96 109 -123 135q-16 -14 -164 -160q-176 -172 -253 -243q-139 -127 -162 -127q-25 0 -29 22z" />
<glyph unicode="Y" horiz-adv-x="956" d="M-90 1311q0 27 13.5 43t43.5 16q25 0 115 -100q27 -29 186 -219q117 -137 195 -217q72 -74 102 -95q0 4 58 195q33 113 53 151q55 111 162 207q90 82 125 82q34 0 34 -31q-57 -59 -115.5 -121.5t-86.5 -125.5q-51 -117 -80 -312q-12 -80 -25 -102q-31 -45 -44 -54.5 t-50 -17.5q-10 -68 -18.5 -226.5t-8.5 -248.5q0 -72 -12 -96.5t-41 -24.5q-59 0 -59 72l2 559l-281 330q-20 25 -131 149q-137 156 -137 187z" />
<glyph unicode="Z" horiz-adv-x="1355" d="M104 162q0 23 11 35q125 150 250 299q193 231 387 465q203 242 231 274q-113 14 -214 22.5t-206 8.5q-80 0 -135 -4q-190 -14 -199 -15h-57q-45 4 -45 41q0 47 58.5 62.5t156.5 15.5q131 0 371.5 -12.5t324.5 -28.5t84 -63q0 -27 -204 -289q-86 -109 -386 -486 q-215 -268 -221 -290q227 10 465 17t365 7q72 0 148.5 -1t76.5 -19q0 -20 -22.5 -34.5t-51.5 -14.5q-20 0 -259.5 -19.5t-510 -39t-348.5 -19.5q-29 0 -49.5 28.5t-20.5 59.5z" />
<glyph unicode="[" horiz-adv-x="1185" d="M446 1470q0 272 30 304t142.5 41.5t241.5 9.5q41 0 47 -60q6 -49 -134 -58t-165 -32q-16 -14 -22 -100t-6 -227q0 -100 4 -358.5t4 -268.5v-344t2 -318q4 -55 14 -75.5t43 -23.5t51.5 -3h36.5q35 0 69 1t66 1q51 0 73 -5.5t22 -25.5q0 -41 -9 -55q-14 -27 -61 -27 q-53 0 -112.5 -2t-116.5 -4q-59 0 -103 6q-63 14 -79.5 27.5t-16.5 54.5v45t2 54q0 133 -5 380.5t-5 329.5q0 119 -6.5 373t-6.5 360z" />
<glyph unicode="\" horiz-adv-x="923" d="M-4 1581v29q0 20 9 29.5t44 9.5q45 0 113 -136q47 -104 94 -206q45 -86 176 -387q70 -160 139 -310q86 -184 166 -432q72 -224 72 -287q0 -31 -18 -30q-29 0 -121 192q-53 113 -172 398q-100 242 -138 323q-53 119 -245 512q-119 244 -119 295z" />
<glyph unicode="]" horiz-adv-x="1185" d="M233 -72q0 20 35 25.5t60 5.5h68.5t72.5 -2h43q16 2 25 2q43 4 53 14q18 18 18 86l2 662q0 102 4 363.5t4 265.5q0 299 -25.5 323.5t-163.5 31.5t-138 54q0 39 9 52.5t38 13.5q125 0 238.5 -9.5t146.5 -41.5q16 -16 22.5 -96.5t6.5 -213.5q0 -104 -6.5 -356t-6.5 -371 q0 -178 -5 -426t-5 -284v-53.5t2 -47.5q0 -41 -15.5 -53t-80.5 -27q-43 -6 -103 -6q-55 0 -113.5 2t-113.5 4q-45 0 -56 20.5t-16 61.5z" />
<glyph unicode="^" horiz-adv-x="1216" d="M84 1251q0 29 107.5 93.5t214.5 140.5q137 100 208 166q45 39 62 55q51 47 63 47q27 0 99 -135q45 -86 94 -133q63 -57 116.5 -120.5t53.5 -86.5q0 -16 -19.5 -29.5t-38.5 -13.5q-20 0 -81 49q-51 41 -125 115q-43 43 -78 94q-16 25 -49 78l-234 -172q-123 -92 -203 -142 q-102 -63 -137 -63q-20 0 -36.5 16.5t-16.5 40.5z" />
<glyph unicode="_" horiz-adv-x="1556" d="M205 -180q0 37 62.5 50t152.5 13h926q43 0 61 -10t18 -53q0 -45 -47 -64q-33 -12 -94 -12q-145 6 -291.5 11t-212.5 5q-94 0 -227 -8t-268 -18q-41 0 -52 4q-29 12 -28 82z" />
<glyph unicode="`" horiz-adv-x="864" d="M-2 1769q-4 33 10.5 58.5t40.5 25.5q57 0 154 -69q72 -51 209 -176q98 -86 161 -154q72 -75 72 -98q0 -27 -18 -27q-41 0 -170 109q-25 20 -123 110q-55 49 -115.5 89t-136.5 75q-43 10 -63.5 16.5t-20.5 40.5z" />
<glyph unicode="a" horiz-adv-x="1259" d="M18 242q0 141 99 321q123 223 293 223q63 0 91.5 -12t67.5 -51q23 4 43.5 -32t20.5 -81q0 -55 -6 -169.5t-6 -145.5q0 -96 14 -129q25 -57 102 -57q76 0 133 12q100 20 215 86q72 39 181 131q45 37 49 37q46 -8 46 -47q0 -5 -1 -9q0 -18 -62 -75q-74 -68 -157 -117 q-129 -74 -246 -109.5t-227 -35.5q-98 0 -149.5 99t-51.5 300q-63 -127 -113 -195q-104 -145 -196 -145q-84 0 -112 47t-28 154zM143 303q0 -45 7.5 -77.5t23.5 -32.5q51 0 186 233q48 82 95 164q6 16 6 31q0 55 -47 55q-84 0 -177.5 -142.5t-93.5 -230.5z" />
<glyph unicode="b" horiz-adv-x="937" d="M29 131q0 45 37 45q12 0 67 -45t107 -45q211 0 352 162q125 143 125 315q0 37 -24.5 65.5t-65.5 28.5q-51 0 -125 -90q-61 -76 -127 -192q-35 -106 -49 -148q-25 -69 -51 -69h-1q-25 0 -38 80.5t-25 160.5q-23 160 -41 378t-18 403q0 55 9 87.5t50 32.5q35 0 43 -19 t8 -52q0 -102 18.5 -381t43.5 -383q53 123 135 209q96 100 184 100q106 0 154 -63q41 -56 41 -154q0 -244 -185 -412q-171 -157 -388 -157h-3q-127 0 -180 49q-23 20 -53 94z" />
<glyph unicode="c" horiz-adv-x="890" d="M18 262q0 139 52 285q74 213 215 213q76 0 133 -37t57 -94q0 -43 -33 -43q-27 0 -47 36.5t-55 36.5q-88 0 -141 -122q-45 -106 -45 -240q0 -111 47 -164q41 -47 114 -47q57 0 178 41t228 102q37 20 168 103q53 33 72 33q27 0 33 -8t5 -36q-1 -25 -73 -69 q-76 -47 -144 -94q-135 -90 -273 -142.5t-243 -52.5q-109 0 -178.5 90t-69.5 209z" />
<glyph unicode="d" horiz-adv-x="1175" d="M2 297q0 160 94 339t189 179q72 0 135 -84q29 -39 57 -78q14 178 21 289q14 195 26.5 262.5t26.5 102.5q25 61 57 61q37 0 55.5 -25.5t18.5 -99.5q-23 -172 -44.5 -348t-21.5 -279q0 -195 17 -288q33 -193 133 -193q74 0 154 35q61 27 161 92q29 16 81 55t57 39 q47 -6 47 -40v-5q-2 -12 -42 -52t-89 -75q-100 -72 -202 -115.5t-190 -43.5q-119 0 -182 106q-43 72 -61 199q-66 -162 -111 -228q-88 -127 -205 -127q-90 0 -136 88.5t-46 233.5zM133 297q0 -92 6 -127q14 -76 56 -76q55 0 149 135q86 125 121 236q-14 53 -80 134t-100 81 q-43 0 -97.5 -149.5t-54.5 -233.5z" />
<glyph unicode="e" horiz-adv-x="993" d="M39 483q0 43 2 83t8 73q14 72 82 120t143 48q104 0 193 -49q100 -57 100 -146q0 -82 -57 -133q-41 -37 -127 -65q-61 -18 -113.5 -38t-111.5 -42q0 -78 49 -139q61 -78 172 -78q96 0 185 20.5t202 61.5q82 31 186 88q88 49 90 49q35 0 44.5 -5.5t9.5 -23.5 q0 -25 -102.5 -94.5t-205 -116.5t-214 -70.5t-209.5 -23.5q-121 0 -211 68q-113 84 -113 237q0 41 -1 85t-1 91zM154 436q35 8 98 33t98 42t52.5 45.5t17.5 55.5q0 39 -46 58.5t-118 19.5q-23 0 -54.5 -26.5t-35.5 -50t-8 -94t-4 -83.5z" />
<glyph unicode="f" horiz-adv-x="899" d="M-117 662q-2 29 19.5 44t65.5 21t132 11t158 5h35q0 86 16.5 271.5t34.5 263.5q37 162 92 264q70 129 154 129q41 0 85 -42t44 -89t-15.5 -84t-46.5 -37q-12 0 -16 25.5t-12 32.5q-23 14 -31 14q-35 0 -73 -70.5t-53 -158.5t-25.5 -226.5t-10.5 -261.5v-22 q43 0 144.5 -4.5t121.5 -4.5q135 0 170 -6q93 -16 93 -75q0 -37 -19.5 -50.5t-58.5 -13.5q-20 0 -31 2q-43 0 -99.5 12.5t-76.5 14.5q-113 8 -219 8h-29q0 -92 -12 -373q-2 -53 -8 -145q0 -106 -6 -195q-12 -168 -41 -271.5t-58 -166.5q-41 -86 -80 -86q-31 0 -30 18 q0 14 29.5 101.5t41 161t16.5 169t5 224.5v28v25q0 39 -1 75t-1 68q0 203 2 259.5t4 103.5h-320q-45 0 -67.5 5t-22.5 26z" />
<glyph unicode="g" horiz-adv-x="911" d="M-119 -606q0 14 14.5 42.5t36.5 28.5q33 0 48.5 -20t15.5 -55q0 -31 32.5 -57.5t82.5 -26.5q96 0 208 170q35 53 105 181t104 306q25 127 25 236q0 92 -10 133q-35 -106 -124 -175t-175 -69q-98 0 -148 39q-63 49 -63 170q0 102 129 262t217 160q33 0 44 -7t11 -44 q0 -20 -39 -54q-25 -20 -85 -63t-104 -121t-44 -127q0 -37 22.5 -57.5t53.5 -20.5q82 0 168 62q72 51 106 114q10 53 12 80t2 60q-2 39 -2 59q0 55 60 55q33 0 61 -82q37 -104 37 -284q0 -217 -27 -348q-35 -170 -135 -338q-143 -240 -239 -328q-84 -76 -162 -76 q-117 0 -182 68q-55 55 -56 127z" />
<glyph unicode="h" d="M18 1366q0 25 22.5 45.5t45.5 20.5q18 0 42 -27t32 -56.5t12 -184t4 -357.5q0 -248 13.5 -408.5t43.5 -160.5q35 0 80 59q35 45 64 115q18 47 29 65q25 43 65 43q35 0 72 -57q20 -37 43 -72q59 -94 119 -188q90 -98 268 -99q113 0 227 78q102 84 205 170q29 0 33 -4 t4 -41q-4 -51 -152 -166q-172 -135 -321 -135q-184 0 -310 84q-92 61 -190 244q-43 -82 -107 -156q-82 -94 -137 -94q-78 0 -114 82q-12 29 -45 172q-4 31 -8.5 175t-4.5 257q0 104 -5 256t-5 160q0 45 -6 78q-18 100 -19 102z" />
<glyph unicode="i" horiz-adv-x="796" d="M45 1325q0 27 14.5 48.5t46.5 21.5q49 0 91.5 -61.5t42.5 -112.5q0 -33 -7 -41q-14 -18 -63 -19q-39 0 -82 60.5t-43 103.5zM53 266v154t2 166q0 55 -2 67q0 49 11.5 83t48.5 34t54 -26.5t17 -112.5q0 -33 -2 -153t-2 -171q0 -113 19 -141q31 -49 147 -49q137 0 275 69 q117 78 233 158h31q20 -4 20 -29q0 -61 -194 -182q-213 -131 -377 -131q-70 8 -139 18q-63 12 -82 39q-29 39 -41 74q-18 51 -19 133z" />
<glyph unicode="j" horiz-adv-x="923" d="M-154 -647q0 274 148 471q80 106 233 213q6 37 8.5 197.5t8.5 216.5q-23 -27 -86 -95q-14 -14 -64 -67q-20 -23 -41.5 -45.5t-44.5 -22.5q-25 0 -45 13.5t-16 35.5q2 18 73 99q225 250 228 254q0 63 7 156t7 108q-2 23 -2 33q0 57 20.5 96t69.5 39q51 0 80 -36t29 -122 q0 -68 -11.5 -119t-62.5 -143q0 -43 -8 -256t-8 -262q35 18 152.5 61t188 67.5t199.5 76.5q51 20 60 20q29 0 41 -9t12 -40q0 -14 -88 -56t-191 -79l-376 -154q0 -16 -7.5 -134t-7.5 -171v-135q0 -266 -37 -383q-59 -188 -227 -189q-102 0 -172 110t-70 251zM-41 -612 q0 -78 43 -178.5t86 -100.5q63 0 100 160q29 125 29 254q0 88 3 191.5t7 191.5q-106 -66 -170 -158q-98 -145 -98 -360zM218.5 1613q25.5 21 53.5 21q37 0 85.5 -65.5t48.5 -104.5q0 -43 -8.5 -57t-45.5 -14q-31 0 -92 61q-67 67 -67 104q0 34 25.5 55z" />
<glyph unicode="k" horiz-adv-x="1280" d="M18 1366q0 25 22.5 45.5t45.5 20.5q18 0 42 -27t34 -64q4 -20 12 -329.5t8 -468.5q147 172 195 215q126 116 229 116h2q109 0 163 -44t54 -140q0 -82 -47 -147q-39 -53 -110 -97q-61 -35 -123 -59q-90 -35 -160 -35q-39 0 -70 8q45 -33 72 -51q96 -68 173 -118t151.5 -66 t193.5 -16q94 0 209 73q109 80 219 160q29 0 33 -4t4 -41q-4 -49 -153 -164q-172 -133 -316 -133q-152 0 -211 10q-92 16 -194 76q-51 31 -125 76l-168 106q0 -47 2 -72.5t2 -74.5q0 -61 -10.5 -101t-49.5 -40q-51 0 -72.5 152.5t-21.5 338.5q0 193 -4 379t-6 336 q0 45 -6 78q-18 100 -19 102zM270 455q78 0 162 20.5t154 61.5q53 31 80.5 66.5t27.5 68.5q0 37 -24.5 63.5t-69.5 26.5q-47 0 -154 -115z" />
<glyph unicode="l" horiz-adv-x="841" d="M47 539q0 143 7 284.5t18 298.5v31v23v75v25q0 23 20.5 45t34.5 22q84 0 84 -253q0 -55 -8 -175q-18 -268 -19 -321q0 -236 15 -328q25 -153 101 -153h1q68 0 160 28.5t178 75.5q63 33 190 109q90 53 109 53q18 0 24.5 -6t6.5 -35q0 -20 -113 -94q-86 -55 -240 -146 q-92 -53 -173 -73.5t-187 -20.5q-121 0 -172 186q-37 135 -37 349z" />
<glyph unicode="m" horiz-adv-x="1615" d="M41 651q0 39 17.5 66.5t47.5 27.5q41 0 68 -116q20 -92 21 -174q41 72 81 118q55 61 93 62q49 0 99 -34t69 -93q2 -6 26 -115q16 -78 39 -78q35 0 68 66q16 33 35 98q10 43 22 88q12 31 59 31q49 0 70 -63.5t39 -94.5q68 -141 127 -202q80 -84 190 -84q123 0 236 63 q102 72 205 143h4q51 0 51 -26q0 -53 -164 -162q-188 -125 -356 -125q-182 0 -293 125q-88 141 -109 170q-37 -70 -79 -115q-59 -61 -115 -61q-35 0 -64.5 21.5t-56.5 64.5q-16 27 -27.5 65.5t-21.5 77.5t-16 68q-12 29 -37 29t-56.5 -56.5t-68.5 -146.5q-43 -109 -49 -119 q-35 -59 -89 -59q-31 0 -40 33.5t-9 97.5v61.5t2 63.5q0 72 -7 149.5t-11 134.5z" />
<glyph unicode="n" horiz-adv-x="1435" d="M45 631q0 37 13.5 55.5t60.5 18.5q29 0 43 -48.5t14 -119.5q0 -63 6 -106.5t35 -174.5q43 68 125 168q47 57 99.5 95t88.5 38q76 0 117 -76q25 -47 54.5 -185t50.5 -181q35 -74 102 -74q72 0 165 29.5t198 83.5q70 35 229 174q63 55 78 55q29 0 32 -7t3 -38 q0 -39 -97 -125q-88 -80 -182 -137q-227 -139 -393 -139q-129 0 -199 69q-57 57 -102 197q-18 63 -35 129q-18 51 -53 51q-23 0 -80 -66q-47 -53 -111 -145q-33 -49 -49 -72q-45 -59 -78 -59q-51 0 -74 70q-8 27 -23 132t-26.5 217.5t-11.5 170.5z" />
<glyph unicode="o" horiz-adv-x="876" d="M57 367q0 74 9.5 128t29.5 121q14 47 57.5 100.5t67.5 53.5q51 0 51 -49q0 -25 -18 -66t-35 -77q-20 -57 -31.5 -142.5t-11.5 -165.5q0 -49 35 -86t94 -37q55 0 104.5 82t49.5 168q0 100 -9.5 158.5t-25.5 83.5q-51 16 -74 31q-39 25 -39 55q0 43 14.5 66.5t49.5 23.5 q88 0 110 -24q18 -39 39 -66q35 -4 87.5 -8t84.5 -4h45.5t44.5 3q66 0 66 -26q0 -43 -37 -62.5t-96 -19.5h-57h-25h-45q-23 6 -31 8q16 -39 27.5 -97t11.5 -99q0 -127 -78 -250q-90 -141 -213 -141q-96 0 -166.5 60.5t-78 144t-7.5 133.5z" />
<glyph unicode="p" horiz-adv-x="638" d="M14 -711q0 33 8.5 95.5t20.5 171t16 234.5t4 286l-4 280l-6 312q0 57 19.5 81.5t87.5 24.5q186 0 268 -53q63 -41 102 -141q33 -85 33 -148q0 -70 -30.5 -145.5t-77.5 -120.5q-66 -61 -130.5 -82t-148.5 -21q0 -88 -9 -260t-25.5 -343t-30 -204.5t-70.5 -33.5 q-27 0 -27 39v28zM176 401l4 -229q59 0 116.5 23.5t87.5 57.5t44 78t14 97q0 47 -10 82q-18 61 -66.5 98t-185.5 37z" />
<glyph unicode="q" horiz-adv-x="786" d="M6 217q0 100 68 234q59 119 147 221q47 53 109.5 89t111.5 36q47 0 66.5 -7.5t54.5 -50.5q43 -33 51 -39q39 -37 39 -84q0 -31 -12 -71q-35 -117 -37 -125q-18 -113 -25.5 -227.5t-7.5 -243.5v-76q0 -90 5.5 -180t9.5 -158q0 -27 26.5 -76t26.5 -75q0 -57 -16.5 -79 t-75.5 -22q-45 0 -66.5 56.5t-21.5 142.5q0 23 -4 168t-4 233v350q-6 -10 -33 -43q-33 -43 -77 -93t-82 -73.5t-105 -23.5q-63 0 -105.5 67.5t-42.5 149.5zM143 195q0 -39 10.5 -53.5t30.5 -14.5q29 0 138 111q84 84 151 163q4 35 5 44.5t14 64.5q4 23 14 60.5t14 45.5 q-16 37 -38.5 52.5t-49.5 15.5q-109 0 -207 -219q-82 -180 -82 -270z" />
<glyph unicode="r" horiz-adv-x="778" d="M92 629q0 25 15.5 42t39.5 17q45 0 80 -55t35 -146q0 -51 4 -92t4 -78q25 106 47.5 170t44.5 91q78 92 177 133q78 32 172 32h6q66 0 132 -15.5t66 -35.5q0 -30 -61 -30h-4q-117 0 -191 -19q-131 -33 -200 -131q-20 -31 -45 -144.5t-52 -240.5q-39 -127 -129 -127 q-41 0 -54 22.5t-23.5 91t-15.5 143.5t-5 146q0 84 -12 134q-16 45 -31 92z" />
<glyph unicode="s" horiz-adv-x="681" d="M94 272q0 55 39 56q23 -2 47 -52q12 -29 29.5 -60.5t66 -66t80.5 -34.5q33 0 33 26q0 27 -30.5 79t-59.5 99q-14 29 -68 113q-69 109 -69 189q0 111 50 187.5t148 76.5q94 0 160 -56q58 -47 58 -96q0 -47 -6.5 -61.5t-36.5 -14.5q-33 0 -41.5 6.5t-24.5 30.5 q-23 33 -39 47q-29 25 -63 25q-45 0 -63.5 -39t-18.5 -104q0 -39 20.5 -90.5t81.5 -143.5q43 -66 86 -129q43 -74 43 -139q0 -63 -27.5 -86t-82.5 -23q-72 0 -134.5 28t-101.5 81q-27 35 -51.5 80t-24.5 71z" />
<glyph unicode="t" horiz-adv-x="940" d="M-225 672q-2 31 17.5 43t57.5 20q68 8 161 16.5t184 8.5l16 358v29v22v78v23q2 23 22.5 45t32.5 22q86 0 86 -252q0 -29 -11 -155.5t-11 -167.5q51 0 143 -5t121 -5h55q100 0 139 -11q68 -18 68 -69q0 -43 -25.5 -53.5t-82.5 -10.5q-43 0 -99.5 12.5t-92.5 16.5t-106.5 6 t-125.5 2q0 -16 -2.5 -60t-2.5 -59q12 -147 25 -295q23 -122 97 -122h1q63 0 156.5 28.5t181.5 73.5q47 27 128 75t106 48q20 0 26 -7t4 -34q0 -20 -81 -76q-55 -37 -205 -123q-92 -51 -174 -72.5t-187 -21.5q-94 0 -145 111q-66 139 -66 424l7 112l-328 -8q-39 0 -64.5 7 t-25.5 26z" />
<glyph unicode="u" horiz-adv-x="1372" d="M43 578q0 27 2 36q0 37 20.5 61.5t49.5 24.5q25 0 43 -23.5t18 -72.5q0 -74 10.5 -153.5t38.5 -171.5q53 41 90 80.5t86 105.5q23 27 45 55q39 43 76 43q45 0 94 -98q76 -154 105 -191q59 -76 82 -94q53 -45 129 -45q145 0 280 70q117 76 234 151q25 0 29 -15t4 -40 q0 -49 -162 -151q-197 -125 -412 -125q-133 0 -274 129q-47 49 -88 104q-49 66 -58 102q-78 -84 -131 -135q-102 -98 -159 -98q-61 0 -85 44t-42 153q-8 57 -16.5 129.5t-8.5 124.5z" />
<glyph unicode="v" horiz-adv-x="862" d="M14 649q0 25 18.5 45.5t43.5 20.5q31 0 67 -62q10 -16 64 -121q8 -18 45 -106q27 -66 49.5 -113t50 -99t56.5 -52q20 0 75 196q35 125 82 201q68 109 174 191q89 69 124 69h1q29 4 41 4q23 1 23 -26q0 -37 -64 -66q-49 -23 -67 -37q-45 -39 -98.5 -118.5t-75.5 -139.5 q-41 -172 -70 -262q-55 -166 -166 -166q-39 0 -70 31q-23 23 -92 137q-39 63 -88 183t-60 136.5t-37 76t-26 77.5z" />
<glyph unicode="w" horiz-adv-x="1110" d="M-23 643q0 43 16.5 72.5t51.5 29.5q37 0 56.5 -8t19.5 -41q6 -106 11 -179t20 -220q0 -33 16 -64.5t29 -31.5q31 0 98 127t147 127q41 0 68 -17.5t49 -50.5q78 -123 84 -131q57 -80 82 -80q37 0 37 72q0 35 -24.5 188.5t-24.5 212.5q0 78 48 108.5t146 30.5q117 0 212 -7 t95 -38q0 -12 -20 -17t-36.5 -9t-143.5 -21q-78 -10 -125 -17t-47 -67q0 -45 22.5 -186t22.5 -174q0 -96 -26.5 -170t-80.5 -74q-82 0 -153 68q-45 43 -95 125q-23 39 -46 76.5t-52 37.5q-23 0 -86 -131t-170 -131q-43 0 -86 31q-51 37 -57 92q-27 203 -42.5 324t-15.5 143z " />
<glyph unicode="x" horiz-adv-x="1126" d="M53 119q0 25 119 125q51 43 104 88l119 104q-6 6 -125 115q-61 55 -86 84q-14 18 -41 45q-45 47 -45 65q0 35 45 35q27 0 162 -116q84 -74 168 -146l297 262q86 74 164 117q57 33 80 33t39 -12t14 -41q0 -16 -63 -60q-100 -68 -164 -119q-72 -59 -123 -106l-156 -152 q35 -39 105 -102q90 -82 174 -141q68 -45 102.5 -57.5t77.5 -12.5q45 0 45 -47q0 -33 -26.5 -46.5t-75.5 -13.5q-82 0 -278 159t-218 177q-10 -8 -44 -37.5t-83 -64.5q-109 -78 -158 -109q-78 -49 -106 -49q-23 0 -23 23z" />
<glyph unicode="y" horiz-adv-x="1040" d="M41 510q0 35 30.5 54.5t65.5 19.5q59 0 86 -37q8 -10 47 -98q25 -86 41 -132q33 -86 78 -86q49 0 226.5 173.5t238.5 173.5q35 0 53.5 -16.5t18.5 -59.5q0 -72 -66 -207q-100 -207 -117 -254q-72 -193 -143 -387q-37 -113 -37 -174q0 -82 -53 -82q-33 0 -39 24.5t-6 61.5 q0 80 86 323q45 127 92 254q59 164 121 328q-141 -125 -242 -196q-111 -80 -168 -80q-59 0 -94 49q-2 2 -49 94q-23 72 -39 113q-31 78 -66.5 82t-49 14t-15.5 45z" />
<glyph unicode="z" horiz-adv-x="1198" d="M170 623q0 53 54.5 101t125.5 48q152 0 248 -74q106 -82 107 -229q0 -86 -70 -166q-49 -57 -135 -108q104 0 160.5 -50.5t56.5 -130.5q0 -33 -1 -59.5t-11 -75.5q92 92 288 264q215 188 236 189q23 0 30 -9.5t7 -29.5q0 -14 -164 -174q-205 -197 -410 -395 q-35 -111 -117 -242q-98 -156 -163 -156q-27 0 -58 37q-20 25 -20 45q0 45 13 86t66.5 106.5t100.5 112.5q25 25 74 66q8 35 12 85t4 105q0 86 -47 119q-31 20 -90 21h-23q-25 0 -69.5 -6.5t-63.5 -6.5q-12 0 -19 19.5t-7 44.5q0 10 86 67q49 33 100 72q70 53 96 100 q18 35 19 78q0 68 -39 113q-58 69 -185 69h-4q-39 0 -60.5 -12t-33.5 -31.5t-20 -31.5q-12 -12 -37 -13q-37 0 -37 52z" />
<glyph unicode="{" horiz-adv-x="1134" d="M252 823q0 33 66.5 72t79 66.5t14.5 94t2 103.5q0 51 -1 103.5t-1 105.5q0 115 5 173t23 87q68 104 201 105q31 0 47 -2q193 0 193 -72q4 -47 -68 -47q-18 0 -63 4t-72 4q-51 0 -83 -12.5t-50 -48.5q-8 -16 -12.5 -67.5t-4.5 -107.5q0 -57 2 -145t7 -192q0 -88 -11 -109 q-14 -45 -55 -68q-59 -25 -98 -41q12 -10 78 -59q39 -31 41 -43q20 -45 61 -524q16 -199 53 -230q27 -29 68 -40t90 -11q31 0 90 6t80 6q61 1 61 -38q2 -8 2 -25q0 -31 -16 -40t-51 -9q-39 2 -58 2q-25 -4 -55.5 -6t-60.5 -2q-98 0 -162 26q-76 33 -113 109 q-27 53 -51 372.5t-47 354.5q-12 18 -61.5 50t-59.5 55.5t-10 39.5z" />
<glyph unicode="|" horiz-adv-x="878" d="M387 834v231q0 258 5 422t25.5 274.5t61.5 110.5q39 0 43 -57t4 -127q0 -211 -4 -334q-14 -430 -14 -508v-1084v-90q0 -154 -4 -251t-45 -97q-31 0 -49.5 35t-18.5 133q0 182 -1 404.5t-2 467t-1 470.5z" />
<glyph unicode="}" horiz-adv-x="1200" d="M279 -141q-4 43 57 43q31 0 49 -2q92 -10 102 -11q61 0 104.5 16.5t74.5 65.5q18 31 18 131q0 84 -8 201t-17 258q0 45 7 62q14 45 41 61q45 18 81 37q-55 41 -77 57q-39 29 -39 41q-23 51 -45 522q-10 195 -45 226q-29 31 -63 42t-73 11q-29 0 -68.5 -5t-43.5 -5 q-41 0 -41 39q-2 8 -2 24q0 33 19.5 41t62.5 8q31 0 62.5 4.5t68.5 4.5q72 0 117 -30t84 -110q29 -57 41 -371.5t34 -347.5q10 -16 60.5 -48.5t62.5 -65.5q8 -16 8 -33q0 -37 -66.5 -75t-80.5 -66q-8 -23 -8 -82q0 -70 8 -166q23 -262 22 -309q0 -68 -3 -87.5t-15 -37.5 q-35 -55 -84 -82t-115 -27h-22q-18 4 -27 4q-125 0 -170 8q-72 14 -71 54z" />
<glyph unicode="~" horiz-adv-x="1247" d="M229 1595q0 49 56.5 93.5t105.5 44.5q39 0 86 -25q29 -14 59.5 -41t59.5 -51q33 -23 70 -23q33 0 60.5 8.5t70.5 36.5q33 20 63 66q25 35 39 35q59 0 59 -35q0 -39 -22 -72q-29 -41 -86 -78q-109 -68 -182 -67q-55 0 -103 26q-49 35 -73.5 51.5t-49.5 37.5q-37 25 -69 24 q-27 0 -69 -31.5t-48 -31.5q-27 0 -27 32z" />
<glyph horiz-adv-x="1366" d="M-150 1147q0 82 240 168l105 37l4 82q0 115 112 114q25 0 34 -20.5t9 -57.5q0 -23 -1 -40t-1 -29q133 27 233.5 40t182.5 13h162q125 -8 133 -76q0 -49 -55 -49q-57 8 -115.5 13.5t-130.5 5.5q-53 0 -174 -22.5t-240 -57.5q0 -133 -10 -248t-23 -240q102 18 204 37 t157 19q152 0 354 -93q275 -124 275 -323q0 -213 -196 -390t-404 -177q-117 0 -189 86q-49 59 -70 151q-2 8 -2 23q0 55 48 55q14 -2 36.5 -34t42 -78t56.5 -76.5t78 -30.5q207 0 350 174q123 147 123 297q0 131 -172 221q-158 82 -349 82q-135 -25 -188 -33 q-94 -16 -154 -16q-10 -61 -14 -149.5t-4 -186.5q0 -27 10 -135.5t10 -141.5q0 -16 -3 -26t-8 -19.5t-17 -9.5q-53 0 -88 163t-35 447q-49 0 -83 12.5t-34 45.5q0 39 37 55q14 6 80 21q0 14 14 251q8 135 8 218q-121 -49 -161 -78q-31 -23 -41.5 -53.5t-20.5 -43.5 q-16 -20 -47 -20q-39 0 -53.5 25.5t-14.5 97.5z" />
<glyph horiz-adv-x="968" d="M53 1321q0 20 40 42.5t69 27.5q0 39 19.5 66.5t45.5 27.5q47 0 69.5 -16.5t31.5 -51.5q51 18 193.5 33.5t221.5 15.5q115 0 267.5 -28.5t152.5 -59.5t-4 -39t-31 -8q-115 16 -206 27.5t-138 11.5q-55 0 -237 -33q-109 -20 -215 -41q-25 -68 -39 -247t-14 -365l-5 -352 q0 -156 -14 -241t-59 -85q-31 0 -46.5 25.5t-15.5 70.5q0 27 2 68t2 70q0 78 2 205.5t2 207.5l5 408l6 199q-55 8 -64 10q-41 14 -41 51zM365 1587q-16 33 69.5 99.5t212.5 130.5q82 45 242 108.5t194 63.5q29 0 46.5 -7t17.5 -30q0 -4 -229 -107q-135 -61 -213 -106 q-39 -23 -156 -123q-84 -72 -135 -72q-23 0 -33 12q-10 20 -16 31z" />
<glyph horiz-adv-x="1269" d="M96 121v56.5t2 62.5q18 272 31.5 509.5t13.5 354.5q0 111 -3 168t-5 117q0 37 21.5 64.5t58.5 27.5q29 0 53 -31q33 -43 33 -117q0 -59 -8 -162q-23 -285 -23 -288q41 39 152 153q84 86 135 129q137 113 277 228q129 102 170 102q23 0 40 -18q10 -10 11 -17 q0 -18 -148 -145q-37 -33 -303 -256q-43 -37 -114.5 -115t-143.5 -158q31 -70 131.5 -194.5t233.5 -261.5q63 -66 131 -119q59 -47 162 -113q39 -25 165 -84q95 -43 95 -61q0 -25 -23 -25q-25 2 -41 2q-74 0 -244 84q-197 96 -334 225.5t-241 256.5q-86 104 -129 180 q0 -78 -14.5 -223.5t-30.5 -309.5q0 -82 -13.5 -112.5t-50.5 -30.5q-29 2 -38 30.5t-9 90.5zM432 1593q-16 33 70 99.5t213 130.5q82 45 241.5 108.5t194.5 63.5q29 0 46 -7t17 -30q0 -4 -229 -107q-135 -61 -213 -106q-39 -23 -156 -123q-84 -72 -135 -72q-23 0 -32 13 q-10 20 -17 30z" />
<glyph horiz-adv-x="1169" d="M-150 1147q0 82 240 168l105 37l4 82q0 115 112 114q25 0 34 -20.5t9 -57.5q0 -23 -1 -40t-1 -29q133 27 233.5 40t182.5 13h162q125 -8 133 -76q0 -49 -55 -49q-57 8 -115.5 13.5t-130.5 5.5q-53 0 -174 -22.5t-240 -57.5q0 -133 -10 -248t-23 -240q119 27 209 41.5 t140 14.5q182 0 274 -82q109 -96 109 -316q0 -162 -33 -323.5t-62 -157.5q-49 8 -49 66q14 121 25.5 231.5t11.5 163.5q0 129 -61 209q-74 96 -222 96q-63 0 -180 -24.5t-162 -24.5q-10 -61 -14 -149.5t-4 -186.5q0 -27 10 -135.5t10 -141.5q0 -16 -3 -26t-8 -19.5t-17 -9.5 q-53 0 -88 163t-35 447q-49 0 -83 12.5t-34 45.5q0 39 37 55q14 6 80 21q0 14 14 251q8 135 8 218q-121 -49 -161 -78q-31 -23 -41.5 -53.5t-20.5 -43.5q-16 -20 -47 -20q-39 0 -53.5 25.5t-14.5 97.5z" />
<glyph d="M63 49q0 14 24 24.5t60 10.5q-4 20 -4 63q0 115 8.5 242t32.5 301q37 197 54 289q31 168 30 311q0 23 20.5 61t41.5 38q41 0 53 -30t12 -87v-62q0 -68 -45 -307q-29 -150 -39 -235q-23 -166 -43 -335t-20 -245l129 6q35 4 73.5 4h61.5h80q25 119 53 117q18 0 40 -18.5 t22 -36.5v-31q0 -25 -5 -33l109 -2h209q-2 14 -3 30.5t-1 27.5q0 16 2 57t2 70v366q0 250 60.5 502t148.5 252q25 0 44 -19.5t19 -46.5q-55 -201 -98 -379q-49 -205 -49 -327v-543q66 -6 78 -7t12 -28q0 -49 -9 -60.5t-44 -11.5h-25q-59 0 -175 7.5t-171 7.5l-131 12 l-10 -90q-4 -33 -7.5 -105.5t-3.5 -148.5l-8 -197q0 -43 -14 -61t-29 -18q-33 0 -46 79.5t-13 184.5q0 37 7 143.5t22 214.5q-104 0 -201.5 -5t-169.5 -9q-33 -2 -51 -2q-41 0 -67 12t-26 47z" />
<glyph horiz-adv-x="911" d="M-369 1006q-2 29 19.5 44t56.5 19q100 16 190.5 25.5t149.5 9.5l-4 82q0 45 -6 78q-18 100 -19 102q0 25 22.5 45.5t45.5 20.5q18 0 46 -36t28 -69v-227q72 0 176 -6.5t115 -6.5q135 0 170 -6q92 -16 92 -75q0 -37 -19.5 -50.5t-58.5 -13.5q-20 0 -31 2q-43 0 -99 12.5 t-85 15.5t-120 10t-134 7l10 -182q0 -248 13.5 -408.5t43.5 -160.5q37 0 103 149q25 57 51 117q27 49 51 76q33 33 70 32q47 0 101.5 -21.5t81 -71.5t49 -238.5t22.5 -403.5q0 -176 -13.5 -252t-63.5 -198.5t-155 -223.5q-131 -125 -270 -125q-143 0 -235 78q-76 66 -76 133 q0 59 49 60q27 0 47 -27q14 -25 23 -37q31 -47 68.5 -69.5t94.5 -22.5q109 0 215.5 90t147.5 211t51 192.5t10 155.5q0 43 -5 184.5t-5 157.5q0 104 -22 183q-31 106 -88 106q-35 0 -64 -37q-12 -16 -47 -86q-57 -119 -102 -182q-57 -84 -97 -84q-78 0 -114 82 q-12 29 -45 172q-4 31 -8.5 175t-4.5 257l-2 207l-10 -2h-320q-45 0 -67.5 5t-22.5 26z" />
<glyph horiz-adv-x="1130" d="M8 629q0 25 15.5 42t39.5 17q45 0 80 -55t35 -146q0 -49 4 -125.5t4 -78.5q14 59 43 120q37 78 90 138q66 70 113 102q63 45 121 45q35 0 66.5 -27.5t31.5 -54.5q0 -37 -30.5 -67.5t-90 -53t-116 -61.5t-80.5 -82q37 -98 84 -154q78 -94 184 -94q92 0 166 19.5t184 64.5 q92 37 189 90q45 25 90 51q10 0 30.5 0.5t20.5 -28.5q0 -23 -104.5 -94.5t-196.5 -112.5q-111 -51 -218.5 -74.5t-209.5 -23.5q-66 0 -169 75.5t-136 161.5q-20 -98 -33 -143q-23 -80 -63 -80q-43 0 -60 27q-8 12 -18 67q-12 88 -17.5 163t-5.5 146q0 84 -12 134 q-16 45 -31 92zM162 911q-16 33 69.5 99.5t212.5 130.5q82 45 242 108.5t195 63.5q29 0 46 -7t17 -30q0 -4 -229 -107q-135 -61 -213 -106q-39 -23 -156 -123q-84 -72 -135 -72q-23 0 -33 13q-10 20 -16 30z" />
<glyph d="M-369 1006q-2 29 19.5 44t56.5 19q76 12 193.5 22.5t156.5 10.5q0 37 -4 59.5t-4 34.5q-16 84 -31 170q0 25 22.5 45.5t45.5 20.5q18 0 42 -27t32 -54.5t14 -119.5t6 -133l271 -11q135 0 170 -6q92 -16 92 -75q0 -37 -19.5 -50.5t-58.5 -13.5q-20 0 -31 2q-43 0 -99 12.5 t-98 16.5t-59 6q-102 10 -168 10q0 -29 -2 -90t-2 -92q0 -248 13.5 -408.5t43.5 -160.5q35 0 80 59q35 45 64 115q18 47 29 65q25 43 65 43q35 0 72 -57q20 -37 43 -72q59 -94 119 -188q90 -98 268 -99q113 0 227 78q102 84 205 170q29 0 33 -4t4 -41q-4 -51 -152 -166 q-172 -135 -321 -135q-184 0 -310 84q-92 61 -190 244q-43 -82 -107 -156q-82 -94 -137 -94q-82 0 -121 92q-31 74 -30 184l-8 410l-5 213q-80 0 -161.5 -3t-178.5 -5q-45 0 -67.5 5t-22.5 26z" />
<glyph unicode="&#xa1;" horiz-adv-x="1021" d="M-20 1284q-8 66 63 66q18 0 72 -76q197 -281 219 -307q47 -55 143 -181.5t127 -158.5q45 72 131 239q55 106 111.5 217t116.5 226q53 96 75 96q14 0 26.5 -18.5t12.5 -36.5q0 -27 -28.5 -101.5t-81.5 -187.5q-129 -264 -238 -461q-137 -248 -266 -430q-72 -102 -74 -104 q-51 -66 -76 -66q-61 0 -61 61q0 16 74 121q188 266 209 307q-43 47 -126 161t-169 237q-100 145 -201 293q-57 86 -59 104zM295 1595q0 29 14.5 48.5t40.5 19.5q18 0 51 -39q45 -53 50 -57q20 -18 43 -37q39 -31 81 -37q59 -6 144 45q35 23 69 66q29 35 43 34q20 0 31.5 -6 t11.5 -26q0 -25 -24 -64q-33 -51 -87 -86t-100.5 -49t-87.5 -14q-57 0 -108 20q-31 12 -76 43q-29 20 -51 43q-31 33 -38 54.5t-7 41.5z" />
<glyph unicode="&#xa2;" horiz-adv-x="1294" d="M4 557q0 82 74 82q53 0 68.5 -71.5t29.5 -139.5q25 -86 41 -131q33 -86 78 -86t137 90q35 35 170 186q102 117 152 152q12 8 22 8q20 0 33.5 -19.5t13.5 -62.5q0 -33 -12 -81t-16 -70.5t-4 -46.5q0 -35 2 -82t4 -92q90 55 301 140t237 85q23 0 34 -23.5t11 -46.5 q0 -20 -250 -133q-143 -63 -333 -143v-143.5t2 -153.5v-105q0 -311 -70 -417.5t-205 -106.5q-104 0 -171.5 87t-67.5 220q0 246 149 445q90 121 236 219q0 68 -3 108.5t-8 93.5v33q4 29 5 45q-74 -90 -179 -180q-145 -125 -227 -125q-59 0 -94 49q-6 10 -47 97 q-14 29 -43 104q-25 57 -37 90t-20.5 66.5t-12.5 58.5zM123 1051q0 29 14.5 48t40.5 19q18 0 51 -39q45 -53 50 -57q20 -18 43 -37q39 -31 81 -37q59 -6 144 45q35 23 69 66q29 35 43 35q20 0 31.5 -6.5t11.5 -26.5q0 -25 -24 -64q-33 -51 -87 -85.5t-100.5 -49t-87.5 -14.5 q-57 0 -108 20q-31 12 -76 43q-29 20 -51 43q-31 33 -38 54.5t-7 42.5zM406 -518q0 -74 40.5 -148.5t83.5 -74.5q68 0 107 120q33 100 33 215v383q-94 -55 -168 -170q-96 -150 -96 -325z" />
<glyph unicode="&#xa3;" horiz-adv-x="1110" d="M115 1333q0 47 46 66.5t107 19.5q63 0 318 -12q127 -6 299 -6q217 0 276.5 -10t59.5 -43q0 -41 -28 -50.5t-114 -9.5l-164 -4q8 -74 14.5 -276.5t6.5 -362.5q0 -246 -135 -420q-152 -195 -404 -194q-70 0 -125 69q-47 59 -47 105q0 57 47 57q16 0 53 -59.5t93 -59.5 q178 0 291 160q104 147 104 354q0 131 -13.5 297t-25.5 334l-405 -4q-27 0 -53.5 -1t-55.5 -1q-92 0 -118.5 12.5t-26.5 38.5z" />
<glyph unicode="&#xa5;" horiz-adv-x="870" d="M53 1321q0 23 31 43t78 27q0 39 19.5 66.5t45.5 27.5q45 0 62 -21q8 -10 18 -51q39 6 189.5 14.5t314.5 18.5q0 170 10 212t39 42q23 0 38 -19.5t15 -50.5q0 -25 8.5 -108.5t8.5 -112.5q0 -55 -35 -74.5t-141 -19.5q-82 0 -245 -8.5t-206 -16.5q-12 -76 -18 -244.5 t-6 -361.5l-5 -352q0 -156 -14 -241t-59 -85q-31 0 -46.5 25.5t-15.5 70.5q0 27 2 68t2 70q0 78 2 205.5t2 207.5l5 408v209q-31 2 -60 6q-39 10 -39 45z" />
<glyph unicode="&#xa6;" horiz-adv-x="724" d="M328 217q0 63 5 220t5 196v65q0 76 15.5 114t70.5 38q27 0 37 -29.5t10 -79.5q0 -27 -4 -99.5t-4 -74.5q0 -328 -8 -440q-18 -242 -74 -242q-35 0 -44 84t-9 248zM334 1642q0 113 6 146q14 78 68 78q25 0 36 -39t11 -84q0 -33 10 -348q4 -127 4 -211v-94q0 -80 -10 -115 t-51 -35q-33 0 -50.5 41t-17.5 141q0 123 -2 260.5t-4 259.5z" />
<glyph unicode="&#xa7;" horiz-adv-x="929" d="M57 528q0 188 123 273q78 53 176 53q33 0 54.5 -19.5t21.5 -43.5q0 -45 -23.5 -57.5t-72.5 -12.5q-63 0 -113.5 -61.5t-50.5 -155.5q0 -106 115 -221q33 -18 86 -27.5t98 -9.5q96 0 163.5 57t67.5 135q0 158 -135 320q-39 47 -157 164q-53 49 -107 100q-96 98 -96 227 q0 70 49 117q66 63 199 64q68 0 163 -41q115 -49 115 -103q0 -18 -9 -36.5t-22 -18.5q-35 0 -104.5 51t-171.5 51q-39 0 -70.5 -27.5t-31.5 -70.5q0 -63 143 -209q125 -127 190 -203q96 -109 138 -221q30 -82 30 -166q0 -147 -88 -217q-37 -29 -139 -61q-43 -14 -92 -15 q-51 0 -117 21l66 -66q70 -74 113.5 -125t86.5 -102q37 -51 37 -125q0 -121 -108 -182q-78 -43 -158 -43q-117 0 -193 63q-63 53 -63 109q0 20 10 40.5t33 20.5q27 0 59 -30q70 -61 80 -68q35 -20 70 -21q63 0 100 21q47 27 47 86q0 37 -30.5 94.5t-83.5 114.5 q-45 49 -146 145q-90 86 -96 92q-72 72 -111 152q-45 92 -45 188z" />
<glyph unicode="&#xa8;" horiz-adv-x="1222" d="M59 47q0 27 9 43q16 25 26 43q20 180 32.5 323.5t12.5 211.5q-25 0 -38 28.5t-13 59.5q0 51 66 57q2 12 2 35q0 16 -2 57t-2 66q0 72 -7.5 147.5t-11.5 134.5q0 68 82 68q33 0 54.5 -3t31.5 -13q156 37 270 61q229 49 332 49q152 0 295 -18q223 -29 223 -84 q0 -12 -78 -13q-74 0 -172 4.5t-159 8.5q-203 0 -434 -49q-184 -39 -289 -86q0 -14 -5 -70.5t-5 -79.5v-209q82 16 440 66.5t420 50.5q10 0 28.5 -5t18.5 -11q0 -45 -217 -95q-100 -23 -242 -47l-463 -88l-41 -516q43 12 171 19.5t290 7.5q141 0 269 -18.5t128 -49.5 q0 -33 -155.5 -35t-227.5 -2q-143 0 -254 -26q-18 -4 -151 -43q-27 -8 -81 -33t-79 -25t-49.5 22.5t-24.5 55.5zM360 1704q0 35 31 54.5t72 19.5q39 0 66.5 -23.5t27.5 -58.5t-27.5 -54.5t-66.5 -19.5q-41 0 -72 22.5t-31 59.5zM733 1690q0 35 27.5 58.5t66.5 23.5 q37 0 69 -19.5t32 -48.5q0 -47 -31 -71.5t-70 -24.5q-31 0 -62.5 24.5t-31.5 57.5z" />
<glyph unicode="&#xa9;" horiz-adv-x="1454" d="M184 831q0 141 31 243t94 179q78 94 172 142.5t215 48.5q233 0 402 -119q194 -137 194 -373q0 -182 -21.5 -268t-89 -197.5t-214.5 -167.5q-131 -49 -320 -49q-240 0 -360 179q-102 152 -103 382zM297 862q0 -238 94 -361.5t256 -123.5q252 0 391 117q148 124 148 366 q0 123 -41 223.5t-125 159.5q-61 43 -139 60.5t-199 17.5q-170 0 -277.5 -139.5t-107.5 -319.5zM485 838q0 123 68 204.5t166 92.5q20 4 35 4q59 0 106 -30t47 -81q4 -27 -12 -32t-41 -5q-18 0 -39 13q-49 29 -74 28q-84 0 -118 -74q-25 -53 -25 -151q0 -68 52 -114t120 -46 q33 0 96.5 25.5t85.5 25.5q56 1 56 -36q0 -47 -76 -82t-150 -35q-123 0 -202 55q-90 61 -91 174q-2 16 -3 34.5t-1 29.5z" />
<glyph unicode="&#xaa;" horiz-adv-x="978" d="M43 758q0 170 98 362q125 244 320 244q211 0 399 -117q164 -102 164 -168q0 -47 -8 -63.5t-45 -16.5q-76 92 -187 160q-125 78 -307 78q-127 0 -212 -133t-85 -354q0 -262 84 -447q100 -221 291 -221q35 0 93.5 14.5t90.5 32.5q4 2 60 41q33 23 51 23q39 0 39 -50 q0 -16 -10 -37q-33 -61 -168 -98q-104 -29 -168 -28q-203 0 -328 157q-96 123 -141 334q-31 145 -31 287zM184 666q6 35 31 45t73 15t88 8t118 3q188 0 299.5 -8t111.5 -41q0 -55 -45 -67q-20 -6 -110 -7q-31 -4 -53.5 -4h-32.5q-23 0 -80.5 2t-87.5 2q-174 0 -246 8.5 t-66 43.5z" />
<glyph unicode="&#xab;" horiz-adv-x="1710" d="M211 473q-2 18 131 125q102 82 174 131q164 117 234 164q98 66 114 65q20 0 52 -25.5t28 -41.5q-4 -41 -123 -115q-109 -68 -217 -133q-68 -45 -123 -92q-72 -61 -114 -98q78 -88 88 -101q57 -59 135 -114q25 -18 223 -132q104 -59 105 -114q0 -14 -9.5 -23.5t-40.5 -9.5 h-26q-43 0 -166 72q-106 61 -187 125q-123 94 -196.5 177t-81.5 140zM745 426q0 33 123 145q86 78 123 111q104 104 150 149q80 78 127 78q25 0 45 -8t20 -29q0 -23 -99 -126t-292 -281q23 -33 102 -82q47 -29 95 -55q193 -125 217 -144q108 -77 108 -118q0 -16 -9 -32 t-21 -16q-25 0 -187 103q-150 94 -323 188q-61 29 -97 47q-82 45 -82 70z" />
<glyph unicode="&#xac;" horiz-adv-x="1478" d="M242 578q0 33 172 45t389 12q61 0 161.5 -2t153.5 -2q45 0 72 -20.5t27 -67.5v-125q-10 -100 -95 -101q-51 0 -58 35t-7 76v47q0 18 -2 25h-582h-37q-92 0 -133 10q-68 16 -61 68z" />
<glyph unicode="&#xad;" horiz-adv-x="1372" d="M242 489q0 33 172 45.5t389 12.5q70 0 130 -5t97 -5q51 0 83 -14.5t26 -53.5q-8 -37 -48 -49t-128 -12h-76t-80 2h-25h-71h-49h-35h-27h-68.5t-72.5 2h-27h-35q-80 0 -110 10q-51 16 -45 67z" />
<glyph unicode="&#xae;" horiz-adv-x="1394" d="M162 838q0 141 31.5 238.5t97.5 176.5q152 180 391 181q233 0 405 -121q197 -137 197 -373q0 -166 -45 -276q-16 -41 -104 -185q-70 -117 -215 -176q-133 -53 -318 -53q-236 0 -350 192q-90 152 -90 396zM279 862q0 -246 82.5 -376t240.5 -130q256 0 399 125 q154 136 154 404q0 123 -35 211t-116 147q-61 43 -143.5 60.5t-194.5 17.5q-180 0 -289 -143q-98 -129 -98 -316zM465 848q0 47 4 86t23 151q6 45 77.5 52.5t132.5 7.5q115 0 166 -60q41 -47 41 -120q0 -57 -35.5 -95.5t-89.5 -44.5q-39 -8 -57 -11t-51 -3q70 -117 127 -180 q20 -20 96 -62q33 -16 33 -20q0 -29 -14.5 -43t-47.5 -14q-98 0 -186 98q-23 31 -55 88q-14 27 -47 86q0 -43 8 -103.5t5 -76t3 -38t6 -28.5q0 -12 -6 -21.5t-41 -9.5q-43 0 -64.5 52.5t-21.5 234.5q-6 35 -6 74zM594 905h35q102 0 133 16.5t31 51.5q0 49 -31 65.5t-84 16.5 q-16 0 -45 -2t-39 -2v-146z" />
<glyph unicode="&#xaf;" horiz-adv-x="608" d="M82 1690q0 27 14.5 48t46.5 21q49 0 91 -61.5t42 -112.5q0 -33 -6 -41q-14 -18 -63 -18q-39 0 -82 60.5t-43 103.5zM170 473q0 41 39 252q20 115 43 229q12 66 39 230q12 78 20 131q18 127 103 127q16 0 30.5 -16.5t14.5 -36.5q0 -33 -31 -220q-12 -74 -37 -215 q-4 -23 -53 -297q-27 -147 -27 -184q0 -82 -4 -185.5t-6 -189.5q0 -80 -27 -80q-37 0 -70.5 156t-33.5 299zM446 1706q0 27 14.5 48.5t47.5 21.5q49 0 91 -61.5t42 -112.5q0 -33 -6 -41q-14 -18 -64 -19q-39 0 -82 60.5t-43 103.5z" />
<glyph unicode="&#xb0;" horiz-adv-x="919" d="M221 1589q0 109 81 169.5t196 60.5t189.5 -81t74.5 -210q0 -119 -68.5 -180.5t-177.5 -61.5q-156 0 -229 84q-66 76 -66 219zM330 1589q0 -88 47 -139t115 -51q80 0 118 61q29 46 29 109q0 53 -35 85t-76 39t-53 7q-59 0 -102 -30t-43 -81z" />
<glyph unicode="&#xb1;" horiz-adv-x="1423" d="M166 633q0 18 11 37.5t30 19.5l133 4l285 6q8 43 17 90.5t9 104.5q0 25 -1 44t-1 34q0 49 5 76.5t44 27.5q47 0 68.5 -25.5t21.5 -113.5q0 -43 -5 -111.5t-17 -128.5l313 -6q59 0 93 -18.5t34 -61.5q0 -35 -28.5 -45t-77.5 -10q-66 0 -176 12q-14 2 -33 2h-29 q-29 0 -57.5 -1t-56.5 -1q-2 -16 -3.5 -34.5t-1.5 -26.5q0 -18 1 -32.5t12 -90.5q0 -43 10 -88q25 -106 25 -109q0 -68 -62 -67q-29 0 -59.5 66.5t-44.5 166.5q-23 154 -23 215q-70 0 -147.5 2t-153.5 4q-61 0 -76 3q-59 8 -59 55zM197 -4q0 41 62.5 48t129.5 7h834 q41 0 57 -8t16 -47q0 -41 -43 -57q-29 -10 -86 -11q-131 6 -242.5 10.5t-209.5 4.5q-104 0 -215 -7.5t-232 -17.5q-47 0 -59 12.5t-12 65.5z" />
<glyph unicode="&#xb2;" horiz-adv-x="608" d="M170 473q0 41 39 252q20 115 43 229q12 66 39 230q12 78 20 131q18 127 103 127q16 0 30.5 -16.5t14.5 -36.5q0 -33 -31 -220q-12 -74 -37 -215q-4 -23 -53 -297q-27 -147 -27 -184q0 -82 -4 -185.5t-6 -189.5q0 -80 -27 -80q-37 0 -70.5 156t-33.5 299z" />
<glyph unicode="&#xb3;" horiz-adv-x="796" d="M45 1325q0 27 14.5 48.5t46.5 21.5q49 0 91.5 -61.5t42.5 -112.5q0 -33 -7 -41q-14 -18 -63 -19q-39 0 -82 60.5t-43 103.5zM53 266v154t2 166q0 55 -2 67q0 49 11.5 83t48.5 34t54 -26.5t17 -112.5q0 -33 -2 -153t-2 -171q0 -113 19 -141q31 -49 147 -49q137 0 275 69 q117 78 233 158h31q20 -4 20 -29q0 -61 -194 -182q-213 -131 -377 -131q-70 8 -139 18q-63 12 -82 39q-29 39 -41 74q-18 51 -19 133z" />
<glyph unicode="&#xb4;" horiz-adv-x="667" d="M6 629q0 25 15.5 42t39.5 17q25 0 125.5 -18.5t145.5 -18.5q78 0 110.5 7.5t59 32t26.5 75.5q0 14 -1 32.5t-3 43.5q0 47 33 47q51 0 70 -58q12 -39 12 -131q0 -66 -76 -108.5t-203 -42.5q-63 0 -110 5t-103 19q12 -70 21.5 -212t9.5 -207v-40t2 -38q0 -43 -10 -62.5 t-41 -19.5q-39 0 -54.5 19.5t-15.5 56.5q2 14 2 22q2 18 3.5 35.5t1.5 48.5q0 113 -17 248q-8 70 -25.5 130t-17.5 75z" />
<glyph unicode="&#xb6;" horiz-adv-x="915" d="M170 1690q0 84 102 98q29 4 119 4q100 0 101 -49v-395l-11 -586v-582q0 -111 -14 -157t-39 -46q-43 0 -54.5 41t-11.5 148v57v101v94v86v80v71v64v57v51v45v41v37v31v29v24q0 37 -1 75t-1 77v22v400h-30q-72 0 -107 12q-53 18 -53 70zM627 1534q0 117 6 154q14 84 57 84 q49 0 67.5 -27t18.5 -84q0 -12 -7 -98.5t-7 -135.5q0 -158 -2 -260q-8 -412 -8 -442v-219q0 -236 -7.5 -384.5t-31.5 -148.5q-80 0 -80 250q0 414 -2 725.5t-4 585.5z" />
<glyph unicode="&#xb7;" horiz-adv-x="720" d="M279 635q0 41 26.5 69.5t67.5 28.5t68.5 -31.5t23.5 -72.5q-16 -74 -92 -74q-80 0 -94 80z" />
<glyph unicode="&#xb8;" horiz-adv-x="993" d="M12 1028q0 35 31 54.5t72 19.5q39 0 66.5 -23.5t27.5 -58.5t-27.5 -54.5t-66.5 -19.5q-41 0 -72 22.5t-31 59.5zM39 438q0 43 2 83t8 73q14 72 82 120t143 48q104 0 193 -49q100 -57 100 -146q0 -82 -57 -133q-41 -37 -127 -65q-61 -18 -113.5 -38t-111.5 -42 q0 -78 49 -139q61 -78 172 -78q96 0 185 20.5t202 61.5q82 31 186 88q88 49 90 49q35 0 44.5 -5.5t9.5 -23.5q0 -25 -102.5 -94.5t-205 -116.5t-214 -70.5t-209.5 -23.5q-121 0 -211 68q-113 84 -113 237q0 41 -1 85t-1 91zM154 391q35 8 98 33t98 42t52.5 45.5t17.5 55.5 q0 39 -46 58.5t-118 19.5q-23 0 -54.5 -26.5t-35.5 -50t-8 -94.5t-4 -83zM385 1014q0 35 27.5 58.5t66.5 23.5q37 0 69 -19.5t32 -48.5q0 -47 -31 -71.5t-70 -24.5q-31 0 -62.5 24.5t-31.5 57.5z" />
<glyph unicode="&#xb9;" horiz-adv-x="1669" d="M53 1325q6 41 45 41q14 0 39 -18.5t51 -49.5q39 53 72 54q59 0 68.5 -120t17.5 -235q18 -63 74 -153q84 -133 248 -322q102 -119 162.5 -179t111.5 -103q8 74 21 252q29 406 28 413q14 152 64.5 290t107.5 138q23 0 36 -8t13 -37q-43 -111 -73.5 -215t-30.5 -194 q0 -139 -11.5 -380t-11.5 -288q0 -74 -34.5 -119t-89.5 -45q-57 0 -189 137q-51 53 -150.5 167t-199.5 233q-49 57 -121 145q0 -39 -31 -149q-20 -74 -41 -148q-23 -98 -45 -196q-27 -100 -57 -101q-29 0 -48.5 30t-10.5 62q61 246 112 674q-10 45 -22 78q-23 51 -45 102 q-25 80 -43.5 148.5t-16.5 95.5zM1243 1063q0 104 84 193.5t199 89.5q74 0 130 -33t56 -92q0 -119 -45 -195q-61 -102 -188 -102q-92 0 -156 30q-80 39 -80 109zM1286 745q0 23 60.5 37.5t148.5 14.5h38.5t43.5 2q49 0 75.5 -8t28.5 -33q0 -43 -38.5 -51.5t-141.5 -8.5 q-14 0 -51 -2t-55 -2q-53 0 -81 10.5t-28 40.5zM1372 1108q0 -31 25.5 -62.5t50.5 -31.5q68 0 115 55q41 47 41 98q0 35 -27 55.5t-53 20.5q-41 0 -96.5 -58.5t-55.5 -76.5z" />
<glyph unicode="&#xba;" horiz-adv-x="890" d="M18 262q0 139 52 285q74 213 215 213q76 0 133 -37t57 -94q0 -43 -33 -43q-27 0 -47 36.5t-55 36.5q-76 0 -124 -89t-60 -205l170 -7q113 0 167 -7t54 -40q0 -43 -34 -56t-95 -13h-39q-53 0 -122 4t-103 8q8 -86 53 -127t108 -41q57 0 178 41t228 102q37 20 168 103 q53 33 72 33q27 0 32.5 -8t5.5 -33q4 -25 -72.5 -72t-144.5 -94q-135 -90 -273 -142.5t-243 -52.5q-109 0 -178.5 90t-69.5 209z" />
<glyph unicode="&#xbb;" horiz-adv-x="1447" d="M287 -4q0 20 235 227q137 119 197 191q-49 37 -98 78q-37 31 -78 71q-98 92 -156 174q-70 98 -70 160q0 23 19.5 33t46.5 10q43 0 123 -115q63 -92 139 -159q86 -76 163 -125t110 -117q-41 -74 -170 -154q-96 -59 -140 -94q-82 -70 -177 -141.5t-114 -71.5q-31 0 -30 33z M745 37q0 27 248 207q137 98 191 145q-170 143 -189 160q-59 53 -96 100q-41 47 -86 123q-68 113 -68 170q0 43 62 43q27 0 86 -82q174 -240 184 -248q106 -84 176 -145q142 -125 142 -156q0 -25 -54 -39q-86 -23 -100 -30q-78 -39 -211 -131q-225 -156 -246 -156 q-39 0 -39 39z" />
<glyph unicode="&#xbc;" horiz-adv-x="923" d="M-154 -647q0 274 148 471q80 106 233 213q6 37 8.5 197.5t8.5 216.5q-23 -27 -86 -95q-14 -14 -64 -67q-20 -23 -41.5 -45.5t-44.5 -22.5q-25 0 -45 13.5t-16 35.5q2 18 73 99q225 250 228 254q0 63 7 156t7 108q-2 23 -2 33q0 57 20.5 96t69.5 39q51 0 80 -36t29 -122 q0 -68 -11.5 -119t-62.5 -143q0 -43 -8 -256t-8 -262q35 18 152.5 61t188 67.5t199.5 76.5q51 20 60 20q29 0 41 -9t12 -40q0 -14 -88 -56t-191 -79l-376 -154q0 -16 -7.5 -134t-7.5 -171v-135q0 -266 -37 -383q-59 -188 -227 -189q-102 0 -172 110t-70 251zM-41 -612 q0 -78 43 -178.5t86 -100.5q63 0 100 160q29 125 29 254q0 88 3 191.5t7 191.5q-106 -66 -170 -158q-98 -145 -98 -360zM193 1559q0 33 25.5 54t53.5 21q37 0 85.5 -65.5t48.5 -104.5q0 -43 -8.5 -57t-45.5 -14q-31 0 -92 61q-68 68 -67 105z" />
<glyph unicode="&#xbd;" horiz-adv-x="1189" d="M88 125q0 27 17.5 42t46.5 15q4 0 208 -12q102 -6 195 -6q178 0 289 53q133 66 133 193q0 72 -26.5 126t-86.5 95q-74 51 -235 78q-113 18 -170 26q-145 25 -246 111q-106 92 -107 205q0 121 191 206q168 76 356 76q96 0 205 -45q137 -57 137 -143q0 -8 2 -17 q-2 -10 -20 -10q-14 0 -98 53.5t-226 53.5q-80 0 -217 -45q-186 -61 -186 -146q0 -70 70.5 -124t178 -72.5t224.5 -34.5q133 -29 223 -86q80 -51 116 -127t36 -178q0 -164 -170 -262q-154 -90 -373 -91q-147 0 -256 9q-211 16 -211 57z" />
<glyph unicode="&#xbe;" horiz-adv-x="681" d="M94 272q0 55 39 56q23 -2 47 -52q12 -29 29.5 -60.5t66 -66t80.5 -34.5q33 0 33 26q0 27 -30.5 79t-59.5 99q-14 29 -68 113q-70 111 -69 191q0 109 50 185.5t148 76.5q94 0 160 -56q58 -47 58 -96q0 -47 -6.5 -61.5t-36.5 -14.5q-33 0 -41.5 6.5t-24.5 30.5 q-23 33 -39 47q-29 25 -63 25q-45 0 -63.5 -39t-18.5 -104q0 -39 20.5 -90.5t81.5 -143.5q43 -66 86 -129q43 -74 43 -139q0 -63 -27.5 -86t-82.5 -23q-72 0 -134.5 28t-101.5 81q-27 35 -51.5 80t-24.5 71z" />
<glyph unicode="&#xbf;" horiz-adv-x="796" d="M-190 1264q0 27 14 48t47 21q49 0 91 -61.5t42 -112.5q0 -33 -6 -41q-14 -18 -64 -18q-39 0 -81.5 60.5t-42.5 103.5zM53 266v154t2 166q0 55 -2 67q0 49 11.5 83t48.5 34t54 -26.5t17 -112.5q0 -33 -2 -153t-2 -171q0 -113 19 -141q31 -49 147 -49q137 0 275 69 q117 78 233 158h31q20 -4 20 -29q0 -61 -194 -182q-213 -131 -377 -131q-70 8 -139 18q-63 12 -82 39q-29 39 -41 74q-18 51 -19 133zM168 1284q0 27 14.5 48.5t46.5 21.5q49 0 91 -61.5t42 -112.5q0 -33 -6 -41q-14 -18 -63 -19q-39 0 -82 60.5t-43 103.5z" />
<glyph unicode="&#xc0;" horiz-adv-x="1191" d="M2 96q0 41 78 226.5t153 365.5q27 63 148 348q82 190 98 244q12 70 24.5 135.5t45.5 65.5t63 -27q43 -37 64 -102q53 -98 128 -290t150 -388h105q29 0 50 -10.5t21 -32.5q0 -12 -10 -19q-33 -10 -45 -12l-78 -18q8 -20 95 -205q163 -351 163 -369q0 -47 -24 -47 q-29 0 -68 53q-49 66 -129 215.5t-157 323.5q-70 -10 -248 -45q-111 -23 -244 -49q-16 -4 -20 -4q-20 0 -64 41l-102 -232q-23 -41 -47.5 -104.5t-24.5 -91.5q0 -23 -21.5 -38.5t-42.5 -15.5q-25 0 -43 27t-18 55zM352 590q63 10 252 33.5t236 27.5q-76 166 -103 221 q-74 156 -147 314q-57 -139 -113 -277q-23 -49 -56.5 -138t-68.5 -181z" />
<glyph unicode="&#xc1;" horiz-adv-x="1257" d="M31 580q0 39 37 55q14 6 82 20q0 57 8 166q20 272 20 453q-53 8 -63 10q-41 12 -41 49q0 20 40 43t68 27q0 39 18.5 67.5t47.5 28.5q49 0 70.5 -17.5t27.5 -49.5q53 18 195.5 33.5t222.5 15.5q246 0 362 -8q220 -17 220 -62q0 -31 -4.5 -39t-30.5 -8q-29 0 -254.5 9 t-251.5 9q-37 0 -175 -22.5t-278 -50.5q0 -145 -18.5 -304t-36.5 -321q115 23 231.5 37t188.5 14q199 0 337 -117.5t138 -298.5q0 -188 -293 -305q-223 -88 -403 -88q-45 0 -87 -2t-79 -4q-74 0 -113 8.5t-39 30.5q0 20 15 35q-23 66 -33 200t-10 328q-39 0 -60 4 q-59 12 -59 54zM279 244q0 -47 9 -127t9 -97h199q137 0 338 89q231 101 231 210q0 139 -123 224.5t-303 85.5q-102 0 -184 -19q-51 -12 -158 -49q-18 -133 -18 -317z" />
<glyph unicode="&#xc2;" horiz-adv-x="1366" d="M-8 606q0 39 35 56q14 6 82 20q0 72 8 188q23 322 22 496q0 51 42 79t130 28q55 0 113 -21q14 -4 176 -86q143 -74 227 -197q76 -113 76 -227q0 -90 -61 -139q-41 -33 -166 -74q170 0 332 -72q237 -104 237 -305q0 -190 -340 -309q-256 -90 -450 -90h-46.5t-48.5 -2 q-53 0 -78.5 8t-25.5 35q0 20 17.5 35.5t41.5 15.5l140 2q147 0 387 90q279 104 278 215q0 131 -172 221q-158 82 -348 82q-135 -25 -188 -32q-94 -16 -156 -17q-8 -55 -12 -146t-4 -190q0 -29 11 -87t5 -79q-4 -16 -9 -25t-18 -9q-57 0 -86 94q-35 117 -34 385 q-49 0 -83 12t-34 45zM256 713q68 10 135 22q98 18 181 46t128 57q70 45 70 104q0 76 -76 180q-61 84 -157 142q-49 29 -144 53q-31 8 -82 18q0 -145 -18.5 -304t-36.5 -318z" />
<glyph unicode="&#xc3;" horiz-adv-x="968" d="M53 1321q0 20 40 42.5t69 27.5q0 39 19.5 66.5t45.5 27.5q47 0 69.5 -16.5t31.5 -51.5q51 18 193.5 33.5t221.5 15.5q115 0 267.5 -28.5t152.5 -59.5t-4 -39t-31 -8q-115 16 -206 27.5t-138 11.5q-55 0 -237 -33q-109 -20 -215 -41q-25 -68 -39 -247t-14 -365l-5 -352 q0 -156 -14 -241t-59 -85q-31 0 -46.5 25.5t-15.5 70.5q0 27 2 68t2 70q0 78 2 205.5t2 207.5l5 408l6 199q-55 8 -64 10q-41 14 -41 51z" />
<glyph unicode="&#xc4;" horiz-adv-x="1327" d="M-70 20q0 23 43 23h52h24h23q18 4 26 4q-12 29 -12 49q0 41 78 226.5t153 365.5q31 80 111 264q121 283 135 328q12 70 24.5 135.5t45.5 65.5t63 -27q41 -35 64 -102q74 -135 133 -410q45 -209 76 -319q76 -270 92 -324q51 -174 80 -240h67q53 0 84 -7t31 -32v-141 q0 -66 -12.5 -187.5t-30.5 -205.5q-6 -25 -12 -46.5t-13 -21.5q-49 0 -56 93.5t-7 177.5q0 20 -2 74.5t-2 66.5q0 55 6 109q-18 -2 -63.5 -4.5t-120.5 -2.5h-64q-287 0 -483.5 2.5t-392.5 4.5q2 -10 2 -35q-2 -43 -2 -58q0 -53 -15.5 -176t-36.5 -211q-6 -25 -12 -46 t-12 -21q-49 0 -56.5 93t-7.5 177v358zM205 57l133 2h696q-43 63 -86 177t-100 356q-43 178 -100 371q-49 166 -74 223q-57 -139 -113 -277q-37 -78 -98 -225q-23 -53 -78 -188l-102 -232q-18 -33 -42 -113.5t-36 -93.5z" />
<glyph unicode="&#xc5;" horiz-adv-x="1222" d="M59 47q0 27 9 43q16 25 26 43q20 180 32.5 323.5t12.5 211.5q-25 0 -38 28.5t-13 59.5q0 51 66 57q2 12 2 35q0 16 -2 57t-2 66q0 72 -7.5 147.5t-11.5 134.5q0 68 82 68q33 0 54.5 -3t31.5 -13q156 37 270 61q229 49 332 49q152 0 295 -18q223 -29 223 -84 q0 -12 -78 -13q-74 0 -172 4.5t-159 8.5q-203 0 -434 -49q-184 -39 -289 -86q0 -14 -5 -70.5t-5 -79.5v-209q82 16 440 66.5t420 50.5q10 0 28.5 -5t18.5 -11q0 -45 -217 -95q-100 -23 -242 -47l-463 -88l-41 -516q43 12 171 19.5t290 7.5q141 0 269 -18.5t128 -49.5 q0 -33 -155.5 -35t-227.5 -2q-143 0 -254 -26q-18 -4 -151 -43q-27 -8 -81 -33t-79 -25t-49.5 22.5t-24.5 55.5z" />
<glyph unicode="&#xc6;" horiz-adv-x="1597" d="M-76 31q0 6 166 153q145 129 340 297q217 188 277 236q-68 72 -132 135q-72 70 -169 160q-174 143 -260.5 212.5t-86.5 78.5q-4 31 16.5 49t57.5 18q31 0 162 -113q82 -70 262 -239q111 -106 223 -211q14 35 17.5 84t5.5 55q14 78 21 173t14 188q10 63 37.5 95t66.5 32 q16 0 30.5 -18.5t14.5 -37.5q0 -35 -31 -217q-18 -109 -36 -215l-21 -115q152 135 242 209q172 143 286 226q145 104 191 104q43 0 69.5 -6.5t26.5 -26.5q0 -51 -40 -70.5t-81 -35.5q-84 -55 -231 -172q-76 -61 -262 -213q-147 -121 -180 -148q74 -78 182 -194 q137 -147 203 -225q82 -90 165 -181q45 -51 46 -67q0 -45 -56 -45q-23 0 -129 102q-39 37 -121 121q-98 104 -166 176q-139 147 -184 199q-10 -51 -16 -83t-6 -42q0 -61 -4.5 -196.5t-4.5 -172.5q0 -82 -26 -82q-37 0 -55.5 127t-18.5 289l16 182q-141 -111 -280 -221 q-197 -154 -330 -254q-164 -123 -182 -123q-25 0 -29 23z" />
<glyph unicode="&#xc7;" horiz-adv-x="1073" d="M37 195q0 61 45 61q25 0 50.5 -20.5t51.5 -40.5q47 -35 145.5 -60.5t223.5 -25.5q162 0 261 91t99 232q0 102 -59 166q-109 115 -385 115q-57 0 -148.5 -34t-105.5 -34q-33 0 -46 20.5t-13 59.5q0 23 151 84q98 39 142 61q121 96 176 177q49 70 49 120q0 37 -31 54.5 t-86 17.5q-82 0 -165 -24.5t-116 -69.5q-23 -43 -32 -58q-16 -27 -43 -26q-39 0 -39 65q0 12 4 41q16 74 146 131.5t282 57.5q90 0 152.5 -38t62.5 -112q0 -70 -37 -141q-61 -119 -219 -236q166 0 291 -61q190 -92 190 -295q0 -199 -121 -328q-129 -137 -360 -137 q-180 0 -340 53q-176 59 -176 134z" />
<glyph unicode="&#xc8;" horiz-adv-x="1421" d="M139 203q0 61 1 142t23.5 214t49.5 275q55 297 55 456q0 23 20.5 61t41.5 38q41 0 53 -30t12 -87v-62q0 -66 -16.5 -179t-67.5 -363q-20 -96 -31.5 -184.5t-11.5 -166.5q12 12 86 91q61 63 105 116q141 166 270 332q141 186 193 254q123 170 145 195q78 90 129 90 q25 0 45.5 -18.5t20.5 -47.5q-59 -201 -104.5 -386t-45.5 -320q0 -98 14.5 -274.5t14.5 -213.5v-43q0 -29 -2 -35q-8 -27 -49 -26q-47 0 -64 108q-8 55 -16 135q-12 86 -17 129q-10 84 -10 142q0 45 7 112.5t30.5 210t54.5 242.5q-47 -53 -135 -168q-236 -307 -260 -336 q-70 -84 -137 -168q-84 -102 -160 -188q-90 -102 -137 -144q-10 -31 -26.5 -43t-35.5 -12q-20 0 -32.5 43t-12.5 109z" />
<glyph unicode="&#xc9;" horiz-adv-x="1302" d="M162 203q0 61 1 142t23.5 214t49.5 275q55 297 55 456q0 23 20.5 61t40.5 38q41 0 53.5 -30t12.5 -87v-62q0 -66 -16.5 -179t-67.5 -363q-20 -96 -31.5 -184.5t-11.5 -166.5q12 12 86 91q61 63 104 116q141 166 271 332q141 186 192 254q123 170 146 195q78 90 129 90 q25 0 45 -18.5t20 -47.5q-59 -201 -104 -386t-45 -320q0 -98 14 -274.5t14 -213.5v-43q0 -29 -2 -35q-8 -27 -49 -26q-47 0 -63 108q-8 55 -17 135q-12 86 -16 129q-10 84 -10 142q0 45 7 112.5t30.5 210t54.5 242.5q-47 -53 -135 -168q-236 -307 -261 -336 q-70 -84 -137 -168q-84 -102 -159 -188q-90 -102 -138 -144q-10 -31 -26.5 -43t-34.5 -12q-20 0 -32.5 43t-12.5 109zM573 1686q0 29 14.5 48t41.5 19q18 0 51 -39q45 -53 49 -57q20 -18 43 -37q39 -31 82 -37q59 -6 143 45q35 23 70 66q29 35 43 35q20 0 31.5 -6.5 t11.5 -26.5q0 -25 -25 -64q-33 -51 -87 -86t-100 -49t-87 -14q-57 0 -109 20q-31 12 -75 43q-29 20 -52 43q-31 33 -38 54.5t-7 42.5z" />
<glyph unicode="&#xca;" horiz-adv-x="1269" d="M96 121v56.5t2 62.5q18 272 31.5 509.5t13.5 354.5q0 111 -3 168t-5 117q0 37 21.5 64.5t58.5 27.5q29 0 53 -31q33 -43 33 -117q0 -59 -8 -162q-23 -285 -23 -288q41 39 152 153q84 86 135 129q137 113 277 228q129 102 170 102q23 0 40 -18q10 -10 11 -17 q0 -18 -148 -145q-37 -33 -303 -256q-43 -37 -114.5 -115t-143.5 -158q31 -70 131.5 -194.5t233.5 -261.5q63 -66 131 -119q59 -47 162 -113q39 -25 165 -84q95 -43 95 -61q0 -25 -23 -25q-25 2 -41 2q-74 0 -244 84q-197 96 -334 225.5t-241 256.5q-86 104 -129 180 q0 -78 -14.5 -223.5t-30.5 -309.5q0 -82 -13.5 -112.5t-50.5 -30.5q-29 2 -38 30.5t-9 90.5z" />
<glyph unicode="&#xcb;" horiz-adv-x="1191" d="M2 51q0 41 78 226.5t153 365.5q27 63 148 348q82 190 98 244q12 70 24.5 135.5t45.5 65.5t63 -27q43 -37 64 -102q63 -117 139 -318q104 -279 139 -360q55 -129 127 -283q59 -129 116.5 -254t57.5 -129q0 -47 -24 -47q-29 0 -68 53q-63 84 -188 344q-68 145 -135 293 q-76 166 -103 221q-74 156 -147 314q-57 -139 -113 -277q-23 -47 -49 -121q-61 -164 -76 -198l-153 -326q-23 -41 -47.5 -104.5t-24.5 -91.5q0 -23 -21.5 -38.5t-42.5 -15.5q-25 0 -43 27t-18 55z" />
<glyph unicode="&#xcc;" horiz-adv-x="1466" d="M-6 51v25q0 39 34.5 247.5t71.5 419.5q45 266 56 357q4 27 6 77t2 70v82t2 49q10 57 45 58q39 4 76 -95q27 -84 53 -165q23 -55 57 -154q51 -145 110.5 -261t113.5 -196q82 -123 127 -123q35 0 104 113q55 90 111 211q47 109 127 252q66 117 131 233q51 82 57 90 q35 49 55 50q49 0 65.5 -21.5t16.5 -64.5q0 -25 -2 -49.5t-4 -47.5q0 -102 -8 -308t-16.5 -406.5t-8.5 -282.5q0 -27 2 -59.5t4 -65.5q0 -43 -7 -65.5t-29 -22.5q-51 0 -68.5 113.5t-17.5 300.5v178q0 82 2 219t6 295q-23 -31 -129 -234q-14 -27 -101 -188 q-104 -203 -129 -240q-82 -123 -172 -123q-76 0 -170 99q-84 86 -155 219q-47 90 -76 145q-43 86 -70 156q-29 -174 -47 -283q-49 -276 -88 -430q-55 -223 -94 -223q-20 0 -31.5 9t-11.5 40z" />
<glyph unicode="&#xcd;" horiz-adv-x="1312" d="M-2 623q0 29 39 45q53 23 147 22q25 88 49 234q35 207 35 366q0 23 20.5 61t41.5 38q41 0 53 -30t12 -87v-62q0 -78 -37 -292q-25 -147 -47 -250q106 -18 142 -23.5t125 -5.5q29 0 118.5 -3t149.5 -5q111 0 174 14q59 406 63 424q66 330 146 330q25 0 44 -19.5t19 -46.5 q-55 -201 -98 -379q-49 -205 -49 -327q0 -98 7 -237.5t15 -295.5v-41q0 -29 -2 -35q-8 -27 -47 -26q-47 0 -60.5 119.5t-18.5 174t-11 140.5t-6 137q-98 -27 -201.5 -40t-259.5 -13q-106 0 -175 4t-97 18q0 -20 -20.5 -214.5t-20.5 -249.5q0 -29 -17.5 -52.5t-46.5 -23.5 q-20 0 -30.5 44t-10.5 111q0 74 9.5 233t9.5 165q-29 0 -54.5 5t-39.5 5q-29 0 -49.5 20.5t-20.5 47.5z" />
<glyph unicode="&#xce;" horiz-adv-x="1241" d="M43 678q0 193 141.5 415t278.5 222q76 0 107.5 -30t31.5 -89q0 -66 -25.5 -109t-58.5 -43q-12 0 -12 17q0 6 6 30.5t6 34.5q0 20 -16 37q-23 23 -58 23q-68 0 -157 -158q-100 -174 -101 -354q0 -195 58 -330q92 -219 311 -219q236 0 407 179t171 413q0 137 -60 256 q-51 100 -239 198q-174 90 -175 117q0 20 10.5 36.5t32.5 16.5q63 0 207 -79q176 -98 248 -218q51 -82 70.5 -159.5t19.5 -177.5q0 -272 -223 -487.5t-512 -215.5q-233 0 -356 197q-113 180 -113 477z" />
<glyph unicode="&#xcf;" horiz-adv-x="1218" d="M119 147q0 80 12 232.5t29.5 315.5t52.5 397q14 98 31 198h-35q-31 0 -49.5 9.5t-18.5 37.5q0 20 40 43t69 29q0 37 18.5 65.5t46.5 28.5q47 0 70 -16.5t29 -50.5q55 18 158.5 33.5t172.5 15.5q162 0 349.5 -31.5t187.5 -64.5q0 -31 -4 -39.5t-31 -8.5l-104 9 q-63 -219 -106.5 -406.5t-43.5 -316.5q0 -98 7.5 -237.5t15.5 -295.5v-41q0 -35 -8.5 -48t-40.5 -13q-49 0 -60.5 119.5t-17.5 180t-12.5 158t-6.5 195.5q0 188 54 416q31 129 88 303q-57 6 -145.5 15.5t-121.5 9.5q-51 0 -172 -33q-78 -23 -153 -43q-70 -209 -133.5 -628 t-63.5 -617q0 -29 -17.5 -52.5t-45.5 -23.5q-20 0 -30.5 44t-10.5 111z" />
<glyph unicode="&#xd0;" horiz-adv-x="864" d="M-6 1374q0 51 95 77t278 26q279 0 403 -78q143 -91 143 -314q0 -127 -96 -245.5t-237 -159.5q-74 -20 -176.5 -31.5t-163.5 -11.5q0 -47 -7 -170q-16 -330 -16 -354q0 -78 -20.5 -122t-53.5 -44q-27 0 -34 25.5t-7 95.5v38l4 574q0 102 -8 333.5t-8 305.5q-41 0 -55 4 q-41 12 -41 51zM233 758q4 0 45 -2t72 -2q61 0 120.5 7t109.5 25q92 33 157.5 122t65.5 177q0 145 -87 200.5t-310 55.5q-4 0 -70 -2t-103 -8v-323v-250z" />
<glyph unicode="&#xd1;" horiz-adv-x="966" d="M31 582q0 109 51 280q66 223 172 363q137 180 313 180q57 0 107 -23q74 -33 74 -102q0 -86 -41 -86q-49 0 -50 76q0 20 -27.5 27.5t-66.5 7.5q-131 0 -261 -242t-130 -473q0 -221 56.5 -317.5t183.5 -96.5q184 0 315 74q106 82 215 164q41 0 41 -39v-37q-8 -68 -186 -170 q-209 -119 -418 -119q-190 0 -283 207q-66 147 -65 326z" />
<glyph unicode="&#xd2;" horiz-adv-x="872" d="M-150 1147q0 82 240 168q160 61 351.5 100t326.5 39h162q125 -8 133 -76q0 -49 -55 -49q-57 8 -115.5 13.5t-130.5 5.5q-80 0 -262.5 -39t-315.5 -92q-113 -45 -157 -78q-33 -23 -42.5 -52.5t-19.5 -42.5q-16 -20 -47 -20q-39 0 -53.5 25.5t-14.5 97.5zM369 68 q16 190 28.5 371.5t12.5 279.5q0 94 -4.5 241.5t-4.5 196.5q-2 29 20.5 51.5t37.5 22.5q53 0 67 -55q6 -25 6 -103q0 -57 -3 -227t-5 -281q0 -180 -32.5 -368.5t-77.5 -188.5q-29 0 -35 12.5t-10 47.5z" />
<glyph unicode="&#xd3;" horiz-adv-x="1021" d="M-20 1284q-8 66 63 66q18 0 72 -76q197 -281 219 -307q47 -55 143 -181.5t127 -158.5q45 72 131 239q55 106 111.5 217t116.5 226q53 96 75 96q14 0 26.5 -18.5t12.5 -36.5q0 -27 -28.5 -101.5t-81.5 -187.5q-129 -264 -238 -461q-137 -248 -266 -430q-72 -102 -74 -104 q-51 -66 -76 -66q-61 0 -61 61q0 16 74 121q188 266 209 307q-43 47 -126 161t-169 237q-100 145 -201 293q-57 86 -59 104z" />
<glyph unicode="&#xd4;" horiz-adv-x="1288" d="M41 721q0 154 170 323.5t369 219.5q0 184 16 277t63 93q39 0 43.5 -57t4.5 -129l-2 -170q57 0 121.5 -6t128 -11.5t149.5 -60.5q76 -49 76 -76q0 -18 -22.5 -31.5t-41.5 -13.5q-14 0 -74 25q-76 31 -107.5 37t-72.5 6t-65 2h-95l-10 -303q0 -90 -2 -317.5t-2 -229.5 q205 0 336 149.5t131 362.5q0 94 -100.5 143.5t-100.5 67.5q0 57 62 57q63 0 147 -73q101 -88 101 -203q0 -244 -167 -429.5t-407 -185.5l2 -213v-90q0 -72 -7 -104.5t-36 -32.5q-43 0 -55 45t-12 123l-11 270q-217 0 -373.5 157t-156.5 378zM178 717q0 -117 96 -238 q117 -145 295 -172v263t2 264q0 82 2.5 157.5t4.5 151.5q-158 -37 -273 -150q-127 -125 -127 -276z" />
<glyph unicode="&#xd5;" horiz-adv-x="1275" d="M25 18q0 14 205.5 291t304.5 387q-92 133 -279 342q-20 23 -139 140q-37 37 -37 43q-4 31 16.5 50t55.5 19q33 0 167 -143q158 -180 318 -361q164 188 328 379q154 160 211 160q43 0 67.5 -6t24.5 -29q6 -59 -58 -82q-45 -16 -59 -30q-80 -82 -199 -209 q-109 -115 -247 -273q14 -23 108 -141q143 -182 148 -186q68 -86 142.5 -202t74.5 -140q0 -47 -54 -47q-16 0 -133 153q-72 92 -119 150l-258 315q-8 -8 -159 -184q-195 -227 -250 -287q-135 -147 -158 -147q-18 0 -22 38z" />
<glyph unicode="&#xd6;" d="M63 49q0 14 24 24.5t60 10.5q-4 20 -4 63q0 115 8.5 242t32.5 301q37 197 54 289q31 168 30 311q0 23 20.5 61t41.5 38q41 0 53 -30t12 -87v-62q0 -68 -45 -307q-29 -150 -39 -235q-23 -166 -43 -335t-20 -245l129 6q35 4 84 6t92 2q57 0 121.5 -3t136.5 -5h209 q-2 14 -3 30.5t-1 27.5q0 16 2 57t2 70v366q0 250 60.5 502t148.5 252q25 0 44 -19.5t19 -46.5q-55 -201 -98 -379q-49 -205 -49 -327v-543q6 -2 76.5 -5t70.5 -30q0 -12 -24.5 -157.5t-24.5 -170.5l-8 -196q0 -43 -14.5 -61.5t-28.5 -18.5q-33 0 -46 80t-13 184 q0 88 24 268q-61 8 -131 11.5t-174 3.5h-41h-604q-33 -2 -51 -2q-41 0 -67 12t-26 47z" />
<glyph unicode="&#xd7;" horiz-adv-x="1132" d="M68 885q0 119 10 217t34.5 181t34.5 106q25 51 64 51q25 0 40 -22.5t15 -45.5q-29 -113 -43 -178q-43 -199 -43 -301q0 -147 47 -238q57 -111 174 -110q113 0 179 37q92 51 204 215q51 70 91 249t40 302q0 53 25 79q16 18 35 19q37 0 51 -16.5t14 -49.5q0 -135 -36 -301 q-29 -119 -56 -237q0 -88 -16 -244q-39 -371 -39 -381q0 -45 5 -82t11 -76q0 -33 -15 -46t-44 -13q-45 0 -64.5 21.5t-19.5 87.5q0 53 21.5 246.5t37.5 318.5q-145 -166 -234 -208t-208 -42q-145 0 -230 125t-85 336z" />
<glyph unicode="&#xd8;" horiz-adv-x="1566" d="M63 49q0 14 24 24.5t60 10.5q-4 20 -4 63q0 115 8.5 242t32.5 301q37 197 54 289q31 168 30 311q0 23 20.5 61t41.5 38q41 0 53 -30t12 -87v-62q0 -68 -45 -307q-29 -150 -39 -235q-23 -166 -43 -335t-20 -245l129 6q72 6 141 6q41 0 112.5 -2t98.5 -2 q-12 63 -19.5 152.5t-7.5 185.5q0 51 17.5 192.5t46.5 291.5q20 109 39 227q10 66 19.5 130t37 96t66.5 32q16 0 30.5 -16.5t14.5 -36.5q0 -29 -18.5 -141.5t-48 -285.5t-40.5 -235q-41 -225 -41 -254q0 -78 -2 -129q-8 -209 -8 -211q162 0 278.5 -2t204.5 -4q-4 14 -4 30.5 v26.5q0 14 2 55.5t2 71.5v365q0 256 56 487q63 268 151 269q25 0 45.5 -18.5t20.5 -47.5q-59 -201 -104.5 -386t-45.5 -320v-545q37 -4 43 -4q27 2 33 2q8 0 8 -25q0 -53 -12 -65.5t-57 -12.5q-113 0 -280 7.5t-345 13.5h-604q-33 -2 -51 -2q-41 0 -67 12t-26 47z" />
<glyph unicode="&#xd9;" horiz-adv-x="1599" d="M63 49q0 14 24 24.5t60 10.5q-4 20 -4 63q0 115 8.5 242t32.5 301q37 197 54 289q31 168 30 311q0 23 20.5 61t41.5 38q41 0 53 -30t12 -87v-62q0 -68 -45 -307q-29 -150 -39 -235q-23 -166 -43 -335t-20 -245l129 6q72 6 141 6q41 0 112.5 -2t98.5 -2 q-12 63 -19.5 152.5t-7.5 185.5q0 51 17.5 192.5t46.5 291.5q20 109 39 227q10 66 19.5 130t37 96t66.5 32q16 0 30.5 -16.5t14.5 -36.5q0 -29 -18.5 -141.5t-48 -285.5t-40.5 -235q-41 -225 -41 -254q0 -78 -2 -129q-8 -209 -8 -211q162 0 278.5 -2t204.5 -4q-4 14 -4 30.5 v26.5q0 14 2 55.5t2 71.5v365q0 256 56 487q63 268 151 269q25 0 45.5 -18.5t20.5 -47.5q-59 -201 -104.5 -386t-45.5 -320v-545q53 -2 101.5 -4t48.5 -29q0 -14 -24.5 -159.5t-24.5 -170.5q0 -37 -4.5 -92t-6.5 -102q0 -43 -14 -61.5t-29 -18.5q-31 0 -44 81t-13 183 q0 45 7 122t18 146q-57 6 -290 13.5t-335 7.5h-604q-33 -2 -51 -2q-41 0 -67 12t-26 47z" />
<glyph unicode="&#xda;" horiz-adv-x="1499" d="M150 1386q0 53 342 54q6 25 21 42t36 17q23 0 42 -16.5t34 -42.5q37 -4 55 -14.5t18 -39.5q0 -33 -47 -51l2 -26q0 -55 -26.5 -321.5t-26.5 -303.5q109 23 227.5 37t190.5 14q199 0 337 -118t138 -298q0 -188 -293 -305q-223 -88 -403 -88q-55 0 -110.5 4t-127.5 16.5 t-93.5 66t-21.5 165.5q0 104 2.5 186t4.5 158q-49 0 -83 12.5t-34 45.5q0 39 35 55q14 6 82 20q0 72 8 201q23 356 22 455l-147 -2h-35q-96 0 -122.5 18.5t-26.5 58.5zM582 57q63 -18 110 -27.5t105 -9.5q139 0 340 89q231 101 231 210q0 139 -123 224.5t-303 85.5 q-82 0 -149.5 -11.5t-192.5 -56.5q-10 -61 -14 -143t-4 -174v-187z" />
<glyph unicode="&#xdb;" horiz-adv-x="1593" d="M23 600q0 37 36 53q12 6 80 23q0 70 11 239q25 408 24 508q0 35 18.5 65t47.5 30q47 0 74.5 -58.5t27.5 -130.5q0 -55 -26.5 -321.5t-26.5 -302.5q115 23 230.5 37t187.5 14q199 0 338 -119t139 -297q0 -188 -293 -305q-223 -88 -404 -88h-84q-45 0 -79.5 4t-55.5 18 q-53 0 -91 149.5t-38 424.5q-49 0 -82.5 12t-33.5 45zM270 264q0 -31 9.5 -113.5t9.5 -97.5q43 -12 198 -12q137 0 338 88q232 102 232 211q0 139 -123 224t-303 85q-96 0 -187 -20q-53 -12 -155 -47q-10 -61 -14.5 -143.5t-4.5 -174.5zM1317 254v123.5t2 118.5 q0 41 14.5 215t14.5 286q0 96 14 179q20 90 43 182q10 63 37.5 95t66.5 32q16 0 30.5 -16.5t14.5 -36.5q-23 -109 -42 -221.5t-31.5 -240.5t-19.5 -276.5t-7 -197.5q0 -66 -7 -180.5t-15 -245.5q0 -33 -28 -58.5t-48 -25.5t-29.5 74.5t-9.5 193.5z" />
<glyph unicode="&#xdc;" horiz-adv-x="1148" d="M-59 584q0 39 36 55q14 6 82 20q0 57 16.5 346t16.5 404q0 33 19.5 63.5t46.5 30.5q47 0 75.5 -59.5t28.5 -130.5q0 -61 -27.5 -331.5t-27.5 -291.5q84 14 170 29q143 20 250 20q199 0 337 -117.5t138 -297.5q0 -188 -293 -306q-223 -88 -403 -88h-50q-49 0 -95 5.5 t-75 15.5q-127 0 -127 575q-39 0 -59 4q-59 12 -59 54zM188 248l29 -209q57 -6 101 -10t88 -4q137 0 337 88q232 102 232 211q0 139 -123 224t-303 85q-102 0 -184 -19q-51 -12 -158 -49q-18 -133 -19 -317z" />
<glyph unicode="&#xdd;" horiz-adv-x="1060" d="M74 713q4 29 168 41t338 12q96 0 133 -4t71 -6q25 -4 52 -6q45 -11 45 -56q0 -33 -79 -42t-241 -9q-51 0 -115.5 -2t-87.5 -2q-45 0 -110 6h-47q-70 0 -92 8q-39 14 -35 60zM98 1067v37q8 68 187 170q209 119 417 119q190 0 283 -207q66 -148 66 -326q0 -109 -62 -289 q-78 -227 -203 -374q-160 -188 -362 -189q-68 0 -164 29q-131 39 -151 98q-6 16 -7 31q0 23 14.5 39t33.5 16q23 0 55.5 -28.5t42.5 -34.5q29 -16 91 -31.5t89 -15.5q195 0 344 258q137 236 137 483q0 221 -56 317.5t-183 96.5q-184 0 -316 -74q-109 -82 -215 -164 q-41 0 -41 39z" />
<glyph unicode="&#xde;" horiz-adv-x="1662" d="M-2 623q0 29 39 45q53 23 147 22q25 88 49 234q35 207 35 366q0 23 20.5 61t41.5 38q41 0 53 -30t12 -87v-62q0 -78 -37 -292q-25 -147 -47 -250q88 -16 125 -20.5t125 -4.5q0 197 137.5 428.5t272.5 231.5q78 0 108.5 -30t30.5 -89q0 -66 -25.5 -109t-56.5 -43 q-12 0 -12 15q0 10 6 32.5t6 32.5q0 20 -16 37q-23 23 -60 22q-66 0 -155 -157q-100 -176 -101 -355q0 -190 58 -327q92 -221 309 -221q221 0 352 192q115 168 115 395q0 133 -62 256q-43 86 -145 148q-195 119 -195 123q-2 20 9.5 38.5t33.5 18.5q61 0 170 -59 q141 -78 213 -195q51 -84 71 -160t20 -178q0 -283 -166 -483q-178 -215 -459 -215q-180 0 -332 217q-127 182 -127 301q-106 0 -175 4t-97 18q0 -20 -20.5 -214.5t-20.5 -249.5q0 -29 -17.5 -52.5t-46.5 -23.5q-20 0 -30.5 44t-10.5 111q0 74 9.5 233t9.5 165q-29 0 -54.5 5 t-39.5 5q-29 0 -49.5 20.5t-20.5 47.5z" />
<glyph unicode="&#xdf;" horiz-adv-x="1067" d="M-25 -41q4 20 256 217q152 117 238 193q61 55 123 110q133 117 160 146h-27q-102 0 -199 12q-170 29 -243.5 81t-73.5 140q0 203 244 391q231 180 438 181q23 0 35 -3q106 -10 106 -139q-25 -207 -38 -363.5t-13 -267.5l-35 -544q0 -154 -51 -154q-29 0 -43 42t-14 116 l12 397q-35 -29 -150 -111q-164 -117 -198 -141q-61 -43 -219 -162q-223 -168 -275 -168q-10 0 -22.5 9.5t-10.5 17.5zM352 885q0 -57 19 -82q39 -49 164 -68q41 -6 155.5 -15t163.5 -9q0 20 16 145q10 78 11 113l22 270q0 25 -11 46.5t-34 21.5q-147 0 -326.5 -144.5 t-179.5 -277.5z" />
<glyph unicode="&#xe0;" horiz-adv-x="1259" d="M-57 242q0 141 98 321q123 223 293 223q63 0 92 -12t68 -51q23 4 43 -32t20 -81q0 -55 -6 -169.5t-6 -145.5q0 -96 14 -129q25 -57 103 -57q76 0 133 12q100 20 215 86q72 39 180 131q45 37 49 37q51 -9 45 -56q0 -18 -61 -75q-74 -68 -158 -117q-129 -74 -246 -109.5 t-227 -35.5q-98 0 -149.5 99t-51.5 300q-63 -127 -112 -195q-104 -145 -197 -145q-84 0 -111.5 47t-27.5 154zM68 303q0 -45 7 -77.5t23 -32.5q51 0 187 233l94 164q6 16 6 31q0 55 -47 55q-84 0 -177 -142.5t-93 -230.5z" />
<glyph unicode="&#xe1;" horiz-adv-x="696" d="M49 317q0 111 12 177q6 29 35 122q14 47 57.5 100.5t67.5 53.5q51 0 51 -49q0 -25 -18 -66t-35 -77q-23 -59 -31 -110.5t-8 -125.5q0 -63 34 -129t91 -66q55 0 104.5 82t49.5 168q0 102 -37 206t-98 185q-117 156 -172.5 309.5t-55.5 295.5q0 102 107 149q113 41 225 84 q47 23 113 72q121 90 143 90q20 0 39.5 -12.5t19.5 -32.5q0 -43 -77.5 -106.5t-184.5 -112.5q-127 -45 -176 -64q-86 -33 -86 -94q0 -135 60 -268q35 -80 149 -256q78 -115 119 -209q53 -121 53 -213q0 -152 -78 -266q-86 -125 -213 -125q-100 0 -176 75q-84 84 -84 213z " />
<glyph unicode="&#xe2;" horiz-adv-x="706" d="M-88 717q0 23 61 78q27 25 68 57q0 16 -7 146t-7 196q0 322 63 426q57 94 178 94q74 0 120 -59.5t85 -263.5q4 -23 6 -50.5t2 -52.5q0 -182 -114 -334q-88 -117 -211 -180v-100t2 -105q0 -86 9 -162.5t30 -158.5q6 -47 46 -85t99 -38q72 0 104 82q27 66 27 168 q0 86 -64.5 173t-129.5 87q-45 0 -74 8t-29 41q0 27 17.5 50.5t46.5 23.5q152 0 258 -129q92 -113 92 -232q0 -156 -58 -258q-68 -119 -190 -119q-96 0 -163.5 53.5t-94.5 158t-35 229.5t-8 241q-16 -14 -29.5 -24t-40.5 -10q-16 0 -37.5 17t-21.5 32zM141 899 q80 51 146 148q86 125 86 247q0 31 -6 62q-16 98 -39 155q-33 88 -76 88q-49 0 -72.5 -86t-23.5 -299q0 -61 -4 -127q-10 -166 -11 -188z" />
<glyph unicode="&#xe3;" horiz-adv-x="993" d="M49 639q0 68 102.5 118t184.5 50q100 0 164.5 -48t64.5 -130q0 -66 -63 -127q-27 -27 -123 -94q-68 -45 -111 -103.5t-43 -101.5q0 -45 19 -62q31 -27 135 -26q88 0 211 39q45 14 207 77q82 33 166 74q61 31 67 31h33q18 -4 18 -29q0 -23 -81.5 -77t-172.5 -95 q-133 -59 -252.5 -96t-209.5 -37q-117 0 -191 41q-92 51 -92 160q0 66 74 155q61 76 125.5 118t93.5 69q45 41 45 71q0 78 -98 78q-53 0 -97 -26q-29 -18 -55 -52q-37 -45 -41 -47q-12 -10 -35 -10q-25 0 -35 21.5t-10 58.5z" />
<glyph unicode="&#xe4;" horiz-adv-x="954" d="M-82 -526q0 59 49 59q27 0 47 -27q14 -25 23 -36q31 -47 68.5 -70t95.5 -23q109 0 215 90.5t147 211t51.5 192.5t10.5 156q0 45 -10.5 148.5t-20.5 125.5q-27 -111 -116 -182.5t-179 -71.5q-104 0 -160 41q-74 55 -73 178q0 125 90 254q106 154 278 195q10 2 21.5 3 t15.5 1q45 0 45 -37q0 -20 -80 -68q-41 -23 -80 -45q-80 -49 -123 -149q-35 -80 -34 -154q0 -45 20 -69q29 -35 80 -35q84 0 164 86q55 59 96 143q0 66 -5 107t-11 86q0 59 69 59q31 0 76 -193.5t45 -388.5q0 -182 -13 -251.5t-69 -206.5q-47 -115 -151 -215 q-131 -125 -271 -125q-143 0 -235 78q-76 66 -76 133z" />
<glyph unicode="&#xe5;" horiz-adv-x="993" d="M39 438q0 43 2 83t8 73q14 72 82 120t143 48q104 0 193 -49q100 -57 100 -146q0 -82 -57 -133q-41 -37 -127 -65q-61 -18 -113.5 -38t-111.5 -42q0 -78 49 -139q61 -78 172 -78q96 0 185 20.5t202 61.5q82 31 186 88q88 49 90 49q35 0 44.5 -5.5t9.5 -23.5 q0 -25 -102.5 -94.5t-205 -116.5t-214 -70.5t-209.5 -23.5q-121 0 -211 68q-113 84 -113 237q0 41 -1 85t-1 91zM154 391q35 8 98 33t98 42t52.5 45.5t17.5 55.5q0 39 -46 58.5t-118 19.5q-23 0 -54.5 -26.5t-35.5 -50t-8 -94.5t-4 -83z" />
<glyph unicode="&#xe6;" horiz-adv-x="1974" d="M6 215q0 25 21.5 53.5t52.5 28.5q43 0 63.5 -13.5t20.5 -68.5q0 -63 57 -94q41 -23 101 -23q78 0 127 117q43 102 43 227q0 102 -38 144.5t-104 42.5q-43 0 -84 -35t-65 -35q-37 0 -37 39q0 41 67.5 83t141.5 42q94 0 151 -49q82 -70 82 -232q51 94 105 189 q78 131 114 131q68 0 95 -66q18 -47 18 -141q0 -27 -1 -51.5t-1 -46.5q0 -76 8 -151t21 -140q27 41 92 133q78 106 82 115q33 55 57.5 94t67.5 99.5t82 90.5q51 41 104 41q68 0 120 -34.5t52 -92.5q0 -41 -29 -41q-23 0 -43 37t-49 37q-78 0 -124 -111.5t-46 -234.5 q0 -104 41 -152.5t107 -48.5q53 0 159.5 38t204.5 97q35 20 150 97q51 33 65 32q37 1 37 -38q2 -23 -39 -52l-160 -106q-117 -84 -230.5 -123t-215.5 -39q-129 0 -182.5 70.5t-53.5 267.5q-16 -35 -69 -100.5t-107 -130.5q-39 -51 -55 -72q-29 -35 -47 -35q-53 0 -85 108.5 t-32 225.5q0 29 -4 115t-4 145q-63 -100 -109 -172q-88 -141 -112 -199q-29 -76 -94 -139q-84 -84 -174 -84q-131 0 -223.5 70.5t-92.5 140.5z" />
<glyph unicode="&#xe7;" horiz-adv-x="849" d="M-115 -520q0 66 45 65q18 0 38 -30.5t36 -59.5q33 -45 70 -68.5t92 -23.5q113 0 186 70q57 55 119 186q27 57 38 133t11 150q0 168 -84 213q-23 12 -45 17t-51 5q-43 -2 -61 -2q-27 0 -34 14.5t-7 34.5q0 35 22 41q68 20 113 77.5t45 127.5q0 49 -12 80q-18 49 -62 49 q-80 0 -151 -92q-23 -31 -68 -113q-10 -14 -19 -26q-12 -12 -38 -13q-23 0 -25 4.5t-2 34.5q0 94 101.5 204t201.5 110q106 0 156 -78q37 -57 37 -146q0 -61 -35 -125.5t-96 -105.5q94 0 161.5 -79t67.5 -212v-49q0 -86 -7 -129t-38 -137q-57 -172 -176 -264 q-109 -84 -238 -84q-145 0 -227 82q-63 63 -64 139z" />
<glyph unicode="&#xe8;" horiz-adv-x="1325" d="M37 416q0 139 6 198q0 39 22.5 63.5t49.5 24.5t41 -19t14 -81q0 -6 -4 -71.5t-4 -108.5v-160q6 -106 76 -106q49 0 135 112q80 102 114 187q23 59 63 110t71 51q49 0 71 -172q16 -125 31 -174q23 -74 61.5 -103.5t120.5 -29.5q129 0 254 70q109 74 219 147q23 0 29 -13 t6 -44q0 -45 -160 -150q-190 -125 -374 -124q-80 0 -138 28q-78 39 -106 123q-18 55 -31.5 113.5t-21.5 107.5q-37 -125 -155 -248.5t-189 -123.5q-74 0 -121 43q-57 51 -74 165q-6 43 -6 185z" />
<glyph unicode="&#xe9;" horiz-adv-x="1304" d="M37 412q0 57 1 106t5 96q0 39 22.5 63.5t49.5 24.5t41 -19t14 -81q0 -6 -4 -71.5t-4 -108.5q0 -123 4 -160q12 -104 82 -104q45 0 129 112q76 102 110 185q23 59 63 110t71 51q49 0 71 -172q16 -125 31 -174q23 -74 61.5 -103.5t120.5 -29.5q129 0 254 70q109 74 219 147 q23 0 29 -13t6 -44q0 -45 -160 -150q-190 -125 -374 -124q-80 0 -138 28q-78 39 -106 123q-18 55 -31.5 113.5t-21.5 107.5q-37 -125 -155 -248.5t-189 -123.5q-70 0 -125.5 53t-69.5 147q-6 41 -6 189zM90 1108q0 29 14.5 48.5t42.5 19.5q18 0 52 -39q45 -53 49 -58 q29 -25 57 -49q33 -23 72 -22q45 0 72.5 10t64.5 33.5t68.5 61.5t46.5 38q43 0 43 -31q0 -23 -25 -63q-33 -55 -87 -89t-100 -48.5t-87 -14.5q-59 0 -109 21q-29 12 -78 43q-23 16 -49 45q-33 37 -40 59.5t-7 34.5z" />
<glyph unicode="&#xea;" horiz-adv-x="1130" d="M8 629q0 25 15.5 42t39.5 17q45 0 80 -55t35 -146q0 -49 4 -125.5t4 -78.5q14 59 43 120q37 78 90 138q66 70 113 102q63 45 121 45q35 0 66.5 -27.5t31.5 -54.5q0 -37 -30.5 -67.5t-90 -53t-116 -61.5t-80.5 -82q37 -98 84 -154q78 -94 184 -94q92 0 166 19.5t184 64.5 q92 37 189 90q45 25 90 51q10 0 30.5 0.5t20.5 -28.5q0 -23 -104.5 -94.5t-196.5 -112.5q-111 -51 -218.5 -74.5t-209.5 -23.5q-66 0 -169 75.5t-136 161.5q-20 -98 -33 -143q-23 -80 -63 -80q-43 0 -60 27q-8 12 -18 67q-12 88 -17.5 163t-5.5 146q0 84 -12 134 q-16 45 -31 92z" />
<glyph unicode="&#xeb;" d="M-6 246q0 25 20.5 56.5t51.5 31.5q47 0 66.5 -13.5t19.5 -74.5q0 -141 131 -142q57 0 127 62q55 49 127 147q47 66 98 152t76 149q12 37 43.5 55.5t52.5 18.5q53 0 72.5 -26.5t19.5 -75.5q0 -16 -12.5 -114.5t-12.5 -139.5q0 -111 19.5 -162t87.5 -51q72 0 143 26 q51 18 150.5 72.5t132.5 71.5q55 29 76 28q35 0 35 -45q0 -12 -52 -49q-43 -31 -123 -80q-100 -61 -200.5 -100t-161.5 -39q-139 0 -186 55.5t-47 212.5v174q-35 -66 -75 -124t-91 -121q-78 -98 -142 -142q-82 -55 -190 -55q-90 0 -173 85t-83 157z" />
<glyph unicode="&#xec;" horiz-adv-x="2002" d="M-12 254q0 27 21.5 57.5t51.5 30.5q47 0 66.5 -13.5t19.5 -74.5q0 -141 129 -141q59 0 130 61q55 49 126 148q49 70 97 151q55 96 76 152q12 35 45.5 53t52.5 18q43 0 55 -18.5t12 -56.5v-27v-254q0 -184 60 -184q31 0 125 133q74 104 162 250q27 49 53 98q29 43 73 43 q53 0 54 -45q0 -6 -2 -30.5t-2 -41.5q0 -197 59 -315q68 -135 190 -135q123 0 236 63q102 72 207 143q53 1 53 -26q0 -53 -164 -162q-188 -125 -356 -125q-162 0 -260 160q-78 127 -78 266q-119 -195 -178 -270q-117 -147 -207 -148q-59 0 -98 54q-53 72 -54 215v172 q-47 -82 -79.5 -131.5t-85.5 -114.5q-80 -100 -142 -141q-82 -53 -190 -54q-92 0 -175 85t-83 155z" />
<glyph unicode="&#xed;" horiz-adv-x="1396" d="M-35 383q0 25 74 35q0 51 6 124.5t6 88.5q0 35 14.5 54.5t61.5 19.5q31 0 34 -44.5t3 -107.5q0 -23 -1 -44.5t-1 -43.5q0 -33 2 -45h145h33h27h68.5t68.5 2h20l4 156q0 66 17.5 96.5t46.5 30.5q45 0 45 -127q0 -109 5 -188t22 -130q31 -102 70.5 -138t117.5 -36 q51 0 104.5 12.5t169.5 63.5q72 31 230 153q63 49 78 50q35 0 34 -25v-21q0 -29 -91 -105.5t-182 -125.5t-178 -75.5t-155 -26.5q-131 0 -199.5 42t-105.5 126q-10 23 -20.5 72.5t-12.5 80.5q-14 0 -31.5 -1t-23.5 -1h-47.5t-50.5 2h-209q2 -8 0 -33.5t0 -33.5q8 -43 14 -66 q18 -72 19 -88q0 -37 -14.5 -59.5t-55.5 -22.5q-53 0 -70.5 64.5t-17.5 156.5v82q-74 0 -74 76z" />
<glyph unicode="&#xee;" horiz-adv-x="778" d="M57 322q0 74 9.5 128t29.5 121q14 47 57.5 100.5t67.5 53.5q51 0 51 -49q0 -25 -18 -66t-35 -78q-20 -57 -31.5 -142t-11.5 -165q0 -49 35 -86t94 -37q55 0 104.5 82t49.5 168q0 100 -9.5 158.5t-25.5 83.5q-51 16 -74 31q-39 25 -39 55q0 80 64 90q8 2 24 2q35 0 68 -27 q23 -18 57 -65q39 -4 80 -6q53 -8 53 -39q0 -37 -36 -53q-25 -10 -60 -11q16 -39 27.5 -97t11.5 -99q0 -127 -78 -250q-90 -141 -213 -141q-96 0 -166.5 60t-78 144t-7.5 134z" />
<glyph unicode="&#xef;" horiz-adv-x="1400" d="M45 631q0 37 13.5 55.5t60.5 18.5q29 0 43 -48.5t14 -119.5q0 -63 6 -106.5t35 -174.5q43 68 125 168q47 57 99.5 95t88.5 38q76 0 117 -76q25 -47 52.5 -177t54.5 -175q35 -59 102 -59q84 0 171 21.5t190 70.5q57 29 194 143q55 47 70 47q29 0 32 -7t3 -38 q0 -27 -77 -99.5t-159 -121.5q-94 -59 -203.5 -90t-185.5 -31q-135 0 -198.5 52.5t-106.5 185.5q-18 63 -35 129q-18 51 -53 51q-23 0 -80 -66q-47 -53 -111 -145q-33 -49 -49 -72q-45 -59 -78 -59q-51 0 -74 70q-8 27 -23 132t-26.5 217.5t-11.5 170.5z" />
<glyph unicode="&#xf0;" horiz-adv-x="813" d="M76 -162v363q0 106 10 227q25 291 25 299q0 23 -9.5 52.5t-19.5 62.5q0 39 13.5 52t45.5 13q33 0 56.5 -34.5t23.5 -67.5v-197q45 49 84 72q55 33 125 33q84 0 158 -74q82 -82 82 -203q0 -147 -82 -303q-92 -174 -211 -174q-72 0 -121 45t-49 127q0 131 53 131 q49 0 49 -45l2 -67q0 -29 13.5 -55.5t40.5 -26.5q68 0 118 90q63 111 64 299q0 57 -41 94t-88 37q-49 0 -99.5 -32t-103.5 -99l-14 -82q-16 -133 -17 -262q0 -49 2 -164t2 -121q0 -98 12.5 -207.5t14.5 -130.5q0 -27 37 -94q20 -37 20 -58q0 -57 -14 -76.5t-70 -19.5 q-43 0 -66.5 55.5t-23.5 139.5z" />
<glyph unicode="&#xf1;" horiz-adv-x="890" d="M18 262q0 139 52 285q74 213 215 213q76 0 133 -37t57 -94q0 -43 -33 -43q-27 0 -47 36.5t-55 36.5q-88 0 -141 -122q-45 -106 -45 -240q0 -111 47 -164q41 -47 114 -47q57 0 178 41t228 102q37 20 168 103q53 33 72 33q27 0 32.5 -8t5.5 -33q4 -25 -72.5 -72t-144.5 -94 q-135 -90 -273 -142.5t-243 -52.5q-109 0 -178.5 90t-69.5 209z" />
<glyph unicode="&#xf2;" horiz-adv-x="1615" d="M41 651q0 39 17.5 66.5t47.5 27.5q41 0 68 -116q20 -92 21 -174q41 72 81 118q55 61 93 62q49 0 99 -34t69 -93q2 -6 26 -115q16 -78 39 -78q35 0 68 66q16 33 35 98q10 43 22 88q12 31 59 31q49 0 70 -63.5t39 -94.5q68 -141 127 -202q80 -84 190 -84q123 0 236 63 q102 72 205 143q55 1 55 -26q0 -53 -164 -162q-188 -125 -356 -125q-182 0 -293 125q-88 141 -109 170q-37 -70 -79 -115q-59 -61 -115 -61q-35 0 -64.5 21.5t-56.5 64.5q-16 27 -27.5 65.5t-21.5 77.5t-16 68q-12 29 -37 29t-56.5 -56.5t-68.5 -146.5q-43 -109 -49 -119 q-35 -59 -89 -59q-31 0 -40 33.5t-9 97.5v61.5t2 63.5q0 72 -7 149.5t-11 134.5z" />
<glyph unicode="&#xf3;" horiz-adv-x="1294" d="M4 557q0 82 74 82q53 0 68.5 -71.5t29.5 -139.5q25 -86 41 -131q33 -86 78 -86t137 90q35 35 170 186q102 117 152 152q12 8 22 8q20 0 33.5 -19.5t13.5 -62.5q0 -33 -12 -81t-16 -70.5t-4 -46.5q0 -35 2 -82t4 -92q90 55 301 140t237 85q23 0 34 -23.5t11 -46.5 q0 -20 -250 -133q-143 -63 -333 -143v-143.5t2 -153.5v-105q0 -311 -70 -417.5t-205 -106.5q-104 0 -171.5 87t-67.5 220q0 246 149 445q90 121 236 219q0 68 -3 108.5t-8 93.5v33q4 29 5 45q-74 -90 -179 -180q-145 -125 -227 -125q-59 0 -94 49q-6 10 -47 97 q-14 29 -43 104q-25 57 -37 90t-20.5 66.5t-12.5 58.5zM406 -518q0 -74 40.5 -148.5t83.5 -74.5q68 0 107 120q33 100 33 215v383q-94 -55 -168 -170q-96 -150 -96 -325z" />
<glyph unicode="&#xf4;" horiz-adv-x="1247" d="M12 217q0 100 68 234q59 119 145 219q47 53 107.5 88t109.5 35q37 0 57.5 -11.5t47.5 -38.5q8 29 10 107t2 186q0 27 -8 54.5t-16 60.5q0 66 63 66q31 0 49.5 -34t18.5 -71q0 -127 -5.5 -252t-15.5 -201q61 66 99 82.5t96 16.5q82 0 160.5 -71t78.5 -163q0 -145 -94 -321 q-106 -199 -225 -199q-70 0 -116 44t-46 128q0 131 55 131q47 0 47 -45v-67q0 -41 15.5 -61.5t36.5 -20.5q57 0 126.5 139t69.5 250q0 57 -39 94t-86 37q-41 0 -106 -55q-55 -47 -109 -113l-8 -45q-18 -113 -25.5 -227.5t-7.5 -243.5v-76q0 -90 5.5 -180t9.5 -158 q0 -27 26.5 -76t26.5 -75q0 -55 -16.5 -76t-71.5 -21q-43 0 -62.5 54.5t-19.5 140.5q0 43 -5 199.5t-5 201.5q0 84 11 211t11 158q-18 -27 -45 -55q-47 -47 -94 -95q-43 -51 -81 -74.5t-103 -23.5q-61 0 -101.5 65.5t-40.5 147.5zM139 195q0 -74 45 -74q27 0 138 112 q88 90 155 168q4 43 8 64.5t12.5 59.5t14.5 62t10 34q-23 35 -41 49q-25 20 -49 20q-109 0 -209 -223q-84 -186 -84 -272z" />
<glyph unicode="&#xf5;" horiz-adv-x="1067" d="M0 35q0 20 100 112q41 39 162 140q29 23 58.5 50.5t58.5 53.5q-104 98 -209 199q-29 29 -57.5 61.5t-28.5 48.5q0 35 45 35q23 0 109 -71q109 -96 219 -191q18 14 67 59q25 23 181 166q53 51 71 66q39 31 55 31q18 0 36 -15.5t18 -38.5q0 -20 -47 -65q-16 -14 -64 -60 q-39 -35 -117 -112q-63 -63 -112 -109q39 -41 106 -102q94 -86 174 -141q66 -47 101 -58.5t80 -11.5t45 -47q0 -59 -105 -60q-82 0 -277.5 159t-217.5 177l-127 -104q-20 -16 -113 -96q-111 -96 -174 -107q-10 -2 -23.5 8.5t-13.5 22.5z" />
<glyph unicode="&#xf6;" horiz-adv-x="1179" d="M43 578q0 27 2 36q0 37 20.5 61.5t49.5 24.5q25 0 43 -23.5t18 -72.5q0 -96 6 -172t35 -162q49 37 133 123t123 139q43 53 62 70q31 29 59 29q47 0 75.5 -111.5t55.5 -218.5q39 -100 71.5 -133t73.5 -33q49 0 107.5 73t77.5 71q23 0 30 -9q15 -7 15 -77 q0 -102 -41 -275.5t-82 -239.5q-70 -109 -152 -108q-55 0 -55 68q0 29 37 53q53 37 67 51q35 37 70 152q29 90 47 192q-31 -31 -66.5 -46t-82.5 -15q-61 0 -116.5 48t-86.5 126q-16 41 -45 117.5t-37 111.5q-96 -102 -166 -170q-137 -131 -196 -131q-61 0 -85 44t-42 153 q-8 57 -16.5 129.5t-8.5 124.5z" />
<glyph unicode="&#xf7;" horiz-adv-x="1028" d="M-72 430q0 12 11 33q23 37 43 74q31 55 18 75q-12 25 -12 64q0 33 9 52.5t32 19.5q29 0 108 -60q39 -29 70 -29q68 0 121 33q49 37 100 74q39 0 55.5 -26.5t16.5 -59.5q0 -25 -15.5 -88.5t-29 -130t-20.5 -130t-7 -104.5q0 -66 57 -102q41 -27 95 -33q100 0 192 33 q63 23 152 76q41 25 118 78q51 37 64 34q18 0 25.5 -13t7.5 -40q0 -14 -45 -51t-117 -82q-94 -61 -178 -96q-119 -49 -234 -49q-147 0 -211 69q-55 59 -55 176q0 61 23 189q14 80 36 186q-25 -18 -65.5 -33.5t-85.5 -15.5q-68 0 -109 33q-35 -84 -69 -137q-16 -25 -36 -43.5 t-38 -14.5q-27 8 -27 39z" />
<glyph unicode="&#xf8;" horiz-adv-x="1837" d="M47 360v127v61.5t7 90.5t67 68q27 0 44 -22.5t17 -74.5v-80q0 -127 6.5 -213t26.5 -153q29 23 117 149q100 145 200 291q0 37 20.5 61.5t49.5 24.5q25 0 42.5 -24.5t17.5 -73.5q0 -143 4 -245.5t30 -182.5q49 39 152 235q39 78 80 156q55 98 123 98q37 0 69 -92 q98 -272 121 -299q80 -96 109 -115q43 -27 104 -26q143 0 279 69q117 76 233 152q25 0 29 -15t4 -38q0 -49 -162 -152q-197 -125 -412 -125q-61 0 -133.5 34t-140.5 93q-35 37 -84 158q-41 98 -55 154q-76 -143 -158 -261q-125 -178 -188 -178q-61 0 -85 44t-42 153 q-2 8 -2 32.5v41.5v87t2 81q-125 -199 -213 -314q-96 -125 -144 -125q-61 0 -84.5 44t-40.5 153q-6 41 -10 151z" />
<glyph unicode="&#xf9;" horiz-adv-x="1583" d="M47 354v121v57.5t7 89t67 68.5q27 0 44 -23.5t17 -74.5v-76q0 -121 6.5 -203t26.5 -149q29 23 117 149q100 145 200 291q0 37 20.5 61.5t49.5 24.5q25 0 42.5 -24.5t17.5 -73.5q0 -143 4 -245.5t30 -182.5q51 41 128 155.5t104 192.5q18 49 51 73.5t72 24.5q47 0 77 -145 q23 -123 46 -244q23 -82 57.5 -125t87.5 -43q49 0 107.5 73t74.5 73q25 0 33 -11q14 -7 14 -77q0 -98 -36.5 -235.5t-74.5 -198t-77 -87t-78 -26.5q-57 0 -57 67q0 31 37 54q59 37 69 49q35 41 63.5 112.5t45.5 157.5q-31 -27 -69 -44t-81 -17q-61 0 -115.5 48t-87.5 126 q-12 33 -33.5 116.5t-41.5 174.5q-125 -178 -209 -283q-90 -113 -137 -113q-61 0 -85 44t-42 153q-2 8 -2 32.5v41.5v87t2 81q-125 -199 -213 -314q-96 -125 -144 -125q-61 0 -84.5 44t-40.5 153q-6 41 -10 145z" />
<glyph unicode="&#xfa;" horiz-adv-x="847" d="M-164 670q0 53 37 53q18 0 53 -31q18 -16 51 -16q35 0 107 23.5t147 50.5q29 0 48 -17q8 -8 28 -37q6 -12 6 -28q0 -18 -18 -113q-10 -53 -10 -82q23 8 70.5 17.5t66.5 9.5q141 0 213 -82q59 -68 59 -172q0 -115 -71.5 -188.5t-200.5 -73.5q-100 0 -174 67 q-88 80 -88 217q0 66 8 171.5t18 181.5q-45 -20 -102 -38t-119 -18q-59 0 -98 41q-31 33 -31 64zM285 240q4 -43 22 -68q18 -37 48 -51.5t79 -22.5q100 0 131 49q19 31 19 121q0 45 -50.5 84t-111.5 39t-137 -29v-65v-57z" />
<glyph unicode="&#xfb;" horiz-adv-x="1572" d="M31 307q0 66 8 192t18 183q4 20 23.5 36.5t54.5 16.5t40 -18.5t5 -34.5q0 -8 -10 -125t-10 -192q0 -57 6 -89t18 -71q25 -57 84 -84q43 -18 105 -19q96 0 129 45q23 31 22 115q0 23 -40 63t-70 40q-27 -6 -54.5 -12.5t-68.5 -6.5q-31 0 -50.5 25.5t-19.5 60.5 q0 31 19.5 50.5t50.5 19.5t67.5 -12.5t83.5 -34.5q33 14 78 43q125 80 156 96q70 37 135 96q49 45 68 45q27 0 43 -21.5t16 -78.5v-246q0 -82 10 -129t33 -78.5t63.5 -47t85.5 -15.5q145 0 289 59q125 63 252 129q23 0 29 -7t6 -32q0 -29 -100 -98q-233 -162 -500 -162 q-78 0 -144.5 34t-105.5 93q-31 49 -42 155.5t-11 268.5q-33 -29 -135.5 -91t-143.5 -71q49 -8 78 -56t29 -99q0 -109 -68.5 -179.5t-189.5 -70.5q-123 0 -211 55q-131 82 -131 260z" />
<glyph unicode="&#xfc;" horiz-adv-x="763" d="M68 268q0 104 6 227t14 201q0 20 18.5 37t55.5 17q25 0 41 -10.5t16 -43.5q0 -27 -5 -110.5t-5 -112.5q23 10 72 24.5t65 14.5q143 0 219 -80q66 -70 66 -172q0 -115 -79 -195.5t-206 -80.5q-113 0 -182 51q-96 72 -96 233zM193 362q0 -82 5 -129t23.5 -77.5t55 -44 t83.5 -13.5q72 0 110 47t38 123q0 45 -50 84t-112 39q-31 0 -73 -7t-80 -22z" />
<glyph unicode="&#xfd;" horiz-adv-x="837" d="M18 469q0 92 136 197q104 80 239 79q115 0 186.5 -79.5t71.5 -216.5q0 -197 -71 -332q-86 -162 -238 -162q-117 0 -169 29.5t-52 91.5q0 43 35 43q20 0 67 -35t96 -35q72 0 123.5 67.5t63.5 180.5q-63 -8 -123.5 -15.5t-93.5 -7.5h-31q-68 0 -102.5 12.5t-34.5 57.5 q0 35 85 41t136 6q45 0 91 4t89 11q4 14 5 33.5t1 23.5q0 102 -49 139q-37 27 -117 27q-88 0 -165 -62q-70 -70 -140 -139q-39 0 -39 41z" />
<glyph unicode="&#xfe;" horiz-adv-x="1171" d="M-10 354q0 18 2 29q0 25 74 35v153.5t2 133.5q4 37 19 56t63 19q29 0 32.5 -85t3.5 -158l7 -117h253q0 29 9.5 70.5t24 90t57.5 101.5t67 53q51 0 51 -51q0 -25 -18.5 -65.5t-34.5 -77.5q-20 -57 -31.5 -142.5t-11.5 -165.5q0 -47 36 -84.5t93 -37.5q55 0 104.5 81.5 t49.5 167.5v31q0 86 -6.5 135t-28.5 78q-12 14 -62.5 38t-50.5 48q0 37 16.5 63.5t47.5 26.5q55 0 106 -55q41 -45 80 -121q27 -51 33 -102t6 -119q0 -125 -78 -248q-90 -141 -213 -141q-98 0 -167.5 59.5t-78.5 163.5v90h-245q2 -6 2 -20q-2 -25 -2 -39q0 -27 4 -74t4 -63 q0 -41 -6 -62q-12 -37 -43 -37q-39 0 -60 51q-10 25 -28 185q0 39 -4 59q-47 0 -62.5 10.5t-15.5 36.5z" />
<glyph unicode="&#xff;" horiz-adv-x="1482" d="M0 246q0 25 20.5 56.5t51.5 31.5q47 0 66.5 -13.5t19.5 -74.5q0 -141 131 -142q51 0 129 70t112 148q-29 -10 -67.5 -12.5t-50.5 -2.5q-104 0 -158 84q-43 68 -43 156q0 100 71.5 169.5t190.5 69.5q139 0 201 -55q55 -49 55 -149v-33q0 -25 -12 -53q45 125 72.5 193.5 t64.5 68.5q20 0 36.5 -13.5t16.5 -37.5q0 -4 -35 -224q-18 -117 -18 -149q0 -123 41 -168q35 -39 115 -39q152 0 327 94q41 20 146 92q78 53 96 54q37 0 37 -45q0 -14 -74 -76t-141 -103q-227 -139 -391 -139q-133 0 -213 78t-80 186v129q-18 -8 -27.5 -22.5t-27.5 -22.5 q-20 -41 -29 -57q-18 -33 -47 -74q-78 -111 -140 -155q-82 -61 -190 -62q-90 0 -173 85t-83 157zM324 547q0 -57 22.5 -93t81.5 -36h27q59 0 83.5 3t73.5 19q15 59 15 129q0 111 -154 111q-53 0 -101 -46t-48 -87z" />
<glyph unicode="&#x152;" horiz-adv-x="2058" d="M-2 623q0 29 39 45q53 23 147 22q25 88 49 234q35 207 35 366q0 23 20.5 61t41.5 38q41 0 53 -30t12 -87v-62q0 -78 -37 -292q-25 -147 -47 -250q106 -18 142 -23.5t125 -5.5q29 0 118.5 -3t149.5 -5q111 0 174 14q59 406 63 424q66 330 146 330q25 0 44 -19.5t19 -46.5 q0 -33 -69.5 -305t-79.5 -358q84 27 191.5 39t226.5 12q199 0 337 -118t138 -298q0 -190 -297 -305q-221 -86 -406 -86q-51 0 -110 25q-74 31 -74 67q0 49 49 49q20 0 61 -24.5t80 -24.5q137 0 338 88q231 102 232 211q0 139 -123 224t-303 85q-98 0 -187 -18 q-31 -6 -159 -43q-12 -98 -18.5 -228t-6.5 -184q0 -20 2 -43.5t4 -46.5q0 -51 -37 -51q-47 0 -61 123q-6 70 -10 114t-4 61v26q0 41 7 113.5t7 97.5q-55 -14 -127 -19.5t-186 -5.5h-146q-106 0 -175 4t-97 18q0 -20 -20.5 -214.5t-20.5 -249.5q0 -29 -17.5 -52.5 t-46.5 -23.5q-20 0 -30.5 44t-10.5 111q0 74 9.5 233t9.5 165q-29 0 -54.5 5t-39.5 5q-29 0 -49.5 20.5t-20.5 47.5z" />
<glyph unicode="&#x153;" horiz-adv-x="1185" d="M-35 383q0 25 74 35q0 51 6 124.5t6 88.5q0 35 14.5 54.5t61.5 19.5q31 0 34 -44.5t3 -107.5q0 -23 -1 -44.5t-1 -43.5q0 -33 2 -45q35 -10 72.5 -18.5t101.5 -8.5q55 0 100 16.5t90 32.5v71t2 65v49q0 49 10.5 76.5t43.5 27.5q66 0 84 -35q10 -20 10 -80q0 -20 -4 -63 t-4 -74q27 10 67.5 15.5t69.5 5.5q143 0 219 -80q66 -70 66 -172q0 -115 -79 -196t-206 -81q-115 0 -174 56q-86 80 -86 292q-4 0 -115 -30q-45 -12 -76 -13q-59 0 -103 6.5t-89 24.5q2 -8 0 -33.5t0 -33.5q8 -43 14 -66q18 -72 19 -88q0 -37 -14.5 -59.5t-55.5 -22.5 q-53 0 -70.5 64.5t-17.5 156.5v82q-74 0 -74 76zM657 356q0 -96 3.5 -140t21.5 -73.5t55 -43t84 -13.5q72 0 110 47t38 123q0 45 -50.5 84t-111.5 39q-29 0 -72 -5t-78 -18z" />
<glyph unicode="&#x178;" horiz-adv-x="1325" d="M37 416q0 139 6 198q0 39 22.5 63.5t49.5 24.5t41 -19t14 -81q0 -6 -4 -71.5t-4 -108.5v-160q6 -106 76 -106q49 0 135 112q80 102 114 187q23 59 63 110t71 51q49 0 71 -172q16 -125 31 -174q23 -74 61.5 -103.5t120.5 -29.5q129 0 254 70q109 74 219 147q23 0 29 -13 t6 -44q0 -45 -160 -150q-190 -125 -374 -124q-80 0 -138 28q-78 39 -106 123q-18 55 -31.5 113.5t-21.5 107.5q-37 -125 -155 -248.5t-189 -123.5q-74 0 -121 43q-57 51 -74 165q-6 43 -6 185zM342 -336q0 4 61 119q41 76 68 160q10 37 10 67q-2 41 -2 68q0 41 12.5 71.5 t40.5 30.5q29 0 53.5 -25.5t24.5 -76.5q0 -121 -98 -287q-90 -152 -127 -151q-43 0 -43 24z" />
<glyph unicode="&#x2c6;" horiz-adv-x="1216" d="M84 1251q0 29 107.5 93.5t214.5 140.5q137 100 208 166q45 39 62 55q51 47 63 47q27 0 99 -135q45 -86 94 -133q63 -57 116.5 -120.5t53.5 -86.5q0 -16 -19.5 -29.5t-38.5 -13.5q-20 0 -81 49q-51 41 -125 115q-43 43 -78 94q-16 25 -49 78l-234 -172q-123 -92 -203 -142 q-102 -63 -137 -63q-20 0 -36.5 16.5t-16.5 40.5z" />
<glyph unicode="&#x2dc;" horiz-adv-x="1247" d="M229 1595q0 49 56.5 93.5t105.5 44.5q39 0 86 -25q29 -14 59.5 -41t59.5 -51q33 -23 70 -23q33 0 60.5 8.5t70.5 36.5q33 20 63 66q25 35 39 35q59 0 59 -35q0 -39 -22 -72q-29 -41 -86 -78q-109 -68 -182 -67q-55 0 -103 26q-49 35 -73.5 51.5t-49.5 37.5q-37 25 -69 24 q-27 0 -69 -31.5t-48 -31.5q-27 0 -27 32z" />
<glyph unicode="&#x2000;" horiz-adv-x="1016" />
<glyph unicode="&#x2001;" horiz-adv-x="2032" />
<glyph unicode="&#x2002;" horiz-adv-x="1016" />
<glyph unicode="&#x2003;" horiz-adv-x="2032" />
<glyph unicode="&#x2004;" horiz-adv-x="677" />
<glyph unicode="&#x2005;" horiz-adv-x="508" />
<glyph unicode="&#x2006;" horiz-adv-x="338" />
<glyph unicode="&#x2007;" horiz-adv-x="338" />
<glyph unicode="&#x2008;" horiz-adv-x="254" />
<glyph unicode="&#x2009;" horiz-adv-x="406" />
<glyph unicode="&#x200a;" horiz-adv-x="112" />
<glyph unicode="&#x2010;" horiz-adv-x="1837" d="M477 467q0 31 52.5 44t123.5 13h701q70 0 102.5 -14t32.5 -43q0 -33 -42 -39t-73 -6h-430q-102 0 -211.5 -8t-189.5 -15q-41 0 -53.5 10.5t-12.5 57.5z" />
<glyph unicode="&#x2011;" horiz-adv-x="1837" d="M477 467q0 31 52.5 44t123.5 13h701q70 0 102.5 -14t32.5 -43q0 -33 -42 -39t-73 -6h-430q-102 0 -211.5 -8t-189.5 -15q-41 0 -53.5 10.5t-12.5 57.5z" />
<glyph unicode="&#x2012;" horiz-adv-x="1837" d="M477 467q0 31 52.5 44t123.5 13h701q70 0 102.5 -14t32.5 -43q0 -33 -42 -39t-73 -6h-430q-102 0 -211.5 -8t-189.5 -15q-41 0 -53.5 10.5t-12.5 57.5z" />
<glyph unicode="&#x2013;" horiz-adv-x="1761" d="M297 520q0 39 55.5 51.5t151.5 12.5h928q45 0 65.5 -10.5t20.5 -53.5q0 -45 -48 -63q-33 -12 -94 -13q-145 8 -279 13.5t-225 5.5q-100 0 -230 -9.5t-265 -19.5q-41 0 -51 4q-29 12 -29 82z" />
<glyph unicode="&#x2014;" horiz-adv-x="1859" d="M219 600q0 37 58.5 49.5t154.5 12.5h1143q45 0 63.5 -10.5t18.5 -51.5q0 -45 -42 -61.5t-102 -16.5q-195 8 -391 13.5t-329 5.5q-94 0 -227.5 -9.5t-268.5 -17.5q-49 0 -63.5 14.5t-14.5 71.5z" />
<glyph unicode="&#x2018;" horiz-adv-x="722" d="M244 1493q0 92 78.5 295t119.5 203q35 0 35 -39q-37 -104 -65.5 -197.5t-28.5 -155.5q0 -35 43 -88q20 -25 16 -45q-8 -35 -35.5 -62.5t-50.5 -27.5q-35 0 -69 29q-43 35 -43 88z" />
<glyph unicode="&#x2019;" horiz-adv-x="722" d="M252 1311q31 104 59.5 200.5t34.5 161.5q4 31 -28.5 63.5t-28.5 59.5q6 35 33.5 62.5t52.5 27.5q33 0 67 -28q45 -38 45 -89q0 -94 -79.5 -296.5t-118.5 -202.5q-37 0 -37 41z" />
<glyph unicode="&#x201a;" horiz-adv-x="722" d="M240 -332q37 102 65.5 201.5t28.5 171.5q0 23 -32 54.5t-28 58.5q8 35 36 62.5t50 27.5q35 0 74 -32t39 -85q0 -92 -79 -296t-120 -204q-35 0 -34 41z" />
<glyph unicode="&#x201c;" horiz-adv-x="972" d="M219 1534q0 92 79 295t120 203q35 0 35 -41q-37 -102 -66 -195.5t-29 -157.5q0 -35 32 -70.5t28 -60.5q-8 -35 -36 -62.5t-50 -27.5q-35 0 -70 29q-43 35 -43 88zM485 1612q0 51 41 164.5t82 175.5q27 39 49 39q14 0 15 -33q0 -39 -19 -117q-45 -190 -45 -207 q0 -25 24.5 -69.5t24.5 -71.5q0 -29 -23.5 -52.5t-45.5 -23.5q-16 0 -41 23q-61 57 -62 172z" />
<glyph unicode="&#x201d;" horiz-adv-x="972" d="M283 1315q0 39 31.5 168t31.5 159q0 23 -14 52q-35 68 -35 88q0 31 23.5 54.5t46.5 23.5q27 0 59 -43q45 -60 45 -152q0 -51 -41 -163.5t-84 -176.5q-25 -41 -49 -41q-14 0 -14 31zM502 1284q37 102 66.5 204.5t29.5 168.5q0 25 -31.5 54.5t-27.5 57.5q6 35 33.5 63 t52.5 28q33 0 67 -29q45 -37 45 -90q0 -94 -78.5 -296t-119.5 -202q-37 0 -37 41z" />
<glyph unicode="&#x201e;" horiz-adv-x="1071" d="M303 -274q0 39 32 168t32 159q0 25 -25 70t-25 72q0 29 24 52t46 23q29 0 59 -41q46 -59 46 -153q0 -51 -41 -164t-84 -176q-25 -41 -50 -41q-14 0 -14 31zM522 -305q31 104 59.5 202.5t34.5 161.5q4 31 -28.5 64t-28.5 57q6 35 34 62.5t52 27.5q33 0 68 -28 q45 -37 45 -88q0 -94 -79 -296t-120 -202q-16 0 -26.5 12.5t-10.5 26.5z" />
<glyph unicode="&#x2022;" horiz-adv-x="1028" d="M430 500q0 63 35 113.5t94 58.5q78 8 111 -43q26 -43 26 -137q0 -68 -41 -109q-33 -33 -75 -39q-59 0 -104.5 47t-45.5 109z" />
<glyph unicode="&#x2026;" horiz-adv-x="1372" d="M188 137q0 29 28 54.5t73 25.5q86 -10 86 -90q0 -41 -17 -66q-25 -35 -79 -34q-43 0 -67 42t-24 68zM629 131q0 29 28.5 55.5t69.5 22.5q86 0 86 -90q0 -51 -25.5 -75t-68.5 -24t-66.5 42t-23.5 69zM1055 131q0 29 28.5 55.5t69.5 22.5q86 0 86 -90q0 -51 -25.5 -75 t-68.5 -24t-66.5 42t-23.5 69z" />
<glyph unicode="&#x202f;" horiz-adv-x="406" />
<glyph unicode="&#x2039;" horiz-adv-x="1015" d="M76 535q0 31 106 122q98 84 199 168q111 109 221 217q68 59 111 60q37 0 52 -8.5t15 -26.5q0 -37 -225 -242q-147 -131 -293 -262q49 -37 174 -114q63 -41 127 -80q127 -80 256 -160q123 -86 123 -137q0 -45 -27 -45q-35 0 -100 43q-295 195 -522 313q-59 31 -119 63 q-98 57 -98 89z" />
<glyph unicode="&#x203a;" horiz-adv-x="1019" d="M113 45q0 33 317 262q178 129 223 170q-170 156 -174 160q-106 100 -163.5 174t-112.5 150q-90 133 -90 202q0 23 20.5 35t48.5 12q33 0 107 -100q219 -299 225 -305l172 -156q174 -157 174 -198q0 -45 -24.5 -65.5t-92.5 -20.5q-270 -176 -413.5 -268.5t-173.5 -92.5 q-18 0 -30.5 10.5t-12.5 30.5z" />
<glyph unicode="&#x205f;" horiz-adv-x="508" />
<glyph unicode="&#x2122;" horiz-adv-x="1601" d="M80 1376q0 61 153 119q92 35 212 58.5t200 23.5q88 0 138.5 -5t56.5 -54q0 -47 -49 -48q-35 4 -74 7.5t-74 3.5q-53 0 -155.5 -21.5t-186.5 -54.5q-66 -29 -86 -41t-24.5 -30.5t-17.5 -33t-38 -14.5q-29 0 -42 20.5t-13 69.5zM389 727q10 117 17.5 226.5t7.5 166.5 q0 53 -2 142.5t-2 119.5q0 27 19.5 44.5t31.5 17.5q39 0 49 -31t10 -80q0 -23 -2 -132t-2 -175q0 -102 -27.5 -225t-54.5 -123t-33 10t-12 39zM573 700q0 29 25 177q68 403 73 440t8 83t6 71.5t38 25.5q20 2 36.5 -20.5t51.5 -110.5q25 -66 33 -92q27 -76 68.5 -158 t58.5 -108q43 -72 71 -72q20 0 70 94q25 49 45 90q29 66 76 152q39 70 78 141q33 49 41 60q27 33 41 32q39 0 51 -19.5t12 -53.5q-2 -36 -2 -52q0 -104 -6 -257.5t-12 -342.5q0 -76 -2 -90q-8 -53 -33 -53q-41 0 -54.5 112.5t-13.5 258.5l4 245l-106 -198q-61 -117 -84 -148 q-55 -78 -111 -78q-49 0 -106.5 57.5t-104.5 141.5l-65 133q-35 -193 -66 -315q-51 -207 -80 -207t-35 14.5t-6 46.5z" />
<glyph unicode="&#x25fc;" horiz-adv-x="931" d="M0 0v932h932v-932h-932z" />
</font>
</defs>
</svg>
